<svg width="174" height="40" viewBox="0 0 174 40" fill="none" xmlns="http://www.w3.org/2000/svg">
  <path
    fill-rule="evenodd"
    clip-rule="evenodd"
    d="M53 16.3923C44.6761 19.2823 31.9775 22.4954 24.6855 23.9043C24.3014 22.8578 23.9561 21.7099 23.6646 20.4442C23.6646 20.4442 23.3407 22.6073 23.2867 24.1454L22.9509 24.2C22.0904 21.8157 20.1528 14.7486 24.7238 8.37714C27.9833 5.08945 32.5484 3.1596 37.498 3.42409C44.9117 3.81576 51.2058 9.07854 53 16.3923Z"
    fill="#810CF2"
  />
  <path
    fill-rule="evenodd"
    clip-rule="evenodd"
    d="M53 24.2C52.2742 27.4616 50.5897 30.3115 48.2824 32.5068C45.733 34.0983 43.2957 34.6 43.2957 34.6C43.2957 34.6 46.6248 32.905 47.5388 30.7818C47.5388 30.7818 35.6527 37.137 28.2 29.8642C36.5125 28.4526 45.4368 26.4991 53 24.2Z"
    fill="#810CF2"
  />
  <path
    fill-rule="evenodd"
    clip-rule="evenodd"
    d="M62.6005 11.4425C63.8896 11.5051 65.2041 11.634 66.4097 11.8745C66.4097 11.8745 67.9617 12.5514 67.1798 14.4427C65.3587 16.0387 61.6656 17.9944 54.9227 20.3508C31.1031 28.6694 -3.87016 32.7976 5.87293 24.3785C9.60446 21.1561 12.0702 19.7272 13.545 19.098C13.545 19.098 15.3117 18.5009 17.0017 18.3381C16.969 18.6464 16.9416 18.9575 16.924 19.2664C16.924 19.325 16.9183 19.386 16.9183 19.4427C15.6642 20.0114 12.7958 21.4446 12.097 22.991C12.097 22.991 12.4937 21.412 13.76 20.455C13.76 20.455 1.91477 27.9909 19.8138 26.3875C37.7131 24.7842 58.8205 16.0254 58.8205 16.0254C58.8205 16.0254 56.3047 18.4022 54.7042 18.9461C54.7042 18.9461 71.3529 13.9917 55.066 11.7133C55.066 11.7133 58.7314 11.2622 62.6005 11.4425Z"
    fill="#810CF2"
  />
  <path
    fill-rule="evenodd"
    clip-rule="evenodd"
    d="M38.5692 6.61731C39.7041 6.77528 40.6144 7.44093 40.6144 7.44093C40.3422 7.37856 40.0756 7.35132 39.8091 7.35704C41.1624 8.07363 41.9535 9.61574 41.775 11.2104C41.4974 13.163 40.1587 15.7112 37.9569 15.3688C38.3855 15.069 38.7774 14.7576 39.1283 14.4458C38.6889 14.5708 38.2348 14.6076 37.7786 14.5509C35.8068 14.3058 34.3943 12.4153 34.6246 10.3241C34.913 8.30731 36.7284 6.39751 38.5692 6.61731Z"
    fill="#BDBBFB"
  />
  <path
    fill-rule="evenodd"
    clip-rule="evenodd"
    d="M33.2046 16.7338C33.3442 16.8918 33.5481 16.9881 33.7576 16.9992C33.9706 17.0087 34.1761 16.9355 34.3366 16.7922C34.4912 16.6511 34.5891 16.4534 34.5986 16.2409C34.625 15.8004 34.2814 15.422 33.8421 15.4015C33.627 15.3883 33.4196 15.4634 33.2634 15.6047C33.1033 15.7459 33.0106 15.947 33.0011 16.1579C32.9901 16.3707 33.0595 16.5758 33.2046 16.7338Z"
    fill="#BDBBFB"
  />
  <path
    fill-rule="evenodd"
    clip-rule="evenodd"
    d="M37.6576 3.42414C44.995 3.81 51.2242 8.99471 53 16.2C53 16.2 49.8112 8.37528 43.0982 5.38316C43.0982 5.38316 44.6795 6.71518 44.8264 8.46006C44.8264 8.46006 40.6447 2.99346 32.2 4.04384C33.9263 3.54781 35.7611 3.3218 37.6576 3.42414Z"
    fill="#BDBBFB"
  />
  <path
    fill-rule="evenodd"
    clip-rule="evenodd"
    d="M27.1332 7.39999C23.809 10.8545 23.397 16.7649 23.397 16.7649C23.397 16.7649 24.1584 13.4584 26.5044 12.1165C26.5044 12.1165 24.1797 17.1223 27.4 22.5555C26.4331 22.7592 25.5138 22.9458 24.6778 23.1069C24.2951 22.0698 23.951 20.9321 23.6603 19.6777C23.6603 19.6777 23.3378 21.8215 23.284 23.3459L22.9491 23.4C22.309 21.6465 21.0844 17.334 22.3528 12.6468C24.4527 9.00757 27.1332 7.39999 27.1332 7.39999Z"
    fill="#2E0568"
  />
  <path
    fill-rule="evenodd"
    clip-rule="evenodd"
    d="M53 24.2C52.2742 27.4589 50.5897 30.3099 48.2824 32.506C45.733 34.0981 43.2957 34.6 43.2957 34.6C43.2957 34.6 46.6248 32.9044 47.5388 30.7803C47.5388 30.7803 35.6527 37.138 28.2 29.8627C29.4985 29.6418 30.8149 29.4057 32.1411 29.1584C40.4807 33.103 46.6795 27.9858 46.6795 27.9858C46.6795 27.9858 45.0008 28.8148 42.7942 29.0433C42.7942 29.0433 45.6339 27.6364 47.0995 25.856C49.1301 25.3253 51.1067 24.7719 53 24.2Z"
    fill="#2E0568"
  />
  <path
    fill-rule="evenodd"
    clip-rule="evenodd"
    d="M48.2 9C51.4403 12.2773 53 16.2021 53 16.2021C52.2543 16.4669 51.4707 16.7334 50.6587 17C50.863 13.5005 49.192 10.4653 48.2 9Z"
    stroke="black"
    stroke-width="0.5"
  />
  <path
    fill-rule="evenodd"
    clip-rule="evenodd"
    d="M44.5917 5.8C50.2815 9.24449 53 15.6841 53 15.6841C49.3063 16.9198 44.7678 18.2126 40.2 19.4C45.8898 15.9517 44.6311 10.4314 44.6311 10.4314C46.9213 13.5389 45.7927 16.6137 45.7927 16.6137C48.7313 12.6172 45.8839 7.66648 44.5917 5.8Z"
    fill="#5409BE"
  />
  <path
    fill-rule="evenodd"
    clip-rule="evenodd"
    d="M32.7567 6.60001C24.1085 16.0087 32.5676 20.694 32.5676 20.694C32.5676 20.694 31.3343 18.9034 30.9922 18.0879C30.9922 18.0879 33.7526 20.369 37 20.4037C34.9377 20.9152 32.9122 21.3962 31.0094 21.827C28.3477 20.8304 27.0426 18.057 27.0426 18.057C27.4958 20.2998 28.5521 21.5752 29.2761 22.2096C28.6455 22.346 28.0369 22.477 27.4506 22.6C24.1918 17.2186 26.5442 12.2607 26.5442 12.2607C24.1703 13.5896 23.4 16.8645 23.4 16.8645C24.7345 8.87919 32.7567 6.60001 32.7567 6.60001Z"
    fill="#5409BE"
  />
  <path
    fill-rule="evenodd"
    clip-rule="evenodd"
    d="M17.0294 17.8C17.0238 17.8363 17.0179 17.8788 17.0122 17.9169V17.965C17.0025 18.0822 16.9912 18.1975 16.9794 18.3147V18.3856C16.9697 18.5028 16.9641 18.6243 16.9523 18.7412C16.9523 18.8006 16.9466 18.8622 16.9466 18.92C16.2416 19.2446 15.0406 19.8459 13.9972 20.5874C13.9359 20.6315 13.8763 20.6721 13.8225 20.7142C13.7609 20.7548 13.7072 20.7986 13.6513 20.843C13.5978 20.8852 13.544 20.9295 13.4881 20.9698C13.4344 21.018 13.3785 21.0602 13.3306 21.104C13.221 21.1945 13.1234 21.2851 13.0234 21.3751C12.9309 21.4673 12.8387 21.5579 12.7562 21.6536C12.6697 21.7458 12.5871 21.842 12.5159 21.9379C12.4624 22.0092 12.4063 22.0801 12.3624 22.1532C12.3297 22.1995 12.2969 22.2492 12.27 22.2976C12.2431 22.347 12.2162 22.3973 12.1934 22.4454C12.1837 22.4682 12.1721 22.4954 12.1603 22.5163C12.1603 22.5163 12.166 22.4916 12.1778 22.4491C12.199 22.3779 12.2375 22.2648 12.2912 22.1186C12.3237 22.0186 12.374 21.907 12.4275 21.7845C12.5487 21.5117 12.7178 21.1867 12.9481 20.8642C12.9962 20.793 13.0519 20.7218 13.1059 20.6508C13.1328 20.6124 13.1615 20.5796 13.1941 20.5452C13.3134 20.4033 13.444 20.2627 13.5862 20.134C13.6244 20.1012 13.6631 20.0687 13.7015 20.0361C13.7341 20.0055 13.7784 19.9768 13.8112 19.9458C13.8112 19.9458 13.7728 19.973 13.6959 20.0246H13.6903C13.6747 20.038 13.6575 20.0533 13.6362 20.0671C13.6091 20.0859 13.5822 20.1012 13.5478 20.1265C13.5266 20.1434 13.4938 20.1609 13.4728 20.1799C13.4344 20.2052 13.4056 20.2283 13.3634 20.2549C13.3306 20.2799 13.2981 20.3071 13.2599 20.3318C13.221 20.3608 13.1828 20.3877 13.1384 20.4221C13.1 20.4492 13.0616 20.4759 13.0234 20.5068C12.9809 20.5412 12.9309 20.574 12.8831 20.6124C12.8387 20.6452 12.7947 20.6833 12.7447 20.7199C12.6965 20.7548 12.6525 20.7914 12.6081 20.8274C12.5603 20.8661 12.5103 20.9083 12.4565 20.9489C12.4006 20.9948 12.3412 21.0408 12.2813 21.0927C12.2587 21.1064 12.2431 21.1236 12.2259 21.1368C12.2049 21.1561 12.1837 21.1733 12.166 21.1927C12.1337 21.2158 12.1068 21.2405 12.0743 21.2655C12.0512 21.2851 12.0297 21.3061 12.0068 21.3289C11.9743 21.3499 11.9474 21.3751 11.9203 21.4004C11.9031 21.4192 11.8818 21.4345 11.8665 21.452C11.8281 21.4808 11.7956 21.5133 11.7628 21.5461C11.7512 21.5555 11.7397 21.5636 11.734 21.5711C11.6918 21.6095 11.6531 21.6461 11.609 21.6864C11.5975 21.6979 11.5822 21.7114 11.5706 21.7248C11.5322 21.7576 11.4994 21.792 11.4612 21.8245C11.4459 21.8439 11.4287 21.8632 11.4074 21.8823C11.3746 21.9132 11.3419 21.9436 11.3134 21.9764V21.9785C11.3077 21.9842 11.2978 21.9898 11.2921 21.9976C11.1671 22.1282 11.0405 22.2589 10.9252 22.3973C10.9156 22.4048 10.9099 22.4164 10.8984 22.426C10.8656 22.4588 10.8443 22.4954 10.8172 22.5279C10.8002 22.5432 10.7847 22.5623 10.7675 22.5816C10.7408 22.6201 10.7081 22.6585 10.6793 22.6988C10.6693 22.7104 10.6581 22.7238 10.6465 22.7373C10.6199 22.7738 10.5927 22.8122 10.5659 22.8507C10.5543 22.8644 10.5427 22.8794 10.5331 22.8969C10.5102 22.9294 10.489 22.962 10.468 22.9966C10.4506 23.0157 10.4387 23.0351 10.4234 23.0544C10.4062 23.0869 10.3852 23.1194 10.364 23.1522C10.3527 23.1713 10.3409 23.1907 10.3293 23.2135C10.3025 23.2597 10.2756 23.306 10.2546 23.3522H10.2487C10.2374 23.3791 10.2256 23.4038 10.2162 23.4288C10.199 23.4559 10.1893 23.4807 10.1777 23.5075C10.1659 23.5325 10.1546 23.5578 10.1449 23.5825C9.98555 23.9671 9.94335 24.3397 10.074 24.6775C10.0799 24.6987 10.0893 24.724 10.1009 24.7433C10.1124 24.7681 10.1181 24.7893 10.1334 24.8084V24.8103C10.1449 24.8334 10.1546 24.8546 10.1718 24.8775C10.1931 24.9178 10.2256 24.9621 10.2584 25.0024C10.2756 25.0234 10.293 25.0427 10.314 25.0659C10.3293 25.0852 10.3468 25.1043 10.368 25.1255C10.3909 25.1443 10.4118 25.164 10.4352 25.183C10.8059 25.5155 11.44 25.7862 12.4122 25.9649L12.4178 25.967H12.4237C12.4778 25.9746 12.5372 25.9861 12.5987 25.9977C12.7119 26.017 12.8387 26.0321 12.9696 26.0496H12.9753C13.035 26.0571 13.1 26.0649 13.1712 26.0727C13.2363 26.0783 13.3078 26.088 13.3728 26.092H13.3785C13.444 26.1033 13.515 26.1092 13.5919 26.1149C13.6631 26.1205 13.7341 26.1245 13.8112 26.1302C13.8881 26.1358 13.9647 26.1415 14.0394 26.1471C14.1166 26.1533 14.1993 26.1552 14.2819 26.1571C15.2482 26.2049 16.4125 26.1936 17.8 26.1111C5.10114 28.0341 7.01329 23.7922 8.40615 21.8958C8.40615 21.8939 8.40615 21.8939 8.41207 21.8939C8.70773 21.6595 8.99211 21.4405 9.27111 21.233C9.54393 21.0276 9.81057 20.8336 10.0681 20.6524C10.3199 20.474 10.5659 20.3033 10.8002 20.1474C10.9212 20.0687 11.0349 19.9918 11.1502 19.9208C11.2593 19.8496 11.369 19.7787 11.4784 19.7115C11.5822 19.6462 11.6862 19.5825 11.784 19.5252C11.7897 19.519 11.7993 19.5134 11.8112 19.5096C11.9031 19.4521 11.9972 19.3965 12.0896 19.3443C12.0896 19.3425 12.0896 19.3425 12.0953 19.3425V19.3387C12.1778 19.2909 12.2643 19.2446 12.3471 19.1984C12.4506 19.1369 12.5603 19.0793 12.6581 19.0253C12.6793 19.014 12.6965 19.0084 12.7119 18.9984C12.8003 18.9525 12.8831 18.91 12.9635 18.87C12.9962 18.8525 13.0234 18.8369 13.0559 18.824C13.1271 18.7875 13.1941 18.7547 13.2656 18.7219C13.2865 18.7087 13.3134 18.6969 13.3403 18.6875C13.4287 18.6453 13.515 18.6047 13.5978 18.5703C13.5978 18.5703 15.3519 17.965 17.0294 17.8Z"
    fill="#2E0568"
  />
  <path
    fill-rule="evenodd"
    clip-rule="evenodd"
    d="M64.3074 11.4C64.3074 11.4 64.3131 11.4 64.3131 11.4016C64.4717 11.419 64.6328 11.4343 64.7858 11.4535C64.8145 11.4573 64.8416 11.4632 64.8627 11.4648C65.1281 11.4956 65.3796 11.532 65.6334 11.574C65.7168 11.5836 65.7939 11.5989 65.8754 11.6123C65.8811 11.6141 65.8928 11.6141 65.9041 11.6182C65.9762 11.6275 66.0417 11.6409 66.1134 11.6524C66.1291 11.6543 66.1465 11.6605 66.1619 11.6639C66.2453 11.6792 66.3279 11.6928 66.4097 11.7097C66.4097 11.7097 67.9617 12.3931 67.1797 14.3025C67.1762 14.3084 67.1705 14.3143 67.1646 14.318C67.1199 14.3601 67.0714 14.4002 67.0208 14.4406C67.0094 14.45 67.0037 14.4578 66.994 14.4655C66.9323 14.5113 66.8778 14.5611 66.818 14.6069C66.7557 14.6585 66.6902 14.7083 66.6241 14.7602C66.6184 14.7659 66.6087 14.7734 66.597 14.7793C66.5413 14.8232 66.4868 14.8633 66.427 14.9091C66.4154 14.9171 66.404 14.9267 66.3942 14.9361C66.3279 14.9859 66.2567 15.0336 66.1849 15.0852C66.1134 15.135 66.0417 15.1848 65.9705 15.2365C65.9526 15.2461 65.9369 15.2576 65.9198 15.2688C65.86 15.3093 65.7996 15.3492 65.7381 15.3914C65.7168 15.4011 65.6989 15.4145 65.6834 15.4257C65.6063 15.4774 65.5229 15.5293 65.4476 15.5791C65.3642 15.6326 65.2751 15.6843 65.1882 15.7397C65.1706 15.7493 65.1557 15.759 65.1376 15.7686C65.0723 15.8122 65.0003 15.8527 64.9234 15.9006C64.902 15.9137 64.8806 15.9233 64.8627 15.9367C64.7704 15.9903 64.681 16.0419 64.5879 16.0955C64.4988 16.1471 64.4005 16.2009 64.3074 16.2563C64.2803 16.27 64.2573 16.2831 64.2305 16.2968C64.1585 16.3388 64.0807 16.3789 64.0055 16.4228C63.9768 16.4362 63.9491 16.4515 63.9221 16.4689C63.8238 16.5224 63.7193 16.5741 63.6185 16.6314C63.5099 16.6868 63.3995 16.7422 63.2895 16.7997C63.266 16.811 63.2389 16.8246 63.2178 16.8378C63.1287 16.8822 63.0418 16.9258 62.9527 16.9681C62.9199 16.9852 62.8929 16.9986 62.8596 17.016C62.7491 17.0698 62.6335 17.1271 62.5192 17.1847C62.3971 17.2417 62.2769 17.2971 62.155 17.3547C62.1282 17.3721 62.0954 17.3873 62.0624 17.4007C61.9906 17.4371 61.9129 17.4714 61.8301 17.5078C61.6535 17.5918 61.4718 17.6764 61.2861 17.7605C61.2804 17.7642 61.2747 17.7642 61.2682 17.7661C61.0827 17.8501 60.8837 17.9385 60.6858 18.0241C60.6416 18.0455 60.591 18.0646 60.5428 18.0876C60.3397 18.1738 60.1345 18.2634 59.9195 18.3518C59.9195 18.3534 59.9195 18.3534 59.916 18.3574C59.9038 18.3593 59.8924 18.3614 59.8827 18.367C59.6837 18.4511 59.4743 18.5394 59.265 18.6251C59.2052 18.6484 59.1432 18.6711 59.089 18.696C58.8684 18.7844 58.6498 18.874 58.4232 18.9602C58.4175 18.9658 58.4116 18.9677 58.4018 18.9715C58.3904 18.9776 58.3731 18.9832 58.3634 18.987C58.1427 19.0748 57.916 19.1613 57.6862 19.2509C57.6198 19.274 57.5602 19.3007 57.4923 19.3253C57.2559 19.4156 57.0144 19.5074 56.7666 19.5995C56.755 19.5995 56.7493 19.6051 56.7452 19.6088C56.7338 19.6126 56.7217 19.6166 56.7068 19.6182C56.4647 19.7119 56.2113 19.8042 55.9575 19.8958C55.8855 19.9207 55.8143 19.9472 55.7482 19.9723C55.4791 20.0679 55.2024 20.1656 54.9218 20.2671C54.742 20.3321 54.5539 20.3969 54.3722 20.4603C54.3215 20.4753 54.2674 20.4949 54.2175 20.5117C54.0857 20.5578 53.9541 20.6038 53.8222 20.6477C53.7602 20.6686 53.6947 20.6938 53.6286 20.7146C53.5033 20.7567 53.3752 20.799 53.2498 20.8429C53.1835 20.8659 53.1179 20.887 53.0502 20.9119C52.9357 20.9465 52.8255 20.9847 52.7156 21.0227C52.611 21.0573 52.5063 21.0937 52.4015 21.1263C52.3124 21.1531 52.2314 21.1836 52.1423 21.2104C52.0438 21.2428 51.9393 21.2792 51.8347 21.3116C51.757 21.3349 51.6799 21.3595 51.604 21.3844C51.2561 21.4992 50.9152 21.6084 50.5632 21.7193C50.5356 21.727 50.5085 21.7345 50.4757 21.7463C50.1389 21.8534 49.8042 21.9567 49.4614 22.06C49.4132 22.0753 49.3631 22.0887 49.3141 22.1058C48.9895 22.2051 48.6583 22.3047 48.3293 22.4043C48.273 22.4217 48.2131 22.4369 48.1566 22.4543C47.9654 22.5132 47.7777 22.5692 47.5898 22.6224C47.3656 22.6875 47.139 22.7525 46.9205 22.8176C46.7439 22.8692 46.5679 22.9193 46.3954 22.9685C46.181 23.0301 45.9676 23.0914 45.7475 23.1524C45.5593 23.2044 45.3719 23.2558 45.1799 23.3115C44.9769 23.369 44.7716 23.4223 44.5685 23.4798C44.3766 23.5331 44.1832 23.5848 43.9918 23.6367C43.7825 23.6924 43.5772 23.7456 43.3744 23.801C43.1765 23.853 42.9832 23.9065 42.786 23.9584C42.5865 24.0098 42.3885 24.0615 42.1914 24.1129C41.9883 24.1646 41.7947 24.2146 41.5976 24.2663C41.388 24.3198 41.1771 24.3718 40.974 24.4231C40.7826 24.4692 40.5947 24.5187 40.4032 24.565C40.198 24.6164 39.9949 24.6662 39.7856 24.7179C39.5882 24.7655 39.3832 24.8156 39.1858 24.8651C38.9879 24.9111 38.7948 24.9572 38.6029 25.003C38.3941 25.0527 38.1888 25.1004 37.9858 25.148C37.7881 25.1962 37.5888 25.242 37.3911 25.2864C37.194 25.3319 36.9945 25.3777 36.7973 25.4259C36.5937 25.4679 36.3947 25.5137 36.1968 25.5581C35.9996 25.6036 35.8001 25.6478 35.6086 25.6917C35.4034 25.7359 35.2003 25.7779 34.9967 25.8258C34.8036 25.8662 34.6114 25.9099 34.4183 25.9503C34.209 25.9939 34.0003 26.0362 33.7966 26.0804C33.6093 26.1184 33.4235 26.1588 33.2413 26.1968C33.0325 26.2391 32.8232 26.2811 32.6144 26.3251C32.4322 26.3636 32.2389 26.4016 32.0526 26.4399C31.8595 26.4784 31.6621 26.5183 31.4626 26.5569C31.2711 26.5949 31.0716 26.6334 30.8801 26.6714C30.6768 26.7097 30.4772 26.748 30.2741 26.7865C30.0925 26.8205 29.9102 26.8553 29.7342 26.8896C29.5192 26.9298 29.3064 26.968 29.0914 27.0082C28.9195 27.0387 28.7491 27.0714 28.5783 27.1003C28.3638 27.1383 28.1432 27.1766 27.9303 27.2151C27.7692 27.2454 27.6049 27.2743 27.4446 27.3029C27.235 27.3372 27.0322 27.3698 26.8285 27.406C26.6525 27.4351 26.4768 27.4657 26.3003 27.4962C26.1126 27.5288 25.9212 27.5572 25.7333 27.588C25.5573 27.6185 25.375 27.6453 25.199 27.6739C24.9689 27.7103 24.7422 27.7449 24.5159 27.7813C24.3783 27.8005 24.2353 27.8214 24.0978 27.8444C23.7412 27.898 23.3892 27.9494 23.0369 27.9994C22.8046 28.0318 22.5779 28.0642 22.3537 28.0969C22.2259 28.1124 22.1 28.1298 21.9801 28.1488C21.7478 28.179 21.5273 28.2061 21.3026 28.2347C21.1808 28.2518 21.0608 28.2674 20.9446 28.2826C20.7242 28.3113 20.5149 28.3359 20.3002 28.3611C20.1743 28.3763 20.0408 28.3935 19.9152 28.4087C19.7172 28.4317 19.5242 28.4529 19.3265 28.4775C19.1892 28.4912 19.0517 28.5083 18.9141 28.5219C18.6163 28.5543 18.3298 28.5867 18.0433 28.6135C18.0222 28.6156 18.0043 28.6156 17.9829 28.6194C17.681 28.648 17.3834 28.6788 17.085 28.7034C17.0696 28.7056 17.0482 28.7096 17.0309 28.7112C16.905 28.7224 16.7772 28.7342 16.6572 28.7436C16.6242 28.7436 16.5857 28.7476 16.553 28.7492C16.4308 28.7629 16.309 28.7706 16.1888 28.7821C16.162 28.7821 16.1327 28.7856 16.1056 28.788C15.98 28.7993 15.8481 28.8068 15.7203 28.8183C15.7052 28.8183 15.6816 28.8204 15.6662 28.822C15.5387 28.8317 15.4127 28.8394 15.2909 28.8512C15.2638 28.8512 15.2311 28.8528 15.2037 28.8528C15.0819 28.8606 14.9619 28.8702 14.8401 28.8777C14.8187 28.8796 14.7951 28.8796 14.768 28.8833C14.6481 28.8911 14.5262 28.8967 14.4101 28.9045C14.3889 28.9045 14.3676 28.9045 14.35 28.9085C14.2184 28.9122 14.0906 28.9216 13.9646 28.9296C13.8274 28.9352 13.6841 28.9409 13.5466 28.9486C11.4817 29.0386 9.68345 29.0115 8.22966 28.8584C8.1311 28.8512 8.04202 28.8375 7.94914 28.826H7.94319H7.93723C7.84489 28.8145 7.75554 28.8049 7.66835 28.7896H7.66266C7.57358 28.78 7.48666 28.7669 7.40326 28.7492H7.39731H7.39352C7.31066 28.7361 7.22726 28.7246 7.14576 28.7112C7.14007 28.7096 7.14007 28.7096 7.13411 28.7056C7.05099 28.6919 6.96948 28.6788 6.89231 28.6635H6.88663C6.80919 28.6461 6.73147 28.6312 6.6543 28.6135H6.65051C6.5728 28.5948 6.50132 28.5792 6.42983 28.56H6.42388H6.41819C6.34616 28.5409 6.27495 28.5219 6.20888 28.5027H6.2032C6.13767 28.4837 6.06564 28.4604 6.00012 28.4416C4.25038 27.9036 3.68311 26.9624 4.71259 25.5501C4.71882 25.5482 4.71882 25.5445 4.71882 25.5426C4.75537 25.4909 4.79436 25.4393 4.8385 25.3873C4.8385 25.3817 4.84418 25.3777 4.84418 25.3777C4.88913 25.3226 4.93164 25.2669 4.98174 25.2136C1.90061 31.0133 24.407 26.907 24.407 26.907C24.407 26.907 23.5806 26.7445 23.1783 26.4841C23.1783 26.4841 28.9038 26.6773 44.0787 22.079C44.0787 22.079 43.2369 22.7908 42.3444 23.2274C42.3444 23.2274 72.8608 15.881 64.3074 11.4Z"
    fill="#BDBBFB"
  />
  <path
    fill-rule="evenodd"
    clip-rule="evenodd"
    d="M61.4896 11.4038C62.0825 11.9415 63.0787 13.1258 62.3349 14.6C62.5327 13.5268 60.8887 12.4589 55.4 11.7008C55.4 11.7008 58.2172 11.3603 61.4896 11.4038Z"
    fill="#2E0568"
  />
  <path
    fill-rule="evenodd"
    clip-rule="evenodd"
    d="M48.3803 32.0067C45.836 33.6232 43.4035 34.1328 43.4035 34.1328C43.4035 34.1328 46.726 32.4111 47.6381 30.2544C47.6381 30.2544 35.7756 36.7099 28.3377 29.3223C36.6337 27.8885 45.5403 25.9042 53.0884 23.5688C52.3641 26.8818 50.683 29.7767 48.3803 32.0067ZM66.3669 8.21334C65.3023 8.16131 64.4891 8.27825 64.4891 8.27825C64.4891 8.27825 78.7627 11.6717 54.9779 20.0889C31.2004 28.5037 -3.71038 32.6796 6.0151 24.1632C9.74 20.9035 12.2014 19.4581 13.6735 18.8216C10.8065 19.6979 5.20753 21.6264 2.80616 23.91C-1.34171 27.8557 1.37237 32.5552 13.8938 31.3259C14.85 31.2302 19.5585 30.6744 20.1903 30.5897C23.5961 35.7859 29.3037 39.049 35.5402 39.3733C45.6833 39.8982 54.5393 32.6338 55.9225 22.6539C64.9566 19.6075 71.4229 16.0509 71.3999 12.393C71.3732 9.03382 68.405 8.31097 66.3669 8.21334Z"
    fill="white"
  />
  <path
    d="M43.4035 34.1328L43.2425 33.8221L43.4753 34.4754L43.4035 34.1328ZM47.6381 30.2544L47.9605 30.3907L48.3507 29.4682L47.4708 29.947L47.6381 30.2544ZM28.3377 29.3223L28.2781 28.9775L27.6101 29.0929L28.0911 29.5707L28.3377 29.3223ZM53.0884 23.5688L53.4304 23.6436L53.5586 23.057L52.985 23.2344L53.0884 23.5688ZM64.4891 8.27825L64.4393 7.93181L64.4081 8.61876L64.4891 8.27825ZM54.9779 20.0889L54.8612 19.759L54.8611 19.759L54.9779 20.0889ZM6.0151 24.1632L5.78461 23.8998L5.78453 23.8999L6.0151 24.1632ZM13.6735 18.8216L13.8124 19.1429L13.5712 18.4869L13.6735 18.8216ZM2.80616 23.91L2.56497 23.6564L2.56493 23.6564L2.80616 23.91ZM13.8938 31.3259L13.928 31.6743L13.9287 31.6742L13.8938 31.3259ZM20.1903 30.5897L20.4831 30.3978L20.3623 30.2135L20.1438 30.2428L20.1903 30.5897ZM35.5402 39.3733L35.522 39.7228L35.5221 39.7228L35.5402 39.3733ZM55.9225 22.6539L55.8107 22.3223L55.6056 22.3914L55.5758 22.6059L55.9225 22.6539ZM71.3999 12.393L71.7499 12.3908V12.3902L71.3999 12.393ZM48.1926 31.7113C46.948 32.502 45.729 33.023 44.8205 33.3462C44.3667 33.5076 43.9916 33.6193 43.7312 33.6903C43.6011 33.7258 43.4997 33.7511 43.4316 33.7674C43.3975 33.7755 43.3718 33.7814 43.355 33.7852C43.3466 33.787 43.3404 33.7884 43.3365 33.7892C43.3345 33.7897 43.3331 33.79 43.3324 33.7901C43.332 33.7902 43.3317 33.7903 43.3316 33.7903C43.3316 33.7903 43.3315 33.7903 43.3316 33.7903C43.3316 33.7903 43.3316 33.7903 43.3316 33.7903C43.3317 33.7903 43.3317 33.7903 43.4035 34.1328C43.4753 34.4754 43.4753 34.4754 43.4754 34.4754C43.4755 34.4753 43.4756 34.4753 43.4757 34.4753C43.4758 34.4753 43.476 34.4752 43.4763 34.4752C43.4768 34.4751 43.4774 34.4749 43.4782 34.4748C43.4798 34.4744 43.4819 34.474 43.4846 34.4734C43.4901 34.4722 43.4979 34.4705 43.5079 34.4683C43.5279 34.4638 43.557 34.4571 43.5944 34.4482C43.6692 34.4303 43.7778 34.4032 43.9154 34.3656C44.1907 34.2905 44.5827 34.1737 45.0551 34.0057C45.9989 33.67 47.2682 33.1279 48.568 32.3021L48.1926 31.7113ZM43.4035 34.1328C43.5645 34.4436 43.5646 34.4435 43.5647 34.4435C43.5647 34.4435 43.5648 34.4434 43.5649 34.4434C43.5651 34.4433 43.5653 34.4432 43.5656 34.443C43.5662 34.4427 43.567 34.4423 43.5679 34.4418C43.5699 34.4408 43.5726 34.4394 43.5761 34.4375C43.5831 34.4339 43.5931 34.4285 43.6061 34.4216C43.6321 34.4077 43.6697 34.3873 43.7176 34.3608C43.8133 34.3078 43.9501 34.2302 44.1167 34.1304C44.4496 33.931 44.9034 33.642 45.3871 33.2836C46.3407 32.577 47.4657 31.5605 47.9605 30.3907L47.3158 30.1181C46.8983 31.105 45.9061 32.0278 44.9704 32.7212C44.5094 33.0628 44.0756 33.339 43.757 33.5299C43.5979 33.6252 43.4681 33.6989 43.3785 33.7484C43.3337 33.7732 43.2991 33.792 43.2759 33.8043C43.2644 33.8105 43.2557 33.8151 43.25 33.8181C43.2472 33.8196 43.2452 33.8207 43.2439 33.8213C43.2433 33.8217 43.2428 33.8219 43.2426 33.822C43.2425 33.8221 43.2424 33.8221 43.2424 33.8221C43.2424 33.8221 43.2424 33.8221 43.2424 33.8221C43.2424 33.8221 43.2425 33.8221 43.4035 34.1328ZM47.6381 30.2544C47.4708 29.947 47.4709 29.9469 47.4709 29.9469C47.4709 29.947 47.4708 29.947 47.4707 29.947C47.4705 29.9471 47.4701 29.9474 47.4696 29.9477C47.4684 29.9483 47.4666 29.9493 47.464 29.9506C47.4589 29.9534 47.451 29.9576 47.4403 29.9633C47.4189 29.9746 47.3864 29.9916 47.3434 30.0136C47.2574 30.0577 47.1292 30.122 46.9629 30.2016C46.6301 30.3608 46.1448 30.5809 45.5388 30.8225C44.3257 31.3062 42.6339 31.8741 40.716 32.2141C36.8731 32.8952 32.1874 32.6526 28.5844 29.074L28.0911 29.5707C31.9259 33.3796 36.8904 33.603 40.8382 32.9033C42.8157 32.5528 44.5545 31.9686 45.798 31.4727C46.4203 31.2246 46.9199 30.9981 47.2649 30.8331C47.4374 30.7506 47.5714 30.6834 47.6628 30.6365C47.7085 30.6131 47.7435 30.5948 47.7675 30.5821C47.7795 30.5758 47.7886 30.5709 47.795 30.5675C47.7982 30.5658 47.8006 30.5644 47.8024 30.5635C47.8032 30.563 47.8039 30.5626 47.8044 30.5624C47.8047 30.5622 47.8049 30.5621 47.8051 30.562C47.8053 30.5619 47.8054 30.5618 47.6381 30.2544ZM28.3973 29.6672C36.7034 28.2316 45.6254 26.2442 53.1919 23.9032L52.985 23.2344C45.4552 25.5641 36.5641 27.5453 28.2781 28.9775L28.3973 29.6672ZM52.7465 23.4941C52.0374 26.7374 50.3918 29.5715 48.1368 31.7552L48.6238 32.2581C50.9742 29.9819 52.6908 27.0263 53.4304 23.6436L52.7465 23.4941ZM66.384 7.86376C65.8352 7.83693 65.3517 7.85366 65.0052 7.87708C64.8317 7.8888 64.6919 7.90224 64.5947 7.91286C64.5462 7.91817 64.5082 7.92278 64.4819 7.92613C64.4688 7.9278 64.4585 7.92916 64.4514 7.93013C64.4478 7.93061 64.445 7.931 64.443 7.93129C64.442 7.93143 64.4411 7.93154 64.4405 7.93163C64.4402 7.93168 64.4399 7.93171 64.4397 7.93174C64.4396 7.93176 64.4395 7.93177 64.4395 7.93178C64.4394 7.93179 64.4394 7.9318 64.4393 7.9318C64.4393 7.93181 64.4393 7.93181 64.4891 8.27825C64.5389 8.62468 64.5388 8.62469 64.5388 8.6247C64.5388 8.6247 64.5388 8.6247 64.5388 8.6247C64.5387 8.62471 64.5387 8.62471 64.5387 8.62471C64.5387 8.62471 64.5387 8.62471 64.5388 8.6247C64.539 8.62467 64.5393 8.62462 64.5399 8.62454C64.541 8.62439 64.5429 8.62413 64.5455 8.62377C64.5508 8.62305 64.5591 8.62195 64.5703 8.62052C64.5927 8.61768 64.6265 8.61356 64.6708 8.60872C64.7594 8.59904 64.8895 8.58649 65.0524 8.57548C65.3786 8.55344 65.8341 8.53771 66.3498 8.56292L66.384 7.86376ZM64.4891 8.27825C64.4081 8.61876 64.408 8.61873 64.408 8.61872C64.408 8.61874 64.408 8.61874 64.4081 8.61876C64.4084 8.61882 64.4088 8.61892 64.4094 8.61908C64.4107 8.61939 64.4129 8.61991 64.4158 8.62063C64.4217 8.62208 64.4309 8.62436 64.4431 8.62746C64.4675 8.63367 64.5042 8.6432 64.5515 8.6561C64.6462 8.6819 64.7832 8.72111 64.95 8.77407C65.2842 8.88025 65.7341 9.04056 66.2001 9.25734C66.6676 9.47487 67.1406 9.74432 67.5277 10.0653C67.9163 10.3875 68.1974 10.7441 68.3188 11.1318C68.5457 11.8562 68.2671 12.9314 66.2885 14.4123C64.3252 15.8817 60.798 17.658 54.8612 19.759L55.0947 20.4189C61.0502 18.3113 64.6581 16.5069 66.708 14.9727C68.7425 13.45 69.3552 12.0986 68.9868 10.9225C68.8105 10.3599 68.4223 9.89776 67.9745 9.52642C67.525 9.15378 66.9943 8.85479 66.4953 8.62266C65.9948 8.38978 65.5154 8.21921 65.1619 8.10693C64.9848 8.05067 64.8384 8.00875 64.7356 7.98073C64.6842 7.96672 64.6436 7.95616 64.6155 7.94902C64.6014 7.94545 64.5905 7.94272 64.5828 7.94085C64.579 7.93991 64.576 7.93918 64.5739 7.93866C64.5728 7.9384 64.5719 7.9382 64.5713 7.93804C64.571 7.93797 64.5707 7.93789 64.5705 7.93785C64.5702 7.93779 64.57 7.93774 64.4891 8.27825ZM54.8611 19.759C42.9989 23.957 28.3545 27.0985 17.8986 28.127C15.2859 28.384 12.94 28.5085 10.968 28.4854C8.99034 28.4623 7.41042 28.2908 6.31834 27.9672C5.19151 27.6333 4.74563 27.1908 4.69962 26.7427C4.67521 26.5049 4.74913 26.1957 4.99761 25.7992C5.24562 25.4035 5.65203 24.9463 6.24568 24.4265L5.78453 23.8999C5.1625 24.4446 4.70194 24.9528 4.40447 25.4275C4.10748 25.9014 3.95741 26.3674 4.00328 26.8142C4.09782 27.7349 4.96952 28.2976 6.11946 28.6384C7.30414 28.9894 8.96017 29.162 10.9598 29.1854C12.9651 29.2088 15.3378 29.0822 17.9672 28.8236C28.4797 27.7896 43.1794 24.6357 55.0947 20.4189L54.8611 19.759ZM6.2456 24.4266C9.95369 21.1816 12.3844 19.7603 13.8124 19.1429L13.5346 18.5004C12.0183 19.1559 9.52631 20.6254 5.78461 23.8998L6.2456 24.4266ZM13.5712 18.4869C12.1315 18.9269 10.0021 19.6322 7.92801 20.5161C5.86458 21.3954 3.81422 22.4684 2.56497 23.6564L3.04735 24.1636C4.19948 23.068 6.14928 22.0349 8.20243 21.16C10.2449 20.2897 12.3485 19.5926 13.7758 19.1563L13.5712 18.4869ZM2.56493 23.6564C1.4944 24.6748 0.828813 25.7764 0.681109 26.8589C0.530674 27.9614 0.925075 28.9938 1.8681 29.8216C2.798 30.6379 4.25241 31.2506 6.23731 31.5858C8.22692 31.9217 10.7769 31.9836 13.928 31.6743L13.8596 30.9776C10.75 31.2829 8.26518 31.2183 6.35387 30.8955C4.43784 30.572 3.1252 29.9937 2.32989 29.2955C1.5477 28.6089 1.25871 27.8035 1.37468 26.9535C1.49338 26.0836 2.04399 25.1181 3.04739 24.1636L2.56493 23.6564ZM13.9287 31.6742C14.8889 31.578 19.6012 31.0218 20.2369 30.9366L20.1438 30.2428C19.5157 30.327 14.8111 30.8823 13.8589 30.9777L13.9287 31.6742ZM19.8976 30.7815C23.365 36.0717 29.1749 39.3928 35.522 39.7228L35.5584 39.0237C29.4324 38.7052 23.8272 35.5 20.4831 30.3978L19.8976 30.7815ZM35.5221 39.7228C45.8442 40.257 54.8607 32.864 56.2692 22.702L55.5758 22.6059C54.2178 32.4035 45.5223 39.5394 35.5583 39.0237L35.5221 39.7228ZM56.0344 22.9856C60.5614 21.459 64.4668 19.7978 67.2441 18.0489C68.6326 17.1746 69.7544 16.2691 70.5309 15.3347C71.308 14.3996 71.7564 13.4141 71.7499 12.3908L71.0499 12.3952C71.055 13.2009 70.7037 14.0316 69.9925 14.8873C69.2807 15.7439 68.2256 16.6037 66.8711 17.4566C64.1626 19.1621 60.3177 20.8024 55.8107 22.3223L56.0344 22.9856ZM71.7499 12.3902C71.7355 10.5842 70.9188 9.45457 69.8205 8.78165C68.7466 8.12361 67.4257 7.91365 66.3837 7.86374L66.3502 8.56294C67.3463 8.61066 68.5285 8.81094 69.4548 9.37852C70.3569 9.93122 71.0376 10.8426 71.0499 12.3958L71.7499 12.3902Z"
    fill="#101048"
  />
  <path
    fill-rule="evenodd"
    clip-rule="evenodd"
    d="M55.6891 15.3144C55.5531 14.8009 55.3934 14.2932 55.2133 13.7928C56.3317 13.8843 58.4439 14.2116 55.6891 15.3144ZM24.0501 20.1354C24.0501 20.1354 23.7283 22.2351 23.6746 23.7282L23.3405 23.7814C22.4848 21.4668 20.5586 14.6069 25.1035 8.42258C28.3443 5.23104 32.8833 3.35778 37.8045 3.61452C45.1755 3.9947 51.4338 9.10314 53.2178 16.2024C44.9415 19.0077 32.3157 22.1266 25.0654 23.4943C24.6835 22.4783 24.3402 21.3643 24.0501 20.1354ZM17.9611 24.3082C15.4514 24.293 14.901 23.5457 17.5792 21.7235C17.6444 22.5908 17.7765 23.4542 17.9611 24.3082ZM66.6 11.8131C66.6 11.8131 62.6343 8.85199 55.1387 10.0561C55.136 10.0463 55.133 10.0367 55.1304 10.0271C55.1175 10.0303 55.1049 10.0343 55.092 10.0372C55.096 10.0455 55.1003 10.054 55.1038 10.0617C54.6091 10.1415 54.1008 10.2386 53.5769 10.3546C50.2596 4.85857 44.3948 1.35921 37.9406 1.02664C32.8007 0.758199 27.7646 2.5269 23.9414 5.9406C20.1174 9.35429 17.8186 14.1352 17.5465 19.2303C17.5465 19.2891 17.5408 19.3501 17.5408 19.4073C16.2977 19.9777 13.4544 21.4157 12.7616 22.9676C12.7616 22.9676 13.1548 21.3832 14.4098 20.4228C14.4098 20.4228 2.66806 27.9842 20.411 26.3754C38.1537 24.7666 59.077 15.9781 59.077 15.9781C59.077 15.9781 56.5829 18.363 54.9967 18.909C54.9967 18.909 71.4997 13.9375 55.3553 11.6516C55.3553 11.6516 61.8208 10.8471 66.6 11.8131Z"
    fill="white"
  />
  <path
    d="M55.2133 13.7928L55.2418 13.444L54.6998 13.3996L54.884 13.9113L55.2133 13.7928ZM24.0501 20.1354L24.3907 20.055L23.7041 20.0824L24.0501 20.1354ZM23.6746 23.7282L23.7297 24.0738L24.014 24.0286L24.0244 23.7408L23.6746 23.7282ZM23.3405 23.7814L23.0122 23.9028L23.1118 24.1722L23.3955 24.1271L23.3405 23.7814ZM25.1035 8.42258L24.8579 8.1732L24.838 8.19281L24.8215 8.21531L25.1035 8.42258ZM37.8045 3.61452L37.7863 3.96404L37.7865 3.96405L37.8045 3.61452ZM53.2178 16.2024L53.3302 16.5339L53.636 16.4303L53.5573 16.1171L53.2178 16.2024ZM25.0654 23.4943L24.7378 23.6175L24.8413 23.8928L25.1303 23.8383L25.0654 23.4943ZM17.9611 24.3082L17.959 24.6582L18.3955 24.6608L18.3032 24.2342L17.9611 24.3082ZM17.5792 21.7235L17.9282 21.6973L17.8829 21.0936L17.3823 21.4341L17.5792 21.7235ZM66.6 11.8131L66.5306 12.1562L66.8094 11.5327L66.6 11.8131ZM55.1387 10.0561L54.801 10.1482L54.8837 10.4516L55.1942 10.4017L55.1387 10.0561ZM55.1304 10.0271L55.4674 9.93269L55.3758 9.60573L55.0462 9.68741L55.1304 10.0271ZM55.092 10.0372L55.0144 9.69594L54.5837 9.79379L54.7775 10.1908L55.092 10.0372ZM55.1038 10.0617L55.1595 10.4072L55.6112 10.3344L55.4227 9.9175L55.1038 10.0617ZM53.5769 10.3546L53.2773 10.5355L53.4072 10.7507L53.6526 10.6964L53.5769 10.3546ZM37.9406 1.02664L37.9223 1.37617L37.9226 1.37618L37.9406 1.02664ZM23.9414 5.9406L24.1745 6.20169L24.1745 6.20167L23.9414 5.9406ZM17.5465 19.2303L17.197 19.2117L17.1965 19.221V19.2303H17.5465ZM17.5408 19.4073L17.6868 19.7254L17.8908 19.6318V19.4073H17.5408ZM12.7616 22.9676L12.4219 22.8833L13.0812 23.1102L12.7616 22.9676ZM14.4098 20.4228L14.6225 20.7007L14.2203 20.1285L14.4098 20.4228ZM20.411 26.3754L20.4426 26.724H20.4426L20.411 26.3754ZM59.077 15.9781L59.3189 16.2311L58.9415 15.6555L59.077 15.9781ZM54.9967 18.909L54.8828 18.578L55.0977 19.2441L54.9967 18.909ZM55.3553 11.6516L55.312 11.3043L55.3062 11.9982L55.3553 11.6516ZM56.0275 15.2247C55.8887 14.7009 55.7259 14.1836 55.5426 13.6743L54.884 13.9113C55.0609 14.4028 55.2175 14.9008 55.3508 15.404L56.0275 15.2247ZM55.1847 14.1416C55.4582 14.164 55.7857 14.2003 56.08 14.2576C56.3916 14.3183 56.6061 14.392 56.7002 14.4592C56.7431 14.4898 56.7043 14.4788 56.6965 14.4139C56.6884 14.3458 56.7276 14.3318 56.6764 14.3875C56.5636 14.5104 56.248 14.7136 55.5591 14.9894L55.8192 15.6393C56.5077 15.3637 56.961 15.1125 57.192 14.861C57.3127 14.7295 57.4175 14.5483 57.3916 14.3309C57.366 14.1168 57.2259 13.9744 57.1071 13.8896C56.8777 13.7257 56.5266 13.6314 56.2137 13.5705C55.8835 13.5063 55.5275 13.4674 55.2418 13.444L55.1847 14.1416ZM24.0501 20.1354C23.7041 20.0824 23.7041 20.0824 23.7041 20.0825C23.7041 20.0825 23.7041 20.0825 23.7041 20.0826C23.7041 20.0827 23.7041 20.0828 23.7041 20.0829C23.704 20.0832 23.7039 20.0836 23.7039 20.0842C23.7037 20.0853 23.7035 20.0869 23.7031 20.0889C23.7025 20.0931 23.7016 20.0993 23.7004 20.1073C23.6979 20.1234 23.6944 20.147 23.6899 20.1775C23.6809 20.2385 23.668 20.3271 23.6524 20.438C23.6212 20.6598 23.579 20.9711 23.5351 21.3294C23.4476 22.0436 23.3522 22.9537 23.3248 23.7156L24.0244 23.7408C24.0507 23.0096 24.1431 22.1233 24.2299 21.4145C24.2732 21.0612 24.3148 20.7542 24.3456 20.5357C24.3609 20.4264 24.3736 20.3393 24.3824 20.2797C24.3868 20.2499 24.3902 20.2269 24.3926 20.2115C24.3937 20.2038 24.3946 20.198 24.3952 20.1941C24.3955 20.1922 24.3957 20.1907 24.3959 20.1898C24.3959 20.1893 24.396 20.189 24.396 20.1887C24.396 20.1886 24.396 20.1886 24.396 20.1885C24.396 20.1885 24.3961 20.1885 24.3961 20.1885C24.3961 20.1885 24.3961 20.1885 24.0501 20.1354ZM23.6196 23.3826L23.2854 23.4358L23.3955 24.1271L23.7297 24.0738L23.6196 23.3826ZM23.6688 23.6601C22.8233 21.3729 20.95 14.6653 25.3855 8.62985L24.8215 8.21531C20.1672 14.5485 22.1464 21.5607 23.0122 23.9028L23.6688 23.6601ZM25.3491 8.67196C28.5224 5.54685 32.9667 3.7126 37.7863 3.96404L37.8227 3.26499C32.8 3.00295 28.1662 4.91523 24.8579 8.1732L25.3491 8.67196ZM37.7865 3.96405C45.0059 4.33642 51.1323 9.33941 52.8784 16.2877L53.5573 16.1171C51.7353 8.86686 45.3452 3.65299 37.8225 3.26498L37.7865 3.96405ZM53.1055 15.8709C44.8475 18.67 32.2379 21.7851 25.0005 23.1504L25.1303 23.8383C32.3934 22.4681 45.0355 19.3454 53.3302 16.5339L53.1055 15.8709ZM25.393 23.3712C25.0165 22.3694 24.6775 21.2698 24.3907 20.055L23.7095 20.2159C24.0029 21.4589 24.3505 22.5871 24.7378 23.6175L25.393 23.3712ZM17.9633 23.9582C17.3469 23.9545 16.8781 23.9053 16.5597 23.8169C16.2169 23.7218 16.1666 23.6166 16.1618 23.5992C16.1552 23.5758 16.1452 23.4378 16.4195 23.1245C16.6763 22.831 17.1155 22.4623 17.7761 22.0129L17.3823 21.4341C16.7038 21.8958 16.2075 22.3038 15.8927 22.6634C15.5953 23.0032 15.3776 23.3946 15.4876 23.7878C15.5993 24.1869 15.9899 24.3852 16.3725 24.4914C16.7794 24.6044 17.3205 24.6543 17.959 24.6582L17.9633 23.9582ZM17.2302 21.7498C17.2968 22.6349 17.4314 23.5143 17.6191 24.3822L18.3032 24.2342C18.1216 23.3941 17.9921 22.5467 17.9282 21.6973L17.2302 21.7498ZM66.6 11.8131C66.8094 11.5327 66.8092 11.5326 66.809 11.5324C66.8089 11.5324 66.8088 11.5322 66.8086 11.5321C66.8083 11.5319 66.8079 11.5316 66.8074 11.5312C66.8065 11.5306 66.8054 11.5297 66.804 11.5287C66.8013 11.5267 66.7976 11.524 66.7928 11.5206C66.7834 11.5138 66.7701 11.5044 66.7529 11.4925C66.7186 11.4687 66.6687 11.435 66.6033 11.3933C66.4727 11.3098 66.2803 11.194 66.027 11.0599C65.5203 10.7917 64.7699 10.4503 63.7825 10.1484C61.8063 9.54398 58.887 9.09949 55.0832 9.71056L55.1942 10.4017C58.8859 9.80863 61.6973 10.2426 63.5778 10.8178C64.5188 11.1056 65.2283 11.4292 65.6995 11.6786C65.9351 11.8033 66.111 11.9094 66.2265 11.9832C66.2843 12.0201 66.3269 12.0489 66.3543 12.0679C66.368 12.0773 66.3778 12.0844 66.3839 12.0887C66.3869 12.0909 66.389 12.0924 66.3901 12.0932C66.3907 12.0936 66.391 12.0939 66.3911 12.0939C66.3911 12.094 66.3911 12.0939 66.391 12.0939C66.3909 12.0939 66.3908 12.0938 66.3908 12.0938C66.3907 12.0937 66.3906 12.0936 66.6 11.8131ZM55.4764 9.96406C55.4741 9.95578 55.4719 9.94824 55.4705 9.94331C55.4688 9.9375 55.4681 9.93509 55.4674 9.93269L54.7933 10.1216C54.8016 10.1509 54.7966 10.1318 54.801 10.1482L55.4764 9.96406ZM55.0462 9.68741C55.0395 9.68907 55.0335 9.69065 55.0289 9.69191C55.0247 9.69304 55.02 9.69436 55.0179 9.69494C55.0118 9.69663 55.0123 9.69643 55.0144 9.69594L55.1695 10.3785C55.1846 10.3751 55.1978 10.3715 55.2044 10.3696C55.2087 10.3684 55.2103 10.368 55.2126 10.3674C55.2144 10.3669 55.2148 10.3668 55.2146 10.3669L55.0462 9.68741ZM54.7775 10.1908C54.7788 10.1935 54.78 10.1961 54.781 10.1981C54.7821 10.2002 54.7829 10.2018 54.7836 10.2032C54.7851 10.2063 54.7853 10.2067 54.7849 10.2059L55.4227 9.9175C55.4164 9.90353 55.4075 9.88575 55.4065 9.88371L54.7775 10.1908ZM55.048 9.71619C54.5465 9.79711 54.0316 9.8955 53.5013 10.0129L53.6526 10.6964C54.1701 10.5818 54.6718 10.486 55.1595 10.4072L55.048 9.71619ZM53.8766 10.1738C50.4988 4.57744 44.528 1.0156 37.9586 0.677108L37.9226 1.37618C44.2616 1.70281 50.0205 5.1397 53.2773 10.5355L53.8766 10.1738ZM37.9588 0.67712C32.7271 0.40388 27.6006 2.20411 23.7083 5.67952L24.1745 6.20167C27.9286 2.84969 32.8742 1.11252 37.9223 1.37617L37.9588 0.67712ZM23.7083 5.6795C19.815 9.15503 17.4741 14.0231 17.197 19.2117L17.896 19.249C18.1631 14.2473 20.4197 9.55355 24.1745 6.20169L23.7083 5.6795ZM17.1965 19.2303C17.1965 19.2501 17.1955 19.2717 17.1941 19.3028C17.1927 19.3309 17.1908 19.3689 17.1908 19.4073H17.8908C17.8908 19.3884 17.8918 19.3674 17.8933 19.336C17.8946 19.3076 17.8965 19.2694 17.8965 19.2303H17.1965ZM17.3949 19.0892C16.7663 19.3776 15.7268 19.8881 14.7529 20.5267C13.7965 21.1538 12.8333 21.9484 12.442 22.8249L13.0812 23.1102C13.3827 22.4348 14.1875 21.7345 15.1367 21.1121C16.0685 20.5011 17.0723 20.0074 17.6868 19.7254L17.3949 19.0892ZM12.7616 22.9676C13.1013 23.0519 13.1013 23.052 13.1013 23.052C13.1013 23.0521 13.1013 23.0521 13.1013 23.0522C13.1012 23.0523 13.1012 23.0523 13.1012 23.0524C13.1012 23.0525 13.1012 23.0524 13.1012 23.0523C13.1013 23.0521 13.1014 23.0515 13.1017 23.0506C13.1022 23.0486 13.1031 23.0453 13.1043 23.0405C13.1069 23.031 13.1111 23.0159 13.1169 22.9957C13.1287 22.9555 13.1473 22.8952 13.1735 22.8192C13.2261 22.667 13.309 22.4529 13.4289 22.2104C13.6703 21.7221 14.0527 21.1368 14.6225 20.7007L14.1971 20.1448C13.512 20.6692 13.0703 21.3563 12.8014 21.9002C12.6661 22.1739 12.5722 22.4159 12.5119 22.5908C12.4816 22.6783 12.4597 22.7493 12.445 22.7995C12.4377 22.8245 12.4322 22.8444 12.4284 22.8586C12.4265 22.8656 12.425 22.8713 12.4239 22.8754C12.4234 22.8775 12.423 22.8792 12.4226 22.8805C12.4225 22.8811 12.4223 22.8817 12.4222 22.8822C12.4222 22.8824 12.4221 22.8826 12.4221 22.8828C12.422 22.8829 12.422 22.883 12.422 22.883C12.422 22.8831 12.4219 22.8833 12.7616 22.9676ZM14.4098 20.4228C14.2203 20.1285 14.2202 20.1286 14.22 20.1287C14.2199 20.1288 14.2197 20.1289 14.2194 20.1291C14.219 20.1294 14.2183 20.1298 14.2175 20.1303C14.2159 20.1314 14.2135 20.1329 14.2105 20.1349C14.2044 20.1388 14.1957 20.1446 14.1843 20.152C14.1617 20.1669 14.1287 20.1888 14.0868 20.217C14.003 20.2734 13.883 20.3556 13.7371 20.4593C13.4457 20.6665 13.049 20.961 12.6288 21.3098C11.8051 21.9937 10.8298 22.9354 10.4347 23.8656C10.2326 24.3413 10.1616 24.8642 10.4006 25.3528C10.6364 25.8346 11.1332 26.1985 11.8735 26.4548C13.3449 26.9641 16.0045 27.1264 20.4426 26.724L20.3794 26.0268C15.946 26.4288 13.4197 26.2492 12.1025 25.7933C11.4485 25.5669 11.1503 25.2923 11.0294 25.0451C10.9117 24.8047 10.9223 24.5081 11.079 24.1392C11.4014 23.3802 12.2526 22.532 13.076 21.8484C13.4793 21.5135 13.8614 21.2298 14.1427 21.0298C14.2833 20.9299 14.3983 20.8512 14.4778 20.7976C14.5175 20.7709 14.5483 20.7504 14.569 20.7368C14.5794 20.73 14.5872 20.7249 14.5923 20.7216C14.5948 20.72 14.5967 20.7187 14.5979 20.718C14.5985 20.7176 14.5989 20.7173 14.5991 20.7172C14.5992 20.7171 14.5993 20.7171 14.5994 20.717C14.5994 20.717 14.5993 20.717 14.4098 20.4228ZM20.4426 26.724C29.3519 25.9161 39.047 23.3078 46.5048 20.9066C50.2359 19.7053 53.4114 18.5545 55.6546 17.7037C56.7763 17.2783 57.665 16.928 58.2736 16.6837C58.578 16.5616 58.8123 16.4661 58.9708 16.401C59.05 16.3684 59.1102 16.3435 59.1508 16.3266C59.1711 16.3182 59.1864 16.3118 59.1967 16.3075C59.2019 16.3053 59.2058 16.3037 59.2084 16.3026C59.2098 16.302 59.2108 16.3016 59.2115 16.3013C59.2118 16.3012 59.2121 16.301 59.2122 16.301C59.2124 16.3009 59.2126 16.3008 59.077 15.9781C58.9415 15.6555 58.9414 15.6555 58.9413 15.6555C58.9412 15.6556 58.941 15.6557 58.9407 15.6558C58.9401 15.656 58.9392 15.6564 58.938 15.6569C58.9355 15.658 58.9318 15.6595 58.9269 15.6616C58.9169 15.6657 58.902 15.672 58.8821 15.6802C58.8424 15.6967 58.783 15.7213 58.7047 15.7535C58.548 15.8179 58.3154 15.9127 58.013 16.0341C57.4081 16.2768 56.5235 16.6256 55.4064 17.0492C53.172 17.8966 50.0078 19.0434 46.2902 20.2403C38.8507 22.6356 29.2127 25.2259 20.3794 26.0268L20.4426 26.724ZM59.077 15.9781C58.8351 15.7252 58.8352 15.7252 58.8352 15.7252C58.8351 15.7252 58.8351 15.7252 58.8351 15.7252C58.8351 15.7252 58.835 15.7253 58.8349 15.7254C58.8347 15.7256 58.8343 15.726 58.8337 15.7265C58.8327 15.7275 58.831 15.7291 58.8288 15.7313C58.8243 15.7355 58.8175 15.742 58.8084 15.7505C58.7904 15.7675 58.7634 15.7928 58.7285 15.8253C58.6585 15.8904 58.5564 15.9843 58.4287 16.0988C58.1733 16.3281 57.8167 16.6392 57.4116 16.9667C56.5876 17.6329 55.6107 18.3275 54.8828 18.578L55.1106 19.2399C55.9689 18.9445 57.0322 18.1736 57.8517 17.511C58.2685 17.174 58.6345 16.8547 58.8963 16.6198C59.0273 16.5022 59.1324 16.4055 59.2051 16.338C59.2414 16.3043 59.2696 16.2778 59.2888 16.2596C59.2984 16.2506 59.3058 16.2436 59.3109 16.2388C59.3134 16.2364 59.3153 16.2345 59.3167 16.2332C59.3174 16.2326 59.3179 16.2321 59.3182 16.2317C59.3184 16.2316 59.3186 16.2314 59.3187 16.2313C59.3187 16.2313 59.3188 16.2312 59.3188 16.2312C59.3189 16.2311 59.3189 16.2311 59.077 15.9781ZM54.9967 18.909C55.0977 19.2441 55.0978 19.244 55.098 19.244C55.0981 19.2439 55.0984 19.2439 55.0987 19.2438C55.0993 19.2436 55.1001 19.2433 55.1012 19.243C55.1034 19.2424 55.1065 19.2414 55.1106 19.2401C55.1189 19.2376 55.1309 19.2339 55.1467 19.2291C55.1782 19.2194 55.2243 19.205 55.2836 19.1863C55.4022 19.1488 55.5734 19.0937 55.7853 19.0228C56.2089 18.8811 56.7958 18.6761 57.4495 18.4228C58.7482 17.9195 60.3428 17.2134 61.4356 16.4208C61.9767 16.0285 62.4395 15.5837 62.6565 15.0943C62.7683 14.8422 62.8182 14.5705 62.7711 14.2899C62.7241 14.0096 62.5852 13.7498 62.368 13.5132C61.9439 13.0515 61.1933 12.6469 60.083 12.2868C58.9626 11.9235 57.4328 11.5923 55.4043 11.3051L55.3062 11.9982C57.3139 12.2824 58.7999 12.6066 59.8671 12.9527C60.9445 13.3021 61.5532 13.6609 61.8524 13.9867C61.9967 14.1439 62.0603 14.2839 62.0808 14.4057C62.1011 14.5272 62.0835 14.6597 62.0166 14.8106C61.8762 15.127 61.5375 15.4823 61.0247 15.8542C60.0098 16.5902 58.4877 17.2698 57.1966 17.7701C56.5554 18.0186 55.9791 18.2198 55.5633 18.359C55.3554 18.4285 55.1879 18.4824 55.0726 18.5189C55.015 18.5371 54.9704 18.5509 54.9404 18.5602C54.9254 18.5648 54.9141 18.5683 54.9066 18.5705C54.9028 18.5717 54.9 18.5725 54.8982 18.5731C54.8973 18.5734 54.8967 18.5736 54.8962 18.5737C54.896 18.5737 54.8959 18.5738 54.8958 18.5738C54.8957 18.5738 54.8958 18.5738 54.9967 18.909ZM55.3553 11.6516C55.3985 11.999 55.3985 11.999 55.3985 11.999C55.3985 11.999 55.3986 11.9989 55.3986 11.9989C55.3988 11.9989 55.399 11.9989 55.3993 11.9988C55.4 11.9988 55.4011 11.9986 55.4025 11.9985C55.4054 11.9981 55.4099 11.9976 55.4159 11.9968C55.4278 11.9954 55.4458 11.9933 55.4696 11.9905C55.5172 11.9849 55.588 11.9769 55.68 11.9669C55.8641 11.947 56.1331 11.9196 56.4711 11.8897C57.1472 11.8297 58.0985 11.7598 59.1981 11.7199C61.4028 11.6398 64.1815 11.6814 66.5306 12.1562L66.6693 11.4701C64.2392 10.9789 61.3955 10.9396 59.1727 11.0203C58.0586 11.0608 57.0948 11.1316 56.4093 11.1924C56.0664 11.2228 55.793 11.2506 55.6048 11.271C55.5107 11.2811 55.438 11.2894 55.3885 11.2952C55.3638 11.2981 55.3449 11.3003 55.3321 11.3019C55.3256 11.3026 55.3208 11.3032 55.3174 11.3037C55.3157 11.3039 55.3144 11.304 55.3136 11.3041C55.3131 11.3042 55.3128 11.3042 55.3125 11.3043C55.3124 11.3043 55.3123 11.3043 55.3122 11.3043C55.3121 11.3043 55.312 11.3043 55.3553 11.6516Z"
    fill="#101048"
  />
  <path
    fill-rule="evenodd"
    clip-rule="evenodd"
    d="M85.3781 22.1219L91.7805 22.0854C93.9025 21.939 95.5488 20.2561 95.5854 18.2439C95.5854 16.1585 93.8293 14.4756 91.6708 14.3658H83.1464V28.9268H85.3781V22.1219ZM91.4147 16.4146C92.4756 16.4146 93.3171 17.2195 93.3171 18.2073C93.3171 19.1951 92.4756 20 91.3781 19.9634H85.3049V16.4146H91.2317H91.2683H91.4147Z"
    fill="white"
  />
  <path d="M109.854 26.8049V28.8902H97.8171V14.1829H100.049V26.8049H109.854Z" fill="white" />
  <path
    d="M124.854 14.3293V23.622C124.854 24.7195 124.415 25.7805 123.646 26.5854C123.354 26.9146 122.988 27.1707 122.622 27.4268C121.341 28.3415 119.695 28.8902 117.939 28.8902C116.183 28.8902 114.573 28.3415 113.256 27.4268C112.89 27.1707 112.561 26.878 112.232 26.5488C111.427 25.7439 111.024 24.6829 111.024 23.5854V14.3293H113.256V22.378C113.256 24.7561 115.232 26.7317 117.756 26.8049C117.829 26.8049 117.866 26.8049 117.939 26.8049C117.976 26.8049 118.049 26.8049 118.085 26.8049C120.61 26.7317 122.585 24.7561 122.585 22.378V14.3293H124.854Z"
    fill="white"
  />
  <path
    fill-rule="evenodd"
    clip-rule="evenodd"
    d="M127.085 14.3293V16.4146H140.915V14.3293H127.085ZM132.756 17.4756V28.8902H134.988V17.4756H132.756Z"
    fill="white"
  />
  <path
    fill-rule="evenodd"
    clip-rule="evenodd"
    d="M157.049 16.4146V14.3293H143.366V16.4146H157.049ZM157.049 26.8049H145.598V22.122H155.549V20.0366H145.598V17.4756H143.366V28.8902H157.049V26.8049Z"
    fill="white"
  />
  <path
    fill-rule="evenodd"
    clip-rule="evenodd"
    d="M171.134 28.8902H173.915L167.988 21.3537L168.207 21.0976L173.512 14.3293H170.732L166.817 19.3415L166.598 19.5976L166.378 19.3415L162.463 14.3293H159.683L164.988 21.0976L165.207 21.3537L166.598 23.1098L171.134 28.8902ZM165.903 23.9878L164.512 22.2317L159.317 28.8902H162.098L165.903 23.9878Z"
    fill="white"
  />
</svg>
