<svg width="74" height="50" viewBox="0 0 74 50" fill="none" xmlns="http://www.w3.org/2000/svg">
  <path
    d="M1.87672 41.252C4.45621 48.441 66.0604 50.8742 71.2194 43.464C75.9232 36.7175 72.8885 10.2843 68.7917 5.41793C63.3292 -1.21802 9.31171 1.54696 4.91141 6.74511C0.662844 11.5009 -0.854501 33.7313 1.87672 41.252Z"
    fill="url(#paint0_radial)"
  />
  <path
    d="M2.02845 39.9255C4.60794 46.8932 65.7569 47.778 70.9159 40.589C75.6197 34.0637 72.585 10.2849 68.4882 5.63973C63.0257 -0.775016 9.15997 1.76876 4.75966 6.85632C0.814567 11.5015 -0.551037 32.7365 2.02845 39.9255Z"
    fill="url(#paint1_linear)"
  />
  <path
    d="M2.78715 39.2612C5.2149 46.0077 65.15 46.8925 70.309 39.9248C74.8611 33.6206 71.9781 10.5054 68.033 5.97086C62.7223 -0.222686 10.0704 2.2105 5.6701 7.07686C1.57326 11.6114 0.207662 32.2934 2.78715 39.2612Z"
    fill="url(#paint2_linear)"
  />
  <path
    d="M69.0951 40.1461C69.0951 40.1461 40.8725 46.3397 5.97351 40.4779C5.97351 40.4779 28.2785 39.5931 38.4447 36.9388C55.439 32.2936 64.5431 34.948 69.0951 40.1461Z"
    fill="url(#paint3_linear)"
  />
  <path
    d="M67.426 41.3626C67.1226 40.5884 69.8538 37.0492 70.6125 37.0492C71.3711 37.0492 70.7642 39.3718 70.309 39.9248C69.8538 40.4778 67.5778 41.805 67.426 41.3626Z"
    fill="white"
  />
  <path
    d="M5.36662 7.07691C5.36662 7.07691 46.4867 -2.43461 68.033 6.08152C68.033 6.08152 70.309 7.40871 71.2194 12.4963C71.2194 12.4963 69.5504 7.9617 56.6529 8.6253C45.5763 9.17829 28.4303 22.6714 10.3739 18.358C1.42153 16.2566 5.36662 7.07691 5.36662 7.07691Z"
    fill="url(#paint4_linear)"
  />
  <path
    d="M5.36661 11.0585C5.36661 11.0585 3.39406 7.40868 7.18742 6.08149C10.9808 4.7543 23.423 3.53771 24.03 3.86951C24.6369 4.20131 18.7192 5.74969 15.6846 6.52389C12.6499 7.29808 7.03569 11.722 5.36661 11.0585Z"
    fill="white"
  />
  <line
    y1="-1.38073"
    x2="48.7318"
    y2="-1.38073"
    transform="matrix(-0.00104965 0.999999 -1 -0.000854039 36.0992 0.938843)"
    stroke="#6A0EC5"
    stroke-width="2.76147"
  />
  <defs>
    <radialGradient
      id="paint0_radial"
      cx="0"
      cy="0"
      r="1"
      gradientUnits="userSpaceOnUse"
      gradientTransform="translate(38.2173 44.642) scale(28.2326 38.5875)"
    >
      <stop stop-color="#D0CDEA" />
      <stop offset="1" stop-color="#7D75DA" />
    </radialGradient>
    <linearGradient
      id="paint1_linear"
      x1="37.0321"
      y1="45.5852"
      x2="37.0321"
      y2="1.86034"
      gradientUnits="userSpaceOnUse"
    >
      <stop stop-color="#CADCFF" />
      <stop offset="1" stop-color="white" />
    </linearGradient>
    <linearGradient
      id="paint2_linear"
      x1="37.0326"
      y1="44.8114"
      x2="37.0326"
      y2="2.30229"
      gradientUnits="userSpaceOnUse"
    >
      <stop stop-color="#FAFAFD" />
      <stop offset="1" stop-color="#C3BFEE" />
    </linearGradient>
    <linearGradient
      id="paint3_linear"
      x1="69.052"
      y1="38.7621"
      x2="5.91327"
      y2="38.7621"
      gradientUnits="userSpaceOnUse"
    >
      <stop stop-color="#FEF5FB" />
      <stop offset="1" stop-color="#F5F4FC" />
    </linearGradient>
    <linearGradient
      id="paint4_linear"
      x1="4.51615"
      y1="10.9149"
      x2="71.1733"
      y2="10.9149"
      gradientUnits="userSpaceOnUse"
    >
      <stop stop-color="#FEECF6" />
      <stop offset="1" stop-color="#CFC9F0" />
    </linearGradient>
  </defs>
</svg>
