<svg width="484" height="602" viewBox="0 0 484 602" fill="none" xmlns="http://www.w3.org/2000/svg">
  <path
    d="M6.72997 37.1415C-6.5438 54.1602 5.07075 565.71 17.1594 586.922C28.2998 606.654 444.764 607.394 466.571 586.922C488.141 566.45 486.719 36.4015 466.571 17.4095C446.424 -1.3358 39.6774 -5.28219 6.72997 37.1415Z"
    fill="url(#paint0_linear)"
  />
  <path
    d="M7.67809 33.1952C-5.59568 50.214 6.01887 561.764 18.1075 582.976C29.248 602.708 445.713 603.448 467.519 582.976C489.089 562.504 487.667 32.4552 467.519 13.4632C447.372 -5.28209 40.6255 -9.22848 7.67809 33.1952Z"
    fill="url(#paint1_linear)"
  />
  <path
    d="M11.3972 37.4772C-1.63705 54.4524 4.99857 555.469 21.5876 584.677C32.726 604.148 438.447 611.138 463.331 584.677C491.295 554.97 483.001 36.7283 463.331 18.0057C443.661 -0.716891 43.6274 -4.46142 11.3972 37.4772Z"
    fill="url(#paint2_radial)"
  />
  <path
    opacity="0.5"
    d="M17.8705 33.7244C17.8705 33.7244 -8.43999 65.8755 68.5953 74.38C145.868 82.8845 225.273 34.7615 292.59 25.0125C359.907 15.2634 417.032 12.7743 417.032 12.7743C417.032 12.7743 101.543 -10.2501 17.8705 33.7244Z"
    fill="white"
    fill-opacity="0.7"
  />
  <path
    d="M16.2113 44.5105C16.2113 44.5105 14.078 37.8729 20.9519 32.2723C27.8258 26.6718 65.2768 15.6782 68.5953 18.3748C71.9137 21.0713 31.3813 46.3773 16.2113 44.5105Z"
    fill="white"
  />
  <path
    d="M19.0551 50.9408C15.7367 49.2813 9.81088 57.1636 16.9218 60.275C23.7958 63.5938 23.0847 53.2224 19.0551 50.9408Z"
    fill="white"
  />
  <defs>
    <linearGradient
      id="paint0_linear"
      x1="0.894015"
      y1="303.049"
      x2="482.207"
      y2="303.049"
      gradientUnits="userSpaceOnUse"
    >
      <stop stop-color="#6D00C2" />
      <stop offset="1" stop-color="#6D00C2" />
    </linearGradient>
    <linearGradient
      id="paint1_linear"
      x1="242.553"
      y1="598.038"
      x2="242.553"
      y2="-0.0543649"
      gradientUnits="userSpaceOnUse"
    >
      <stop stop-color="#4C0891" />
      <stop offset="1" stop-color="#590AA7" />
    </linearGradient>
    <radialGradient
      id="paint2_radial"
      cx="0"
      cy="0"
      r="1"
      gradientUnits="userSpaceOnUse"
      gradientTransform="translate(242.952 303.43) scale(262.067 276.054)"
    >
      <stop stop-color="#3D0387" />
      <stop offset="1" stop-color="#801EDE" />
    </radialGradient>
  </defs>
</svg>
