<svg width="88" height="78" viewBox="0 0 88 78" fill="none" xmlns="http://www.w3.org/2000/svg">
  <g filter="url(#filter0_d)">
    <path
      fill-rule="evenodd"
      clip-rule="evenodd"
      d="M67.2 26.5968V15.96C67.2 15.4298 66.7672 15 66.2333 15H21.7667C18.0313 15.0042 15.0042 18.0104 15 21.72V56.28C15.0042 59.9896 18.0313 62.9958 21.7667 63H66.2333C66.7672 63 67.2 62.5702 67.2 62.04V51.48H66.2333C69.9687 51.4758 72.9958 48.4696 73 44.76V33.24C72.9936 29.9034 70.525 27.076 67.2 26.5968ZM21.7667 16.9201H65.2667V26.5201L21.7667 26.5815V26.5201C19.0974 26.5201 16.9333 24.371 16.9333 21.7201C16.9333 19.0691 19.0974 16.9201 21.7667 16.9201ZM21.7667 61.08H65.2667V51.48H51.7333C47.9962 51.48 44.9667 48.4714 44.9667 44.76C44.9667 41.0487 47.9962 38.04 51.7333 38.04H65.2667V28.44L21.7667 28.5015V28.44C19.9461 28.4405 18.2028 27.7095 16.9333 26.4135V56.28C16.9365 58.9296 19.0987 61.0769 21.7667 61.08ZM71.0667 44.7601C71.0635 47.4097 68.9014 49.5569 66.2334 49.5601H51.7334C49.064 49.5601 46.9 47.411 46.9 44.7601C46.9 42.1091 49.064 39.9601 51.7334 39.9601H67.2V39.8833C68.6698 39.6737 70.0291 38.9884 71.0667 37.9335V44.7601ZM67.2 37.944C69.1021 37.5604 70.5887 36.0841 70.9748 34.1952C71.506 31.5972 69.8161 29.0635 67.2 28.536V37.944Z"
      fill="#9747EE"
    />
    <path
      fill-rule="evenodd"
      clip-rule="evenodd"
      d="M48.8333 44.76C48.8333 43.1694 50.1317 41.88 51.7333 41.88C53.335 41.88 54.6333 43.1694 54.6333 44.76C54.6333 46.3506 53.335 47.64 51.7333 47.64C50.1317 47.64 48.8333 46.3506 48.8333 44.76ZM50.7667 44.76C50.7667 45.2902 51.1995 45.72 51.7333 45.72C52.2672 45.72 52.7 45.2902 52.7 44.76C52.7 44.2299 52.2672 43.8 51.7333 43.8C51.1995 43.8 50.7667 44.2299 50.7667 44.76Z"
      fill="#9747EE"
    />
    <rect x="20.8" y="22.6801" width="42.5333" height="1.92" fill="#9747EE" />
    <rect x="59.4667" y="30.36" width="2.9" height="1.92" fill="#9747EE" />
    <rect x="54.6334" y="30.36" width="2.9" height="1.92" fill="#9747EE" />
    <rect x="49.8" y="30.36" width="2.9" height="1.92" fill="#9747EE" />
    <rect x="44.9667" y="30.36" width="2.9" height="1.92" fill="#9747EE" />
    <rect x="40.1334" y="30.36" width="2.9" height="1.92" fill="#9747EE" />
    <rect x="35.3" y="30.36" width="2.9" height="1.92" fill="#9747EE" />
    <rect x="30.4667" y="30.36" width="2.9" height="1.92" fill="#9747EE" />
    <rect x="25.6334" y="30.36" width="2.9" height="1.92" fill="#9747EE" />
    <rect x="20.8" y="30.36" width="2.9" height="1.92" fill="#9747EE" />
    <rect x="59.4667" y="57.24" width="2.9" height="1.92" fill="#9747EE" />
    <rect x="54.6334" y="57.24" width="2.9" height="1.92" fill="#9747EE" />
    <rect x="49.8" y="57.24" width="2.9" height="1.92" fill="#9747EE" />
    <rect x="44.9667" y="57.24" width="2.9" height="1.92" fill="#9747EE" />
    <rect x="40.1334" y="57.24" width="2.9" height="1.92" fill="#9747EE" />
    <rect x="35.3" y="57.24" width="2.9" height="1.92" fill="#9747EE" />
    <rect x="30.4667" y="57.24" width="2.9" height="1.92" fill="#9747EE" />
    <rect x="25.6334" y="57.24" width="2.9" height="1.92" fill="#9747EE" />
    <rect x="20.8" y="57.24" width="2.9" height="1.92" fill="#9747EE" />
    <rect x="20.8" y="18.84" width="42.5333" height="1.92" fill="#9747EE" />
    <path
      fill-rule="evenodd"
      clip-rule="evenodd"
      d="M37.0758 45.7542C36.9474 45.3858 36.7444 45.0474 36.4793 44.76C37.551 43.598 37.4712 41.7932 36.3011 40.729C36.0116 40.4657 35.671 40.2641 35.3 40.1366V39H33.3667V39.96H31.4333V39H29.5V39.96H28.5333V41.88H29.5V47.64H28.5333V49.56H29.5V50.52H31.4333V49.56H33.3667V50.52H35.3V49.3834C36.7994 48.8682 37.5945 47.2434 37.0758 45.7542ZM34.3333 47.64H31.4333V45.72H34.3333C34.8672 45.72 35.3 46.1498 35.3 46.68C35.3 47.2102 34.8672 47.64 34.3333 47.64ZM31.4333 43.8H34.3333C34.8672 43.8 35.3 43.3701 35.3 42.84C35.3 42.3098 34.8672 41.88 34.3333 41.88H31.4333V43.8Z"
      fill="#9747EE"
    />
    <path
      fill-rule="evenodd"
      clip-rule="evenodd"
      d="M21.7667 44.76C21.7667 38.9278 26.5274 34.2 32.4 34.2C38.2697 34.2068 43.0264 38.9307 43.0333 44.76C43.0333 50.5921 38.2726 55.32 32.4 55.32C26.5274 55.32 21.7667 50.5921 21.7667 44.76ZM23.7 44.76C23.7 49.5317 27.5951 53.4 32.4 53.4C37.2027 53.3947 41.0947 49.5295 41.1 44.76C41.1 39.9882 37.2049 36.12 32.4 36.12C27.5951 36.12 23.7 39.9882 23.7 44.76Z"
      fill="#9747EE"
    />
  </g>
  <defs>
    <filter
      id="filter0_d"
      x="0"
      y="0"
      width="88"
      height="78"
      filterUnits="userSpaceOnUse"
      color-interpolation-filters="sRGB"
    >
      <feFlood flood-opacity="0" result="BackgroundImageFix" />
      <feColorMatrix in="SourceAlpha" type="matrix" values="0 0 0 0 0 0 0 0 0 0 0 0 0 0 0 0 0 0 127 0" />
      <feOffset />
      <feGaussianBlur stdDeviation="7.5" />
      <feColorMatrix type="matrix" values="0 0 0 0 0.592157 0 0 0 0 0.278431 0 0 0 0 0.933333 0 0 0 0.8 0" />
      <feBlend mode="normal" in2="BackgroundImageFix" result="effect1_dropShadow" />
      <feBlend mode="normal" in="SourceGraphic" in2="effect1_dropShadow" result="shape" />
    </filter>
  </defs>
</svg>
