<svg width="309" height="340" viewBox="0 0 309 340" fill="none" xmlns="http://www.w3.org/2000/svg">
  <circle cx="149" cy="160" r="160" fill="url(#paint0_radial)" />
  <ellipse cx="130.31" cy="324.552" rx="78.6207" ry="15.4483" fill="#0D0D16" fill-opacity="0.27482" />
  <path
    d="M112.385 225.803C112.385 225.803 110.81 272.491 158.596 289.802C187.477 298.72 211.107 284.556 220.034 267.245L216.884 268.819C216.884 268.819 228.436 253.606 224.761 233.672C224.761 233.672 220.56 239.442 218.459 241.016C218.984 236.295 218.984 236.295 218.984 236.295C218.984 236.295 206.907 247.835 202.18 248.36L203.231 245.212C203.231 245.212 176.975 268.819 157.545 239.967C138.116 211.114 137.591 216.885 137.591 216.885L112.385 225.803Z"
    fill="url(#paint1_linear)"
  />
  <path
    d="M114.586 227.308C114.586 227.308 123.723 269.208 146.876 281.776C170.029 294.344 190.361 288.054 202.99 279.675C204.568 278.104 205.621 274.438 205.621 274.438L198.254 274.962L203.516 268.678H199.306C199.306 268.678 203.516 265.012 205.621 262.394C205.621 262.394 198.78 264.489 195.623 263.441C195.623 263.441 201.937 257.157 201.937 256.634C201.937 256.11 194.57 258.728 193.518 258.205C192.465 257.681 197.201 254.539 197.201 254.539C197.201 254.539 173.132 264.227 158.398 247.47C143.664 230.712 143.276 225.089 143.276 225.089L114.586 227.308Z"
    fill="#B65020"
  />
  <path
    fill-rule="evenodd"
    clip-rule="evenodd"
    d="M133 274.334C133 274.334 140.877 304.347 143.276 306.746C145.675 309.145 144.539 310.319 145.018 312.718C145.498 315.117 144.539 320.874 146.938 323.753C149.337 326.632 150.776 329.031 151.256 330.95C151.736 332.869 154.614 338.723 166.129 339.106C180.523 339.586 197.796 336.707 201.155 330.95C202.45 328.695 201.155 321.834 200.195 320.874C199.235 319.915 199.331 314.205 197.316 309.839C194.437 303.601 187.952 302.499 185.964 301.538C183.977 300.577 181.89 294.228 179.903 293.268C163.17 285.176 133 274.334 133 274.334Z"
    fill="#080625"
  />
  <path
    d="M109.239 224.602C109.239 224.602 107.593 272.612 156.82 290.431C186.516 299.624 210.874 285.04 220.073 267.221L216.836 268.866C216.836 268.866 228.703 253.204 224.956 232.717C224.956 232.717 220.64 238.676 218.483 240.265C219.051 235.385 219.051 235.385 219.051 235.385C219.051 235.385 206.616 247.245 201.733 247.812L202.812 244.578C202.812 244.578 175.785 268.866 155.798 239.187C135.755 209.45 135.187 215.409 135.187 215.409L109.239 224.602Z"
    fill="url(#paint2_linear)"
  />
  <path
    d="M111.51 226.134C111.51 226.134 120.936 269.207 144.726 282.146C168.517 295.084 189.469 288.615 202.471 279.989C204.118 278.4 205.196 274.598 205.196 274.598L197.588 275.109L202.982 268.639H198.667C198.667 268.639 202.982 264.894 205.14 262.17C205.14 262.17 198.099 264.326 194.863 263.248C194.863 263.248 201.335 256.779 201.335 256.268C201.335 255.757 193.727 258.425 192.648 257.857C191.569 257.346 196.452 254.112 196.452 254.112C196.452 254.112 171.697 264.099 156.537 246.848C141.376 229.596 140.979 223.808 140.979 223.808L111.51 226.134Z"
    fill="#B65020"
  />
  <path
    d="M143.579 222.852L98.3342 235.278C98.5741 235.278 98.718 235.23 98.718 235.23C93.4402 242.907 90.5615 257.781 90.5615 258.741C90.5615 258.741 89.6019 264.018 89.0741 270.496L109.034 275.293C109.034 275.293 113.592 263.538 115.031 260.18C116.47 256.821 119.349 252.023 119.349 252.023H121.748L137.821 276.253L157.013 265.698C157.013 249.384 145.498 237.39 145.498 237.39C145.498 232.112 143.579 224.435 143.579 224.435"
    fill="#560A0D"
  />
  <path
    d="M153.463 265.458C153.463 265.794 153.415 266.081 153.415 266.417L139.501 272.175L139.069 271.599L124.627 252.023H116.471C116.471 252.023 114.072 256.821 112.632 260.18C111.625 262.483 109.274 266.657 107.93 268.96C107.306 270.016 106.635 274.334 106.635 274.334L91.4731 270.496C91.5691 269.152 91.713 267.809 91.857 266.609C92.0009 265.266 92.1928 264.018 92.3368 262.915C92.6726 260.372 93.0085 258.741 93.0085 258.741C93.0085 257.781 95.8873 242.907 101.165 235.23L140.7 224.435C140.7 224.435 140.844 224.915 141.036 225.731C141.708 228.417 143.099 234.751 143.099 238.829C143.099 238.829 153.943 249.672 153.463 265.458Z"
    fill="#9B0408"
  />
  <path
    d="M155.862 266.657H153.895C153.895 260.9 150.296 252.743 146.218 246.266C142.907 240.988 138.061 237.629 138.061 237.629C139.501 238.109 140.7 237.39 140.7 237.39C139.741 234.031 135.902 231.152 135.902 231.152L141.036 225.731C141.708 228.417 143.099 234.751 143.099 238.829C143.099 238.829 155.094 249.384 155.862 266.657Z"
    fill="#7E0207"
  />
  <path
    d="M141.66 271.935L139.741 274.334L137.821 272.415L124.627 252.023H116.47C116.47 252.023 114.072 256.821 112.632 260.18C111.625 262.483 109.945 267.665 108.554 270.016L107.114 273.854C107.114 273.854 93.6802 270.496 92.7206 269.536C92.4807 269.344 92.0489 269.584 91.8569 269.008C92.0009 267.665 98.2382 266.417 98.718 266.417C101.117 265.937 104.955 259.7 106.395 255.862C107.834 252.023 108.314 252.023 106.875 248.185C105.435 244.347 105.915 242.427 105.435 240.508C104.955 238.589 101.117 236.67 101.117 236.67L101.645 236.094L105.003 238.205L110.905 240.172C110.905 240.172 112.152 241.948 112.008 241.804C113.736 245.546 115.559 245.738 119.397 245.738C123.236 245.738 125.827 240.748 125.827 240.748C124.195 248.425 127.458 253.079 130.624 258.021C133.983 263.299 141.66 271.935 141.66 271.935Z"
    fill="#7E0207"
  />
  <path
    d="M108.794 244.97C108.746 244.826 108.938 244.73 109.034 244.826C110.089 246.266 112.872 249.384 117.67 249.384H122.804C123.188 249.384 123.523 249.576 123.715 249.912L125.826 253.703L123.907 254.662L121.748 252.023C121.748 252.023 116.47 252.503 114.551 252.023C112.728 251.592 110.089 249.432 108.794 244.97Z"
    fill="#560A0D"
  />
  <path
    fill-rule="evenodd"
    clip-rule="evenodd"
    d="M264.44 52.1401C265.543 53.4355 265.591 55.3067 264.68 56.7461L248.558 81.4077C248.462 81.5516 248.414 81.7435 248.51 81.8875C250.19 85.438 268.374 126.221 254.172 156.016C239.298 187.203 223.465 197.279 200.435 186.723C182.538 178.518 177.692 176.12 176.397 175.448C176.157 175.304 175.869 175.4 175.725 175.64C174.334 178.375 166.273 193.008 151.64 199.102C151.544 199.15 151.448 199.198 151.4 199.294C150.776 200.301 146.602 207.21 145.738 211.624C145.453 213.051 145.085 214.478 144.734 215.841C144.081 218.374 143.485 220.687 143.579 222.372C143.579 222.564 143.435 222.804 143.195 222.852L98.3821 235.134H98.2861C96.9427 235.182 92.6245 235.326 88.6422 234.127C87.6679 233.835 86.3177 233.483 84.7242 233.068C78.4703 231.439 68.4687 228.834 62.7332 225.011C54.7686 219.733 46.4201 212.584 42.5818 202.508V202.46C42.3951 201.816 42.2448 201.28 42.1166 200.822C41.5859 198.927 41.4355 198.39 40.6626 197.231C39.703 195.791 37.304 191.473 48.3393 176.599C58.3847 163.072 69.5933 156.689 73.3445 154.553C73.6246 154.394 73.8631 154.258 74.0564 154.145C74.2004 154.097 74.2483 154.001 74.2963 153.857C74.7761 152.274 78.4705 140.902 83.8443 138.216C89.4579 135.385 93.7281 134.425 97.0387 134.377C97.1826 134.377 97.3265 134.329 97.4225 134.233C98.3341 133.178 103.276 127.612 105.435 127.18C106.774 126.907 109.731 129.605 112.507 132.139C114.606 134.055 116.602 135.877 117.718 136.248C117.814 136.248 117.958 136.248 118.054 136.2C120.117 135.193 140.892 125.069 148.617 121.902C156.773 118.544 160.612 117.105 164.45 119.024C167.761 120.703 171.455 124.493 172.367 125.501C172.511 125.645 172.703 125.693 172.894 125.645C174.766 124.973 184.649 121.663 193.238 126.461C193.526 126.604 193.814 126.509 193.958 126.269L196.5 121.183C196.548 121.039 196.548 120.895 196.5 120.751C192.326 110.915 197.7 104.198 198.803 102.951C198.899 102.807 198.947 102.615 198.899 102.471C198.18 100.12 193.238 82.6072 199.955 75.89C206.48 69.4128 223.081 70.7082 226.296 71.0441C226.584 71.092 226.824 70.8521 226.824 70.5643V54.8269C226.824 51.4684 228.263 44.2714 245.536 44.2714C256.283 44.2714 261.945 49.0694 264.44 52.1401ZM89.6978 195.935C90.0336 196.031 90.3215 195.791 90.3215 195.455V194.496C90.3215 194.352 90.2256 194.208 90.1296 194.112L90.0561 194.044C89.3513 193.394 87.3086 191.512 86.2912 189.986C86.0993 189.698 85.7634 189.65 85.5235 189.89L82.7887 192.624C82.6927 192.72 82.6448 192.816 82.6448 192.96C82.6358 193.077 82.6268 193.244 82.6156 193.452C82.5671 194.356 82.477 196.033 82.165 197.71C82.069 198.286 82.7887 198.574 83.0766 198.094C83.1246 198.094 83.1246 198.046 83.1246 198.046C83.2149 197.911 83.301 197.779 83.384 197.653C84.183 196.435 84.6994 195.647 86.0033 195.647C87.2508 195.647 88.4503 195.647 89.6978 195.935Z"
    fill="#560A0D"
  />
  <path
    d="M244.816 84.3344C244.816 84.3344 260.793 118.496 250.094 149.107C248.702 153.041 247.215 156.688 245.632 159.998C244.096 163.261 242.417 166.188 240.69 168.827C231.334 182.885 219.435 187.731 205.473 183.173C192.998 179.142 178.22 172.761 175.246 170.218C172.847 168.155 172.367 171.657 172.367 171.657C172.367 171.657 165.65 188.45 149.337 198.046C145.018 199.965 142.619 202.844 142.14 203.804C141.66 204.763 146.506 201.693 146.506 202.508C146.506 202.844 142.619 211.481 140.796 221.172L113.352 236.43L98.4781 231.152L99.9175 223.955C99.9175 223.955 97.9983 215.319 96.0792 209.082C94.16 202.844 93.6802 187.011 93.6802 187.011C92.2408 187.491 91.2812 190.369 91.2812 190.369C91.2812 190.369 90.3216 188.93 88.4024 183.652C86.4832 178.375 90.8014 175.976 90.8014 175.976C89.362 175.496 86.4832 177.415 86.4832 177.415C83.1247 175.496 82.6449 172.617 83.1247 165.9C83.6045 159.183 91.761 148.147 91.761 148.147L90.3216 148.627C90.3216 148.627 84.0842 154.385 80.7257 165.9C80.4378 166.907 80.1979 167.819 80.1019 168.683C78.5666 177.655 84.564 178.902 84.0842 179.814C83.6044 180.774 84.0842 184.612 84.0842 184.612L82.1651 187.011C78.8065 176.455 69.6904 175.976 69.6904 175.976C69.9303 176.12 70.1701 176.311 70.41 176.455C78.1827 181.877 78.3747 188.882 78.3267 190.513C78.3267 190.561 78.3267 190.561 78.3267 190.609C78.3267 190.753 78.3267 190.849 78.3267 190.849C78.3267 190.849 77.7989 190.657 76.8393 190.417C76.8393 190.417 76.8393 190.417 76.7913 190.417C76.7434 190.417 76.6474 190.369 76.5994 190.369C76.2636 190.274 75.9277 190.226 75.5439 190.13C71.8974 189.458 65.1803 189.026 58.655 193.248C56.6399 194.544 55.0566 195.983 53.8091 197.422C49.5869 202.316 49.347 207.354 49.347 208.17C49.347 208.266 49.347 208.266 49.347 208.266C49.299 208.218 49.299 208.17 49.251 208.122C48.5313 207.21 47.9076 206.251 47.3318 205.243C46.7081 204.14 46.1323 203.036 45.7005 201.837C45.3647 201.213 47.2359 202.508 48.5793 203.132C49.251 203.468 49.8268 203.612 50.0187 203.276C50.1626 202.94 50.0187 202.22 49.7308 201.501C49.5389 200.925 49.251 200.349 49.0591 199.917C48.5793 198.958 47.1399 195.119 47.1399 195.119C46.6601 196.079 49.0591 200.397 48.5793 200.877C48.0995 201.357 46.1803 198.958 46.1803 198.958C45.4126 197.854 43.6854 193.248 49.0111 183.748C49.1071 183.556 49.203 183.412 49.299 183.221C49.395 183.029 49.5389 182.837 49.6349 182.693C49.7308 182.501 49.8748 182.309 49.9707 182.117C50.8823 180.63 51.9859 178.998 53.2333 177.271C61.7257 165.948 74.9681 157.264 74.9681 157.264C74.9681 157.264 75.0161 159.902 75.4479 159.662C75.4479 159.662 77.8469 148.147 86.4832 142.39C88.5943 140.95 92.1448 138.935 97.0387 138.551C97.0387 138.551 96.559 139.511 96.7989 140.231C96.7989 140.231 102.796 131.834 106.875 130.923C109.13 130.443 117.382 139.511 119.349 138.312C121.748 136.872 139.789 129.099 147.417 125.981C155.094 122.814 158.165 120.463 161.811 122.238C164.21 123.438 166.993 126.844 168.624 129.004C169.44 130.107 169.968 130.875 169.968 130.875C169.968 130.875 170.112 130.827 170.304 130.731C172.319 129.867 182.682 125.885 193.478 132.314L200.003 124.158L201.107 122.766C201.107 122.718 201.155 122.718 201.155 122.718C196.645 112.355 203.41 104.102 203.41 104.102C203.41 104.102 197.028 89.7082 202.594 81.9355C202.738 81.6956 202.93 81.4557 203.122 81.2638C203.218 81.1678 203.314 81.0718 203.41 80.9759C203.41 80.9759 203.41 80.9279 203.458 80.9279C203.506 80.8319 203.602 80.784 203.65 80.736C203.697 80.688 203.745 80.64 203.793 80.592C203.841 80.5441 203.937 80.4481 203.985 80.4001C204.225 80.2082 204.465 80.0163 204.705 79.8244C204.945 79.6324 205.233 79.4405 205.521 79.2966C205.761 79.1527 206.001 79.0087 206.24 78.9128C206.384 78.8648 206.528 78.7688 206.624 78.7208C206.768 78.6729 206.864 78.5769 207.008 78.5289C207.152 78.433 207.344 78.385 207.536 78.289C207.776 78.1931 208.064 78.0971 208.352 78.0011C216.844 75.0264 229.463 77.6653 229.463 77.6653C229.463 77.6653 229.607 75.6501 229.798 73.0113C229.798 72.8673 229.798 72.7234 229.846 72.6274C230.134 68.7411 230.422 63.7032 230.422 61.88C230.422 61.4961 230.422 61.0163 230.422 60.5365C230.518 56.7462 231.622 49.933 243.856 49.933C255.851 49.933 257.819 56.3143 257.819 56.3143L244.816 84.3344Z"
    fill="#9B0408"
  />
  <path
    fill-rule="evenodd"
    clip-rule="evenodd"
    d="M212.67 173.097C201.155 166.38 200.195 149.107 200.195 149.107C200.195 149.107 197.796 148.627 196.357 151.986C195.938 152.963 195.763 154.184 195.583 155.435C195.146 158.486 194.682 161.721 190.599 162.061C184.841 162.541 181.003 157.743 179.564 153.425C178.364 149.779 179.516 146.852 179.9 145.988C179.996 145.844 179.996 145.748 179.996 145.748H178.556C183.834 139.511 191.511 138.551 191.511 138.551C178.556 136.632 170.879 142.87 170.879 142.87C170.879 142.87 168.96 143.349 167.521 139.031C166.369 135.577 167.617 133.322 168.864 132.074C167.089 133.13 162.867 136.009 160.372 139.895C159.412 143.493 159.412 146.708 159.412 146.708C159.412 146.708 159.412 152.466 149.337 163.021C137.821 175.496 129.185 175.976 129.185 175.976C122.564 176.455 107.114 172.281 106.635 172.137L109.034 173.577C109.034 173.577 127.266 181.253 129.665 183.652C132.064 186.051 133.983 189.89 132.544 193.728C131.104 197.566 129.185 196.127 129.185 196.127C119.589 185.572 107.114 183.173 107.114 184.132C109.993 184.612 117.19 189.41 120.069 193.248C122.948 197.087 120.549 198.046 120.549 198.046C118.361 198.776 116.419 197.411 114.162 195.824C111.965 194.28 109.469 192.525 106.155 192.289C102.604 192.049 98.5741 193.872 97.0867 194.784C96.8468 194.976 96.463 194.784 96.415 194.496C96.2231 193.488 95.9352 191.617 96.0791 190.849C97.0387 185.572 102.796 184.132 102.796 184.132C98.1644 183.776 94.7231 186.304 93.1602 187.452C92.6186 187.85 92.3025 188.082 92.2408 187.971C91.761 187.011 94.8797 184.852 94.8797 184.852C94.8797 184.852 93.2004 183.173 92.0009 179.574C90.8014 175.88 93.9201 174.296 93.9201 174.296C93.9201 174.296 86.2433 176.695 88.4024 183.652C90.0817 189.026 91.2812 190.369 91.2812 190.369C91.2812 190.369 92.2408 187.971 93.6802 187.491C93.6802 187.491 94.16 202.844 96.0791 209.082C97.9983 215.319 99.9175 223.955 99.9175 223.955L98.4781 231.152L113.352 236.43L140.796 221.124C142.222 213.582 144.91 206.655 146.014 203.812C146.321 203.019 146.506 202.544 146.506 202.46C146.506 202.042 145.228 202.647 144.05 203.206C142.933 203.736 141.906 204.223 142.14 203.756C142.619 202.796 145.018 199.917 149.337 197.998C162.003 190.417 168.72 179.478 171.935 172.713C172.367 171.753 172.751 170.89 173.086 170.122C173.134 169.978 173.278 169.834 173.374 169.738C173.614 169.546 173.902 169.498 174.238 169.642L182.443 174.536C182.443 174.536 205.473 185.572 216.988 185.092C228.311 184.612 234.548 176.263 234.74 175.976L234.726 175.98C234.21 176.155 223.908 179.641 212.67 173.097ZM137.821 187.491C137.821 187.491 144.539 186.531 145.018 186.531C143.099 190.849 138.301 190.849 138.301 190.849L137.821 187.491ZM138.781 192.768V196.607C138.781 196.607 144.059 196.607 145.498 192.289L138.781 192.768Z"
    fill="#7E0207"
  />
  <path
    d="M170.448 130.875C170.448 130.875 169.68 131.259 168.912 132.074C167.137 133.13 162.915 136.009 160.42 139.895C161.044 137.592 162.099 135.145 163.778 133.274C166.705 130.011 168.097 129.195 168.672 129.004C169.488 130.107 170.016 130.875 170.016 130.875C170.016 130.875 170.16 130.827 170.352 130.731L170.448 130.875Z"
    fill="#850608"
  />
  <path
    d="M54.4328 196.607C54.2409 196.799 54.001 197.039 53.8091 197.422C49.5869 202.316 49.347 207.354 49.347 208.17C49.299 208.17 49.299 208.17 49.251 208.17C48.5313 207.258 47.9076 206.299 47.3318 205.291C46.7081 204.188 46.1323 203.084 45.7005 201.885C45.3647 201.261 47.2359 202.556 48.5793 203.18C49.251 203.516 49.8268 203.66 50.0187 203.324C50.1626 202.988 50.0187 202.268 49.7308 201.549C49.5389 200.973 49.251 200.397 49.0591 199.965C48.5793 199.006 47.1399 195.167 47.1399 195.167C46.6601 196.127 49.0591 200.445 48.5793 200.925C48.0995 201.405 46.1803 199.006 46.1803 199.006C45.4126 197.902 43.6854 193.296 49.0111 183.796C49.1071 183.604 49.203 183.46 49.299 183.269C49.395 183.077 49.5389 182.885 49.6349 182.741C49.7308 182.549 49.8748 182.357 49.9707 182.165L50.4985 181.733C50.4985 181.733 48.9631 189.362 54.4328 196.607Z"
    fill="#7E0207"
  />
  <path
    d="M84.0842 179.814C83.6044 180.774 84.0842 184.612 84.0842 184.612L82.165 187.011C78.8065 176.455 69.6903 175.976 69.6903 175.976C69.9302 176.12 70.1701 176.311 70.41 176.455C77.2231 181.301 78.2307 187.971 78.3267 190.609C78.3267 190.753 78.3267 190.849 78.3267 190.849C78.3267 190.849 77.7989 190.657 76.8393 190.417C76.8393 190.417 76.8393 190.417 76.7913 190.417C76.7433 190.369 76.6474 190.369 76.5994 190.369C76.2635 190.274 75.9277 190.226 75.5438 190.13C75.064 184.948 73.8646 176.12 60.8141 174.776C60.8141 174.776 62.2535 173.817 64.6525 173.337C67.0514 172.857 70.41 173.337 70.41 173.337L76.6474 167.579L77.1272 163.741L80.0059 168.539L80.1019 168.683C78.5666 177.655 84.516 178.95 84.0842 179.814Z"
    fill="#7E0207"
  />
  <path
    d="M121.029 141.43C121.029 141.43 133.983 140.471 145.018 140.471C156.054 140.471 156.534 139.511 156.534 139.511C156.534 139.511 155.094 132.314 151.256 131.354C147.417 130.395 121.029 141.43 121.029 141.43Z"
    fill="#7E0207"
  />
  <path
    d="M120.069 143.349C120.069 143.349 118.15 142.87 116.231 144.309C114.311 145.748 111.912 147.188 111.912 147.188C111.912 147.188 115.511 142.15 117.43 142.15C119.349 142.15 119.829 143.109 120.069 143.349Z"
    fill="#7E0207"
  />
  <path
    d="M106.635 157.264L106.155 156.304C106.155 156.304 101.837 162.062 100.877 170.698L99.4377 171.657L101.837 171.178C101.837 171.178 104.476 160.382 106.635 157.264Z"
    fill="#7E0207"
  />
  <path
    d="M105.675 186.051C105.675 186.051 103.276 193.248 106.635 202.364C109.993 211.481 109.993 213.4 110.473 217.238C110.953 221.076 110.953 221.076 110.953 221.076H110.473C110.473 221.076 108.842 211.529 107.834 209.321C106.635 206.683 104.476 199.726 103.996 198.286C103.516 196.847 102.556 190.13 103.996 186.291C104.716 184.612 105.675 186.051 105.675 186.051Z"
    fill="#560A0D"
  />
  <path
    d="M114.311 140.95C114.311 140.95 110.953 138.551 109.034 137.112C107.114 135.673 106.635 134.713 104.236 136.152C101.837 137.592 100.397 140.95 100.397 140.95C100.397 140.95 107.114 140.95 109.513 140.95C111.912 140.95 114.311 140.95 114.311 140.95Z"
    fill="#7E0207"
  />
  <path
    d="M177.501 146.468C176.301 147.524 170.544 150.882 167.329 154.145C164.594 156.88 165.41 159.902 170.687 167.099C171.887 168.299 172.751 169.162 173.374 169.786C173.23 169.882 173.134 170.026 173.086 170.17C172.751 170.938 172.367 171.801 171.935 172.761L171.407 173.577C171.407 173.577 168.432 167.435 155.526 170.506C155.67 170.506 164.69 151.506 167.089 150.546C169.248 149.683 175.102 146.66 177.165 146.228C177.405 146.18 177.597 146.18 177.644 146.228C177.692 146.276 177.501 146.468 177.501 146.468Z"
    fill="#690608"
  />
  <path
    d="M172.367 150.067C172.367 150.067 167.569 153.425 167.089 154.385C166.609 155.344 159.892 167.339 152.215 173.577C144.539 179.814 132.544 185.572 127.746 183.173C122.948 180.774 119.349 178.614 108.794 173.817C108.794 173.817 119.829 176.215 127.506 179.574C135.183 182.933 148.137 174.296 155.814 165.66C163.49 157.024 163.49 154.145 165.889 152.705C168.288 151.266 172.367 150.067 172.367 150.067Z"
    fill="#560A0D"
  />
  <path
    d="M194.917 138.551C194.917 138.551 189.16 138.072 184.841 140.471C180.523 142.87 178.124 146.228 178.124 146.228C178.124 146.228 184.122 142.63 188.92 141.19C193.718 139.751 196.357 140.95 196.357 140.95L194.917 138.551Z"
    fill="#850608"
  />
  <path
    d="M172.847 172.617C172.847 172.617 163.73 164.46 164.21 162.541C164.21 162.541 174.766 170.218 177.884 171.897C181.099 173.625 172.847 172.617 172.847 172.617Z"
    fill="#560A0D"
  />
  <path
    d="M199.715 142.87C199.715 142.87 193.958 151.986 197.796 163.021C197.796 163.021 197.316 149.107 203.554 144.309L199.715 142.87Z"
    fill="#560A0D"
  />
  <path
    d="M143.579 222.996C143.579 222.996 132.064 235.95 124.387 239.309C119.109 241.708 112.008 241.372 109.753 240.508C105.915 239.069 101.597 236.19 99.1978 234.271L96.7988 221.796C96.7988 221.796 104.236 228.753 113.832 228.753C121.508 228.273 134.703 222.276 145.258 212.2L143.579 222.996Z"
    fill="#3C0100"
  />
  <path
    d="M141.228 218.15L140.22 223.475C140.22 223.475 139.837 224.579 137.821 227.314C134.751 231.44 126.546 236.142 126.066 236.67L124.771 228.034C131.584 224.915 139.405 219.733 141.228 218.15Z"
    fill="url(#paint3_linear)"
  />
  <path
    d="M141.42 216.998L141.228 218.15C139.453 219.733 132.064 224.915 124.771 228.033L124.627 227.218C124.627 227.122 124.675 227.074 124.723 227.026C125.827 226.546 135.614 222.372 141.42 216.998Z"
    fill="#827E7E"
  />
  <path
    d="M125.347 236.766C125.347 236.862 125.299 236.91 125.251 236.958C125.251 236.958 123.476 238.829 115.991 240.172C115.751 240.22 115.751 240.124 115.751 240.028L113.352 231.152C114.935 230.864 123.38 228.465 124.051 228.177L125.347 236.766Z"
    fill="#C76C2B"
  />
  <path
    d="M124.051 228.177C123.38 228.465 119.733 229.953 118.15 230.193L118.63 229.329C118.63 229.233 118.678 229.137 118.726 229.137L123.619 227.362C123.715 227.314 123.859 227.41 123.907 227.506L124.051 228.177Z"
    fill="#E0AE0E"
  />
  <path
    d="M104.236 236.718C104.236 236.814 104.14 236.862 104.092 236.814L100.397 233.647C100.349 233.599 100.301 233.551 100.301 233.455L99.5817 226.594C100.445 227.41 101.789 228.609 103.564 229.617L104.236 236.718Z"
    fill="url(#paint4_linear)"
  />
  <path
    d="M109.37 232.64C108.122 232.016 106.155 231.056 104.428 230.097L104.284 228.705C104.284 228.609 104.38 228.561 104.428 228.609L108.458 230.816C108.506 230.864 108.554 230.912 108.602 231.008L109.37 232.64Z"
    fill="#E0AE0E"
  />
  <path
    d="M109.322 239.453C106.635 238.349 105.291 237.246 105.291 237.246C105.243 237.198 105.195 237.15 105.147 237.054L104.38 230.145C106.107 231.104 108.026 232.112 109.322 232.688L110.425 235.039L115.703 240.316C115.751 240.364 112.056 240.556 109.322 239.453Z"
    fill="#C76C2B"
  />
  <path d="M116.279 228.273L117.286 227.074H121.94L120.837 228.369L116.279 228.273Z" fill="#F8ED68" />
  <path
    d="M124.867 242.667L116.95 242.14L114.263 239.021L112.68 241.612H105.819L110.569 234.367L106.875 229.713L104.236 226.066H111.912L114.551 229.473L116.423 226.594H123.284L120.117 230.72L117.862 233.695L124.867 242.667Z"
    fill="#560A0D"
  />
  <path
    d="M123.188 241.852L121.604 241.804L114.071 231.536L112.968 232.592L107.594 228.849L105.675 226.834H111.385L114.791 231.248L123.188 241.852Z"
    fill="#F8ED68"
  />
  <path d="M110.809 227.65L122.372 241.852L117.622 241.612L106.299 227.602L110.809 227.65Z" fill="#FCC600" />
  <path d="M121.46 227.602L112.056 240.748L107.162 240.94L116.806 227.602H121.46Z" fill="#FCC600" />
  <path
    d="M103.516 229.569C101.741 228.513 100.397 227.362 99.5337 226.546L99.4377 225.587C99.4377 225.491 99.5337 225.443 99.5817 225.491L103.276 228.177C103.324 228.225 103.372 228.273 103.372 228.369L103.516 229.569Z"
    fill="#827E7E"
  />
  <path
    d="M206.432 144.309C206.432 144.309 206.912 156.304 216.988 163.981C227.064 171.657 232.581 170.938 240.738 168.539C240.738 168.539 237.859 173.337 234.98 175.736C234.98 175.736 228.599 176.887 220.106 175.256C208.831 173.097 203.793 163.741 202.354 157.983C200.915 152.226 201.394 147.428 201.394 146.948C201.394 146.468 202.834 144.549 202.834 144.549L206.432 144.309Z"
    fill="#EA8F00"
  />
  <path
    d="M201.874 144.069C201.874 144.069 196.596 160.382 210.99 171.897C220.586 179.574 236.899 176.215 236.899 176.215"
    stroke="#560A0D"
    stroke-width="2.2069"
  />
  <path
    d="M207.872 82.4153C207.872 82.4153 234.74 79.0567 241.937 89.6122C249.134 100.168 251.533 116.481 251.533 116.481L252.973 133.274C252.973 133.274 252.493 146.708 247.215 157.264C241.937 167.819 241.457 167.339 241.457 167.339L223.705 143.349L203.074 138.551L203.554 126.557L210.031 106.165L207.872 82.4153Z"
    fill="#DB922C"
  />
  <path
    d="M245.632 159.998C244.768 161.774 243.281 164.892 240.69 168.827C239.97 169.162 238.483 170.17 235.94 170.458C225.384 171.897 218.667 166.62 211.95 158.943C205.233 151.266 206.192 144.549 206.192 144.549L205.281 141.766C202.834 141.286 200.771 140.039 199.475 137.832C196.548 132.938 197.604 128.62 198.995 125.837C199.331 125.165 199.667 124.637 200.003 124.158C200.531 123.39 200.963 122.91 201.106 122.766C201.106 122.766 201.106 122.766 201.154 122.718C197.172 113.602 201.922 106.117 203.122 104.438C203.266 104.198 203.362 104.102 203.362 104.102C203.362 104.102 202.882 102.999 202.258 101.175C200.723 96.5693 198.516 87.5011 202.546 81.9355C202.69 81.6956 202.882 81.4557 203.074 81.2638C203.17 81.1678 203.266 81.0719 203.362 80.9759C203.362 80.9759 203.362 80.9279 203.409 80.9279C203.457 80.832 203.553 80.784 203.601 80.736C203.649 80.688 203.697 80.64 203.745 80.5921C203.793 80.5441 203.889 80.4481 203.937 80.4001C204.177 80.2082 204.417 80.0163 204.657 79.8244C204.897 79.6325 205.185 79.4405 205.473 79.2966C205.713 79.1527 205.952 79.0087 206.192 78.9128C206.336 78.8648 206.48 78.7688 206.576 78.7209C206.72 78.6729 206.816 78.5769 206.96 78.5289C207.104 78.433 207.296 78.385 207.488 78.289C207.728 78.1931 208.016 78.0971 208.303 78.0012C208.303 78.0012 207.584 89.9001 211.422 95.1779C220.538 96.1375 224.377 97.5769 226.776 99.0162C227.831 99.64 228.311 100.552 228.551 101.415C228.839 102.471 228.695 103.334 228.695 103.334L210.942 100.935C210.942 100.935 210.942 100.935 211.326 102.135C211.326 102.231 211.374 102.279 211.422 102.375C212.861 108.132 210.463 121.567 210.463 121.567C210.463 121.567 211.902 123.486 216.22 124.445C220.538 125.405 221.498 125.405 225.336 125.405C226.968 125.405 227.831 125.741 228.263 126.173C228.839 126.701 228.695 127.324 228.695 127.324L206.624 128.764C206.624 128.764 206.576 128.86 206.528 129.004C206.336 129.435 205.904 130.395 205.185 132.122C204.225 134.521 205.665 136.44 210.942 138.36C223.417 141.718 234.932 135.001 236.372 135.001C239.25 134.521 241.169 137.4 241.169 137.4C239.25 141.718 230.614 144.597 230.614 144.597L231.094 146.996C237.811 147.476 244.048 141.238 244.048 141.238C246.927 146.852 246.015 156.976 245.632 159.998Z"
    fill="#C76C2B"
  />
  <path
    d="M196.596 121.039C196.596 121.039 189.975 130.779 196.021 140.039C197.652 142.582 200.483 144.213 203.505 144.261C205.713 144.309 207.632 144.021 207.632 144.021C207.632 144.021 223.945 156.976 235.94 141.622C235.94 141.622 234.26 143.781 225.624 145.7C216.988 147.62 213.629 141.862 213.629 141.862C203.553 142.822 201.154 141.382 198.755 135.625C196.357 129.867 200.675 122.67 200.675 122.67L196.596 121.039Z"
    fill="#560A0D"
  />
  <path
    d="M211.47 115.281C213.389 110.963 212.91 106.165 212.91 106.165C222.026 105.685 228.263 109.524 228.263 109.524L229.703 105.685C237.859 109.524 235.94 123.438 235.94 123.438C237.859 120.559 238.339 114.322 237.859 110.483C237.379 106.645 236.42 106.165 235.46 101.847C234.692 98.2965 237.091 93.1627 238.003 91.4354C238.195 91.0996 238.627 90.9556 238.963 91.1955C241.745 93.1147 245.344 98.9682 249.374 111.443C253.692 124.877 251.773 142.63 251.773 142.63C253.692 136.392 255.132 125.837 253.213 112.403C251.293 98.9682 244.576 83.6147 244.576 83.6147L240.498 84.3344C237.619 79.5365 229.463 77.6173 229.463 77.6173C229.463 77.6173 216.796 74.9784 208.352 77.9531C208.352 77.9531 208.112 86.0137 209.071 88.8925L209.935 85.1021C210.031 83.9986 210.895 83.087 211.998 82.895C212.622 82.7991 213.485 82.7991 214.589 82.895C218.907 83.3748 226.104 85.7738 227.783 87.9329C230.134 91.0036 229.223 98.9682 229.223 101.847C229.223 104.726 220.107 101.367 220.107 101.367L211.23 101.127C211.23 101.127 212.43 113.842 211.47 115.281Z"
    fill="#FCC600"
  />
  <path
    d="M257.771 56.0265C255.563 61.3522 246.303 81.2158 244.96 83.9986C244.768 83.9506 244.624 83.9506 244.432 83.9506C244.336 83.9506 244.288 83.9506 244.192 83.9506L239.778 71.1401L231.142 56.7462L231.19 56.3144L231.382 55.0669C231.382 55.0669 258.586 54.0593 257.771 56.0265Z"
    fill="#DB922C"
  />
  <path
    d="M244.432 83.9506C244.336 83.9506 244.288 83.9506 244.192 83.9506C243.377 83.9506 242.657 84.0945 242.081 84.3344H242.033H241.889C241.601 83.9026 232.389 74.4506 229.75 72.9633C229.75 72.8193 229.75 72.6754 229.798 72.5794C230.086 68.6931 230.374 63.6552 230.374 61.832C230.374 61.4481 230.374 60.9684 230.374 60.4886C230.662 57.8017 231.094 56.3623 231.094 56.3623L231.142 56.4103C235.028 59.7209 243.569 61.1603 243.569 61.1603C245.68 69.6047 244.768 80.7839 244.432 83.9506Z"
    fill="#C76C2B"
  />
  <path
    d="M242.081 84.3825C241.601 84.6224 241.218 84.9102 241.074 85.2461L240.978 85.2941C236.18 79.5365 229.463 77.6173 229.463 77.6173C229.463 77.6173 229.607 75.6022 229.799 72.9633C229.799 72.8194 229.799 72.6754 229.846 72.5795C236.564 77.3774 240.882 82.7512 242.081 84.3825C242.081 84.3825 242.081 84.3345 242.081 84.3825Z"
    fill="#854524"
  />
  <path
    d="M257.771 55.5467C257.771 54.5871 253.932 49.7891 243.377 49.7891C235.7 49.7891 231.862 53.1477 231.382 55.0669C230.902 56.9861 240.018 58.9053 245.296 59.3851C250.574 59.8648 257.771 58.4255 257.771 55.5467Z"
    fill="#FCC600"
  />
  <path
    d="M226.344 105.206C222.026 102.807 218.187 102.327 213.629 102.087C212.862 102.039 212.094 102.039 211.374 102.087C206.432 102.327 203.506 104.198 203.122 104.438C203.266 104.198 203.362 104.102 203.362 104.102C203.362 104.102 202.882 102.999 202.258 101.175C212.238 96.7132 224.425 101.367 225.816 102.327C226.968 103.095 227.975 101.895 228.551 101.367C228.695 101.223 228.839 101.127 228.935 101.127C229.463 101.127 229.942 107.221 226.344 105.206Z"
    fill="#854524"
  />
  <path
    d="M228.023 129.915C228.263 129.675 227.303 127.756 225.864 128.236C224.425 128.716 218.187 130.155 212.43 129.675C210.415 129.483 208.399 129.291 206.576 128.956C203.122 128.332 200.243 127.42 198.995 125.837C199.331 125.165 199.667 124.637 200.003 124.158C200.531 123.39 200.963 122.91 201.106 122.766C201.106 122.766 201.106 122.766 201.154 122.718C201.154 122.718 204.033 127.516 216.028 127.516C224.664 127.516 226.584 126.077 228.023 126.077C228.119 126.077 228.215 126.077 228.311 126.125C229.51 126.413 229.798 128.572 228.023 129.915Z"
    fill="#854524"
  />
  <path
    d="M75.7837 191.665C75.7837 191.665 75.6877 193.488 75.2079 195.407C74.9201 196.559 73.7686 197.566 72.9049 198.142C71.5135 198.19 69.9782 198.334 68.4908 198.766C63.213 200.205 60.814 202.124 58.4151 205.483C57.8873 206.251 57.4075 206.922 56.9757 207.546C55.2484 205.483 54.0009 202.988 53.3292 201.357C53.6651 200.733 54.0489 200.061 54.4328 199.486C54.4807 199.39 54.5287 199.294 54.5767 199.246C55.0085 198.622 55.4883 197.998 56.0641 197.422C58.1272 195.359 61.3418 193.536 66.5716 192.049C70.314 190.993 73.5766 191.089 75.7357 191.425L75.7837 191.665Z"
    fill="#FCC600"
  />
  <path
    d="M53.2812 201.357C53.9529 202.988 55.2004 205.483 56.9277 207.546C55.6322 209.465 54.8166 211.193 54.6247 213.976C52.0338 211.433 50.4984 209.561 50.4984 209.561C51.0262 206.443 52.0338 203.756 53.2812 201.357Z"
    fill="#E18601"
  />
  <path
    d="M78.5665 192.049C78.5665 192.049 78.5665 193.968 78.5665 196.367C78.5665 197.087 78.4226 197.854 78.2307 198.526C77.0312 198.334 75.064 198.094 72.8569 198.142C73.7206 197.566 74.8721 196.559 75.16 195.407C75.6398 193.488 75.7357 191.665 75.7357 191.665V191.377C77.511 191.665 78.5665 192.049 78.5665 192.049Z"
    fill="#E18601"
  />
  <path
    d="M97.9982 229.713C94.6397 233.551 89.3619 230.672 86.0033 230.193C84.6119 230.001 83.4604 229.857 82.165 229.617C80.3897 229.281 78.3266 228.705 74.968 227.314C66.5236 224.579 59.0388 218.294 54.6246 213.975C54.9125 210.281 56.3039 208.458 58.415 205.483C60.814 202.125 63.213 200.205 68.4908 198.766C72.2332 197.758 76.2635 198.19 78.2306 198.526C77.7988 200.013 77.1271 201.165 77.1271 201.165C78.5665 204.044 82.8846 205.003 82.8846 205.003C82.8846 205.003 85.2836 200.205 86.2432 199.726C87.2028 199.246 91.2811 199.965 91.2811 199.965C91.473 200.877 91.7129 201.837 91.9528 202.844C92.0967 203.468 92.2407 204.14 92.3846 204.811C94.7836 215.511 97.9982 229.713 97.9982 229.713Z"
    fill="#C76C2B"
  />
  <path
    d="M86.0034 230.193C84.612 230.001 83.4605 229.857 82.165 229.617C81.5413 228.705 80.3418 226.498 80.2458 226.354C81.6852 228.273 86.0034 230.193 86.0034 230.193Z"
    fill="#854524"
  />
  <path
    d="M92.3846 204.811C91.9048 204.859 90.9932 204.907 89.8417 204.763C88.3543 204.572 87.9225 202.844 87.9225 202.844H91.9528C92.0967 203.468 92.2407 204.14 92.3846 204.811Z"
    fill="#854524"
  />
  <path
    d="M80.0059 220.357C80.0059 220.357 79.5261 219.877 79.0463 218.917C78.0868 216.518 76.6474 216.518 72.809 216.039C68.9706 215.559 63.6929 212.68 59.3747 209.801C58.4631 209.225 57.6954 208.41 56.9757 207.546C57.4075 206.874 57.8873 206.203 58.4151 205.483C60.8141 202.125 63.2131 200.205 68.4908 198.766C69.9782 198.382 71.8494 198.286 71.8494 198.286C73.2888 200.685 81.4453 207.402 81.4453 207.402C79.0463 210.761 80.0059 220.357 80.0059 220.357Z"
    fill="#DB922C"
  />
  <path
    d="M60.3342 201.645C60.3342 201.645 55.7282 202.412 54.4327 199.486C54.4807 199.39 54.5287 199.294 54.5767 199.246C55.0085 198.622 55.4883 197.998 56.064 197.422C56.8317 198.766 58.3671 200.973 60.3342 201.645Z"
    fill="#E18601"
  />
  <path
    fill-rule="evenodd"
    clip-rule="evenodd"
    d="M116.614 172.809C114.983 172.377 113.352 172.089 111.721 171.753C109.945 168.683 108.17 165.516 106.395 162.061C105.627 161.054 104.859 159.998 104.092 158.895C103.996 158.751 103.9 158.559 103.756 158.415C102.221 155.008 100.733 151.314 99.2458 147.14C100.877 147.716 102.556 148.243 104.188 148.675C104.907 151.074 105.675 153.377 106.443 155.584C106.539 155.728 106.635 155.92 106.779 156.064C106.875 155.92 107.019 155.824 107.162 155.68C109.849 152.705 112.488 150.067 115.127 147.38C116.758 147.284 118.39 147.14 119.973 146.9C116.518 150.93 113.016 154.625 109.417 158.799C109.322 158.943 109.178 159.039 109.034 159.231C111.529 164.077 114.072 168.395 116.614 172.809ZM102.7 160.43C103.468 161.534 104.236 162.589 105.003 163.597C102.556 166.476 100.109 169.786 97.7105 173.816C96.0791 174.296 94.4478 174.872 92.8165 175.496C96.1271 169.066 99.3897 164.364 102.7 160.43Z"
    fill="#FCC600"
  />
  <path
    d="M116.614 172.809L116.544 173.076L117.184 173.245L116.853 172.671L116.614 172.809ZM111.721 171.753L111.482 171.891L111.544 171.999L111.665 172.024L111.721 171.753ZM103.756 158.415L103.504 158.528L103.525 158.574L103.561 158.61L103.756 158.415ZM99.2458 147.14L99.3376 146.88L98.7916 146.687L98.9859 147.232L99.2458 147.14ZM104.188 148.675L104.452 148.596L104.408 148.448L104.258 148.408L104.188 148.675ZM106.443 155.584L106.182 155.675L106.194 155.708L106.213 155.737L106.443 155.584ZM106.779 156.064L106.584 156.259L106.821 156.497L107.008 156.217L106.779 156.064ZM107.162 155.68L107.358 155.875L107.367 155.865L107.162 155.68ZM115.127 147.38L115.111 147.104L115.005 147.111L114.93 147.186L115.127 147.38ZM119.973 146.9L120.182 147.079L120.665 146.516L119.932 146.627L119.973 146.9ZM109.417 158.799L109.209 158.619L109.197 158.632L109.188 158.646L109.417 158.799ZM109.034 159.231L108.813 159.065L108.709 159.203L108.788 159.357L109.034 159.231ZM102.7 160.43L102.927 160.273L102.721 159.977L102.489 160.253L102.7 160.43ZM105.003 163.597L105.214 163.775L105.357 163.606L105.223 163.43L105.003 163.597ZM97.7105 173.816L97.7883 174.081L97.8921 174.051L97.9475 173.958L97.7105 173.816ZM92.8165 175.496L92.5713 175.369L92.2408 176.011L92.915 175.753L92.8165 175.496ZM116.685 172.542C115.044 172.108 113.397 171.817 111.776 171.483L111.665 172.024C113.306 172.361 114.922 172.646 116.544 173.076L116.685 172.542ZM111.959 171.615C110.185 168.547 108.413 165.384 106.64 161.935L106.149 162.188C107.928 165.648 109.705 168.819 111.482 171.891L111.959 171.615ZM106.614 161.894C105.849 160.89 105.084 159.838 104.318 158.737L103.865 159.052C104.635 160.159 105.405 161.218 106.175 162.229L106.614 161.894ZM104.321 158.742C104.301 158.711 104.279 158.676 104.254 158.636C104.23 158.596 104.203 158.551 104.174 158.506C104.116 158.415 104.043 158.312 103.951 158.22L103.561 158.61C103.612 158.662 103.66 158.726 103.71 158.804C103.735 158.843 103.758 158.882 103.784 158.923C103.808 158.963 103.835 159.007 103.862 159.048L104.321 158.742ZM104.007 158.302C102.475 154.903 100.991 151.215 99.5057 147.047L98.9859 147.232C100.476 151.413 101.966 155.114 103.504 158.528L104.007 158.302ZM99.154 147.4C100.791 147.978 102.478 148.508 104.117 148.942L104.258 148.408C102.635 147.979 100.963 147.453 99.3376 146.88L99.154 147.4ZM103.923 148.754C104.645 151.158 105.414 153.466 106.182 155.675L106.703 155.494C105.936 153.289 105.17 150.99 104.452 148.596L103.923 148.754ZM106.213 155.737C106.234 155.768 106.255 155.803 106.28 155.844C106.304 155.883 106.332 155.928 106.361 155.973C106.419 156.064 106.491 156.167 106.584 156.259L106.974 155.869C106.922 155.817 106.875 155.753 106.825 155.675C106.8 155.636 106.776 155.597 106.751 155.556C106.726 155.516 106.7 155.472 106.672 155.431L106.213 155.737ZM107.008 156.217C107.037 156.174 107.077 156.132 107.138 156.076C107.193 156.027 107.28 155.953 107.358 155.875L106.967 155.485C106.901 155.551 106.844 155.598 106.767 155.668C106.696 155.732 106.616 155.81 106.549 155.911L107.008 156.217ZM107.367 155.865C110.049 152.896 112.683 150.262 115.324 147.573L114.93 147.186C112.294 149.871 109.649 152.515 106.958 155.495L107.367 155.865ZM115.143 147.655C116.78 147.559 118.42 147.414 120.014 147.173L119.932 146.627C118.36 146.865 116.737 147.009 115.111 147.104L115.143 147.655ZM119.764 146.72C118.039 148.733 116.302 150.661 114.544 152.611C112.787 154.559 111.01 156.529 109.209 158.619L109.626 158.979C111.423 156.895 113.196 154.93 114.954 152.98C116.711 151.031 118.453 149.098 120.182 147.079L119.764 146.72ZM109.188 158.646C109.158 158.691 109.118 158.732 109.048 158.802C108.983 158.867 108.898 158.952 108.813 159.065L109.254 159.396C109.313 159.318 109.372 159.258 109.439 159.192C109.501 159.129 109.581 159.05 109.647 158.952L109.188 158.646ZM108.788 159.357C111.287 164.21 113.834 168.535 116.375 172.947L116.853 172.671C114.309 168.254 111.77 163.943 109.279 159.104L108.788 159.357ZM102.474 160.588C103.244 161.694 104.014 162.753 104.784 163.764L105.223 163.43C104.458 162.425 103.692 161.373 102.927 160.273L102.474 160.588ZM104.793 163.418C102.337 166.308 99.8809 169.631 97.4734 173.675L97.9475 173.958C100.338 169.942 102.776 166.643 105.214 163.775L104.793 163.418ZM97.6326 173.552C95.992 174.034 94.3534 174.613 92.718 175.238L92.915 175.753C94.5422 175.131 96.1663 174.558 97.7883 174.081L97.6326 173.552ZM93.0618 175.622C96.363 169.211 99.6142 164.526 102.911 160.608L102.489 160.253C99.1652 164.203 95.8912 168.922 92.5713 175.369L93.0618 175.622Z"
    fill="#FCC600"
  />
  <path
    d="M89.8417 266.177L81.7332 271.695C80.7736 272.463 79.766 274.574 79.766 275.773L79.2862 282.011C79.2382 282.394 79.3342 283.162 79.4781 283.498L80.2458 284.889L77.8468 304.561L84.564 308.879L89.8417 266.177Z"
    fill="#080625"
  />
  <path
    d="M78.3267 301.874C78.3267 301.874 63.9328 306.96 62.0136 314.637C60.0944 322.314 60.5742 321.834 60.5742 321.834C60.5742 321.834 58.655 324.185 58.655 326.632C58.655 329.99 59.5666 333.541 74.4883 335.748C97.0387 339.106 106.155 329.414 109.993 329.031C114.791 328.551 120.597 326.584 122.468 323.753C124.387 320.874 122.468 317.516 121.988 316.556C121.508 315.596 120.069 313.677 121.22 308.783C121.892 305.809 119.109 296.404 119.109 296.404L110.569 270.927L78.3267 301.874Z"
    fill="#080625"
  />
  <path d="M81.4453 301.922L78.9023 304.417H82.069L84.5639 301.922H81.4453Z" fill="#333333" />
  <path
    d="M85.1877 301.298C85.1877 301.298 82.6928 301.922 82.0691 303.793C81.6373 305.137 83.9403 310.079 83.9403 310.079L100.253 310.702C100.253 310.702 104.62 310.079 105.243 306.336C105.867 302.594 92.7206 299.427 92.7206 299.427L85.1877 301.298Z"
    fill="url(#paint5_linear)"
  />
  <path
    d="M62.9252 322.937L63.6449 321.834C63.357 322.026 62.5413 323.081 61.9176 323.945C61.3418 324.713 61.054 325.624 61.054 326.536V327.447C61.054 328.791 62.1095 330.134 63.357 330.518C68.2989 331.91 79.9579 334.884 86.7231 334.213C99.2458 332.965 106.683 326.056 109.273 326.056C109.657 326.056 110.809 326.344 111.768 326.008L118.294 323.705C120.213 323.033 120.789 321.114 120.453 319.147C120.261 318.235 119.013 317.612 118.39 317.612L82.9807 321.066L62.9252 322.937Z"
    fill="black"
  />
  <path
    d="M63.261 322.601C63.261 322.601 62.0135 325.72 62.0135 326.968C62.0135 328.215 63.8848 330.086 75.7837 331.957C86.963 333.733 93.0564 332.389 99.9175 328.503C107.114 324.425 108.362 324.425 110.281 324.425C112.2 324.425 116.854 322.841 118.725 321.594C120.597 320.346 118.725 318.475 118.725 318.475C118.725 318.475 117.766 320.058 108.362 322.553C98.9579 325.048 84.8519 326.008 84.8519 326.008C84.8519 326.008 84.2281 322.266 79.862 321.642C75.4958 321.018 68.5868 319.147 66.7156 319.771C64.8443 320.394 63.261 322.601 63.261 322.601Z"
    fill="url(#paint6_linear)"
  />
  <path
    d="M117.142 309.455C117.142 309.455 120.789 317.995 117.766 319.483C112.776 321.978 108.362 322.601 103.372 323.849C99.0059 324.952 97.7104 308.831 97.7104 308.831L117.142 309.455Z"
    fill="url(#paint7_linear)"
  />
  <path
    d="M103.372 323.849C103.372 323.849 103.996 312.574 99.6296 308.16C95.6952 304.225 86.2912 303.314 80.7736 303.602C79.6221 303.65 78.5185 304.081 77.463 304.465C74.5842 305.617 68.2989 308.735 66.4277 311.278C63.8847 314.685 63.0211 316.988 62.6852 323.033C62.6373 323.561 62.9251 324.041 63.4049 324.281C65.3721 325.336 71.3696 327.927 82.4049 327.927C96.1271 327.927 103.372 323.849 103.372 323.849Z"
    fill="url(#paint8_linear)"
  />
  <path
    d="M98.9579 310.079C98.9579 310.079 91.4251 305.809 83.9403 305.089C77.6549 304.465 70.7938 308.831 67.6272 311.998C64.7964 314.829 64.5085 319.531 63.8848 323.273C63.261 327.016 82.6928 329.559 92.7205 327.016C102.748 324.521 102.125 317.612 102.125 317.612L98.9579 310.079Z"
    fill="url(#paint9_linear)"
  />
  <path
    d="M82.6928 328.887C82.6928 328.887 83.9403 324.521 79.5741 322.601C75.208 320.73 68.9227 320.73 67.6752 321.354C66.4277 321.978 65.1803 325.72 65.1803 325.72L64.5565 328.215L75.8317 330.71H82.1171L82.6928 328.887Z"
    fill="url(#paint10_linear)"
  />
  <path
    d="M98.5261 310.99C99.2458 310.606 99.1978 309.599 98.4781 309.311C95.5514 308.016 89.41 305.665 83.9403 305.089C77.655 304.465 70.7939 308.831 67.6272 311.998C66.0919 313.533 82.213 314.637 88.1145 315.021C89.4579 315.117 90.8494 314.829 92.0488 314.205L98.5261 310.99Z"
    fill="url(#paint11_linear)"
  />
  <path
    d="M84.5159 280.955C83.7482 281.531 82.6447 283.066 82.5488 284.026L80.1978 303.17C80.1978 303.17 83.6523 300.963 90.5614 301.586C97.4704 302.21 101.837 305.329 104.332 310.367C106.826 315.356 112.488 315.356 115.607 314.109C116.662 313.677 117.43 312.862 117.958 311.95C119.109 310.079 119.301 307.728 118.725 305.617L112.152 282.49C111.96 281.867 111.576 281.291 111.049 280.907L109.369 279.66L84.5159 280.955Z"
    fill="black"
  />
  <path
    d="M110.857 282.49C110.857 282.49 119.205 308.639 116.998 310.702C116.854 310.846 116.71 310.99 116.518 311.086C109.609 316.316 102.7 309.599 103.468 302.498L105.819 282.49H110.857V282.49Z"
    fill="url(#paint12_linear)"
  />
  <path
    d="M106.347 281.867C106.347 281.867 107.642 304.417 102.46 305.041C102.796 305.377 98.9578 300.675 90.5134 300.339L91.8089 282.778L106.347 281.867Z"
    fill="url(#paint13_linear)"
  />
  <path
    d="M84.5639 281.867L82.069 300.675L90.5134 300.387L92.0967 283.114L84.5639 281.867Z"
    fill="url(#paint14_linear)"
  />
  <path
    d="M108.794 274.574C108.746 274.43 108.65 274.286 108.506 274.238C107.018 273.47 94.4958 268.72 92.1928 268.72C89.6978 268.72 82.7888 274.382 82.5009 275.293C82.309 275.821 82.213 280.907 82.213 282.203C82.213 282.394 82.261 282.586 82.4049 282.682C83.5085 283.69 88.5943 288.152 89.6978 288.152C90.9453 288.152 107.642 283.882 111.049 282.778C111.481 282.634 111.72 282.155 111.529 281.723L108.794 274.574Z"
    fill="url(#paint15_linear)"
  />
  <path
    d="M91.569 269.968C91.569 269.968 84.6599 273.71 84.0362 275.629C83.4125 277.501 83.4125 279.372 83.4125 281.291C83.4125 282.682 89.0741 286.953 89.6978 286.953C90.3215 286.953 97.8543 285.081 100.349 281.291C101.597 279.42 102.22 275.006 101.597 273.758C101.165 272.942 91.569 269.968 91.569 269.968Z"
    fill="url(#paint16_linear)"
  />
  <path
    opacity="0.7"
    d="M89.362 286.761C88.0185 286.089 83.4125 282.49 83.4125 281.243C83.4125 279.372 83.4125 277.501 84.0362 275.581C84.6599 273.71 91.569 269.92 91.569 269.92C91.569 269.92 91.0892 269.776 91.569 269.92C90.4655 271.983 88.7382 277.74 89.362 286.761Z"
    fill="url(#paint17_linear)"
  />
  <path
    d="M148.569 315.836C148.569 315.836 147.321 317.755 148.569 320.298C149.816 322.841 153.031 324.089 153.655 327.927C154.278 331.718 154.278 333.013 158.117 334.26C161.907 335.508 170.831 336.803 176.541 336.18C182.251 335.556 194.965 333.637 199.427 329.175C199.427 327.927 199.427 324.713 197.508 322.841C195.589 320.97 154.278 317.755 154.278 317.755L148.569 315.836Z"
    fill="black"
  />
  <path
    d="M182.874 303.793C182.874 303.793 174.622 298.708 166.993 301.25C159.364 303.793 153.031 311.422 153.031 311.422L147.945 309.695C147.945 309.695 147.465 317.324 150.488 320.346C153.031 322.889 154.95 324.808 154.95 324.808L188.008 311.47L182.874 303.793Z"
    fill="url(#paint18_linear)"
  />
  <path
    d="M155.574 324.089V329.846C155.574 330.95 156.342 331.957 157.397 332.197C161.475 333.205 171.359 335.412 177.788 334.884C184.17 334.404 192.518 330.854 195.925 329.271C196.884 328.839 197.508 327.879 197.508 326.824V324.089C197.508 324.089 159.7 328.263 155.574 324.089Z"
    fill="#181818"
  />
  <path
    d="M197.508 324.089C197.508 324.089 196.261 308.208 187.96 305.041C181.963 302.738 171.119 304.081 167.281 304.705C163.491 305.329 156.486 307.248 155.19 312.958C153.943 318.571 155.19 325.048 155.19 325.048C155.19 325.048 167.281 332.677 182.538 330.134C195.925 327.591 197.508 324.089 197.508 324.089Z"
    fill="url(#paint19_linear)"
  />
  <path
    d="M195.589 323.705C195.589 323.705 194.437 309.071 186.809 306.144C181.291 304.033 171.263 305.281 167.761 305.857C164.258 306.432 157.781 308.208 156.629 313.485C155.478 318.667 156.054 323.897 156.054 323.897C156.054 323.897 167.761 331.67 181.819 329.319C194.149 326.92 195.589 323.705 195.589 323.705Z"
    fill="url(#paint20_linear)"
  />
  <path
    d="M190.407 311.23C191.175 311.134 191.511 310.223 191.079 309.599C189.975 308.064 188.584 306.768 186.857 306.144C181.339 304.033 171.311 305.281 167.809 305.857C165.506 306.24 161.955 307.104 159.46 309.167C158.836 309.647 158.836 310.655 159.508 311.134C160.804 312.142 164.018 313.389 171.839 313.006C181.099 312.526 187.576 311.662 190.407 311.23Z"
    fill="url(#paint21_linear)"
  />
  <path
    d="M192.422 327.303L191.606 325.384C190.935 323.849 189.399 322.889 187.768 322.985C183.114 323.273 174.142 323.993 172.75 325.384C170.831 327.303 170.831 329.846 170.831 329.846L171.455 332.389L183.546 331.766L193.094 329.846L192.422 327.303Z"
    fill="url(#paint22_linear)"
  />
  <path
    d="M162.243 269.776L163.538 270.208C164.546 270.543 165.362 271.215 165.937 272.127L182.826 300.675C183.306 301.442 183.546 302.306 183.546 303.218V303.745H182.298C182.298 303.745 175.629 300.243 168.624 301.538C161.619 302.834 157.493 306.288 153.703 311.374C154.038 311.71 144.107 311.278 142.283 301.202C140.7 292.614 137.486 284.889 136.238 279.995C135.854 278.364 136.286 276.637 137.486 275.437"
    fill="black"
  />
  <path
    d="M181.291 301.538C181.051 301.394 176.253 298.899 168.241 300.435C167.521 300.579 166.801 300.723 166.033 300.915C156.486 303.458 153.319 309.791 153.319 309.791C153.319 309.791 151.4 310.415 147.609 307.872C143.819 305.329 143.339 298.132 140.604 289.447C137.725 280.235 137.725 275.773 137.725 275.773C137.725 275.773 159.892 275.198 161.523 272.751C161.571 272.655 161.619 272.607 161.619 272.511C161.619 272.415 161.619 272.319 161.571 272.223C161.044 271.215 161.475 270.975 162.147 271.119C163.155 271.311 164.738 272.223 164.738 272.223L181.291 301.538Z"
    fill="url(#paint23_linear)"
  />
  <path
    d="M144.107 280.763C144.107 280.763 148.569 297.508 151.112 299.331C153.655 301.154 156.821 302.306 161.283 301.73C165.746 301.154 168.288 300.003 168.288 300.003C168.288 300.003 161.283 282.586 158.74 279.564C156.198 276.541 144.107 280.763 144.107 280.763Z"
    fill="url(#paint24_linear)"
  />
  <path
    d="M181.291 301.538C181.051 301.394 176.253 298.899 168.24 300.435L158.74 279.612L161.571 272.798L161.667 272.559L162.243 271.215C162.339 271.215 162.435 271.263 162.483 271.263C163.826 271.647 164.978 272.607 165.65 273.806L181.291 301.538Z"
    fill="url(#paint25_linear)"
  />
  <path
    d="M137.582 274.238C137.39 273.758 137.342 273.23 137.438 272.751C137.438 272.655 137.486 272.607 137.486 272.559C138.541 271.167 145.786 264.45 147.945 263.49C150.296 262.435 159.268 264.93 159.988 265.698C160.372 266.129 162.723 271.023 163.299 272.271C163.395 272.463 163.395 272.655 163.299 272.846C162.675 274.286 159.94 281.147 158.789 281.243C151.064 281.963 144.059 281.051 141.132 280.523C140.22 280.379 139.453 279.708 139.165 278.796L137.582 274.238Z"
    fill="url(#paint26_linear)"
  />
  <path
    d="M148.761 264.594C148.761 264.594 157.205 265.17 158.645 266.705C160.084 268.24 160.9 270.064 161.715 271.887C162.339 273.23 158.645 279.852 158.021 280.139C157.397 280.427 149.145 281.963 145.018 279.42C142.955 278.172 140.412 274.19 140.508 272.703C140.556 271.743 148.761 264.594 148.761 264.594Z"
    fill="url(#paint27_linear)"
  />
  <path
    opacity="0.7"
    d="M158.549 279.756C159.508 278.508 162.291 273.086 161.715 271.887C160.9 270.064 160.084 268.24 158.645 266.705C157.205 265.17 149.097 264.45 149.097 264.45C149.097 264.45 149.481 264.114 149.097 264.45C151.016 265.889 155.142 270.735 158.549 279.756Z"
    fill="url(#paint28_linear)"
  />
  <circle
    cx="126.448"
    cy="78.7586"
    r="57.931"
    fill="white"
    fill-opacity="0.097547"
    stroke="#D2D2D2"
    stroke-width="1.65517"
  />
  <path
    d="M145.236 44.6624C145.236 44.6624 146.252 38.5667 153.364 35.0108C153.364 35.0108 150.062 34.2488 147.014 35.2648C147.014 35.2648 148.03 33.7408 149.554 33.7408C151.078 33.7408 136.854 33.7408 130.25 40.8526C130.25 41.3606 143.458 49.9962 143.458 49.9962L145.236 44.6624Z"
    fill="url(#paint29_linear)"
  />
  <path
    d="M143.712 43.1386C143.712 43.1386 144.22 40.0907 145.236 39.0747C145.236 39.0747 143.458 39.3287 142.95 39.8367C142.442 40.3447 142.442 38.8207 143.458 38.3127C144.474 37.8047 138.886 38.8207 138.886 39.8367C138.886 40.8526 143.712 43.1386 143.712 43.1386Z"
    fill="#BF4D15"
  />
  <path
    d="M156.919 50.2503C156.919 50.2503 154.888 41.1066 148.792 37.5507C148.792 37.5507 148.284 45.6784 147.268 47.2024C147.268 47.2024 142.442 38.8207 126.187 32.2169C126.187 32.2169 134.314 40.3446 134.314 42.3765C134.314 42.3765 119.583 34.7568 106.375 34.7568C93.1678 34.7568 87.072 38.8207 87.072 38.8207C87.072 38.8207 108.915 42.3765 113.487 47.9643C113.487 47.9643 104.343 48.4723 102.311 51.0122C102.311 51.0122 112.471 52.0282 115.011 54.5681C115.011 54.5681 110.439 62.1878 110.439 66.2517C110.439 66.2517 116.789 57.87 127.457 55.838C134.975 54.4157 146.506 56.092 146.506 56.092L156.919 50.2503Z"
    fill="#1B2527"
  />
  <path
    d="M153.872 51.7742L153.668 51.8758L147.268 55.7365L146.252 56.346C134.06 51.7742 117.297 56.854 117.297 56.854L120.853 54.3141L115.265 50.7583L120.345 50.2503C116.281 44.6625 104.089 39.5827 104.089 39.5827C105.969 39.3795 107.798 39.3287 109.525 39.3287C111.912 39.3287 114.198 39.4811 116.332 39.7351C117.906 39.9383 119.38 40.1922 120.853 40.497C121.107 40.5478 121.412 40.5986 121.666 40.6494C122.986 40.9542 124.256 41.259 125.425 41.6146C125.628 41.6654 125.831 41.7162 125.983 41.767C126.339 41.8686 126.695 41.9702 126.999 42.0718C127.253 42.1734 127.456 42.2242 127.609 42.275C128.828 42.6814 129.946 43.1385 131.012 43.5449C131.978 43.9513 132.841 44.3577 133.654 44.7133C137.515 46.542 139.648 48.1675 139.648 48.1675C139.8 47.7612 139.75 47.2024 139.699 46.542C139.648 45.9832 139.546 45.4244 139.394 44.8657C139.089 43.3925 138.632 42.0718 138.632 42.0718C142.544 43.2401 146.201 47.4564 147.623 49.3359C148.03 49.8947 148.284 50.1995 148.284 50.1995C148.487 50.1995 148.69 49.9963 148.893 49.7423C149.96 48.4215 151.332 44.6117 151.332 44.6117C151.992 45.5768 152.449 46.6436 152.856 47.6596C152.856 47.7104 152.906 47.7104 152.906 47.7612C153.618 49.9455 153.872 51.7742 153.872 51.7742Z"
    fill="#324E4F"
  />
  <path
    d="M127.457 50.7583C121.361 43.6465 109.677 39.5827 109.677 39.5827C109.677 39.5827 109.626 39.4811 109.525 39.3287C111.912 39.3287 114.198 39.4811 116.332 39.7351C116.383 39.7859 116.433 39.7859 116.535 39.8367C124.663 43.9005 127.457 50.7583 127.457 50.7583Z"
    fill="#283B3F"
  />
  <path
    d="M132.028 52.7902C129.031 47.2024 122.682 41.9194 120.853 40.497C121.107 40.5478 121.412 40.5986 121.666 40.6494C122.986 40.9542 124.256 41.259 125.425 41.6146C125.628 41.6654 125.831 41.7162 125.983 41.767C126.339 41.8686 126.695 41.9702 126.999 42.0718C127.253 42.1733 127.457 42.2241 127.609 42.2749C131.52 47.3548 132.028 52.7902 132.028 52.7902Z"
    fill="#283B3F"
  />
  <path
    d="M134.568 50.2503C134.568 48.7263 131.012 43.6465 131.012 43.6465C131.012 43.6465 131.012 43.6465 131.012 43.5957C131.977 44.0021 132.841 44.4085 133.654 44.7641C134.975 47.7611 134.568 51.571 134.568 50.2503Z"
    fill="#283B3F"
  />
  <path
    d="M153.872 51.7743L146.252 56.3461C145.236 53.349 143.559 50.6059 141.375 48.32L139.699 46.5928L139.394 44.9165C140.562 46.0341 144.22 48.2184 146.76 53.2982L147.623 49.3867C148.03 49.9455 148.284 50.2503 148.284 50.2503C148.487 50.2503 148.69 50.0471 148.893 49.7931L149.3 53.8062L152.348 46.6944L152.856 47.812L153.872 51.7743Z"
    fill="#283B3F"
  />
  <path
    d="M122.885 56.8541C122.885 56.8541 110.185 62.4419 105.105 65.9977C100.025 69.5536 101.041 81.7451 99.5175 81.7451C97.9936 81.7451 94.9457 83.7771 94.9457 83.7771L98.5015 86.825L109.169 85.809L119.837 81.7451L123.393 69.5536L122.885 56.8541Z"
    fill="#F27F46"
  />
  <path
    d="M146.252 56.346C146.252 56.346 124.409 52.2822 117.297 60.4099C112.065 66.4041 111.709 71.5855 111.201 80.7291L117.297 81.7451V82.7611C117.297 82.7611 108.153 82.7611 100.026 86.8249L116.281 101.048L164.031 86.8249L146.252 56.346Z"
    fill="#D06530"
  />
  <path
    d="M107.645 88.3489C107.645 88.3489 122.377 84.793 127.965 85.301C127.965 85.301 130.504 82.2531 133.044 83.777C134.06 85.301 133.552 85.809 133.552 85.809V89.8728C133.552 89.8728 120.345 101.048 117.297 101.048C114.249 101.048 109.423 91.6508 107.645 88.3489Z"
    fill="#BF4D15"
  />
  <path
    d="M157.681 116.948C157.681 116.948 159.408 125.178 157.986 129.292C157.935 129.394 157.834 129.394 157.834 129.292C157.377 128.53 155.446 125.533 154.125 124.619V131.527C154.125 131.629 154.024 131.68 153.973 131.578C153.211 130.765 149.706 127.26 147.014 127.667C143.966 128.175 148.487 118.167 148.487 118.167L157.681 116.948Z"
    fill="#983809"
  />
  <path
    d="M149.3 116.796C149.3 116.796 139.597 115.323 133.908 123.349C133.806 123.501 133.959 123.704 134.111 123.654C135.584 122.993 139.343 121.418 140.359 121.723C140.512 121.774 140.512 121.926 140.41 122.028C139.445 122.841 134.467 126.803 134.009 129.749C134.009 129.902 134.619 130.003 134.721 129.953C135.737 129.749 139.597 129.038 140.054 129.495C140.054 129.495 144.626 131.527 147.166 126.447C148.538 124.67 148.487 120.657 148.436 119.793C148.436 119.691 148.538 119.59 148.639 119.59C149.3 119.59 151.738 119.59 153.668 120.86C153.871 120.961 154.075 120.86 154.125 120.657C154.227 119.895 154.379 118.421 154.075 117.659C154.075 117.609 153.973 117.558 153.922 117.558L149.3 116.796Z"
    fill="#B95626"
  />
  <path
    d="M139.394 118.574C173.683 120.86 190.7 94.6986 190.446 94.4447C176.731 90.8888 166.063 79.7132 166.063 79.7132L163.269 79.9672L139.394 118.574Z"
    fill="#AF430F"
  />
  <path
    d="M158.951 78.6973C158.951 78.6973 153.364 80.2212 148.792 74.1254C149.3 76.1574 156.157 82.5071 154.633 86.571C154.633 86.571 150.062 80.4752 143.458 81.4912L152.094 103.842L169.365 97.7466L173.429 91.6508L168.349 87.079L158.951 78.6973Z"
    fill="#BF4D15"
  />
  <path
    d="M166.063 80.7291C166.063 80.7291 179.017 73.8714 177.239 53.2981C176.324 42.6305 172.007 37.0427 168.857 30.185C168.857 30.185 168.349 39.8366 166.825 41.8686C165.301 43.9005 156.665 52.5362 146.506 56.6C145.693 57.5652 145.744 59.3939 146.252 61.4258C147.369 65.9469 146.049 71.8395 151.078 74.8874C153.313 76.2589 155.802 76.2589 157.427 77.6305C159.967 79.7132 166.063 80.7291 166.063 80.7291Z"
    fill="#C38C70"
  />
  <path
    d="M167.587 86.317C167.587 86.317 167.587 82.7611 165.555 81.2371C163.523 79.7132 160.983 79.7132 157.427 77.6813C157.427 77.6813 160.983 82.7611 167.587 86.317Z"
    fill="#533423"
  />
  <path
    d="M159.713 77.9353C159.713 77.9353 158.037 78.3925 154.227 76.7161C154.227 76.7161 154.227 76.7161 154.176 76.7161C154.024 76.6653 153.872 76.6145 153.719 76.5129C152.957 76.1574 152.195 75.751 151.281 75.243C150.925 75.0398 150.62 74.8366 150.265 74.6334C145.439 71.6363 144.067 65.5913 143.763 63.3562C143.763 63.153 144.017 63.1022 144.067 63.2546C144.321 63.661 144.575 64.2198 144.88 64.677C145.388 65.5405 145.947 66.2517 146.15 65.9977C146.658 64.9818 145.134 59.394 147.166 56.8541C150.976 53.0442 165.2 47.9644 166.723 45.9325C168.247 43.9005 171.397 43.9005 172.311 54.5682C174.191 75.1414 159.713 77.9353 159.713 77.9353Z"
    fill="url(#paint30_linear)"
  />
  <path
    d="M167.841 76.9193C168.908 76.5637 180.795 62.9498 171.143 42.1226C171.143 42.1226 166.571 57.362 161.745 66.7597C161.745 66.7597 164.031 68.0296 168.857 60.6639C168.857 60.6639 167.841 66.2517 165.809 68.7916C165.809 68.7916 167.333 68.7916 167.841 68.2836C168.349 67.7756 165.809 72.3474 162.761 73.3634C162.761 73.3634 164.285 73.8714 166.317 73.3634C166.317 73.3634 161.999 77.1733 157.427 77.6813C157.427 77.6813 160.983 79.2052 167.841 76.9193Z"
    fill="#D7E7E7"
  />
  <path
    d="M156.157 72.8555C157.681 73.3635 162.253 71.3315 162.253 71.3315C160.729 73.8714 158.189 74.3794 158.189 74.3794C158.189 74.8874 159.713 75.3954 159.713 75.3954C157.123 76.5637 155.243 76.7669 153.872 76.5129C153.821 76.5129 153.77 76.5129 153.77 76.4621C153.008 76.1066 150.316 74.5826 150.316 74.5826C159.459 71.0267 167.079 53.7554 167.079 53.7554C167.079 53.7554 167.384 52.7394 167.485 52.6378C167.485 52.7394 167.181 53.9078 166.063 57.8192C163.676 66.3533 156.157 72.8555 156.157 72.8555Z"
    fill="#AF430F"
  />
  <path
    d="M169.009 30.439C170.635 33.4869 171.651 39.5827 171.143 42.8846C169.365 54.3142 165.657 59.5464 165.047 60.9179C165.301 60.2067 165.301 55.8381 164.793 55.3301C163.777 54.3142 161.999 56.0921 162.507 55.0761C163.015 54.0602 164.031 51.0123 164.031 51.0123C163.269 50.7583 150.824 56.3461 147.319 59.5972C146.76 60.1559 146.76 62.7466 146.76 62.7466C146.76 62.899 146.506 63.0514 146.404 62.899C145.845 61.6799 145.998 57.5144 145.998 57.5144C145.998 57.4128 145.947 57.362 145.845 57.3112C138.683 54.8221 122.427 57.4128 122.427 57.4128C130.962 53.2982 145.134 55.7365 146.15 56.0413C146.201 56.0413 146.252 56.0413 146.303 55.9905C149.452 53.4506 158.951 48.9296 158.951 48.9296C158.951 48.9296 164.539 45.7801 167.079 41.3098C168.095 39.5319 168.4 32.471 168.552 30.2866C168.552 30.0834 168.806 30.0327 168.908 30.185C168.959 30.2866 169.009 30.3374 169.009 30.439Z"
    fill="url(#paint31_linear)"
  />
  <path
    d="M182.826 96.9846C183.08 97.2386 172.921 105.874 170.381 107.398C170.381 107.398 170.381 105.061 169.619 100.896C169.517 100.439 169.416 99.9309 169.314 99.4229C169.06 98.2037 168.755 96.7814 168.349 95.3082C168.349 95.359 168.349 95.4098 168.4 95.5114C168.4 95.5622 168.4 95.6638 168.451 95.7146C168.451 95.7654 168.451 95.7654 168.451 95.8162C168.451 95.9178 168.501 96.0702 168.501 96.2226C168.501 96.375 168.552 96.5274 168.552 96.6798C168.755 98.0005 169.009 100.083 169.213 102.115C169.213 102.268 169.213 102.369 169.263 102.522C169.263 102.674 169.263 102.776 169.314 102.928C169.365 103.334 169.365 103.69 169.416 104.046V104.096C169.467 105.214 169.467 106.281 169.365 107.043C169.314 107.347 169.263 107.551 169.213 107.754C169.111 108.059 169.009 108.313 168.857 108.414C167.333 109.43 166.317 109.938 166.317 109.938C166.317 109.938 167.333 104.858 166.317 101.302C166.317 101.302 165.809 110.446 164.285 111.462C163.777 111.767 162.812 112.275 161.44 112.834C160.78 113.088 160.018 113.392 159.104 113.697C158.189 114.002 157.123 114.358 155.954 114.662C154.278 115.12 152.348 115.577 150.163 115.983C149.147 116.186 148.081 116.389 147.014 116.542C137.362 118.066 134.314 123.654 134.314 123.654C134.314 123.654 138.378 121.114 140.41 121.622C140.41 121.622 134.314 127.717 134.314 129.241C134.314 130.257 138.378 128.225 140.41 129.241C140.41 129.241 119.583 139.401 117.551 141.941C117.551 141.941 115.011 136.861 112.979 135.845C110.947 134.829 99.7715 132.289 99.2635 128.733C98.7556 125.178 99.2635 124.162 99.2635 124.162L115.011 123.146L115.976 109.024L116.281 104.35C107.594 107.652 90.8819 100.591 90.8819 100.591C81.7382 105.163 82.2462 91.9556 82.2462 91.9556C82.2462 91.9556 84.2781 84.8438 101.041 86.8757C117.805 88.9077 116.789 100.591 116.789 100.591C116.789 100.591 116.941 100.591 117.195 100.54C119.735 99.3721 128.879 94.9527 132.79 90.1776C132.79 90.1776 131.266 90.1776 130.25 90.6856C129.234 91.1936 132.79 82.0499 142.442 82.0499C152.094 82.0499 153.618 91.1936 153.618 93.7335C153.618 96.2734 153.11 100.845 153.11 100.845C153.11 100.845 157.224 98.2037 160.424 95.2066C161.186 94.4955 161.948 93.7335 162.558 93.0223C162.761 92.8191 162.914 92.6159 163.066 92.4127C163.371 92.0064 163.574 91.6 163.777 91.2444C163.777 91.2444 165.301 93.7843 164.793 98.3561C164.793 98.3561 166.825 95.3082 166.317 90.2284C166.317 90.2284 168.349 90.2284 169.365 92.7683C169.365 92.7683 169.365 88.1965 168.095 86.4186C168.501 86.6218 181.303 96.9846 182.826 96.9846Z"
    fill="url(#paint32_linear)"
  />
  <path
    d="M162.558 92.9207C161.694 102.928 159.662 111.411 159.104 113.646C158.189 113.951 157.123 114.307 155.954 114.612C158.443 107.5 160.221 96.6798 160.475 95.105C161.237 94.3939 161.948 93.6827 162.558 92.9207Z"
    fill="white"
  />
  <path
    d="M182.826 96.9846C183.08 97.2386 172.921 105.874 170.381 107.398C170.381 107.398 170.635 105.112 168.603 97.4925C168.705 98.0005 170.33 107.449 168.857 108.414C167.333 109.43 166.317 109.938 166.317 109.938C166.317 109.938 167.333 104.858 166.317 101.302C166.317 101.302 165.809 110.446 164.285 111.462C163.777 111.767 162.812 112.275 161.44 112.834C163.472 107.144 163.218 95.613 163.066 92.3111C163.371 91.9047 163.574 91.4984 163.777 91.1428C163.777 91.1428 165.301 93.6827 164.793 98.2545C164.793 98.2545 166.825 95.2066 166.317 90.1268C166.317 90.1268 168.349 90.1268 169.365 92.6667C169.365 92.6667 169.365 88.0949 168.095 86.317C168.501 86.6217 181.302 96.9846 182.826 96.9846Z"
    fill="white"
  />
  <path
    d="M152.855 115.272L150.163 115.983C149.147 116.186 148.08 116.389 147.014 116.542C137.362 118.066 134.314 123.654 134.314 123.654C134.314 123.654 138.378 121.114 140.41 121.622C140.41 121.622 134.314 127.717 134.314 129.241C134.314 130.257 138.378 128.225 140.41 129.241C140.41 129.241 119.583 139.401 117.551 141.941C117.551 141.941 117.043 140.874 116.23 139.604L112.725 136.099C112.725 136.099 121.869 125.432 120.853 123.908C119.837 122.384 121.869 118.828 120.853 117.812C119.837 116.796 115.011 123.146 115.011 123.146L115.976 109.024C117.703 107.855 119.075 106.89 119.075 106.89L129.742 94.6986L134.06 92.9207C134.06 92.9207 128.98 107.144 134.06 110.7C135.076 111.208 143.204 107.652 146.252 105.62C146.252 105.62 139.394 112.986 139.902 114.51C140.41 116.034 152.855 115.272 152.855 115.272Z"
    fill="#D1C8B7"
  />
  <path
    d="M99.1619 125.533C99.1619 125.533 104.597 128.479 109.677 127.971C114.757 127.463 115.875 128.175 116.84 130.105C117.297 130.968 114.3 130.968 113.741 132.035C113.081 133.305 114.757 135.591 114.757 135.591L105.613 133.051L99.0095 129.495L99.1619 125.533Z"
    fill="#D1C8B7"
  />
  <path
    d="M95.4537 123.908C95.4537 123.908 95.4537 126.955 95.4537 127.971C95.4537 128.987 94.9457 131.527 103.073 133.559C111.201 135.591 111.709 135.591 114.757 138.131C116.281 138.639 116.789 138.131 116.281 136.607C115.773 135.083 114.757 132.543 115.773 132.543C116.789 132.543 117.805 134.067 118.313 134.067C118.821 134.067 120.345 128.479 124.917 123.4C129.488 118.32 133.044 114.764 134.06 114.256C135.076 113.748 131.774 114.002 127.71 118.066C123.647 122.13 118.567 127.717 117.551 130.257C117.551 130.257 112.979 129.241 112.471 130.257C111.963 131.273 113.995 133.813 112.471 133.813C111.201 133.813 107.086 131.68 105.461 130.105C105.359 130.003 105.156 130.105 105.207 130.257C105.41 130.765 105.613 131.324 105.867 131.781C105.867 131.781 100.787 130.765 99.7715 128.733C98.7555 126.701 99.2635 124.67 99.2635 124.67L95.4537 123.908Z"
    fill="#B0552A"
  />
  <path
    d="M136.6 86.317C136.6 86.317 142.188 83.2691 145.744 86.317C149.3 89.3648 147.471 93.4795 145.744 92.9207C142.696 91.9048 143.712 89.3648 140.664 88.8569C137.616 88.3489 136.6 86.317 136.6 86.317Z"
    fill="#D1C8B7"
  />
  <path
    d="M95.9616 120.86C95.9616 120.86 92.9137 122.13 92.9137 122.638C92.9137 123.146 94.9456 123.908 103.073 125.177C114.198 126.905 115.265 125.431 115.773 123.908C116.636 121.317 119.329 114.51 122.377 110.446C125.424 106.382 131.774 93.4287 137.87 88.8568C137.87 88.8568 141.781 88.8568 144.118 90.1776C144.271 90.2792 144.474 90.1776 144.474 89.9744C144.474 88.9584 144.22 85.8597 141.426 85.301C137.006 84.4374 133.654 87.5869 132.638 88.552C132.536 88.6536 132.587 88.8568 132.739 88.8568H135.584C135.584 88.8568 120.853 105.112 104.851 108.16H102.819C102.819 108.16 102.565 115.526 95.9616 120.86Z"
    fill="url(#paint33_linear)"
  />
  <path
    d="M112.725 59.3939C112.725 59.3939 106.121 62.9498 103.073 63.4578C100.026 63.9658 97.9936 70.0615 97.9936 73.6174C97.9936 76.2081 97.9936 79.8656 97.9936 81.2371C97.9936 81.7451 92.9138 81.2371 92.9138 81.2371L96.9777 82.7611L101.042 81.7451C101.042 81.7451 99.7716 68.7916 103.327 66.2517C104.851 65.2357 108.407 65.7437 110.947 62.6958C111.455 61.6798 112.725 59.3939 112.725 59.3939Z"
    fill="#B0552A"
  />
  <path
    d="M107.899 68.2836C108.407 68.2836 102.616 62.645 101.042 62.9498C99.7716 63.2038 98.654 70.0107 98.5016 71.5855C98.2476 73.8714 100.788 66.2517 103.327 66.2517C105.867 66.2517 107.391 68.2836 107.899 68.2836Z"
    fill="#0E212F"
  />
  <path
    d="M108.153 68.5376C108.153 68.5376 105.105 65.4897 103.581 65.9977C102.057 66.5056 101.041 69.5535 100.533 73.1094C100.026 76.6653 100.026 81.2371 100.026 81.2371L107.899 80.4751L108.153 68.5376Z"
    fill="white"
  />
  <path
    d="M108.153 70.5695C108.153 70.5695 103.581 70.0615 102.057 73.6174C101.041 76.6653 101.549 81.2371 101.549 81.2371L107.899 80.9831L108.153 70.5695Z"
    fill="#000503"
  />
  <path
    d="M108.153 72.6014V80.7291L102.565 81.2371C102.565 81.2371 102.057 75.6493 103.073 74.1254C104.089 72.6014 105.613 72.0935 108.153 72.6014Z"
    fill="#E3EBE8"
  />
  <path
    d="M108.153 77.1733V81.2371H103.581V77.7829C103.835 78.0368 104.191 78.1892 104.597 78.1892C104.648 78.1892 104.648 78.1892 104.699 78.1892C105.309 78.1384 105.817 77.7321 106.02 77.1733H108.153Z"
    fill="url(#paint34_linear)"
  />
  <path
    d="M108.153 77.4273C108.153 78.6972 107.34 79.7132 106.375 79.7132C105.613 79.7132 104.953 79.1036 104.699 78.1892C105.309 78.1384 105.817 77.7321 106.02 77.1733C106.071 77.0209 106.121 76.8177 106.121 76.6653C106.121 76.1573 105.867 75.7001 105.512 75.4461C105.766 75.243 106.071 75.1414 106.375 75.1414C107.29 75.1414 108.052 76.0557 108.153 77.1733C108.153 77.2749 108.153 77.3257 108.153 77.4273Z"
    fill="#0B1A1B"
  />
  <path
    d="M125.679 101.302L113.995 120.098L101.803 121.114L105.359 118.066L105.867 111.97L108.407 105.874L117.805 104.604L127.711 98.2545L125.679 101.302Z"
    fill="url(#paint35_linear)"
  />
  <path
    d="M123.393 105.112L120.853 109.176C118.313 110.7 114.605 118.98 114.605 118.98L108.915 123.146C108.915 123.146 106.579 118.879 107.899 114.51C109.626 108.922 115.214 108.262 116.84 108.16C116.129 109.735 113.843 112.122 113.335 112.63C113.894 112.072 116.891 109.176 120.396 106.585L123.393 105.112Z"
    fill="#EE6A85"
  />
  <path d="M104.851 112.478L99.2637 117.558L99.7717 119.082L106.121 113.24L104.851 112.478Z" fill="#BA6034" />
  <path
    d="M102.566 120.86L107.899 120.606C107.899 120.606 108.661 115.272 109.677 115.272C110.49 115.272 110.896 115.983 112.725 117.812C113.182 118.218 113.944 118.523 114.503 119.082L114.249 119.844L112.471 123.146L104.343 122.638L102.566 120.86Z"
    fill="#BA6034"
  />
  <path
    d="M114.249 119.844C114.249 119.844 111.709 118.167 110.49 116.339C110.338 116.085 109.982 116.135 109.83 116.389C109.322 117.405 108.407 119.133 109.169 121.368L102.057 120.86L104.801 118.472C105.309 118.015 105.664 117.405 105.715 116.745L106.121 113.24L99.5175 119.336C99.5175 119.336 99.5175 116.796 98.5016 116.288C97.9936 116.288 96.4696 117.812 95.9617 119.844C95.9109 120.098 95.9617 120.504 95.9617 120.86C95.9617 121.164 96.2157 121.469 96.4696 121.571C97.8412 122.079 101.499 123.044 109.169 123.4C112.217 123.4 112.725 123.4 113.233 122.384C113.741 121.368 114.249 119.844 114.249 119.844Z"
    fill="#FDFFFF"
  />
  <path
    d="M100.026 120.86C100.026 120.86 99.5175 116.288 98.5016 116.288C97.4856 116.288 96.2157 117.558 95.9617 120.86"
    stroke="#C46436"
    stroke-width="0.551724"
    stroke-linecap="round"
    stroke-linejoin="round"
  />
  <path
    d="M79.1982 88.8569C79.1982 88.8569 78.1823 100.54 85.294 102.572C86.818 103.08 88.3419 103.08 88.3419 103.08C88.3419 103.08 91.8978 108.414 96.114 110.344C96.5204 110.548 96.9776 110.243 96.9776 109.786V107.144C96.9776 107.144 98.5015 107.652 99.5175 106.636C99.5175 106.636 101.549 110.192 105.105 112.732C106.68 113.85 108.509 114.154 109.271 114.205C109.474 114.205 109.677 114.053 109.677 113.85V106.636C109.677 106.636 117.805 107.144 125.933 100.032C131.012 95.9686 131.52 94.4447 131.52 94.4447L132.028 92.9207C132.028 92.9207 117.297 105.62 110.693 105.112C103.531 104.553 93.4217 101.048 91.3898 98.5085C91.3898 98.5085 89.8658 100.54 88.3419 101.048C87.3259 101.556 81.2302 99.0165 82.2461 91.9048C82.2461 91.9048 79.7062 90.8888 79.1982 88.8569Z"
    fill="url(#paint36_linear)"
  />
  <circle cx="84.2781" cy="95.9686" r="0.507981" fill="#000907" />
  <circle cx="99.2636" cy="92.6667" r="0.761972" fill="#000907" />
  <circle cx="103.581" cy="94.9526" r="0.507981" fill="#000907" />
  <path d="M79.1983 91.9047L65.4828 90.3808" stroke="#00070C" stroke-width="0.772414" stroke-linecap="round" />
  <path d="M78.9443 95.2066L75.3884 96.2226" stroke="#00070C" stroke-width="0.717241" stroke-linecap="round" />
  <path d="M113.995 88.0949L103.327 91.6508" stroke="#00070C" stroke-width="0.772414" stroke-linecap="round" />
  <path d="M128.218 92.1588L104.851 93.1747" stroke="#00070C" stroke-width="0.827586" stroke-linecap="round" />
  <path
    d="M100.432 86.4694C100.381 86.8758 100.178 87.3329 99.7208 87.7901C99.162 88.4505 98.1968 89.2125 96.7237 90.076C91.6439 93.1239 90.6279 97.1878 90.6279 97.1878C89.6627 96.7306 88.7484 96.2734 87.9356 95.8162C87.834 95.7654 87.7832 95.7146 87.6816 95.6638C87.5292 95.5622 87.3768 95.5114 87.2244 95.4098C78.6903 90.6348 77.522 86.6726 77.9792 83.9803C78.4364 81.2372 82.1954 80.9832 87.7832 80.9324C89.8151 80.9324 91.8979 81.1356 93.879 81.6435C95.7077 82.1007 97.5365 83.0151 98.8064 83.9803C99.7716 84.793 100.534 85.555 100.432 86.4694Z"
    fill="url(#paint37_linear)"
    stroke="#1B1C1C"
    stroke-width="0.551724"
  />
  <path
    d="M87.326 85.9105C84.3797 85.0978 80.8239 85.2502 79.7063 85.8089L80.1127 84.3866C80.8747 84.031 81.9414 83.8278 83.2622 83.8278C84.8877 83.777 86.3609 84.5898 87.326 85.9105Z"
    fill="white"
  />
  <path
    opacity="0.3"
    d="M99.924 86.4693C99.8732 86.8757 99.67 87.3329 99.2128 87.79C98.3492 88.2472 97.4857 88.806 95.8093 88.806C94.5902 88.806 93.2186 88.5012 91.7455 87.6885C90.2215 86.8249 88.6976 86.2661 87.2752 85.8597C86.6149 84.8946 84.3797 84.1326 83.7194 83.7262C85.9545 84.031 89.3072 84.7422 92.4566 86.3677C96.5713 88.4504 99.8224 85.8597 99.9748 85.7581L99.924 86.4693Z"
    fill="white"
  />
  <path
    d="M80.4682 86.5709C80.9762 89.4664 84.278 93.7335 87.1735 95.4606C78.6394 90.6856 77.4711 86.7233 77.9283 84.031C78.3855 81.2879 82.1445 81.034 87.7323 80.9832C89.7642 80.9832 91.847 81.1863 93.8281 81.6943C95.6568 82.1515 97.4856 83.0659 98.7555 84.031C98.7555 84.031 92.6597 83.0151 88.0879 83.0151C83.5161 83.0151 79.9602 83.5231 80.4682 86.5709Z"
    fill="#1B1C1C"
  />
  <path
    d="M91.6438 100.286L89.3579 102.064C89.3579 102.064 91.3898 107.144 96.4696 109.176C96.4696 109.176 95.7077 106.382 95.1997 105.366L94.9457 104.604L96.9776 106.128L99.5175 105.112C99.5175 105.112 105.105 112.732 108.661 112.732L107.899 106.382C107.899 106.382 97.2316 103.842 91.6438 100.286Z"
    fill="white"
  />
  <path d="M108.153 81.2372L95.9617 82.2531L99.0096 81.2372L108.153 80.7292V81.2372Z" fill="#B0552A" />
  <path
    d="M140.664 77.1733L138.124 78.0369L135.533 78.9512L133.552 80.2212L117.297 83.2691C117.297 83.2691 113.741 64.4738 122.377 60.9179C128.066 58.5812 133.349 63.153 136.549 67.3693C138.226 69.5536 139.292 71.6363 139.648 72.6015C140.41 74.9382 140.613 76.3605 140.664 76.9193C140.664 77.0717 140.664 77.1733 140.664 77.1733Z"
    fill="#FBFFFE"
  />
  <path
    d="M140.664 76.9193L138.124 78.0876L135.584 79.256L135.533 79.002L133.044 70.5695H119.837C119.837 70.5695 124.917 62.4418 132.536 64.9817C134.162 65.5405 135.483 66.3533 136.549 67.3692C138.226 69.5535 139.292 71.6363 139.648 72.6014C140.41 74.9381 140.613 76.3605 140.664 76.9193Z"
    fill="#DBEEEE"
  />
  <path
    d="M116.281 74.6334C116.281 74.6334 115.773 61.4259 122.885 59.9019C128.472 58.378 134.568 64.4737 137.108 68.0296C137.108 68.0296 129.742 61.1719 124.155 62.1878C118.567 63.2038 116.281 74.6334 116.281 74.6334Z"
    fill="#0F1E20"
  />
  <path
    d="M121.361 81.7451C121.361 81.7451 118.821 75.1413 120.853 72.0934C120.853 72.0934 120.345 72.0934 119.837 72.6014C119.329 73.1094 119.837 69.0455 123.901 68.0296C127.964 67.0136 133.044 68.5376 134.06 70.0615C135.076 71.5855 136.194 75.6493 136.092 77.6812C135.94 80.3227 127.66 81.1355 127.71 80.9831L121.361 81.7451Z"
    fill="#1C262B"
  />
  <path
    d="M135.076 79.2052C135.076 79.2052 135.584 74.1254 132.536 71.0775C129.488 68.0296 124.409 69.5535 123.393 70.5695C122.377 71.5855 120.853 73.6174 121.361 77.6812C121.869 81.7451 122.377 81.7451 122.377 81.7451L131.012 80.2212L135.076 79.2052Z"
    fill="#FCFDFF"
  />
  <path
    d="M134.568 79.7132L125.577 81.4403C125.526 81.3895 125.475 81.2879 125.425 81.2371C125.069 80.7799 124.815 80.2719 124.663 79.764C125.221 78.7988 126.39 77.5288 128.727 76.9193C132.13 76.0557 134.111 78.9004 134.568 79.7132Z"
    fill="url(#paint38_linear)"
  />
  <path
    d="M134.568 78.1892C134.568 78.3924 134.568 78.6464 134.518 78.8496C134.518 78.9512 134.518 79.51 134.467 79.6116L134.162 79.2052C133.705 78.3924 132.079 76.1065 128.727 76.9193C126.39 77.5289 125.221 78.7988 124.663 79.764C124.51 79.256 124.409 78.748 124.409 78.1892C124.409 75.3954 126.695 73.1094 129.489 73.1094C132.282 73.1094 134.568 75.3954 134.568 78.1892Z"
    fill="#42B955"
  />
  <ellipse cx="128.98" cy="76.2589" rx="2.28592" ry="3.14948" fill="#042033" />
  <circle cx="126.695" cy="74.3794" r="2.28592" fill="#FCFDFF" />
  <path
    d="M146.252 78.1892C146.252 78.1892 138.124 77.1732 131.52 82.2531C131.266 81.8975 137.616 74.6333 146.252 78.1892Z"
    fill="#B0552A"
  />
  <path
    d="M134.619 80.0179C134.619 80.0179 121.869 82.2531 121.869 83.269L123.901 83.777C123.901 83.777 117.297 84.285 117.297 83.269C117.297 82.2531 131.114 79.8148 134.619 80.0179Z"
    fill="#B0552A"
  />
  <g filter="url(#filter0_d)">
    <path
      fill-rule="evenodd"
      clip-rule="evenodd"
      d="M82.9824 62.3103C82.9824 62.3103 87.9491 41.1326 103.487 38.9324C103.385 39.5519 98.905 42.8868 91.7653 50.8004C89.0574 53.8018 82.9824 62.3103 82.9824 62.3103Z"
      fill="black"
      fill-opacity="0.01"
    />
  </g>
  <defs>
    <filter
      id="filter0_d"
      x="80.9774"
      y="34.3711"
      width="24.51"
      height="34.4995"
      filterUnits="userSpaceOnUse"
      color-interpolation-filters="sRGB"
    >
      <feFlood flood-opacity="0" result="BackgroundImageFix" />
      <feColorMatrix in="SourceAlpha" type="matrix" values="0 0 0 0 0 0 0 0 0 0 0 0 0 0 0 0 0 0 127 0" />
      <feOffset dy="1" />
      <feGaussianBlur stdDeviation="1" />
      <feColorMatrix type="matrix" values="0 0 0 0 1 0 0 0 0 1 0 0 0 0 1 0 0 0 1 0" />
      <feBlend mode="normal" in2="BackgroundImageFix" result="effect1_dropShadow" />
      <feBlend mode="normal" in="SourceGraphic" in2="effect1_dropShadow" result="shape" />
    </filter>
    <radialGradient
      id="paint0_radial"
      cx="0"
      cy="0"
      r="1"
      gradientUnits="userSpaceOnUse"
      gradientTransform="translate(149 161.247) rotate(90) scale(148.713)"
    >
      <stop stop-color="#9954D6" stop-opacity="0.50896" />
      <stop offset="1" stop-color="#141254" stop-opacity="0.01" />
    </radialGradient>
    <linearGradient
      id="paint1_linear"
      x1="208.574"
      y1="240.97"
      x2="177.851"
      y2="267.617"
      gradientUnits="userSpaceOnUse"
    >
      <stop stop-color="white" />
      <stop offset="1" stop-color="#560A0D" />
    </linearGradient>
    <linearGradient
      id="paint2_linear"
      x1="210.749"
      y1="229.779"
      x2="172.456"
      y2="244.835"
      gradientUnits="userSpaceOnUse"
    >
      <stop stop-color="white" />
      <stop offset="1" stop-color="#560A0D" />
    </linearGradient>
    <linearGradient
      id="paint3_linear"
      x1="124.771"
      y1="236.657"
      x2="141.209"
      y2="236.657"
      gradientUnits="userSpaceOnUse"
    >
      <stop offset="0.1386" stop-color="#333333" />
      <stop offset="0.9988" stop-color="#1C1C1C" />
    </linearGradient>
    <linearGradient
      id="paint4_linear"
      x1="99.5625"
      y1="236.826"
      x2="104.236"
      y2="236.826"
      gradientUnits="userSpaceOnUse"
    >
      <stop stop-color="#1F1F1F" />
      <stop offset="1" stop-color="#323232" />
    </linearGradient>
    <linearGradient
      id="paint5_linear"
      x1="81.9929"
      y1="310.709"
      x2="105.259"
      y2="310.709"
      gradientUnits="userSpaceOnUse"
    >
      <stop stop-color="#8F8E8F" />
      <stop offset="1" stop-color="#464646" />
    </linearGradient>
    <linearGradient
      id="paint6_linear"
      x1="61.994"
      y1="332.789"
      x2="119.548"
      y2="332.789"
      gradientUnits="userSpaceOnUse"
    >
      <stop offset="0.4331" stop-color="#181818" />
      <stop offset="0.5892" stop-color="#2D2D2D" />
      <stop offset="1" stop-color="#333333" />
    </linearGradient>
    <linearGradient
      id="paint7_linear"
      x1="92.8966"
      y1="317.763"
      x2="105.871"
      y2="333.594"
      gradientUnits="userSpaceOnUse"
    >
      <stop stop-color="#333333" />
      <stop offset="1" stop-color="#515150" />
    </linearGradient>
    <linearGradient
      id="paint8_linear"
      x1="62.6583"
      y1="327.965"
      x2="103.388"
      y2="327.965"
      gradientUnits="userSpaceOnUse"
    >
      <stop stop-color="#D6A801" />
      <stop offset="1" stop-color="#CCA001" />
    </linearGradient>
    <linearGradient
      id="paint9_linear"
      x1="66.9966"
      y1="329.183"
      x2="101.016"
      y2="319.837"
      gradientUnits="userSpaceOnUse"
    >
      <stop stop-color="#FCC90D" />
      <stop offset="1" stop-color="#CCA001" />
    </linearGradient>
    <linearGradient
      id="paint10_linear"
      x1="80.4475"
      y1="328.687"
      x2="80.3286"
      y2="321.542"
      gradientUnits="userSpaceOnUse"
    >
      <stop offset="0.4703" stop-color="#181818" />
      <stop offset="1" stop-color="#404141" />
    </linearGradient>
    <linearGradient
      id="paint11_linear"
      x1="71.0916"
      y1="306.086"
      x2="71.128"
      y2="313.669"
      gradientUnits="userSpaceOnUse"
    >
      <stop offset="0.00112141" stop-color="#FFEAB3" />
      <stop offset="1" stop-color="#FFCC00" stop-opacity="0.3" />
    </linearGradient>
    <linearGradient
      id="paint12_linear"
      x1="113.533"
      y1="280.184"
      x2="100.183"
      y2="282.246"
      gradientUnits="userSpaceOnUse"
    >
      <stop stop-color="#333333" />
      <stop offset="0.9988" stop-color="#040404" />
    </linearGradient>
    <linearGradient
      id="paint13_linear"
      x1="88.5455"
      y1="292.555"
      x2="103.374"
      y2="303.006"
      gradientUnits="userSpaceOnUse"
    >
      <stop offset="0.1386" stop-color="#333333" />
      <stop offset="0.9988" stop-color="#1C1C1C" />
    </linearGradient>
    <linearGradient
      id="paint14_linear"
      x1="82.5805"
      y1="298.392"
      x2="90.1639"
      y2="298.392"
      gradientUnits="userSpaceOnUse"
    >
      <stop stop-color="#464646" />
      <stop offset="1" stop-color="#1F1F1F" />
    </linearGradient>
    <linearGradient
      id="paint15_linear"
      x1="82.1623"
      y1="288.164"
      x2="111.592"
      y2="288.164"
      gradientUnits="userSpaceOnUse"
    >
      <stop stop-color="#D6A800" />
      <stop offset="1" stop-color="#FCC600" />
    </linearGradient>
    <linearGradient
      id="paint16_linear"
      x1="81.0599"
      y1="284.472"
      x2="98.3136"
      y2="290.859"
      gradientUnits="userSpaceOnUse"
    >
      <stop stop-color="#D6A801" />
      <stop offset="1" stop-color="#E18601" stop-opacity="0.5" />
    </linearGradient>
    <linearGradient
      id="paint17_linear"
      x1="85.4009"
      y1="272.588"
      x2="84.2962"
      y2="281.383"
      gradientUnits="userSpaceOnUse"
    >
      <stop stop-color="white" />
      <stop offset="1" stop-color="#DB922C" stop-opacity="0.2" />
    </linearGradient>
    <linearGradient
      id="paint18_linear"
      x1="165.65"
      y1="326.878"
      x2="181.579"
      y2="303.603"
      gradientUnits="userSpaceOnUse"
    >
      <stop stop-color="#515150" />
      <stop offset="1" stop-color="#82817F" />
    </linearGradient>
    <linearGradient
      id="paint19_linear"
      x1="154.694"
      y1="330.647"
      x2="197.515"
      y2="330.647"
      gradientUnits="userSpaceOnUse"
    >
      <stop stop-color="#D6A801" />
      <stop offset="1" stop-color="#CCA001" />
    </linearGradient>
    <linearGradient
      id="paint20_linear"
      x1="172.096"
      y1="337.584"
      x2="192.116"
      y2="310.136"
      gradientUnits="userSpaceOnUse"
    >
      <stop offset="0.00121486" stop-color="#D6A801" />
      <stop offset="1" stop-color="#FCC90D" />
    </linearGradient>
    <linearGradient
      id="paint21_linear"
      x1="189.317"
      y1="320.004"
      x2="191.242"
      y2="303.698"
      gradientUnits="userSpaceOnUse"
    >
      <stop stop-color="#FFCC00" stop-opacity="0.3" />
      <stop offset="1" stop-color="#FFEAB3" />
    </linearGradient>
    <linearGradient
      id="paint22_linear"
      x1="203.596"
      y1="341.852"
      x2="203.24"
      y2="324.739"
      gradientUnits="userSpaceOnUse"
    >
      <stop offset="0.7992" stop-color="#181818" />
      <stop offset="1" stop-color="#404141" />
    </linearGradient>
    <linearGradient
      id="paint23_linear"
      x1="176.523"
      y1="318.486"
      x2="184.686"
      y2="276.743"
      gradientUnits="userSpaceOnUse"
    >
      <stop stop-color="#464646" />
      <stop offset="0.761" stop-color="#040404" />
    </linearGradient>
    <linearGradient
      id="paint24_linear"
      x1="165.107"
      y1="305.722"
      x2="170.501"
      y2="282.395"
      gradientUnits="userSpaceOnUse"
    >
      <stop stop-color="#1F1F1F" />
      <stop offset="1" stop-color="#323232" />
    </linearGradient>
    <linearGradient
      id="paint25_linear"
      x1="165.747"
      y1="295.982"
      x2="174.48"
      y2="293.396"
      gradientUnits="userSpaceOnUse"
    >
      <stop stop-color="#383838" />
      <stop offset="1" stop-color="#565756" />
    </linearGradient>
    <linearGradient
      id="paint26_linear"
      x1="154.416"
      y1="260.697"
      x2="137.093"
      y2="276.543"
      gradientUnits="userSpaceOnUse"
    >
      <stop stop-color="#D6A800" />
      <stop offset="1" stop-color="#FCC600" />
    </linearGradient>
    <linearGradient
      id="paint27_linear"
      x1="150.332"
      y1="261.756"
      x2="139.737"
      y2="277.799"
      gradientUnits="userSpaceOnUse"
    >
      <stop stop-color="#D6A801" />
      <stop offset="1" stop-color="#E18601" stop-opacity="0.4" />
    </linearGradient>
    <linearGradient
      id="paint28_linear"
      x1="150.63"
      y1="268.029"
      x2="156.09"
      y2="275.589"
      gradientUnits="userSpaceOnUse"
    >
      <stop stop-color="white" />
      <stop offset="1" stop-color="#DB922C" stop-opacity="0.2" />
    </linearGradient>
    <linearGradient
      id="paint29_linear"
      x1="144.429"
      y1="46.9013"
      x2="149.367"
      y2="36.5974"
      gradientUnits="userSpaceOnUse"
    >
      <stop stop-color="#4D3B2B" />
      <stop offset="1" stop-color="#433A2C" />
    </linearGradient>
    <linearGradient
      id="paint30_linear"
      x1="143.812"
      y1="78.0118"
      x2="172.564"
      y2="78.0118"
      gradientUnits="userSpaceOnUse"
    >
      <stop stop-color="#AF430F" />
      <stop offset="1" stop-color="#CA764D" />
    </linearGradient>
    <linearGradient
      id="paint31_linear"
      x1="122.463"
      y1="59.4761"
      x2="160.918"
      y2="59.4761"
      gradientUnits="userSpaceOnUse"
    >
      <stop stop-color="#C66537" />
      <stop offset="0.648094" stop-color="#7A522D" />
      <stop offset="1" stop-color="#433A2C" />
    </linearGradient>
    <linearGradient
      id="paint32_linear"
      x1="181.364"
      y1="140.062"
      x2="180.616"
      y2="83.9543"
      gradientUnits="userSpaceOnUse"
    >
      <stop stop-color="#F7FAF5" />
      <stop offset="0.380833" stop-color="#E7E0CF" />
      <stop offset="1" stop-color="#F7FAF5" />
    </linearGradient>
    <linearGradient
      id="paint33_linear"
      x1="130.46"
      y1="110.725"
      x2="137.961"
      y2="90.7432"
      gradientUnits="userSpaceOnUse"
    >
      <stop stop-color="#011414" />
      <stop offset="1" stop-color="#6F4029" />
    </linearGradient>
    <linearGradient
      id="paint34_linear"
      x1="103.588"
      y1="80.7276"
      x2="107.178"
      y2="80.8787"
      gradientUnits="userSpaceOnUse"
    >
      <stop stop-color="#84D13F" />
      <stop offset="1" stop-color="#B5F7CC" />
    </linearGradient>
    <linearGradient
      id="paint35_linear"
      x1="121.365"
      y1="130.715"
      x2="135.215"
      y2="101.037"
      gradientUnits="userSpaceOnUse"
    >
      <stop stop-color="#7A3549" />
      <stop offset="0.9623" stop-color="#B05872" />
    </linearGradient>
    <linearGradient
      id="paint36_linear"
      x1="123.469"
      y1="113.518"
      x2="127.513"
      y2="84.158"
      gradientUnits="userSpaceOnUse"
    >
      <stop stop-color="#D86C3A" />
      <stop offset="1" stop-color="#513424" />
    </linearGradient>
    <linearGradient
      id="paint37_linear"
      x1="93.1862"
      y1="96.4756"
      x2="97.5924"
      y2="82.3341"
      gradientUnits="userSpaceOnUse"
    >
      <stop stop-color="#795032" />
      <stop offset="1" stop-color="#45362C" />
    </linearGradient>
    <linearGradient
      id="paint38_linear"
      x1="124.329"
      y1="81.3388"
      x2="134.066"
      y2="82.7892"
      gradientUnits="userSpaceOnUse"
    >
      <stop stop-color="#81CF35" />
      <stop offset="1" stop-color="#C0FFEB" />
    </linearGradient>
  </defs>
</svg>
