<svg width="319" height="512" viewBox="0 0 319 512" fill="none" xmlns="http://www.w3.org/2000/svg">
  <path
    d="M202.888 332.465C202.888 332.465 205.456 407.199 128.659 434.938C82.333 449.249 44.3331 426.546 29.9834 398.807L35.0324 401.369C35.0324 401.369 16.5196 376.988 22.3657 345.097C22.3657 345.097 29.0977 354.373 32.4636 356.846C31.5779 349.249 31.5778 349.249 31.5778 349.249C31.5778 349.249 50.9764 367.712 58.5941 368.595L56.9111 363.56C56.9111 363.56 99.0742 401.369 130.254 355.168C161.522 308.878 162.407 318.154 162.407 318.154L202.888 332.465Z"
    fill="url(#paint0_linear)"
  />
  <path
    d="M199.344 334.85C199.344 334.85 184.641 401.899 147.526 422.04C110.412 442.182 77.7269 432.111 57.4426 418.684C54.8738 416.21 53.1909 410.291 53.1909 410.291L65.0603 411.086L56.6454 401.016H63.3773C63.3773 401.016 56.6454 395.185 53.2794 390.945C53.2794 390.945 64.2631 394.302 69.312 392.624C69.312 392.624 59.2142 382.553 59.2142 381.758C59.2142 380.963 71.0836 385.115 72.7666 384.231C74.4496 383.436 66.8319 378.401 66.8319 378.401C66.8319 378.401 105.452 393.949 129.102 367.094C152.752 340.239 153.373 331.228 153.373 331.228L199.344 334.85Z"
    fill="#B65020"
  />
  <path
    d="M149.297 326.86L222.921 347.081C222.531 347.081 222.296 347.003 222.296 347.003C230.885 359.495 235.569 383.698 235.569 385.259C235.569 385.259 237.131 393.847 237.989 404.387L205.51 412.195C205.51 412.195 198.093 393.067 195.751 387.601C193.409 382.136 188.724 374.329 188.724 374.329H184.821L158.666 413.756L127.436 396.58C127.436 370.035 146.174 350.516 146.174 350.516C146.174 341.928 149.297 329.436 149.297 329.436V326.86Z"
    fill="#560A0D"
  />
  <path
    d="M133.214 396.189C133.214 396.736 133.292 397.204 133.292 397.751L155.933 407.12L156.636 406.183L180.136 374.329H193.409C193.409 374.329 197.313 382.136 199.655 387.601C201.294 391.349 205.12 398.141 207.306 401.889C208.321 403.607 209.414 410.633 209.414 410.633L234.086 404.387C233.929 402.201 233.695 400.015 233.461 398.063C233.227 395.877 232.915 393.847 232.68 392.052C232.134 387.914 231.587 385.259 231.587 385.259C231.587 383.698 226.903 359.495 218.315 347.003L153.981 329.436C153.981 329.436 153.747 330.217 153.435 331.544C152.342 335.916 150.078 346.222 150.078 352.858C150.078 352.858 132.433 370.503 133.214 396.189Z"
    fill="#9B0408"
  />
  <path
    d="M129.31 398.141H132.511C132.511 388.773 138.367 375.5 145.003 364.96C150.39 356.372 158.276 350.907 158.276 350.907C155.933 351.687 153.981 350.516 153.981 350.516C155.543 345.051 161.789 340.367 161.789 340.367L153.435 331.544C152.342 335.916 150.078 346.222 150.078 352.858C150.078 352.858 130.559 370.035 129.31 398.141Z"
    fill="#7E0207"
  />
  <path
    d="M152.42 406.73L155.543 410.633L158.666 407.51L180.136 374.329H193.409C193.409 374.329 197.313 382.136 199.655 387.601C201.294 391.349 204.027 399.781 206.291 403.607L208.633 409.853C208.633 409.853 230.494 404.387 232.056 402.826C232.446 402.514 233.149 402.904 233.461 401.967C233.227 399.781 223.077 397.751 222.296 397.751C218.393 396.97 212.147 386.821 209.805 380.575C207.462 374.329 206.682 374.329 209.024 368.083C211.366 361.837 210.585 358.714 211.366 355.591C212.147 352.468 218.393 349.345 218.393 349.345L217.534 348.408L212.069 351.843L202.466 355.045C202.466 355.045 200.436 357.933 200.67 357.699C197.859 363.789 194.892 364.101 188.646 364.101C182.4 364.101 178.184 355.981 178.184 355.981C180.839 368.473 175.53 376.046 170.377 384.088C164.912 392.676 152.42 406.73 152.42 406.73Z"
    fill="#7E0207"
  />
  <path
    d="M205.901 362.852C205.979 362.618 205.667 362.461 205.51 362.618C203.793 364.96 199.265 370.035 191.457 370.035H183.103C182.479 370.035 181.932 370.347 181.62 370.893L178.184 377.061L181.307 378.623L184.821 374.329C184.821 374.329 193.409 375.109 196.532 374.329C199.499 373.626 203.793 370.113 205.901 362.852Z"
    fill="#560A0D"
  />
  <path
    fill-rule="evenodd"
    clip-rule="evenodd"
    d="M101.594 168.759C98.5488 167.666 82.4655 162.279 68.4902 170.087C68.4902 170.087 44.6776 187.341 38.4316 207.64L107.527 265.962C114.086 274.081 123.689 283.06 136.181 288.291C136.337 288.369 136.493 288.447 136.571 288.603C137.586 290.243 144.378 301.485 145.784 308.668C146.182 310.546 146.663 312.424 147.137 314.272C147.313 314.959 147.488 315.642 147.657 316.32C148.672 320.067 149.531 323.502 149.375 326.079C149.375 326.391 149.609 326.781 150 326.86L155.074 328.265L168.035 331.856L179.746 335.057L179.902 335.135L181.073 335.448H181.151H181.229H181.307L185.211 336.541L187.163 337.087L190.208 337.946L196.61 339.742L198.015 340.132L201.373 341.069L204.027 341.772L205.276 342.084L205.589 342.162L205.901 342.24L212.147 343.958L212.381 344.036L213.786 344.426L218.002 345.597L220.345 346.222L222.843 346.925H222.999C225.185 347.003 232.212 347.237 238.692 345.285C240.277 344.809 242.475 344.237 245.068 343.562C255.244 340.912 271.519 336.673 280.852 330.451C293.89 321.863 307.397 310.23 313.643 293.834V293.756C313.947 292.708 314.192 291.835 314.4 291.09C315.264 288.006 315.508 287.133 316.766 285.246C318.328 282.904 322.231 275.877 304.274 251.674C287.928 229.661 269.689 219.276 263.585 215.8C263.129 215.541 262.741 215.32 262.427 215.135C262.225 215.068 262.139 214.884 262.069 214.735C262.058 214.711 262.047 214.688 262.036 214.667C261.255 212.09 255.244 193.587 246.499 189.215C237.365 184.608 230.416 183.047 225.029 182.969C224.795 182.969 224.561 182.891 224.404 182.735C223.468 181.641 220.188 177.972 216.909 175.005C215.972 174.146 215.035 173.366 214.177 172.741C214.177 172.693 214.147 172.674 214.106 172.649C214.08 172.633 214.05 172.615 214.021 172.585L213.318 172.116C212.615 171.726 211.913 171.336 211.366 171.258C210.351 171.101 208.79 171.882 206.916 173.288C205.198 174.615 203.168 176.41 201.138 178.206L201.138 178.206C200.943 178.401 200.748 178.577 200.553 178.753C200.358 178.928 200.162 179.104 199.967 179.299C199.694 179.533 199.44 179.768 199.186 180.002C198.933 180.236 198.679 180.47 198.406 180.705C195.595 183.281 193.097 185.389 191.535 186.014C191.49 186.059 191.471 186.078 191.448 186.086C191.431 186.092 191.412 186.092 191.379 186.092C191.223 186.17 190.989 186.092 190.832 186.014C190.089 185.668 187.928 184.628 184.871 183.156C178.939 180.3 169.635 175.821 160.774 171.648L159.369 170.945H159.29C155.777 169.306 152.42 167.744 149.375 166.339C148.725 166.014 148.076 165.727 147.452 165.451C147.177 165.329 146.906 165.209 146.642 165.09C146.179 164.884 145.726 164.681 145.286 164.484C143.725 163.786 142.317 163.157 141.099 162.669C140.533 162.438 139.98 162.21 139.438 161.988C136.694 160.861 134.26 159.861 132.043 159.078C124.547 156.345 119.941 155.643 115.335 157.985C109.948 160.718 103.936 166.885 102.452 168.525C102.218 168.837 101.906 168.837 101.594 168.759ZM236.974 283.06C236.428 283.216 235.959 282.826 235.959 282.279H236.037V280.718C236.037 280.483 236.116 280.249 236.272 280.093C236.308 280.059 236.348 280.022 236.391 279.983C237.538 278.926 240.862 275.862 242.518 273.379C242.83 272.91 243.376 272.832 243.767 273.223L248.217 277.673C248.373 277.829 248.451 277.985 248.451 278.219C248.466 278.409 248.48 278.681 248.499 279.02C248.578 280.491 248.724 283.22 249.232 285.949C249.388 286.886 248.217 287.354 247.749 286.573C247.671 286.573 247.671 286.495 247.671 286.495C247.524 286.275 247.383 286.061 247.248 285.855C245.948 283.873 245.108 282.591 242.986 282.591C240.956 282.591 239.004 282.591 236.974 283.06Z"
    fill="#560A0D"
  />
  <path
    d="M107.918 255.265L96.2066 290.399V293.522C96.2066 293.522 102.453 296.645 106.356 295.083C105.966 295.474 110.65 282.201 115.335 282.201C115.335 282.201 129.388 282.982 134.073 284.543C138.757 286.105 141.099 293.131 141.099 293.131C141.099 293.131 152.03 288.447 155.933 296.254C159.837 304.062 162.335 313.509 159.837 317.334C158.276 319.677 155.933 319.677 155.933 319.677L156.714 327.484C156.714 327.484 160.618 326.703 160.618 335.291C160.618 343.88 162.179 347.783 149.687 351.687C137.196 355.591 128.607 358.714 112.993 354.029C112.993 354.029 83.012 353.483 50.1428 350.516C32.9665 348.954 19.9281 339.898 10.3249 327.094C5.64049 320.848 -2.16693 299.768 0.565659 282.982C4.07899 261.199 9.93457 257.998 18.5227 242.383C27.1109 226.768 38.4317 207.64 38.4317 207.64L107.918 255.265Z"
    fill="#560A0D"
  />
  <path
    d="M18.9131 255.266L19.6938 259.95C32.8102 272.13 31.0927 267.914 48.5813 262.292C63.8057 257.296 81.2163 250.269 90.9756 245.272C91.3659 245.116 91.7563 244.882 92.0686 244.726C92.459 244.569 92.7713 244.335 93.0836 244.179C93.1616 244.101 93.3178 244.023 93.3959 244.023C93.4739 243.945 120.956 266.586 121.893 263.151C121.893 263.151 153.045 320.614 153.747 324.127L154.06 324.283L167.957 332.013L172.407 334.511L179.356 338.415L180.527 339.039L190.911 344.817L192.16 345.519L193.253 346.144L193.487 346.222L193.565 346.3L196.454 347.862L198.328 348.955H198.484L202.153 347.627L202.309 347.549L203.949 346.925L210.273 344.661L212.147 343.958L212.381 343.88L213.864 343.333L220.032 341.147L222.453 340.288L222.687 340.367L222.609 339.898L221.047 332.013L220.891 331.232L220.423 329.046L220.345 328.733C220.345 328.733 223.467 314.68 226.59 304.53C226.903 303.594 227.137 302.501 227.449 301.329C227.449 301.173 227.527 300.939 227.605 300.705C227.762 300.002 227.918 299.299 227.996 298.519C229.948 287.12 230.494 270.1 230.572 268.694C230.572 268.616 230.572 268.616 230.572 268.616C231.197 268.851 231.821 269.319 232.29 269.944C233.461 271.427 234.242 273.457 234.398 274.003C234.398 274.003 234.398 274.003 234.398 274.081C234.398 274.16 234.398 274.16 234.398 274.16C234.554 273.847 236.116 271.349 239.082 263.229C242.205 254.641 235.179 250.737 235.179 250.737C237.521 249.957 242.205 253.08 242.205 253.08C247.67 249.957 248.451 245.272 247.67 234.342C246.89 223.411 233.617 205.454 233.617 205.454L235.959 206.235C235.959 206.235 246.109 215.604 251.574 234.342C252.043 235.981 252.433 237.465 252.589 238.87C255.088 253.47 245.328 255.5 246.109 256.983C246.89 258.545 246.109 264.791 246.109 264.791L249.232 268.694C254.697 251.518 269.531 250.737 269.531 250.737C269.141 250.972 268.751 251.284 268.36 251.518C255.712 260.34 255.4 271.739 255.478 274.394C255.478 274.472 255.478 274.472 255.478 274.55C255.478 274.784 255.478 274.94 255.478 274.94C255.478 274.94 256.337 274.628 257.898 274.238C257.898 274.238 257.898 274.238 257.976 274.238C258.054 274.238 258.211 274.16 258.289 274.16C258.835 274.003 259.382 273.925 260.006 273.769C265.94 272.676 276.87 271.973 287.488 278.844C290.767 280.952 293.344 283.294 295.374 285.636C302.244 293.6 302.635 301.798 302.635 303.125C302.635 303.281 302.635 303.281 302.635 303.281C302.713 303.203 302.713 303.125 302.791 303.047C303.962 301.564 304.977 300.002 305.914 298.363C306.929 296.567 307.866 294.771 308.568 292.819C309.115 291.804 306.07 293.912 303.806 294.927C302.713 295.474 301.776 295.708 301.542 295.162C301.307 294.615 301.542 293.444 302.01 292.273C302.322 291.336 302.791 290.399 303.103 289.696C303.884 288.135 306.226 281.889 306.226 281.889C307.007 283.45 303.103 290.477 303.884 291.258C304.665 292.039 307.788 288.135 307.788 288.135C309.037 286.339 311.848 278.844 303.181 263.385C303.025 263.073 302.869 262.839 302.713 262.527C302.557 262.214 302.401 261.902 302.166 261.668C302.01 261.355 301.776 261.043 301.62 260.731C300.136 258.311 298.341 255.656 296.233 252.845C282.492 234.264 260.943 220.132 260.943 220.132C260.943 220.132 260.865 224.426 260.162 224.036C260.162 224.036 256.259 205.298 242.205 195.929C238.77 193.587 232.993 190.308 225.029 189.683C225.029 189.683 225.81 191.245 225.419 192.416C225.419 192.416 216.519 179.924 209.883 177.504C209.57 177.426 209.258 177.269 208.946 177.269C208.165 177.113 206.838 177.66 205.276 178.675C199.811 182.188 191.145 190.776 188.646 189.293C184.899 187.029 157.573 175.24 144.378 169.774C143.832 169.54 143.363 169.384 142.895 169.15C141.021 168.369 139.303 167.666 137.742 166.964C137.195 166.729 136.727 166.495 136.181 166.261C134.463 165.48 132.901 164.778 131.496 164.231C126.499 162.123 123.142 161.264 119.473 163.138C115.569 165.09 111.041 170.633 108.386 174.147C107.059 175.942 106.2 177.191 106.2 177.191C106.2 177.191 105.966 177.113 105.654 176.957C102.374 175.552 85.5104 169.072 67.9437 179.534L67.8656 179.456C60.2924 184.999 56.3887 186.56 50.1427 200.614C48.9716 203.19 48.0347 205.22 47.3321 206.703C44.0529 213.34 43.9749 211.544 43.9749 211.388C43.9749 211.466 43.8968 211.466 43.8968 211.544L18.9131 255.266Z"
    fill="#9B0408"
  />
  <path
    d="M47.3321 206.703C46.7856 207.406 45.7706 208.811 43.9749 211.388C43.8968 211.544 43.9749 213.34 47.3321 206.703Z"
    fill="#9B0408"
  />
  <path
    d="M25.2371 244.726C24.6125 245.741 23.8317 246.756 23.2072 247.849C1.73674 281.811 9.93453 308.746 9.93453 308.746C9.93453 308.746 18.9131 338.805 50.1428 344.27C62.4785 346.456 68.0998 346.612 84.2612 346.691C76.9222 323.424 83.7147 311.011 90.5852 299.612C89.4922 293.6 85.2762 287.354 85.2762 287.354L90.1168 282.123L94.4108 272.286L94.6451 271.661L98.5488 252.143L90.9756 245.272C81.2163 250.269 63.8057 257.296 48.5813 262.292C31.1707 267.992 29.6873 269.865 16.5708 257.608L17.3516 256.046"
    fill="#9B0408"
  />
  <path
    d="M10.7153 310.308C10.7153 310.308 19.3034 336.853 50.5331 343.88C62.6346 346.612 71.2228 349.735 84.5735 348.408L81.2944 330.919C65.7576 330.061 59.902 325.142 59.902 325.142C70.0517 325.923 78.6398 318.115 78.6398 318.115C51.3139 325.142 23.5975 306.794 31.4049 308.356C39.2124 309.917 45.4583 307.575 45.4583 307.575C45.4583 307.575 20.4746 300.549 19.6938 282.591C18.9131 264.634 34.5279 259.95 32.9664 257.608C30.6242 254.485 22.036 257.608 22.036 257.608C19.6938 257.608 27.5012 240.431 27.5012 240.431L26.7986 240.822C26.174 241.837 25.4713 242.852 24.7686 243.945C-0.605484 281.811 10.7153 310.308 10.7153 310.308Z"
    fill="#7E0207"
  />
  <path
    fill-rule="evenodd"
    clip-rule="evenodd"
    d="M72.472 269.475C72.472 269.475 79.811 270.1 82.9339 263.073L88.3991 249.8C88.9272 247.604 88.0898 244.894 87.2502 242.177C85.7313 237.261 84.205 232.321 90.7413 230.36C90.8463 230.325 90.9435 230.615 91.1189 231.14C91.7262 232.956 93.2718 237.577 99.3295 241.212C103.257 243.576 100.741 238.79 97.4123 232.455C93.9244 225.818 89.5429 217.481 90.7413 213.886C92.6932 207.952 92.3028 201.394 92.3028 201.394C85.3542 193.196 75.9073 190.62 72.472 189.917H72.3158C71.6132 189.761 71.1447 189.683 71.1447 189.683C92.2247 186.56 104.717 196.71 104.717 196.71C104.717 196.71 107.84 197.491 110.182 190.464C112.056 184.842 110.026 181.173 107.996 179.143C110.884 180.861 117.755 185.545 121.815 191.869C123.533 197.725 123.533 202.956 123.533 202.956C123.533 202.956 123.533 212.325 139.928 229.501C158.666 249.8 172.719 250.581 172.719 250.581C183.494 251.362 208.633 244.569 209.414 244.335L205.51 246.677C205.51 246.677 204.574 247.068 203.012 247.692C195.751 250.815 175.14 259.794 171.939 262.995L171.86 263.073C167.957 266.977 164.912 273.222 167.254 279.39C169.596 285.636 172.719 283.294 172.719 283.294C188.334 266.118 208.633 262.214 208.633 263.776C203.949 264.556 192.238 272.364 187.553 278.61C182.869 284.856 186.773 286.417 186.773 286.417C190.333 287.604 193.492 285.383 197.165 282.802C200.741 280.288 204.803 277.433 210.195 277.048C210.898 276.97 211.6 276.97 212.303 277.048C213.162 277.126 214.021 277.204 214.879 277.36C219.173 278.141 223.155 280.015 224.873 281.108C225.263 281.42 225.888 281.108 225.966 280.64C226.278 279 226.747 275.955 226.512 274.706C224.951 266.118 215.582 263.776 215.582 263.776C222.374 263.229 227.605 266.508 230.416 268.538C230.797 268.834 231.155 269.085 231.465 269.302C231.727 269.485 231.955 269.644 232.134 269.787C232.446 270.021 232.68 270.1 232.758 270.021C233.539 268.46 228.464 264.947 228.464 264.947C228.464 264.947 231.197 262.214 233.149 256.358C234.476 252.299 232.524 249.8 231.197 248.551C230.65 248.083 230.182 247.77 230.104 247.77C230.143 247.77 230.24 247.809 230.387 247.868L230.387 247.868C230.533 247.926 230.728 248.005 230.963 248.083C233.773 249.254 241.971 253.548 239.004 262.995C236.506 270.958 234.71 273.457 234.398 273.847V273.769V273.691C234.164 273.066 232.68 269.787 230.572 269.085C230.572 269.085 230.026 285.48 228.23 297.113C228.152 297.504 228.074 297.894 228.074 298.206C228.003 298.562 227.948 298.902 227.894 299.233L227.894 299.233C227.83 299.628 227.768 300.01 227.684 300.392C227.644 300.509 227.625 300.607 227.605 300.705C227.586 300.802 227.566 300.9 227.527 301.017C227.293 302.188 226.981 303.281 226.669 304.218C223.546 314.368 220.423 328.421 220.423 328.421L220.501 328.733L220.969 330.919L221.125 331.7L222.687 339.586V340.366L222.453 340.444L220.032 341.303L213.864 343.489L212.381 344.036L212.147 344.114L210.273 344.817L203.949 347.081L202.309 347.705L202.153 347.783L198.484 349.111L198.406 349.033L196.532 347.94L193.643 346.378L193.565 346.3L193.331 346.222L192.238 345.597L190.989 344.895L180.605 339.117L179.434 338.493L172.485 334.589L168.035 332.09L154.138 324.361L153.825 324.205C153.201 320.692 152.342 317.256 151.405 313.977C149.185 305.839 146.551 299.111 145.286 295.88C144.816 294.679 144.534 293.961 144.534 293.834C144.534 293.153 146.614 294.139 148.531 295.048C150.348 295.909 152.019 296.702 151.639 295.942C150.858 294.381 146.955 289.696 139.928 286.573C136.024 284.231 132.433 281.655 129.154 279L127.749 277.829C127.514 277.634 127.3 277.438 127.085 277.243L127.085 277.243C126.87 277.048 126.655 276.853 126.421 276.658C125.953 276.267 125.484 275.799 125.094 275.409C124.626 275.018 124.235 274.628 123.845 274.159L123.689 274.003C123.581 273.896 123.474 273.798 123.37 273.703L123.37 273.703C123.171 273.521 122.984 273.35 122.83 273.144C112.836 263.307 98.5488 252.142 98.5488 252.142C98.5488 252.142 98.5488 267.757 89.9606 281.811L72.472 269.475ZM146.955 267.757C150.078 274.784 157.885 274.784 157.885 274.784L158.666 269.319C158.666 269.319 147.736 267.757 146.955 267.757ZM157.104 277.907V284.153C157.104 284.153 148.516 284.153 146.174 277.126L157.104 277.907Z"
    fill="#7E0207"
  />
  <path
    d="M105.575 177.191C105.575 177.191 106.825 177.816 108.074 179.143C110.963 180.861 117.833 185.545 121.893 191.869C120.878 188.122 119.16 184.14 116.428 181.095C111.665 175.786 109.401 174.459 108.464 174.146C107.137 175.942 106.278 177.191 106.278 177.191C106.278 177.191 106.044 177.113 105.732 176.957L105.575 177.191Z"
    fill="#850608"
  />
  <path
    d="M294.359 284.153C294.671 284.465 295.062 284.856 295.374 285.48C302.244 293.444 302.635 301.642 302.635 302.969C302.713 302.969 302.713 302.969 302.791 302.969C303.962 301.485 304.977 299.924 305.914 298.284C306.929 296.489 307.866 294.693 308.568 292.741C309.115 291.726 306.07 293.834 303.884 294.849C302.791 295.396 301.854 295.63 301.542 295.083C301.307 294.537 301.542 293.366 302.01 292.195C302.322 291.258 302.791 290.321 303.103 289.618C303.884 288.057 306.226 281.811 306.226 281.811C307.007 283.372 303.103 290.399 303.884 291.18C304.665 291.96 307.788 288.057 307.788 288.057C309.037 286.261 311.848 278.766 303.181 263.307C303.025 262.995 302.869 262.761 302.713 262.448C302.557 262.136 302.322 261.824 302.166 261.59C302.01 261.277 301.776 260.965 301.62 260.653L300.761 259.95C300.761 259.95 303.259 272.364 294.359 284.153Z"
    fill="#7E0207"
  />
  <path
    d="M246.109 256.827C246.89 258.388 246.109 264.634 246.109 264.634L249.232 268.538C254.697 251.362 269.531 250.581 269.531 250.581C269.141 250.815 268.751 251.128 268.36 251.362C257.274 259.247 255.634 270.1 255.478 274.394C255.478 274.628 255.478 274.784 255.478 274.784C255.478 274.784 256.337 274.472 257.898 274.081C257.898 274.081 257.898 274.081 257.976 274.081C258.054 274.003 258.211 274.003 258.289 274.003C258.835 273.847 259.382 273.769 260.006 273.613C260.787 265.181 262.739 250.815 283.975 248.629C283.975 248.629 281.633 247.068 277.729 246.287C273.825 245.506 268.36 246.287 268.36 246.287L258.211 236.918L257.43 230.672L252.745 238.48L252.589 238.714C255.088 253.314 245.406 255.422 246.109 256.827Z"
    fill="#7E0207"
  />
  <path
    d="M85.2762 287.276C85.2762 287.276 68.8806 266.977 57.9502 266.196C57.9502 266.196 74.3458 263.073 93.8643 284.153L85.2762 287.276Z"
    fill="#560A0D"
  />
  <path
    d="M185.992 194.368C185.992 194.368 164.912 192.806 146.955 192.806C128.998 192.806 128.217 191.245 128.217 191.245C128.217 191.245 130.559 179.533 136.805 177.972C143.051 176.41 185.992 194.368 185.992 194.368Z"
    fill="#7E0207"
  />
  <path
    d="M187.553 197.491C187.553 197.491 190.676 196.71 193.799 199.052C196.922 201.394 200.826 203.737 200.826 203.737C200.826 203.737 194.97 195.539 191.847 195.539C188.724 195.539 187.944 197.1 187.553 197.491Z"
    fill="#7E0207"
  />
  <path
    d="M209.414 220.132L210.195 218.571C210.195 218.571 217.222 227.939 218.783 241.993L221.125 243.554L217.222 242.774C217.222 242.774 212.928 225.207 209.414 220.132Z"
    fill="#7E0207"
  />
  <path
    d="M210.976 266.977C210.976 266.977 214.879 278.688 209.414 293.522C203.949 308.356 203.949 311.479 203.168 317.725C202.387 323.971 202.387 323.971 202.387 323.971H203.168C203.168 323.971 205.823 308.434 207.462 304.843C209.414 300.548 212.928 289.228 213.708 286.885C214.489 284.543 216.05 273.613 213.708 267.367C212.537 264.634 210.976 266.977 210.976 266.977Z"
    fill="#560A0D"
  />
  <path
    d="M196.922 193.587C196.922 193.587 202.387 189.683 205.51 187.341C208.633 184.999 209.414 183.437 213.318 185.779C217.222 188.122 219.564 193.587 219.564 193.587C219.564 193.587 208.633 193.587 204.73 193.587C200.826 193.587 196.922 193.587 196.922 193.587Z"
    fill="#7E0207"
  />
  <path
    d="M94.0985 202.565C96.0504 204.283 105.419 209.748 110.65 215.057C115.1 219.507 113.773 224.426 105.185 236.137C103.233 238.089 101.828 239.494 100.813 240.509C101.047 240.666 101.203 240.9 101.281 241.134C101.828 242.383 102.452 243.789 103.155 245.35L104.014 246.677C104.014 246.677 108.855 236.684 129.857 241.681C129.622 241.681 114.944 210.763 111.041 209.202C107.527 207.796 98.0022 202.878 94.645 202.175C94.2547 202.097 93.9424 202.097 93.8643 202.175C93.7862 202.253 94.0985 202.565 94.0985 202.565Z"
    fill="#690608"
  />
  <path
    d="M102.452 208.421C102.452 208.421 110.26 213.886 111.041 215.448C111.821 217.009 122.752 236.528 135.244 246.677C147.736 256.827 167.254 266.196 175.062 262.292C182.869 258.388 188.724 254.875 205.901 247.068C205.901 247.068 187.944 250.971 175.452 256.437C162.96 261.902 141.88 247.848 129.388 233.795C116.896 219.742 116.896 215.057 112.993 212.715C109.089 210.373 102.452 208.421 102.452 208.421Z"
    fill="#560A0D"
  />
  <path
    d="M149.297 327.094C149.297 327.094 168.035 348.174 180.527 353.639C189.115 357.543 200.67 356.996 204.339 355.591C210.585 353.249 217.612 348.564 221.516 345.441L225.419 325.142C225.419 325.142 213.318 336.463 197.703 336.463C185.211 335.682 163.741 325.923 146.564 309.527L149.297 327.094Z"
    fill="#3C0100"
  />
  <path
    d="M153.123 319.208L154.762 327.874C154.762 327.874 155.387 329.67 158.666 334.12C163.663 340.835 177.013 348.486 177.794 349.345L179.902 335.292C168.816 330.217 156.089 321.785 153.123 319.208Z"
    fill="url(#paint1_linear)"
  />
  <path
    d="M152.81 317.334L153.123 319.208C156.011 321.785 168.035 330.217 179.902 335.292L180.136 333.964C180.136 333.808 180.058 333.73 179.98 333.652C178.184 332.871 162.257 326.079 152.81 317.334Z"
    fill="#827E7E"
  />
  <path
    d="M178.965 349.501C178.965 349.657 179.043 349.735 179.121 349.813C179.121 349.813 182.01 352.858 194.19 355.044C194.58 355.123 194.58 354.966 194.58 354.81L198.484 340.366C195.907 339.898 182.166 335.994 181.073 335.526L178.965 349.501Z"
    fill="#C76C2B"
  />
  <path
    d="M181.073 335.526C182.166 335.994 188.1 338.415 190.676 338.805L189.896 337.4C189.896 337.243 189.818 337.087 189.739 337.087L181.776 334.199C181.62 334.12 181.385 334.277 181.307 334.433L181.073 335.526Z"
    fill="#E0AE0E"
  />
  <path
    d="M213.318 349.423C213.318 349.579 213.474 349.657 213.552 349.579L219.564 344.426C219.642 344.348 219.72 344.27 219.72 344.114L220.891 332.949C219.486 334.276 217.3 336.228 214.411 337.868L213.318 349.423Z"
    fill="url(#paint2_linear)"
  />
  <path
    d="M204.964 342.787C206.994 341.772 210.195 340.21 213.006 338.649L213.24 336.385C213.24 336.228 213.084 336.15 213.006 336.228L206.447 339.82C206.369 339.898 206.291 339.976 206.213 340.132L204.964 342.787Z"
    fill="#E0AE0E"
  />
  <path
    d="M205.042 353.873C209.414 352.077 211.6 350.282 211.6 350.282C211.678 350.204 211.756 350.126 211.834 349.969L213.084 338.727C210.273 340.288 207.15 341.928 205.042 342.865L203.246 346.69L194.658 355.279C194.58 355.357 200.592 355.669 205.042 353.873Z"
    fill="#C76C2B"
  />
  <path d="M193.721 335.682L192.082 333.73H184.508L186.304 335.838L193.721 335.682Z" fill="#F8ED68" />
  <path
    d="M179.746 359.104L192.628 358.245L197 353.17L199.577 357.386H210.741L203.012 345.597L209.024 338.024L213.318 332.09H200.826L196.532 337.634L193.487 332.949H182.322L187.475 339.664L191.145 344.504L179.746 359.104Z"
    fill="#560A0D"
  />
  <path
    d="M182.479 357.777L185.055 357.699L197.313 340.991L199.108 342.709L207.853 336.619L210.976 333.34H201.685L196.142 340.522L182.479 357.777Z"
    fill="#F8ED68"
  />
  <path d="M202.622 334.667L183.806 357.777L191.535 357.387L209.961 334.589L202.622 334.667Z" fill="#FCC600" />
  <path d="M185.289 334.589L200.592 355.981L208.555 356.293L192.862 334.589H185.289Z" fill="#FCC600" />
  <path
    d="M214.489 337.79C217.378 336.072 219.564 334.199 220.969 332.871L221.125 331.31C221.125 331.154 220.969 331.076 220.891 331.154L214.879 335.526C214.801 335.604 214.723 335.682 214.723 335.838L214.489 337.79Z"
    fill="#827E7E"
  />
  <path
    d="M115.335 282.201C115.335 282.201 129.388 282.982 134.073 284.543C138.757 286.105 141.099 293.132 141.099 293.132C141.099 293.132 152.03 288.447 155.933 296.255C159.837 304.062 162.335 313.509 159.837 317.335C158.276 319.677 155.933 319.677 155.933 319.677L156.714 327.484C156.714 327.484 160.618 326.703 160.618 335.292C160.618 343.88 162.179 347.784 149.687 351.687C137.196 355.591 128.607 358.714 112.993 354.029"
    fill="#560A0D"
  />
  <path
    d="M84.2612 347.471C107.215 347.393 122.439 345.675 121.581 343.88L119.238 349.345C123.923 350.906 133.292 350.126 138.757 349.345C144.222 348.564 154.372 344.66 155.153 340.757C155.933 336.853 155.153 331.388 155.153 331.388L152.03 330.607C152.03 325.142 149.687 320.457 149.687 320.457C146.721 320.457 145.628 319.599 145.159 319.13C145.393 319.286 145.94 319.364 147.345 318.896C153.123 318.271 155.543 315.539 155.699 311.635C155.777 310.308 155.543 308.824 155.153 307.185C153.591 300.939 153.591 299.377 148.907 297.035C144.222 294.693 137.196 298.597 137.196 298.597C137.196 298.597 135.634 292.351 133.292 290.789C130.95 289.228 120.019 288.447 116.896 289.228C113.773 290.008 111.821 301.329 111.041 302.11C110.26 302.891 95.4258 302.11 90.7413 300.548C90.6633 300.236 90.6633 299.924 90.5852 299.533C83.6366 311.01 76.8441 324.127 84.2612 347.471Z"
    fill="#DB922C"
  />
  <path
    d="M83.012 348.408C120.41 345.832 121.581 343.88 121.581 343.88L119.238 349.345C123.923 350.907 133.292 350.126 138.757 349.345C144.222 348.564 154.372 344.661 155.153 340.757C155.933 336.853 155.153 331.388 155.153 331.388L152.03 330.607C152.03 325.142 149.687 320.458 149.687 320.458C146.721 320.458 145.628 319.599 145.159 319.13C145.393 319.286 145.94 319.365 147.345 318.896C153.123 318.271 155.543 315.539 155.699 311.635C155.075 309.059 153.279 302.5 152.03 302.5C148.126 302.5 141.88 305.623 141.88 305.623C144.222 307.966 145.003 337.634 145.003 337.634L127.827 341.538C130.95 336.072 127.827 325.923 127.827 325.923C127.827 325.923 120.8 332.949 94.2547 335.292C88.7114 335.76 83.8708 335.838 79.7329 335.604L83.012 348.408Z"
    fill="#C76C2B"
  />
  <path
    d="M136.024 294.303C136.024 294.303 131.34 297.426 127.436 296.645C127.046 297.035 129.388 299.378 132.511 299.378C135.634 299.378 137.195 297.035 137.195 297.035L136.024 294.303Z"
    fill="#C06B32"
  />
  <path
    d="M259.616 276.111C259.616 276.111 259.772 279.078 260.553 282.201C261.021 284.075 262.895 285.714 264.3 286.651C266.564 286.729 269.063 286.964 271.483 287.666C280.071 290.009 283.975 293.131 287.879 298.597C288.738 299.846 289.518 300.939 290.221 301.954C293.032 298.597 295.062 294.537 296.155 291.882C295.608 290.867 294.983 289.774 294.359 288.837C294.281 288.681 294.203 288.525 294.125 288.447C293.422 287.432 292.641 286.417 291.704 285.48C288.347 282.123 283.116 279.156 274.606 276.736C268.516 275.018 263.207 275.174 259.694 275.721L259.616 276.111Z"
    fill="#FCC600"
  />
  <path
    d="M296.233 291.882C295.14 294.537 293.11 298.597 290.299 301.954C292.407 305.077 293.734 307.888 294.047 312.416C298.263 308.278 300.761 305.233 300.761 305.233C299.902 300.158 298.263 295.786 296.233 291.882Z"
    fill="#E18601"
  />
  <path
    d="M255.088 276.736C255.088 276.736 255.088 279.859 255.088 283.763C255.088 284.934 255.322 286.183 255.634 287.276C257.586 286.964 260.787 286.573 264.378 286.651C262.973 285.714 261.099 284.075 260.631 282.201C259.85 279.078 259.694 276.111 259.694 276.111V275.643C256.805 276.111 255.088 276.736 255.088 276.736Z"
    fill="#E18601"
  />
  <path
    d="M223.468 338.024C228.933 344.27 237.521 339.586 242.986 338.805C245.25 338.493 247.124 338.258 249.232 337.868C252.121 337.321 255.478 336.385 260.943 334.12C274.684 329.67 286.864 319.442 294.047 312.416C293.578 306.404 291.314 303.437 287.879 298.597C283.975 293.131 280.071 290.008 271.483 287.666C265.393 286.027 258.835 286.729 255.634 287.276C256.337 289.696 257.43 291.57 257.43 291.57C255.088 296.254 248.061 297.816 248.061 297.816C248.061 297.816 244.157 290.008 242.596 289.228C241.034 288.447 234.398 289.618 234.398 289.618C234.086 291.102 233.695 292.663 233.305 294.303C233.071 295.318 232.836 296.411 232.602 297.504C228.699 314.914 223.468 338.024 223.468 338.024Z"
    fill="#C76C2B"
  />
  <path
    d="M242.986 338.805C245.25 338.492 247.124 338.258 249.232 337.868C250.247 336.384 252.199 332.793 252.355 332.559C250.013 335.682 242.986 338.805 242.986 338.805Z"
    fill="#854524"
  />
  <path
    d="M232.602 297.504C233.383 297.582 234.866 297.66 236.74 297.425C239.16 297.113 239.863 294.302 239.863 294.302H233.305C233.071 295.317 232.836 296.41 232.602 297.504Z"
    fill="#854524"
  />
  <path
    d="M252.745 322.8C252.745 322.8 253.526 322.019 254.307 320.457C255.868 316.554 258.211 316.554 264.456 315.773C270.702 314.992 279.291 310.308 286.317 305.623C287.801 304.686 289.05 303.359 290.221 301.954C289.518 300.861 288.738 299.768 287.879 298.597C283.975 293.131 280.071 290.008 271.483 287.666C269.063 287.042 266.018 286.885 266.018 286.885C263.676 290.789 250.403 301.72 250.403 301.72C254.307 307.185 252.745 322.8 252.745 322.8Z"
    fill="#DB922C"
  />
  <path
    d="M284.756 292.351C284.756 292.351 292.251 293.6 294.359 288.837C294.281 288.681 294.203 288.525 294.125 288.447C293.422 287.432 292.641 286.417 291.704 285.48C290.455 287.666 287.957 291.258 284.756 292.351Z"
    fill="#E18601"
  />
  <path
    fill-rule="evenodd"
    clip-rule="evenodd"
    d="M204.964 222.787C199.186 215.994 193.409 209.983 187.788 203.424C190.364 203.737 193.019 204.049 195.595 204.205C199.889 208.577 204.183 212.793 208.555 217.712C208.711 217.868 208.946 218.024 209.18 218.336C209.336 218.102 209.492 217.79 209.726 217.556C210.976 213.964 212.225 210.217 213.396 206.313C216.05 205.61 218.783 204.752 221.438 203.815C219.017 210.607 216.597 216.619 214.099 222.162C213.942 222.396 213.786 222.709 213.552 222.943C213.396 223.177 213.24 223.333 213.084 223.567C212.693 224.192 212.225 224.739 211.834 225.285C211.132 226.222 210.507 227.159 209.805 228.018C206.916 233.639 204.027 238.792 201.06 243.789C198.406 244.335 195.751 244.804 193.097 245.506C197.157 238.323 201.373 231.297 205.432 223.489C205.354 223.177 205.12 223.021 204.964 222.787ZM213.24 228.877C213.786 228.174 214.255 227.471 214.723 226.769C215.114 226.3 215.426 225.754 215.816 225.285C220.891 231.375 226.044 238.48 231.041 248.161C231.119 248.317 231.197 248.473 231.275 248.629C231.431 249.02 231.665 249.41 231.9 249.8C229.245 248.785 226.59 247.849 223.936 247.068C222.062 243.945 220.188 241.056 218.315 238.402C217.144 236.762 215.972 235.201 214.801 233.717C213.942 232.546 213.006 231.453 212.069 230.438C212.459 229.97 212.849 229.423 213.24 228.877Z"
    fill="#FCC600"
  />
  <path
    d="M204.964 222.787L205.345 222.463L205.364 222.485L205.38 222.509L204.964 222.787ZM187.788 203.424L187.408 203.75L186.571 202.773L187.848 202.928L187.788 203.424ZM195.595 204.205L195.625 203.706L195.817 203.718L195.952 203.855L195.595 204.205ZM208.555 217.712L208.202 218.065L208.191 218.055L208.182 218.044L208.555 217.712ZM209.18 218.336L209.596 218.614L209.204 219.202L208.78 218.636L209.18 218.336ZM209.726 217.556L210.199 217.72L210.161 217.828L210.08 217.909L209.726 217.556ZM213.396 206.313L212.917 206.169L212.997 205.901L213.268 205.83L213.396 206.313ZM221.438 203.815L221.271 203.343L222.261 202.994L221.909 203.983L221.438 203.815ZM214.099 222.162L214.554 222.368L214.538 222.405L214.515 222.439L214.099 222.162ZM213.552 222.943L213.136 222.666L213.164 222.624L213.199 222.589L213.552 222.943ZM211.834 225.285L212.241 225.576L212.234 225.585L211.834 225.285ZM209.805 228.018L209.36 227.789L209.384 227.742L209.418 227.701L209.805 228.018ZM201.06 243.789L201.49 244.044L201.377 244.234L201.161 244.278L201.06 243.789ZM193.097 245.506L193.225 245.99L192.077 246.293L192.661 245.26L193.097 245.506ZM205.432 223.489L205.917 223.368L205.963 223.552L205.876 223.72L205.432 223.489ZM213.24 228.877L212.833 228.586L212.839 228.578L212.845 228.57L213.24 228.877ZM214.723 226.769L214.307 226.491L214.322 226.469L214.339 226.448L214.723 226.769ZM215.816 225.285L215.432 224.965L215.816 224.504L216.2 224.965L215.816 225.285ZM231.041 248.161L231.485 247.931L231.488 247.937L231.041 248.161ZM231.275 248.629L231.722 248.406L231.731 248.424L231.739 248.444L231.275 248.629ZM231.9 249.8L232.328 249.543L233.073 250.784L231.721 250.267L231.9 249.8ZM223.936 247.068L223.795 247.547L223.608 247.492L223.507 247.325L223.936 247.068ZM218.315 238.402L218.721 238.111L218.723 238.113L218.315 238.402ZM212.069 230.438L211.701 230.777L211.404 230.455L211.685 230.118L212.069 230.438ZM204.583 223.111C201.7 219.721 198.816 216.525 195.946 213.353C193.078 210.183 190.224 207.035 187.408 203.75L188.167 203.099C190.973 206.372 193.818 209.509 196.688 212.682C199.557 215.854 202.45 219.06 205.345 222.463L204.583 223.111ZM187.848 202.928C190.425 203.24 193.066 203.551 195.625 203.706L195.565 204.704C192.971 204.547 190.303 204.233 187.727 203.921L187.848 202.928ZM195.952 203.855C200.238 208.219 204.546 212.449 208.929 217.38L208.182 218.044C203.82 213.138 199.54 208.935 195.238 204.555L195.952 203.855ZM208.909 217.358C208.98 217.429 209.031 217.465 209.175 217.596C209.297 217.707 209.438 217.847 209.58 218.036L208.78 218.636C208.688 218.514 208.595 218.42 208.502 218.336C208.431 218.271 208.287 218.15 208.202 218.065L208.909 217.358ZM208.764 218.059C208.797 218.01 208.831 217.954 208.872 217.888C208.911 217.824 208.956 217.75 209.003 217.676C209.099 217.528 209.219 217.356 209.373 217.202L210.08 217.909C210 217.989 209.925 218.091 209.845 218.216C209.804 218.279 209.766 218.341 209.725 218.409C209.685 218.475 209.641 218.546 209.596 218.614L208.764 218.059ZM209.254 217.391C210.502 213.804 211.749 210.064 212.917 206.169L213.875 206.457C212.701 210.37 211.449 214.125 210.199 217.72L209.254 217.391ZM213.268 205.83C215.908 205.131 218.627 204.276 221.271 203.343L221.604 204.286C218.939 205.227 216.193 206.09 213.524 206.796L213.268 205.83ZM221.909 203.983C219.484 210.787 217.059 216.811 214.554 222.368L213.643 221.957C216.135 216.427 218.55 210.428 220.967 203.647L221.909 203.983ZM214.515 222.439C214.482 222.489 214.447 222.544 214.407 222.611C214.368 222.675 214.323 222.749 214.275 222.823C214.18 222.971 214.06 223.142 213.906 223.296L213.199 222.589C213.279 222.509 213.354 222.407 213.434 222.282C213.474 222.22 213.512 222.157 213.554 222.089C213.594 222.024 213.637 221.953 213.683 221.885L214.515 222.439ZM213.968 223.22C213.876 223.358 213.785 223.471 213.708 223.568C213.629 223.666 213.564 223.748 213.5 223.845L212.668 223.29C212.759 223.153 212.85 223.039 212.927 222.943C213.007 222.844 213.072 222.762 213.136 222.666L213.968 223.22ZM213.508 223.832C213.111 224.467 212.592 225.084 212.241 225.576L211.428 224.994C211.857 224.393 212.275 223.917 212.66 223.302L213.508 223.832ZM212.234 225.585C211.557 226.489 210.9 227.468 210.192 228.334L209.418 227.701C210.114 226.85 210.707 225.955 211.434 224.985L212.234 225.585ZM210.249 228.246C207.355 233.878 204.461 239.04 201.49 244.044L200.63 243.533C203.593 238.544 206.476 233.4 209.36 227.789L210.249 228.246ZM201.161 244.278C198.488 244.829 195.861 245.292 193.225 245.99L192.969 245.023C195.641 244.316 198.323 243.842 200.959 243.299L201.161 244.278ZM192.661 245.26C196.729 238.063 200.934 231.056 204.989 223.259L205.876 223.72C201.811 231.538 197.584 238.584 193.532 245.752L192.661 245.26ZM204.947 223.611C204.934 223.556 204.907 223.506 204.84 223.425C204.801 223.377 204.77 223.343 204.713 223.278C204.664 223.22 204.604 223.148 204.548 223.064L205.38 222.509C205.442 222.603 205.482 222.631 205.614 222.792C205.724 222.926 205.853 223.11 205.917 223.368L204.947 223.611ZM212.845 228.57C213.379 227.883 213.837 227.196 214.307 226.491L215.139 227.046C214.672 227.747 214.194 228.464 213.634 229.183L212.845 228.57ZM214.339 226.448C214.518 226.234 214.681 225.999 214.859 225.742C215.032 225.492 215.22 225.219 215.432 224.965L216.2 225.605C216.022 225.819 215.859 226.054 215.681 226.311C215.507 226.562 215.319 226.834 215.107 227.089L214.339 226.448ZM216.2 224.965C221.293 231.077 226.468 238.212 231.485 247.932L230.596 248.39C225.62 238.748 220.489 231.673 215.432 225.605L216.2 224.965ZM231.488 247.937C231.527 248.015 231.566 248.093 231.605 248.171C231.644 248.25 231.683 248.328 231.722 248.406L230.828 248.853C230.789 248.775 230.75 248.697 230.711 248.619C230.672 248.541 230.633 248.463 230.594 248.384L231.488 247.937ZM231.739 248.444C231.878 248.79 232.089 249.145 232.328 249.543L231.471 250.058C231.241 249.675 230.984 249.249 230.811 248.815L231.739 248.444ZM231.721 250.267C229.074 249.255 226.433 248.323 223.795 247.547L224.077 246.588C226.748 247.374 229.416 248.316 232.078 249.333L231.721 250.267ZM223.507 247.325C221.639 244.211 219.772 241.333 217.906 238.69L218.723 238.113C220.605 240.779 222.485 243.678 224.365 246.811L223.507 247.325ZM217.908 238.692C216.741 237.059 215.575 235.504 214.409 234.027L215.194 233.407C216.37 234.897 217.546 236.465 218.721 238.111L217.908 238.692ZM214.398 234.013C213.554 232.861 212.63 231.783 211.701 230.777L212.436 230.099C213.381 231.123 214.331 232.231 215.204 233.421L214.398 234.013ZM211.685 230.118C212.061 229.666 212.44 229.136 212.833 228.586L213.647 229.167C213.259 229.71 212.857 230.273 212.453 230.758L211.685 230.118Z"
    fill="#FCC600"
  />
  <path
    d="M83.5168 93.4428C83.5168 144.22 124.712 185.386 175.531 185.386C226.35 185.386 267.545 144.22 267.545 93.4428C267.545 42.6653 226.35 1.5 175.531 1.5C124.712 1.5 83.5168 42.6653 83.5168 93.4428Z"
    fill="white"
    fill-opacity="0.097547"
    stroke="#D2D2D2"
    stroke-width="3"
  />
  <path
    d="M147.051 39.9897C147.051 39.9897 145.478 30.3768 134.205 24.6965C134.205 24.6965 139.448 23.473 144.255 25.1334C144.255 25.1334 142.682 22.6865 140.235 22.6865C137.788 22.6865 160.334 22.6865 170.821 33.9598C170.821 34.7463 149.935 48.4665 149.935 48.4665L147.051 39.9897Z"
    fill="url(#paint3_linear)"
  />
  <path
    d="M149.498 37.6303C149.498 37.6303 148.712 32.8239 147.051 31.1635C147.051 31.1635 149.848 31.6004 150.634 32.3869C151.421 33.1734 151.421 30.8139 149.848 29.94C148.275 29.0661 157.101 30.7265 157.101 32.3869C157.101 34.0473 149.498 37.6303 149.498 37.6303Z"
    fill="#BF4D15"
  />
  <path
    d="M128.524 48.9034C128.524 48.9034 131.758 34.3967 141.371 28.8037C141.371 28.8037 142.157 41.65 143.818 44.097C143.818 44.097 151.421 30.8137 177.201 20.3269C177.201 20.3269 164.354 33.1732 164.354 36.4066C164.354 36.4066 187.687 24.3468 208.574 24.3468C229.46 24.3468 239.16 30.8137 239.16 30.8137C239.16 30.8137 204.554 36.4066 197.3 45.3204C197.3 45.3204 211.807 46.1069 215.04 50.1269C215.04 50.1269 198.961 51.6999 194.941 55.7198C194.941 55.7198 202.194 67.7796 202.194 74.2465C202.194 74.2465 192.144 60.9632 175.278 57.7298C163.393 55.4576 145.129 58.1667 145.129 58.1667L128.524 48.9034Z"
    fill="#1B2527"
  />
  <path
    d="M133.331 51.2631L133.68 51.4378L143.818 57.5551L145.391 58.5164C164.704 51.2631 191.27 59.3029 191.27 59.3029L185.677 55.283L194.504 49.69L186.464 48.9035C192.931 40.0772 212.244 32.0373 212.244 32.0373C209.273 31.6877 206.389 31.6003 203.592 31.6003C199.835 31.6003 196.164 31.8625 192.843 32.2121C190.309 32.5616 188.037 32.9112 185.677 33.4355C185.24 33.5229 184.804 33.6103 184.367 33.6977C182.269 34.222 180.259 34.659 178.424 35.1833C178.075 35.2707 177.812 35.3581 177.55 35.4455C177.026 35.6203 176.414 35.7951 175.977 35.9698C175.54 36.1446 175.278 36.232 175.016 36.3194C173.093 36.9311 171.345 37.7176 169.598 38.3294C168.112 38.9411 166.714 39.6402 165.403 40.1646C159.286 43.0484 155.877 45.6701 155.877 45.6701C155.615 45.0584 155.703 44.1845 155.79 43.1358C155.877 42.2619 156.052 41.388 156.314 40.5141C156.839 38.1546 157.538 36.0572 157.538 36.0572C151.333 37.8924 145.565 44.6214 143.293 47.5927C142.682 48.4666 142.245 48.9909 142.245 48.9909C141.895 48.9909 141.633 48.6414 141.283 48.2918C139.623 46.1945 137.438 40.1646 137.438 40.1646C136.39 41.6502 135.69 43.398 134.991 44.971C134.991 45.0584 134.904 45.0584 134.904 45.1458C133.768 48.3792 133.331 51.2631 133.331 51.2631Z"
    fill="#324E4F"
  />
  <path
    d="M175.191 49.69C184.891 38.4167 203.418 31.9499 203.418 31.9499C203.418 31.9499 203.505 31.7751 203.68 31.5129C199.922 31.5129 196.252 31.7751 192.931 32.1247C192.843 32.2121 192.756 32.2121 192.581 32.2994C179.648 38.8537 175.191 49.69 175.191 49.69Z"
    fill="#283B3F"
  />
  <path
    d="M167.937 52.9235C172.656 44.0971 182.706 35.7077 185.677 33.4355C185.24 33.5229 184.804 33.6103 184.367 33.6977C182.269 34.2221 180.259 34.659 178.424 35.1833C178.075 35.2707 177.812 35.3581 177.55 35.4455C177.026 35.6203 176.414 35.7951 175.977 35.9699C175.54 36.1446 175.278 36.232 175.016 36.3194C168.811 44.2719 167.937 52.9235 167.937 52.9235Z"
    fill="#283B3F"
  />
  <path
    d="M163.917 48.9035C163.917 46.4566 169.51 38.4167 169.51 38.4167C169.51 38.4167 169.51 38.4167 169.51 38.3293C168.025 38.9411 166.626 39.6402 165.316 40.1645C163.306 44.8836 163.917 51.0009 163.917 48.9035Z"
    fill="#283B3F"
  />
  <path
    d="M133.331 51.2631L145.391 58.5165C146.964 53.7974 149.673 49.4279 153.081 45.8449L155.703 43.1359L156.227 40.5142C154.392 42.262 148.624 45.7576 144.517 53.7974L143.119 47.5927C142.507 48.4666 142.07 48.991 142.07 48.991C141.72 48.991 141.458 48.6414 141.109 48.2919L140.497 54.6713L135.69 43.398L134.904 45.1458L133.331 51.2631Z"
    fill="#283B3F"
  />
  <path
    d="M182.444 59.303C182.444 59.303 202.544 68.1294 210.584 73.8097C218.623 79.4027 217.05 98.7158 219.41 98.7158C221.769 98.7158 226.663 101.949 226.663 101.949L221.07 106.756L204.204 105.183L187.338 98.7158L181.745 79.4027L182.444 59.303Z"
    fill="#F27F46"
  />
  <path
    d="M145.478 58.5164C145.478 58.5164 180.084 52.0495 191.358 64.9832C199.66 74.5087 200.009 87.4424 200.883 101.862L191.358 100.376C191.358 100.376 205.865 100.376 218.711 106.843L192.931 129.39L117.339 106.843L145.478 58.5164Z"
    fill="#D06530"
  />
  <path
    d="M206.564 109.202C206.564 109.202 183.23 103.609 174.404 104.396C174.404 104.396 170.384 99.5895 166.364 101.949C164.791 104.396 165.578 105.182 165.578 105.182V111.649C165.578 111.649 186.464 129.389 191.358 129.389C196.252 129.389 203.767 114.446 206.564 109.202Z"
    fill="#BF4D15"
  />
  <path
    d="M127.301 154.47C127.301 154.47 124.592 167.492 126.777 174.046C126.864 174.221 127.039 174.221 127.039 174.046C127.738 172.822 130.797 168.103 132.894 166.618V177.541C132.894 177.716 133.069 177.804 133.156 177.629C134.38 176.318 139.885 170.812 144.167 171.424C148.974 172.211 141.808 156.393 141.808 156.393L127.301 154.47Z"
    fill="#983809"
  />
  <path
    d="M140.584 154.296C140.584 154.296 155.965 151.936 164.966 164.695C165.141 164.957 164.879 165.22 164.616 165.22C162.257 164.171 156.314 161.637 154.741 162.161C154.479 162.248 154.479 162.51 154.654 162.685C156.14 163.996 164.092 170.288 164.791 174.92C164.791 175.182 163.83 175.357 163.655 175.269C162.082 174.92 155.965 173.784 155.178 174.57C155.178 174.57 147.925 177.804 143.905 169.764C141.72 166.967 141.808 160.588 141.895 159.19C141.895 159.015 141.72 158.84 141.546 158.84C140.497 158.84 136.652 158.84 133.593 160.85C133.243 161.025 132.981 160.85 132.894 160.5C132.719 159.277 132.457 156.917 132.981 155.781C132.981 155.694 133.156 155.607 133.243 155.607L140.584 154.296Z"
    fill="#B95626"
  />
  <path
    d="M156.314 157.092C102.045 160.675 75.0419 119.252 75.4788 118.903C97.2389 113.31 114.105 95.5698 114.105 95.5698L118.562 96.0068L156.314 157.092Z"
    fill="#AF430F"
  />
  <path
    d="M125.291 93.9094C125.291 93.9094 134.117 96.3563 141.371 86.656C140.584 89.8894 129.661 99.9393 132.107 106.406C132.107 106.406 139.361 96.7932 149.848 98.3663L136.127 133.759L108.774 124.146L102.307 114.533L110.347 107.28L125.291 93.9094Z"
    fill="#BF4D15"
  />
  <path
    d="M114.105 97.1426C114.105 97.1426 93.5685 86.3063 96.365 53.7099C97.8506 36.8436 104.667 27.9299 109.648 17.0935C109.648 17.0935 110.435 32.3867 112.882 35.6202C115.329 38.8536 128.961 52.4864 145.041 58.9533C146.352 60.4389 146.265 63.4101 145.478 66.5562C143.73 73.7222 145.828 83.0729 137.875 87.8793C134.292 90.0641 130.36 90.0641 127.825 92.2488C123.718 95.5696 114.105 97.1426 114.105 97.1426Z"
    fill="#C38C70"
  />
  <path
    d="M111.658 105.969C111.658 105.969 111.658 100.376 114.892 97.9291C118.125 95.4822 122.145 95.4822 127.738 92.3362C127.738 92.3362 122.145 100.376 111.658 105.969Z"
    fill="#533423"
  />
  <path
    d="M124.155 92.6859C124.155 92.6859 126.777 93.385 132.807 90.7633C132.807 90.7633 132.807 90.7633 132.894 90.7633C133.156 90.6759 133.418 90.5885 133.593 90.4137C134.817 89.8894 136.04 89.1903 137.438 88.4038C137.963 88.0542 138.487 87.792 139.011 87.4425C146.614 82.7234 148.799 73.1105 149.323 69.6149C149.323 69.2654 148.886 69.178 148.799 69.4401C148.362 70.0519 148.012 70.9258 147.488 71.7123C146.702 73.1105 145.828 74.2466 145.478 73.8096C144.692 72.2366 147.051 63.3229 143.905 59.3029C137.875 53.273 115.329 45.2332 112.969 41.9997C110.61 38.7663 105.541 38.7663 104.143 55.7199C101.171 88.3164 124.155 92.6859 124.155 92.6859Z"
    fill="url(#paint4_linear)"
  />
  <path
    d="M111.221 91.1127C109.561 90.5884 90.6846 69.0031 105.978 35.9697C105.978 35.9697 113.231 60.0893 120.834 75.033C120.834 75.033 117.251 77.043 109.561 65.4201C109.561 65.4201 111.134 74.2465 114.367 78.2664C114.367 78.2664 111.92 78.2664 111.134 77.4799C110.347 76.6934 114.367 83.9468 119.174 85.5198C119.174 85.5198 116.727 86.3063 113.581 85.5198C113.581 85.5198 120.397 91.5497 127.651 92.3362C127.738 92.3362 122.145 94.6957 111.221 91.1127Z"
    fill="#D7E7E7"
  />
  <path
    d="M129.748 84.6461C127.301 85.4326 120.135 82.1991 120.135 82.1991C122.582 86.2191 126.602 87.0056 126.602 87.0056C126.602 87.7921 124.155 88.5786 124.155 88.5786C128.262 90.4138 131.234 90.7634 133.418 90.3264C133.506 90.3264 133.593 90.3264 133.593 90.239C134.817 89.7147 139.099 87.2678 139.099 87.2678C124.592 81.6748 112.532 54.3218 112.532 54.3218C112.532 54.3218 112.008 52.7488 111.92 52.574C111.92 52.7488 112.445 54.5839 114.193 60.7886C117.863 74.3341 129.748 84.6461 129.748 84.6461Z"
    fill="#AF430F"
  />
  <path
    d="M109.386 17.5305C106.852 22.337 105.191 32.0373 105.978 37.2807C108.774 55.3704 114.629 63.6724 115.591 65.8572C115.154 64.7211 115.154 57.8173 116.028 57.0308C117.601 55.4578 120.485 58.2542 119.611 56.5938C118.737 54.9334 117.164 50.127 117.164 50.127C118.387 49.69 138.05 58.6038 143.643 63.7598C144.517 64.6337 144.517 68.741 144.517 68.741C144.517 69.0032 144.954 69.2654 145.041 69.0032C145.915 67.0806 145.653 60.439 145.653 60.439C145.653 60.2642 145.74 60.1768 145.915 60.0894C157.276 56.1569 182.968 60.2642 182.968 60.2642C169.423 53.71 146.964 57.6425 145.391 58.0795C145.303 58.0795 145.216 58.0795 145.129 57.9921C140.147 53.9721 125.116 46.8062 125.116 46.8062C125.116 46.8062 116.29 41.8249 112.27 34.7464C110.697 31.9499 110.173 20.764 109.91 17.2684C109.91 16.9188 109.473 16.8314 109.386 17.0936C109.473 17.2684 109.386 17.3558 109.386 17.5305Z"
    fill="url(#paint5_linear)"
  />
  <path
    d="M87.5386 122.923C87.1016 123.36 103.269 136.993 107.289 139.44C107.289 139.44 107.289 135.769 108.512 129.128C108.687 128.428 108.862 127.642 109.036 126.768C109.473 124.845 109.91 122.573 110.522 120.214C110.522 120.301 110.522 120.389 110.435 120.563C110.435 120.651 110.435 120.826 110.347 120.913C110.347 121 110.347 121 110.347 121.088C110.347 121.262 110.26 121.525 110.26 121.699C110.26 121.874 110.173 122.224 110.173 122.399C109.823 124.496 109.473 127.817 109.124 131.05C109.124 131.312 109.124 131.487 109.036 131.662C109.036 131.924 109.036 132.099 108.949 132.274C108.862 132.885 108.862 133.497 108.774 134.021V134.109C108.687 135.857 108.687 137.604 108.862 138.74C108.949 139.265 109.036 139.527 109.124 139.877C109.299 140.401 109.473 140.75 109.648 140.925C112.095 142.498 113.668 143.372 113.668 143.372C113.668 143.372 112.095 135.332 113.668 129.652C113.668 129.652 114.455 144.159 116.902 145.732C117.688 146.256 119.261 147.042 121.446 147.916C122.495 148.353 123.718 148.79 125.116 149.315C126.514 149.839 128.262 150.363 130.097 150.8C132.719 151.499 135.778 152.286 139.273 152.898C140.846 153.247 142.594 153.509 144.255 153.771C159.548 156.218 164.354 165.045 164.354 165.045C164.354 165.045 157.887 161.025 154.741 161.811C154.741 161.811 164.354 171.424 164.354 173.871C164.354 175.444 157.887 172.298 154.741 173.871C154.741 173.871 187.687 189.951 190.921 193.971C190.921 193.971 194.941 185.931 198.174 184.358C201.408 182.785 219.06 178.765 219.934 173.085C220.721 167.492 219.934 165.831 219.934 165.831L195.028 164.258L193.543 141.886L193.018 134.458C206.738 139.702 233.218 128.516 233.218 128.516C247.724 135.769 246.938 114.796 246.938 114.796C246.938 114.796 243.704 103.522 217.138 106.756C190.571 109.989 192.232 128.516 192.232 128.516C192.232 128.516 191.969 128.516 191.62 128.428C187.6 126.593 173.093 119.602 166.889 111.999C166.889 111.999 169.336 111.999 170.909 112.786C172.482 113.572 166.889 99.0654 151.595 99.0654C136.302 99.0654 133.855 113.572 133.855 117.592C133.855 121.612 134.642 128.865 134.642 128.865C134.642 128.865 128.087 124.671 123.019 119.952C121.795 118.816 120.572 117.592 119.611 116.456C119.261 116.106 119.086 115.844 118.824 115.495C118.3 114.883 118.038 114.184 117.688 113.66C117.688 113.66 115.241 117.679 116.115 124.933C116.115 124.933 112.882 120.126 113.668 112.087C113.668 112.087 110.435 112.087 108.862 116.106C108.862 116.106 108.862 108.853 110.872 106.057C110.173 106.494 89.8981 122.923 87.5386 122.923Z"
    fill="url(#paint6_linear)"
  />
  <path
    d="M119.611 116.456C121.009 132.273 124.155 145.731 125.116 149.314C126.602 149.839 128.262 150.363 130.097 150.8C126.165 139.527 123.368 122.398 122.932 119.864C121.708 118.815 120.572 117.679 119.611 116.456Z"
    fill="white"
  />
  <path
    d="M87.5386 122.923C87.1016 123.36 103.269 136.992 107.289 139.439C107.289 139.439 106.852 135.856 110.085 123.709C109.91 124.496 107.376 139.439 109.648 141.012C112.095 142.585 113.668 143.459 113.668 143.459C113.668 143.459 112.095 135.419 113.668 129.739C113.668 129.739 114.455 144.246 116.902 145.819C117.688 146.343 119.261 147.13 121.446 148.004C118.212 139.002 118.649 120.738 118.912 115.495C118.387 114.883 118.125 114.184 117.775 113.659C117.775 113.659 115.329 117.679 116.202 124.933C116.202 124.933 112.969 120.126 113.756 112.086C113.756 112.086 110.522 112.086 108.949 116.106C108.949 116.106 108.949 108.853 110.959 106.056C110.173 106.493 89.8981 122.923 87.5386 122.923Z"
    fill="white"
  />
  <path
    d="M134.991 151.849L139.273 152.985C140.846 153.334 142.594 153.597 144.255 153.859C159.548 156.306 164.354 165.132 164.354 165.132C164.354 165.132 157.887 161.112 154.741 161.899C154.741 161.899 164.354 171.511 164.354 173.958C164.354 175.531 157.887 172.385 154.741 173.958C154.741 173.958 187.687 190.038 190.921 194.058C190.921 194.058 191.707 192.398 193.018 190.388L198.611 184.795C198.611 184.795 184.104 167.928 185.765 165.482C187.425 163.035 184.192 157.442 185.765 155.869C187.338 154.296 195.028 164.345 195.028 164.345L193.543 141.974C190.833 140.138 188.649 138.565 188.649 138.565L171.782 119.252L164.966 116.456C164.966 116.456 173.006 139.002 164.966 144.595C163.393 145.382 150.459 139.789 145.653 136.555C145.653 136.555 156.489 148.266 155.703 150.625C154.916 152.985 134.991 151.849 134.991 151.849Z"
    fill="#D1C8B7"
  />
  <path
    d="M220.022 168.103C220.022 168.103 211.37 172.735 203.33 171.948C195.29 171.162 193.543 172.298 191.969 175.357C191.27 176.755 195.989 176.755 196.863 178.415C197.912 180.425 195.29 184.008 195.29 184.008L209.797 179.988L220.284 174.395L220.022 168.103Z"
    fill="#D1C8B7"
  />
  <path
    d="M225.877 165.569C225.877 165.569 225.877 170.375 225.877 172.036C225.877 173.609 226.663 177.629 213.817 180.862C200.971 184.096 200.097 184.096 195.29 188.115C192.843 188.902 192.057 188.115 192.843 185.669C193.63 183.222 195.29 179.202 193.63 179.202C192.057 179.202 190.396 181.649 189.61 181.649C188.823 181.649 186.377 172.822 179.123 164.782C171.87 156.743 166.277 151.062 164.616 150.276C162.956 149.489 168.199 149.839 174.666 156.306C181.133 162.772 189.173 171.599 190.746 175.619C190.746 175.619 197.999 174.046 198.786 175.619C199.572 177.192 196.339 181.212 198.786 181.212C200.796 181.212 207.35 177.803 209.884 175.357C210.059 175.182 210.409 175.357 210.321 175.619C209.972 176.405 209.71 177.279 209.273 178.066C209.273 178.066 217.313 176.493 218.886 173.259C220.459 170.026 219.672 166.792 219.672 166.792L225.877 165.569Z"
    fill="#B0552A"
  />
  <path
    d="M160.771 105.969C160.771 105.969 151.945 101.163 146.265 105.969C140.584 110.776 143.555 117.33 146.265 116.456C151.071 114.883 149.498 110.863 154.304 109.989C159.111 109.203 160.771 105.969 160.771 105.969Z"
    fill="#D1C8B7"
  />
  <path
    d="M225.09 160.675C225.09 160.675 229.897 162.685 229.897 163.472C229.897 164.258 226.663 165.482 213.817 167.492C196.164 170.201 194.504 167.928 193.717 165.482C192.319 161.374 188.124 150.625 183.231 144.158C178.424 137.692 168.374 117.242 158.674 109.989C158.674 109.989 152.469 109.989 148.799 112.086C148.537 112.261 148.275 112.086 148.275 111.737C148.275 110.164 148.712 105.183 153.081 104.309C160.072 102.91 165.403 107.892 166.976 109.465C167.151 109.639 167.063 109.989 166.801 109.989H162.257C162.257 109.989 185.59 135.769 210.933 140.575H214.167C214.254 140.575 214.603 152.286 225.09 160.675Z"
    fill="url(#paint7_linear)"
  />
  <path
    d="M198.524 63.3228C198.524 63.3228 209.011 68.9157 213.817 69.7896C218.623 70.5761 221.857 80.2764 221.857 85.8693C221.857 89.9767 221.857 95.7444 221.857 97.9291C221.857 98.7157 229.897 97.9291 229.897 97.9291L223.43 100.376L216.963 98.803C216.963 98.803 218.973 78.2664 213.38 74.2465C210.933 72.6735 205.34 73.46 201.32 68.6535C200.534 66.9931 198.524 63.3228 198.524 63.3228Z"
    fill="#B0552A"
  />
  <path
    d="M206.214 77.3925C205.428 77.3925 214.604 68.4788 217.05 68.9157C219.06 69.3527 220.808 80.1016 221.07 82.6359C221.507 86.2189 217.487 74.1591 213.467 74.1591C209.447 74.2465 207.001 77.3925 206.214 77.3925Z"
    fill="#0E212F"
  />
  <path
    d="M205.777 77.8296C205.777 77.8296 210.584 73.0231 213.03 73.8096C215.477 74.5961 217.05 79.4026 217.837 85.0829C218.623 90.6759 218.623 97.9292 218.623 97.9292L206.127 96.7058L205.777 77.8296Z"
    fill="white"
  />
  <path
    d="M205.777 81.063C205.777 81.063 213.03 80.2765 215.39 85.8695C216.963 90.6759 216.176 97.9293 216.176 97.9293L206.127 97.4923L205.777 81.063Z"
    fill="#000503"
  />
  <path
    d="M205.777 84.2964V97.1427L214.603 97.9292C214.603 97.9292 215.39 89.1028 213.817 86.6559C212.244 84.209 209.797 83.4225 205.777 84.2964Z"
    fill="#E3EBE8"
  />
  <path
    d="M205.777 91.5498V98.0167H213.03V92.5111C212.594 92.948 212.069 93.1228 211.457 93.1228C211.37 93.1228 211.37 93.1228 211.283 93.1228C210.321 93.0354 209.535 92.4237 209.185 91.5498H205.777V91.5498Z"
    fill="url(#paint8_linear)"
  />
  <path
    d="M205.777 91.8994C205.777 93.9093 207.088 95.4824 208.574 95.4824C209.797 95.4824 210.846 94.5211 211.195 93.0354C210.234 92.9481 209.447 92.3363 209.098 91.4624C209.011 91.2003 208.923 90.9381 208.923 90.6759C208.923 89.8894 209.36 89.1903 209.884 88.7533C209.447 88.4038 209.011 88.229 208.486 88.229C207.001 88.229 205.864 89.7146 205.69 91.4624C205.777 91.6372 205.777 91.7246 205.777 91.8994Z"
    fill="#0B1A1B"
  />
  <path
    d="M177.987 129.739L196.514 159.539L215.827 161.112L210.234 156.306L209.448 146.605L205.428 136.992L190.484 134.982L174.841 124.933L177.987 129.739Z"
    fill="url(#paint9_linear)"
  />
  <path
    d="M181.657 135.769L185.677 142.236C189.697 144.683 195.552 157.791 195.552 157.791L204.554 164.346C204.554 164.346 208.224 157.617 206.127 150.625C203.418 141.799 194.504 140.75 191.969 140.575C193.106 143.11 196.689 146.868 197.562 147.654C196.689 146.78 191.969 142.149 186.377 138.041L181.657 135.769Z"
    fill="#EE6A85"
  />
  <path d="M211.02 147.392L219.847 155.519L219.06 157.879L209.011 148.615L211.02 147.392Z" fill="#BA6034" />
  <path
    d="M214.603 160.675L206.127 160.238C206.127 160.238 204.903 151.761 203.33 151.761C202.019 151.761 201.408 152.898 198.524 155.781C197.825 156.393 196.601 156.917 195.727 157.791L196.164 159.015L198.961 164.258L211.807 163.472L214.603 160.675Z"
    fill="#BA6034"
  />
  <path
    d="M196.164 159.102C196.164 159.102 200.184 156.481 202.107 153.509C202.369 153.072 202.893 153.16 203.155 153.597C203.942 155.17 205.428 157.966 204.204 161.462L215.477 160.675L211.108 156.918C210.321 156.218 209.71 155.257 209.622 154.208L209.011 148.615L219.497 158.228C219.497 158.228 219.497 154.208 221.07 153.422C221.857 153.422 224.304 155.869 225.09 159.015C225.178 159.452 225.09 160.064 225.09 160.588C225.09 161.112 224.653 161.549 224.304 161.724C222.119 162.51 216.351 164.083 204.204 164.608C199.398 164.608 198.611 164.608 197.737 163.035C196.863 161.462 196.164 159.102 196.164 159.102Z"
    fill="#FDFFFF"
  />
  <path
    d="M218.623 160.675C218.623 160.675 219.41 153.422 221.07 153.422C222.731 153.422 224.653 155.432 225.09 160.675"
    stroke="#C46436"
    stroke-linecap="round"
    stroke-linejoin="round"
  />
  <path
    d="M251.657 109.989C251.657 109.989 253.23 128.516 242.044 131.749C239.597 132.536 237.237 132.536 237.237 132.536C237.237 132.536 231.645 141.012 224.916 144.071C224.304 144.421 223.517 143.896 223.517 143.197V139.002C223.517 139.002 221.07 139.789 219.497 138.216C219.497 138.216 216.264 143.809 210.671 147.829C208.137 149.577 205.253 150.101 204.117 150.188C203.767 150.188 203.505 149.926 203.505 149.664V138.216C203.505 138.216 190.659 139.002 177.725 127.729C169.685 121.262 168.899 118.903 168.899 118.903L168.112 116.456C168.112 116.456 191.445 136.556 201.932 135.769C213.293 134.895 229.285 129.302 232.518 125.282C232.518 125.282 234.965 128.516 237.325 129.302C238.898 130.089 248.598 126.069 246.938 114.795C246.85 114.883 250.87 113.222 251.657 109.989Z"
    fill="url(#paint10_linear)"
  />
  <circle r="0.873899" transform="matrix(-1 0 0 1 243.617 121.262)" fill="#000907" />
  <circle r="1.22346" transform="matrix(-1 0 0 1 219.847 116.019)" fill="#000907" />
  <circle r="0.873899" transform="matrix(-1 0 0 1 213.03 119.689)" fill="#000907" />
  <path d="M251.657 114.883L273.417 112.436" stroke="#00070C" stroke-width="1.4" stroke-linecap="round" />
  <path d="M252.094 120.039L257.687 121.699" stroke="#00070C" stroke-width="1.3" stroke-linecap="round" />
  <path d="M196.514 108.853L213.467 114.446" stroke="#00070C" stroke-width="1.4" stroke-linecap="round" />
  <path d="M173.967 115.232L211.021 116.893" stroke="#00070C" stroke-width="1.5" stroke-linecap="round" />
  <path
    d="M218.012 106.231C218.099 106.843 218.449 107.629 219.148 108.329C220.022 109.377 221.595 110.601 223.867 111.912C231.907 116.718 233.48 123.185 233.48 123.185C234.965 122.486 236.451 121.699 237.762 121C237.937 120.913 238.024 120.825 238.199 120.738C238.461 120.563 238.723 120.476 238.898 120.301C252.443 112.698 254.278 106.493 253.579 102.211C252.88 97.8417 246.938 97.4922 238.024 97.4048C234.791 97.4048 231.47 97.7543 228.411 98.5409C225.527 99.24 222.643 100.726 220.633 102.211C219.06 103.609 217.837 104.746 218.012 106.231Z"
    fill="url(#paint11_linear)"
    stroke="#1B1C1C"
  />
  <path
    d="M238.81 105.357C243.442 104.047 249.123 104.309 250.87 105.183L250.259 102.91C249.035 102.386 247.375 102.037 245.277 102.037C242.656 101.949 240.296 103.26 238.81 105.357Z"
    fill="white"
  />
  <path
    opacity="0.3"
    d="M218.798 106.231C218.886 106.843 219.235 107.63 219.934 108.329C221.333 109.028 222.643 109.902 225.352 109.902C227.275 109.902 229.46 109.377 231.819 108.154C234.266 106.756 236.626 105.882 238.898 105.27C239.947 103.784 243.442 102.561 244.491 101.862C240.908 102.386 235.664 103.435 230.683 106.057C224.129 109.377 218.973 105.27 218.798 105.095V106.231Z"
    fill="white"
  />
  <path
    d="M249.647 106.406C248.86 110.95 243.617 117.767 238.985 120.476C252.531 112.873 254.366 106.668 253.667 102.386C252.968 98.0165 247.025 97.667 238.111 97.5796C234.878 97.5796 231.557 97.9291 228.498 98.7157C225.615 99.4148 222.731 100.9 220.721 102.386C220.721 102.386 230.334 100.813 237.587 100.813C244.84 100.726 250.433 101.6 249.647 106.406Z"
    fill="#1B1C1C"
  />
  <path
    d="M231.907 128.079L235.49 130.875C235.49 130.875 232.256 138.915 224.216 142.149C224.216 142.149 225.44 137.692 226.226 136.119L226.663 134.895L223.43 137.342L219.41 135.769C219.41 135.769 210.584 147.829 204.903 147.829L206.127 137.779C206.214 137.779 223.08 133.759 231.907 128.079Z"
    fill="white"
  />
  <path d="M205.777 97.9293L225.09 99.5897L220.284 97.9293L205.777 97.1428V97.9293Z" fill="#B0552A" />
  <path
    d="M161.82 89.0153C161.82 89.0153 163.83 87.0054 167.151 87.0054C167.151 87.0054 166.801 76.2564 170.122 71.5374C170.209 71.6247 160.596 73.8969 161.82 89.0153Z"
    fill="#B0552A"
  />
  <path
    d="M167.238 87.7918L185.94 98.6282C185.94 98.6282 187.25 86.5684 181.92 79.2276C176.589 71.8869 172.569 71.1877 170.559 71.1877C167.238 71.9743 167.238 87.7918 167.238 87.7918Z"
    fill="url(#paint12_linear)"
  />
  <path
    d="M185.94 98.6282H183.405C183.405 98.6282 170.646 88.1415 164.704 94.1714L160.072 92.3362L157.538 87.2676C157.538 87.2676 160.072 88.928 160.946 88.928C161.82 88.928 164.354 87.0928 167.762 87.0928C171.171 87.0928 177.026 88.0541 185.94 98.6282Z"
    fill="#000503"
  />
  <path
    d="M151.595 93.909C151.595 93.909 163.393 92.4234 172.919 99.7642C173.268 99.2398 164.092 88.753 151.595 93.909Z"
    fill="#B0552A"
  />
  <path
    d="M165.403 93.8218C165.403 93.8218 166.976 95.3948 172.132 95.5696C177.288 95.657 184.192 100.114 189.348 101.862C190.833 102.386 170.734 87.4423 165.403 93.8218Z"
    fill="#B0552A"
  />
  <path
    d="M182.749 68.4801C182.749 68.4801 180.302 57.9933 171.388 59.3915C164.31 60.178 158.367 67.0818 156.095 70.7522C156.095 70.7522 163.349 64.5475 170.34 63.3241C177.331 62.1006 182.749 68.4801 182.749 68.4801Z"
    fill="#0F1E20"
  />
  <g filter="url(#filter0_d)">
    <path
      fill-rule="evenodd"
      clip-rule="evenodd"
      d="M245.25 67.2853C245.25 67.2853 237.345 33.6067 212.617 30.1079C212.779 31.093 219.909 36.3965 231.272 48.9813C235.581 53.7544 245.25 67.2853 245.25 67.2853Z"
      fill="black"
      fill-opacity="0.01"
    />
  </g>
  <path
    d="M236.74 397.361L249.935 406.339C251.496 407.588 253.136 411.024 253.136 412.975L253.916 423.125C253.995 423.75 253.838 424.999 253.604 425.545L252.355 427.81L256.259 459.82L245.328 466.847L236.74 397.361Z"
    fill="#080625"
  />
  <path
    d="M255.478 455.448C255.478 455.448 278.9 463.724 282.023 476.215C285.146 488.707 284.365 487.927 284.365 487.927C284.365 487.927 287.488 491.752 287.488 495.734C287.488 501.199 286.005 506.977 261.724 510.568C225.029 516.033 210.195 500.262 203.949 499.638C196.142 498.857 186.695 495.656 183.65 491.05C180.527 486.365 183.65 480.9 184.43 479.338C185.211 477.777 187.553 474.654 185.68 466.69C184.587 461.85 189.115 446.547 189.115 446.547L203.012 405.09L255.478 455.448Z"
    fill="#080625"
  />
  <path d="M250.403 455.526L254.541 459.586H249.388L245.328 455.526H250.403Z" fill="#333333" />
  <path
    d="M244.313 454.511C244.313 454.511 248.373 455.526 249.388 458.571C250.091 460.757 246.343 468.799 246.343 468.799L219.798 469.814C219.798 469.814 212.693 468.799 211.678 462.709C210.663 456.619 232.056 451.466 232.056 451.466L244.313 454.511Z"
    fill="url(#paint13_linear)"
  />
  <path
    d="M280.54 489.722L279.369 487.927C279.837 488.239 281.164 489.957 282.179 491.362C283.116 492.611 283.585 494.095 283.585 495.578V497.061C283.585 499.247 281.867 501.434 279.837 502.058C271.795 504.322 252.823 509.163 241.815 508.07C221.438 506.04 209.336 494.797 205.12 494.797C204.495 494.797 202.622 495.266 201.06 494.719L190.442 490.972C187.319 489.879 186.382 486.756 186.929 483.555C187.241 482.071 189.271 481.056 190.286 481.056L247.905 486.677L280.54 489.722Z"
    fill="black"
  />
  <path
    d="M279.993 489.176C279.993 489.176 282.023 494.251 282.023 496.281C282.023 498.31 278.978 501.355 259.616 504.4C241.425 507.289 231.509 505.103 220.345 498.779C208.633 492.143 206.604 492.143 203.481 492.143C200.358 492.143 192.784 489.566 189.739 487.536C186.695 485.506 189.739 482.461 189.739 482.461C189.739 482.461 191.301 485.038 206.604 489.098C221.906 493.158 244.86 494.719 244.86 494.719C244.86 494.719 245.875 488.629 252.98 487.614C260.084 486.599 271.327 483.554 274.372 484.569C277.417 485.584 279.993 489.176 279.993 489.176Z"
    fill="url(#paint14_linear)"
  />
  <path
    d="M192.316 467.784C192.316 467.784 186.382 481.681 191.301 484.101C199.421 488.161 206.603 489.176 214.723 491.206C221.828 493.001 223.936 466.769 223.936 466.769L192.316 467.784Z"
    fill="url(#paint15_linear)"
  />
  <path
    d="M214.723 491.206C214.723 491.206 213.708 472.858 220.813 465.676C227.215 459.273 242.518 457.79 251.496 458.258C253.37 458.337 255.166 459.039 256.883 459.664C261.568 461.538 271.795 466.612 274.84 470.75C278.978 476.294 280.384 480.041 280.93 489.879C281.008 490.737 280.54 491.518 279.759 491.908C276.558 493.626 266.799 497.842 248.842 497.842C226.512 497.842 214.723 491.206 214.723 491.206Z"
    fill="url(#paint16_linear)"
  />
  <path
    d="M221.906 468.799C221.906 468.799 234.164 461.85 246.343 460.679C256.571 459.664 267.736 466.769 272.888 471.922C277.495 476.528 277.963 484.179 278.978 490.269C279.993 496.359 248.373 500.497 232.056 496.359C215.738 492.299 216.753 481.056 216.753 481.056L221.906 468.799Z"
    fill="url(#paint17_linear)"
  />
  <path
    d="M248.373 499.404C248.373 499.404 246.343 492.299 253.448 489.176C260.553 486.131 270.781 486.131 272.81 487.146C274.84 488.161 276.87 494.251 276.87 494.251L277.885 498.311L259.538 502.371H249.31L248.373 499.404Z"
    fill="url(#paint18_linear)"
  />
  <path
    d="M222.609 470.282C221.438 469.657 221.516 468.018 222.687 467.549C227.449 465.441 237.443 461.616 246.343 460.679C256.571 459.664 267.736 466.769 272.888 471.922C275.387 474.42 249.154 476.216 239.551 476.84C237.365 476.996 235.101 476.528 233.149 475.513L222.609 470.282Z"
    fill="url(#paint19_linear)"
  />
  <path
    d="M245.406 421.407C246.656 422.344 248.451 424.843 248.607 426.404L252.433 457.556C252.433 457.556 246.812 453.964 235.569 454.979C224.326 455.994 217.222 461.069 213.162 469.267C209.102 477.387 199.889 477.387 194.814 475.357C193.097 474.654 191.847 473.327 190.989 471.843C189.115 468.798 188.803 464.973 189.739 461.537L200.436 423.906C200.748 422.891 201.373 421.954 202.231 421.329L204.964 419.299L245.406 421.407Z"
    fill="black"
  />
  <path
    d="M202.544 423.906C202.544 423.906 188.959 466.456 192.55 469.813C192.784 470.048 193.019 470.282 193.331 470.438C204.574 478.948 215.816 468.018 214.567 456.463L210.741 423.906H202.544V423.906Z"
    fill="url(#paint20_linear)"
  />
  <path
    d="M209.883 422.891C209.883 422.891 207.775 459.586 216.207 460.6C215.66 461.147 221.906 453.496 235.647 452.949L233.539 424.374L209.883 422.891Z"
    fill="url(#paint21_linear)"
  />
  <path
    d="M245.328 422.891L249.388 453.496L235.647 453.027L233.071 424.921L245.328 422.891Z"
    fill="url(#paint22_linear)"
  />
  <path
    d="M205.901 411.024C205.979 410.789 206.135 410.555 206.369 410.477C208.79 409.228 229.167 401.499 232.914 401.499C236.974 401.499 248.217 410.711 248.685 412.195C248.998 413.054 249.154 421.329 249.154 423.437C249.154 423.75 249.076 424.062 248.842 424.218C247.046 425.858 238.77 433.119 236.974 433.119C234.944 433.119 207.775 426.17 202.231 424.374C201.529 424.14 201.138 423.359 201.451 422.657L205.901 411.024Z"
    fill="url(#paint23_linear)"
  />
  <path
    d="M233.929 403.528C233.929 403.528 245.172 409.618 246.187 412.741C247.202 415.786 247.202 418.831 247.202 421.954C247.202 424.218 237.989 431.167 236.974 431.167C235.959 431.167 223.702 428.122 219.642 421.954C217.612 418.909 216.597 411.726 217.612 409.696C218.315 408.369 233.929 403.528 233.929 403.528Z"
    fill="url(#paint24_linear)"
  />
  <path
    opacity="0.7"
    d="M237.521 430.854C239.707 429.761 247.202 423.906 247.202 421.876C247.202 418.831 247.202 415.786 246.187 412.663C245.172 409.618 233.929 403.45 233.929 403.45C233.929 403.45 234.71 403.216 233.929 403.45C235.725 406.807 238.536 416.176 237.521 430.854Z"
    fill="url(#paint25_linear)"
  />
  <path
    d="M141.177 478.167C141.177 478.167 143.207 481.29 141.177 485.428C139.147 489.566 133.916 491.596 132.901 497.842C131.886 504.01 131.886 506.118 125.641 508.148C119.473 510.178 104.951 512.286 95.66 511.271C86.3692 510.256 65.6795 507.133 58.4186 499.872C58.4186 497.842 58.4186 492.611 61.5416 489.566C64.6646 486.521 131.886 481.29 131.886 481.29L141.177 478.167Z"
    fill="black"
  />
  <path
    d="M85.3542 458.571C85.3542 458.571 98.783 450.295 111.197 454.433C123.611 458.571 133.916 470.985 133.916 470.985L142.192 468.174C142.192 468.174 142.973 480.588 138.054 485.506C133.916 489.644 130.793 492.767 130.793 492.767L77.0003 471.063L85.3542 458.571Z"
    fill="url(#paint26_linear)"
  />
  <path
    d="M129.778 491.596V500.965C129.778 502.761 128.529 504.4 126.812 504.791C120.175 506.43 104.092 510.022 93.6301 509.163C83.2462 508.382 69.6613 502.605 64.118 500.028C62.5565 499.326 61.5416 497.764 61.5416 496.046V491.596C61.5416 491.596 123.064 498.389 129.778 491.596Z"
    fill="#181818"
  />
  <path
    d="M61.5415 491.596C61.5415 491.596 63.5715 465.754 77.0783 460.601C86.8376 456.853 104.482 459.039 110.728 460.054C116.896 461.069 128.295 464.192 130.403 473.483C132.433 482.618 130.403 493.158 130.403 493.158C130.403 493.158 110.728 505.571 85.9007 501.434C64.118 497.296 61.5415 491.596 61.5415 491.596Z"
    fill="url(#paint27_linear)"
  />
  <path
    d="M64.6645 490.971C64.6645 490.971 66.5383 467.159 78.9521 462.396C87.9306 458.961 104.248 460.991 109.948 461.928C115.647 462.865 126.187 465.753 128.061 474.342C129.935 482.774 128.998 491.284 128.998 491.284C128.998 491.284 109.948 503.932 87.0718 500.106C67.0067 496.202 64.6645 490.971 64.6645 490.971Z"
    fill="url(#paint28_linear)"
  />
  <path
    d="M73.0965 470.672C71.8473 470.516 71.3008 469.033 72.0035 468.018C73.7992 465.519 76.0633 463.411 78.874 462.396C87.8525 458.961 104.17 460.991 109.869 461.928C113.617 462.552 119.395 463.958 123.454 467.315C124.469 468.096 124.469 469.735 123.376 470.516C121.268 472.156 116.037 474.185 103.311 473.561C88.2429 472.78 77.7029 471.375 73.0965 470.672Z"
    fill="url(#paint29_linear)"
  />
  <path
    d="M69.8174 496.827L71.1447 493.704C72.2377 491.206 74.7361 489.644 77.3906 489.801C84.9638 490.269 99.5637 491.44 101.828 493.704C104.951 496.827 104.951 500.965 104.951 500.965L103.936 505.103L84.2611 504.088L68.7244 500.965L69.8174 496.827Z"
    fill="url(#paint30_linear)"
  />
  <path
    d="M118.926 403.216L116.818 403.919C115.179 404.465 113.851 405.558 112.914 407.042L85.4323 453.496C84.6516 454.745 84.2612 456.15 84.2612 457.634V458.493H86.2912C86.2912 458.493 97.1435 452.793 108.542 454.901C119.941 457.009 126.656 462.631 132.823 470.906C132.277 471.453 148.438 470.75 151.405 454.355C153.981 440.379 159.212 427.809 161.242 419.846C161.867 417.191 161.164 414.381 159.212 412.429L118.926 403.216Z"
    fill="black"
  />
  <path
    d="M87.9307 454.901C88.3211 454.667 96.1285 450.607 109.167 453.105C110.338 453.34 111.509 453.574 112.758 453.886C128.295 458.024 133.448 468.33 133.448 468.33C133.448 468.33 136.571 469.345 142.739 465.207C148.907 461.069 149.687 449.358 154.138 435.226C158.822 420.236 158.822 412.975 158.822 412.975C158.822 412.975 122.752 412.038 120.097 408.057C120.019 407.9 119.941 407.822 119.941 407.666C119.941 407.51 119.941 407.354 120.019 407.198C120.878 405.558 120.175 405.168 119.082 405.402C117.443 405.714 114.866 407.198 114.866 407.198L87.9307 454.901Z"
    fill="url(#paint31_linear)"
  />
  <path
    d="M148.438 421.095C148.438 421.095 141.177 448.343 137.039 451.31C132.901 454.276 127.749 456.15 120.488 455.213C113.227 454.276 109.089 452.403 109.089 452.403C109.089 452.403 120.488 424.062 124.626 419.143C128.764 414.224 148.438 421.095 148.438 421.095Z"
    fill="url(#paint32_linear)"
  />
  <path
    d="M87.9307 454.901C88.3211 454.667 96.1285 450.607 109.167 453.106L124.626 419.221L120.019 408.135L119.863 407.744L118.926 405.558C118.77 405.558 118.614 405.636 118.536 405.636C116.35 406.261 114.476 407.823 113.383 409.774L87.9307 454.901Z"
    fill="url(#paint33_linear)"
  />
  <path
    d="M159.056 410.477C159.369 409.696 159.447 408.837 159.291 408.057C159.291 407.9 159.212 407.822 159.212 407.744C157.495 405.48 145.706 394.55 142.192 392.988C138.367 391.271 123.767 395.331 122.596 396.58C121.971 397.282 118.145 405.246 117.209 407.276C117.052 407.588 117.052 407.9 117.209 408.213C118.223 410.555 122.674 421.72 124.547 421.876C137.117 423.047 148.516 421.563 153.279 420.705C154.762 420.47 156.011 419.377 156.48 417.894L159.056 410.477Z"
    fill="url(#paint34_linear)"
  />
  <path
    d="M140.865 394.784C140.865 394.784 127.124 395.721 124.782 398.219C122.439 400.718 121.112 403.685 119.785 406.651C118.77 408.838 124.782 419.612 125.797 420.08C126.812 420.549 140.24 423.047 146.955 418.909C150.312 416.879 154.45 410.399 154.294 407.979C154.216 406.417 140.865 394.784 140.865 394.784Z"
    fill="url(#paint35_linear)"
  />
  <path
    opacity="0.7"
    d="M124.938 419.456C123.376 417.426 118.848 408.603 119.785 406.652C121.112 403.685 122.439 400.718 124.782 398.22C127.124 395.721 140.318 394.55 140.318 394.55C140.318 394.55 139.694 394.004 140.318 394.55C137.196 396.892 130.481 404.778 124.938 419.456Z"
    fill="url(#paint36_linear)"
  />
  <defs>
    <filter
      id="filter0_d"
      x="208.616"
      y="22.438"
      width="40.6415"
      height="56.5152"
      filterUnits="userSpaceOnUse"
      color-interpolation-filters="sRGB"
    >
      <feFlood flood-opacity="0" result="BackgroundImageFix" />
      <feColorMatrix in="SourceAlpha" type="matrix" values="0 0 0 0 0 0 0 0 0 0 0 0 0 0 0 0 0 0 127 0" />
      <feOffset dy="2" />
      <feGaussianBlur stdDeviation="2" />
      <feColorMatrix type="matrix" values="0 0 0 0 1 0 0 0 0 1 0 0 0 0 1 0 0 0 1 0" />
      <feBlend mode="normal" in2="BackgroundImageFix" result="effect1_dropShadow" />
      <feBlend mode="normal" in="SourceGraphic" in2="effect1_dropShadow" result="shape" />
    </filter>
    <linearGradient
      id="paint0_linear"
      x1="44.5336"
      y1="340.529"
      x2="104.218"
      y2="364.053"
      gradientUnits="userSpaceOnUse"
    >
      <stop stop-color="white" />
      <stop offset="1" stop-color="#560A0D" />
    </linearGradient>
    <linearGradient
      id="paint1_linear"
      x1="179.902"
      y1="349.323"
      x2="153.154"
      y2="349.323"
      gradientUnits="userSpaceOnUse"
    >
      <stop offset="0.1386" stop-color="#333333" />
      <stop offset="0.9988" stop-color="#1C1C1C" />
    </linearGradient>
    <linearGradient
      id="paint2_linear"
      x1="220.922"
      y1="349.599"
      x2="213.317"
      y2="349.599"
      gradientUnits="userSpaceOnUse"
    >
      <stop stop-color="#1F1F1F" />
      <stop offset="1" stop-color="#323232" />
    </linearGradient>
    <linearGradient
      id="paint3_linear"
      x1="151.936"
      y1="43.2081"
      x2="142.109"
      y2="33.083"
      gradientUnits="userSpaceOnUse"
    >
      <stop stop-color="#4D3B2B" />
      <stop offset="1" stop-color="#433A2C" />
    </linearGradient>
    <linearGradient
      id="paint4_linear"
      x1="149.323"
      y1="92.8618"
      x2="103.782"
      y2="92.8618"
      gradientUnits="userSpaceOnUse"
    >
      <stop stop-color="#AF430F" />
      <stop offset="1" stop-color="#CA764D" />
    </linearGradient>
    <linearGradient
      id="paint5_linear"
      x1="183.226"
      y1="63.5624"
      x2="122.32"
      y2="63.5624"
      gradientUnits="userSpaceOnUse"
    >
      <stop stop-color="#C66537" />
      <stop offset="0.6481" stop-color="#7A522D" />
      <stop offset="1" stop-color="#433A2C" />
    </linearGradient>
    <linearGradient
      id="paint6_linear"
      x1="136.21"
      y1="161.722"
      x2="137.399"
      y2="130.146"
      gradientUnits="userSpaceOnUse"
    >
      <stop stop-color="#F7FAF5" />
      <stop offset="0.3808" stop-color="#E7E0CF" />
      <stop offset="1" stop-color="#F7FAF5" />
    </linearGradient>
    <linearGradient
      id="paint7_linear"
      x1="177.069"
      y1="144.437"
      x2="164.226"
      y2="123.07"
      gradientUnits="userSpaceOnUse"
    >
      <stop stop-color="#011414" />
      <stop offset="1" stop-color="#6F4029" />
    </linearGradient>
    <linearGradient
      id="paint8_linear"
      x1="212.944"
      y1="97.1772"
      x2="207.258"
      y2="97.3658"
      gradientUnits="userSpaceOnUse"
    >
      <stop stop-color="#84D13F" />
      <stop offset="1" stop-color="#B5F7CC" />
    </linearGradient>
    <linearGradient
      id="paint9_linear"
      x1="190.178"
      y1="171.736"
      x2="167.719"
      y2="134.296"
      gradientUnits="userSpaceOnUse"
    >
      <stop stop-color="#7A3549" />
      <stop offset="0.9623" stop-color="#B05872" />
    </linearGradient>
    <linearGradient
      id="paint10_linear"
      x1="219.911"
      y1="137.406"
      x2="208.466"
      y2="118.426"
      gradientUnits="userSpaceOnUse"
    >
      <stop stop-color="#D86C3A" />
      <stop offset="1" stop-color="#513424" />
    </linearGradient>
    <linearGradient
      id="paint11_linear"
      x1="237.533"
      y1="117.887"
      x2="229.487"
      y2="104.497"
      gradientUnits="userSpaceOnUse"
    >
      <stop stop-color="#795032" />
      <stop offset="1" stop-color="#45362C" />
    </linearGradient>
    <linearGradient
      id="paint12_linear"
      x1="186.058"
      y1="98.6962"
      x2="167.205"
      y2="98.6962"
      gradientUnits="userSpaceOnUse"
    >
      <stop offset="0.3163" stop-color="#AF430F" />
      <stop offset="0.9274" stop-color="#CA612E" />
    </linearGradient>
    <linearGradient
      id="paint13_linear"
      x1="249.512"
      y1="469.825"
      x2="211.652"
      y2="469.825"
      gradientUnits="userSpaceOnUse"
    >
      <stop stop-color="#8F8E8F" />
      <stop offset="1" stop-color="#464646" />
    </linearGradient>
    <linearGradient
      id="paint14_linear"
      x1="282.055"
      y1="505.754"
      x2="188.401"
      y2="505.754"
      gradientUnits="userSpaceOnUse"
    >
      <stop offset="0.4331" stop-color="#181818" />
      <stop offset="0.5892" stop-color="#2D2D2D" />
      <stop offset="1" stop-color="#333333" />
    </linearGradient>
    <linearGradient
      id="paint15_linear"
      x1="231.769"
      y1="481.302"
      x2="210.657"
      y2="507.063"
      gradientUnits="userSpaceOnUse"
    >
      <stop stop-color="#333333" />
      <stop offset="1" stop-color="#515150" />
    </linearGradient>
    <linearGradient
      id="paint16_linear"
      x1="280.974"
      y1="497.904"
      x2="214.696"
      y2="497.904"
      gradientUnits="userSpaceOnUse"
    >
      <stop stop-color="#D6A801" />
      <stop offset="1" stop-color="#CCA001" />
    </linearGradient>
    <linearGradient
      id="paint17_linear"
      x1="273.915"
      y1="499.885"
      x2="218.557"
      y2="484.678"
      gradientUnits="userSpaceOnUse"
    >
      <stop stop-color="#FCC90D" />
      <stop offset="1" stop-color="#CCA001" />
    </linearGradient>
    <linearGradient
      id="paint18_linear"
      x1="252.027"
      y1="499.08"
      x2="252.22"
      y2="487.452"
      gradientUnits="userSpaceOnUse"
    >
      <stop offset="0.4703" stop-color="#181818" />
      <stop offset="1" stop-color="#404141" />
    </linearGradient>
    <linearGradient
      id="paint19_linear"
      x1="267.251"
      y1="462.301"
      x2="267.192"
      y2="474.641"
      gradientUnits="userSpaceOnUse"
    >
      <stop offset="0.00112141" stop-color="#FFEAB3" />
      <stop offset="1" stop-color="#FFCC00" stop-opacity="0.3" />
    </linearGradient>
    <linearGradient
      id="paint20_linear"
      x1="198.188"
      y1="420.153"
      x2="219.912"
      y2="423.508"
      gradientUnits="userSpaceOnUse"
    >
      <stop stop-color="#333333" />
      <stop offset="0.9988" stop-color="#040404" />
    </linearGradient>
    <linearGradient
      id="paint21_linear"
      x1="238.849"
      y1="440.283"
      x2="214.72"
      y2="457.289"
      gradientUnits="userSpaceOnUse"
    >
      <stop offset="0.1386" stop-color="#333333" />
      <stop offset="0.9988" stop-color="#1C1C1C" />
    </linearGradient>
    <linearGradient
      id="paint22_linear"
      x1="248.556"
      y1="449.781"
      x2="236.216"
      y2="449.781"
      gradientUnits="userSpaceOnUse"
    >
      <stop stop-color="#464646" />
      <stop offset="1" stop-color="#1F1F1F" />
    </linearGradient>
    <linearGradient
      id="paint23_linear"
      x1="249.236"
      y1="433.138"
      x2="201.347"
      y2="433.138"
      gradientUnits="userSpaceOnUse"
    >
      <stop stop-color="#D6A800" />
      <stop offset="1" stop-color="#FCC600" />
    </linearGradient>
    <linearGradient
      id="paint24_linear"
      x1="251.03"
      y1="427.13"
      x2="222.954"
      y2="437.523"
      gradientUnits="userSpaceOnUse"
    >
      <stop stop-color="#D6A801" />
      <stop offset="1" stop-color="#E18601" stop-opacity="0.5" />
    </linearGradient>
    <linearGradient
      id="paint25_linear"
      x1="243.966"
      y1="407.792"
      x2="245.764"
      y2="422.104"
      gradientUnits="userSpaceOnUse"
    >
      <stop stop-color="white" />
      <stop offset="1" stop-color="#DB922C" stop-opacity="0.2" />
    </linearGradient>
    <linearGradient
      id="paint26_linear"
      x1="113.382"
      y1="496.135"
      x2="87.462"
      y2="458.26"
      gradientUnits="userSpaceOnUse"
    >
      <stop stop-color="#515150" />
      <stop offset="1" stop-color="#82817F" />
    </linearGradient>
    <linearGradient
      id="paint27_linear"
      x1="131.211"
      y1="502.268"
      x2="61.5307"
      y2="502.268"
      gradientUnits="userSpaceOnUse"
    >
      <stop stop-color="#D6A801" />
      <stop offset="1" stop-color="#CCA001" />
    </linearGradient>
    <linearGradient
      id="paint28_linear"
      x1="102.894"
      y1="513.556"
      x2="70.3151"
      y2="468.891"
      gradientUnits="userSpaceOnUse"
    >
      <stop offset="0.00121486" stop-color="#D6A801" />
      <stop offset="1" stop-color="#FCC90D" />
    </linearGradient>
    <linearGradient
      id="paint29_linear"
      x1="74.8697"
      y1="484.949"
      x2="71.7377"
      y2="458.416"
      gradientUnits="userSpaceOnUse"
    >
      <stop stop-color="#FFCC00" stop-opacity="0.3" />
      <stop offset="1" stop-color="#FFEAB3" />
    </linearGradient>
    <linearGradient
      id="paint30_linear"
      x1="51.6343"
      y1="520.501"
      x2="52.2149"
      y2="492.654"
      gradientUnits="userSpaceOnUse"
    >
      <stop offset="0.7992" stop-color="#181818" />
      <stop offset="1" stop-color="#404141" />
    </linearGradient>
    <linearGradient
      id="paint31_linear"
      x1="95.69"
      y1="482.479"
      x2="82.4064"
      y2="414.553"
      gradientUnits="userSpaceOnUse"
    >
      <stop stop-color="#464646" />
      <stop offset="0.761" stop-color="#040404" />
    </linearGradient>
    <linearGradient
      id="paint32_linear"
      x1="114.266"
      y1="461.709"
      x2="105.488"
      y2="423.751"
      gradientUnits="userSpaceOnUse"
    >
      <stop stop-color="#1F1F1F" />
      <stop offset="1" stop-color="#323232" />
    </linearGradient>
    <linearGradient
      id="paint33_linear"
      x1="113.225"
      y1="445.861"
      x2="99.0142"
      y2="441.652"
      gradientUnits="userSpaceOnUse"
    >
      <stop stop-color="#383838" />
      <stop offset="1" stop-color="#565756" />
    </linearGradient>
    <linearGradient
      id="paint34_linear"
      x1="131.698"
      y1="388.444"
      x2="159.886"
      y2="414.23"
      gradientUnits="userSpaceOnUse"
    >
      <stop stop-color="#D6A800" />
      <stop offset="1" stop-color="#FCC600" />
    </linearGradient>
    <linearGradient
      id="paint35_linear"
      x1="138.314"
      y1="390.193"
      x2="155.554"
      y2="416.298"
      gradientUnits="userSpaceOnUse"
    >
      <stop stop-color="#D6A801" />
      <stop offset="1" stop-color="#E18601" stop-opacity="0.4" />
    </linearGradient>
    <linearGradient
      id="paint36_linear"
      x1="137.858"
      y1="400.374"
      x2="128.975"
      y2="412.676"
      gradientUnits="userSpaceOnUse"
    >
      <stop stop-color="white" />
      <stop offset="1" stop-color="#DB922C" stop-opacity="0.2" />
    </linearGradient>
  </defs>
</svg>
