<svg width="88" height="88" viewBox="0 0 88 88" fill="none" xmlns="http://www.w3.org/2000/svg">
  <g filter="url(#filter0_d)">
    <path
      fill-rule="evenodd"
      clip-rule="evenodd"
      d="M67.2 37.3107V30.4667C67.2 29.9328 66.7672 29.5 66.2333 29.5H57.4966C57.5188 29.181 57.5333 28.8591 57.5333 28.5333C57.5333 21.0591 51.4743 15 44 15C36.5257 15 30.4667 21.0591 30.4667 28.5333C30.4667 28.8591 30.4812 29.181 30.5034 29.5H21.7667C18.0313 29.5042 15.0042 32.5313 15 36.2667V66.2333C15.0042 69.9687 18.0313 72.9958 21.7667 73H66.2333C66.7672 73 67.2 72.5672 67.2 72.0333V62.2893C70.5262 61.8093 72.996 58.9607 73 55.6V44C72.996 40.6393 70.5262 37.7907 67.2 37.3107ZM44 16.9333C50.4037 16.9402 55.5931 22.1297 55.6 28.5333C55.6012 29.1249 55.5566 29.7157 55.4666 30.3004C55.0619 32.9908 53.7116 35.4489 51.6579 37.2333H46.9V35.1627C48.9544 34.6457 50.2006 32.5611 49.6835 30.5068C49.4902 29.7388 49.0639 29.0494 48.4631 28.5333C48.4902 28.5098 48.5183 28.4882 48.5465 28.4666L48.5465 28.4666C48.5877 28.435 48.6288 28.4034 48.6661 28.3661C50.1736 26.8649 50.1786 24.4258 48.6773 22.9183C48.1871 22.4262 47.573 22.0756 46.9 21.9039V19.8333H44.9667V21.7667H43.0333V19.8333H41.1V21.7667H39.1667V23.7H40.1333V33.3667H39.1667V35.3H41.1V37.2333H36.3401C34.2956 35.441 32.9479 32.9857 32.5334 30.2985C32.4434 29.7145 32.3987 29.1243 32.4 28.5333C32.4069 22.1297 37.5963 16.9402 44 16.9333ZM42.0667 29.5V33.3667H45.9333C47.0011 33.3667 47.8667 32.5011 47.8667 31.4333C47.8667 30.3655 47.0011 29.5 45.9333 29.5H42.0667ZM42.0667 23.7V27.5667H45.9333C47.0011 27.5667 47.8667 26.7011 47.8667 25.6333C47.8667 24.5655 47.0011 23.7 45.9333 23.7H42.0667ZM21.7667 31.4333H30.7905C30.935 32.0914 31.1288 32.7377 31.3705 33.3667H20.8V35.3H32.2811C32.6754 35.9825 33.1281 36.6293 33.6344 37.2333H20.8V39.1667H63.3333V37.2333H54.354C54.8598 36.6289 55.3125 35.9821 55.7073 35.3H63.3333V33.3667H56.6334C56.8742 32.7375 57.0681 32.0913 57.2134 31.4333H65.2667V41.1L21.7667 41.158V41.1C19.0973 41.1 16.9333 38.936 16.9333 36.2667C16.9333 33.5973 19.0973 31.4333 21.7667 31.4333ZM21.7667 71.0667H65.2667V62.3667H51.7333C47.9962 62.3667 44.9667 59.3371 44.9667 55.6C44.9667 51.8629 47.9962 48.8333 51.7333 48.8333H65.2667V43.0333L21.7667 43.0913V43.0333C19.9463 43.0336 18.2032 42.2979 16.9333 40.9937V66.2333C16.9365 68.9013 19.0987 71.0635 21.7667 71.0667ZM44.9667 35.3V37.2333H43.0333V35.3H44.9667ZM71.0667 55.6C71.0635 58.268 68.9013 60.4302 66.2333 60.4333H51.7333C49.064 60.4333 46.9 58.2693 46.9 55.6C46.9 52.9307 49.064 50.7667 51.7333 50.7667H66.2333C68.0537 50.7669 69.7968 50.0313 71.0667 48.727V55.6ZM67.2 48.7367C69.102 48.3505 70.5886 46.8639 70.9748 44.9618C71.506 42.3458 69.816 39.7945 67.2 39.2633V42.0667V48.7367Z"
      fill="#9747EE"
    />
    <path
      fill-rule="evenodd"
      clip-rule="evenodd"
      d="M48.8334 55.6C48.8334 53.9983 50.1317 52.7 51.7334 52.7C53.335 52.7 54.6334 53.9983 54.6334 55.6C54.6334 57.2016 53.335 58.5 51.7334 58.5C50.1317 58.5 48.8334 57.2016 48.8334 55.6ZM50.7667 55.6C50.7667 56.1338 51.1995 56.5666 51.7334 56.5666C52.2672 56.5666 52.7 56.1338 52.7 55.6C52.7 55.0661 52.2672 54.6333 51.7334 54.6333C51.1995 54.6333 50.7667 55.0661 50.7667 55.6Z"
      fill="#9747EE"
    />
    <rect x="59.4667" y="44.9667" width="2.9" height="1.93333" fill="#9747EE" />
    <rect x="54.6333" y="44.9667" width="2.9" height="1.93333" fill="#9747EE" />
    <rect x="49.8" y="44.9667" width="2.9" height="1.93333" fill="#9747EE" />
    <rect x="44.9667" y="44.9667" width="2.9" height="1.93333" fill="#9747EE" />
    <rect x="40.1333" y="44.9667" width="2.9" height="1.93333" fill="#9747EE" />
    <rect x="35.3" y="44.9667" width="2.9" height="1.93333" fill="#9747EE" />
    <rect x="30.4667" y="44.9667" width="2.9" height="1.93333" fill="#9747EE" />
    <rect x="25.6333" y="44.9667" width="2.9" height="1.93333" fill="#9747EE" />
    <rect x="20.8" y="44.9667" width="2.9" height="1.93333" fill="#9747EE" />
    <rect x="59.4667" y="67.2" width="2.9" height="1.93333" fill="#9747EE" />
    <rect x="54.6333" y="67.2" width="2.9" height="1.93333" fill="#9747EE" />
    <rect x="49.8" y="67.2" width="2.9" height="1.93333" fill="#9747EE" />
    <rect x="44.9667" y="67.2" width="2.9" height="1.93333" fill="#9747EE" />
    <rect x="40.1333" y="67.2" width="2.9" height="1.93333" fill="#9747EE" />
    <rect x="35.3" y="67.2" width="2.9" height="1.93333" fill="#9747EE" />
    <rect x="30.4667" y="67.2" width="2.9" height="1.93333" fill="#9747EE" />
    <rect x="25.6333" y="67.2" width="2.9" height="1.93333" fill="#9747EE" />
    <rect x="20.8" y="67.2" width="2.9" height="1.93333" fill="#9747EE" />
  </g>
  <defs>
    <filter
      id="filter0_d"
      x="0"
      y="0"
      width="88"
      height="88"
      filterUnits="userSpaceOnUse"
      color-interpolation-filters="sRGB"
    >
      <feFlood flood-opacity="0" result="BackgroundImageFix" />
      <feColorMatrix in="SourceAlpha" type="matrix" values="0 0 0 0 0 0 0 0 0 0 0 0 0 0 0 0 0 0 127 0" />
      <feOffset />
      <feGaussianBlur stdDeviation="7.5" />
      <feColorMatrix type="matrix" values="0 0 0 0 0.592157 0 0 0 0 0.278431 0 0 0 0 0.933333 0 0 0 1 0" />
      <feBlend mode="normal" in2="BackgroundImageFix" result="effect1_dropShadow" />
      <feBlend mode="normal" in="SourceGraphic" in2="effect1_dropShadow" result="shape" />
    </filter>
  </defs>
</svg>
