<svg width="88" height="88" viewBox="0 0 88 88" fill="none" xmlns="http://www.w3.org/2000/svg">
  <g filter="url(#filter0_d)">
    <ellipse cx="66.017" cy="56.1015" rx="1.22125" ry="1.13099" fill="#9747EE" />
    <ellipse
      rx="1.22145"
      ry="1.13206"
      transform="matrix(0.997848 -0.065569 0.0767957 0.997047 36.3979 71.7912)"
      fill="#9747EE"
    />
    <path
      fill-rule="evenodd"
      clip-rule="evenodd"
      d="M69.9924 51.2835L60.949 44.1278C60.9391 44.12 60.9292 44.1123 60.919 44.1049L57.6646 41.6913L72.8253 18.0256C73.1293 17.5512 73.0192 16.9427 72.5648 16.586C72.1104 16.229 71.4443 16.2279 70.9887 16.5834L47.9884 34.515L46.2517 33.2269L42.1199 23.7378C41.8897 23.2094 41.2709 22.9227 40.6759 23.0672C40.595 23.087 38.6722 23.5671 36.8544 24.9354C35.5108 25.9468 34.024 27.5992 33.6409 30.0952C32.8201 29.7611 31.9256 29.5903 31.0103 29.6035C27.5981 29.653 24.8557 32.2205 24.814 35.3612C21.9312 35.9297 19.7827 38.326 19.8306 41.156C19.8416 41.8074 19.9694 42.4459 20.2051 43.0493C18.0993 44.0384 16.7053 46.0863 16.7434 48.3463C16.759 49.2658 17.0117 50.1651 17.4689 50.9705C15.9069 52.0776 14.969 53.8194 15.0008 55.6921C15.0257 57.171 15.6474 58.5573 16.7163 59.6048C15.6836 60.6818 15.1088 62.0856 15.1337 63.5651C15.16 65.1228 15.8396 66.5778 17.0473 67.6618C18.2307 68.7242 19.7824 69.306 21.4262 69.3059C21.6974 69.3059 21.9681 69.2886 22.2371 69.2568C22.4025 70.1569 22.5863 71.0678 22.7883 71.9895C22.904 72.5167 23.4043 72.8954 23.985 72.8954H30.8057C31.4802 72.8954 32.0269 72.389 32.0269 71.7644C32.0269 71.1398 31.4802 70.6334 30.8057 70.6334H24.9885C23.5783 63.8397 23.2112 57.6822 23.8973 52.3173C24.4654 47.8749 25.7532 43.9668 27.7247 40.7015C31.0628 35.1729 35.279 33.366 35.3164 33.3503C35.8031 33.1518 36.0952 32.6842 36.0384 32.1946C35.5682 28.139 38.6401 26.2935 40.2974 25.6011L44.1058 34.3476C44.1842 34.5276 44.3114 34.686 44.4751 34.8074L59.3768 45.8592L68.4056 53.003C70.4315 54.6061 71.1065 57.2144 70.0851 59.4937C69.4576 60.8941 68.279 61.9842 66.7661 62.5634C65.2532 63.1428 63.5872 63.1418 62.0753 62.5607L50.9942 58.3021C50.6548 58.1716 50.2699 58.1898 49.9465 58.3513C48.731 58.9583 47.3668 59.3444 46.0377 59.4951C44.2406 59.6801 42.3429 59.4529 40.6228 58.7919C37.9166 57.7518 35.8201 55.7939 34.7196 53.2787C33.6195 50.764 33.6538 48.0058 34.8162 45.5125C35.0835 44.9389 34.7982 44.2734 34.179 44.0258C33.56 43.7784 32.8411 44.0425 32.5737 44.6159C31.1501 47.6696 31.1084 51.0478 32.4559 54.128C33.8037 57.2089 36.3716 59.607 39.6865 60.8811C41.6134 61.6216 43.6608 61.924 45.6799 61.7973C46.4947 62.7543 48.503 65.5983 48.7713 70.6336H41.8592C41.1847 70.6336 40.6379 71.14 40.6379 71.7646C40.6379 72.3891 41.1847 72.8956 41.8592 72.8956H50.0223C50.6968 72.8956 51.2436 72.3892 51.2436 71.7646C51.2436 66.5561 49.5846 63.1717 48.3484 61.373C49.109 61.1761 49.8555 60.9161 50.5791 60.5917L61.1391 64.6501C63.2538 65.4629 65.5836 65.4642 67.6992 64.6541C69.8149 63.844 71.4634 62.3193 72.3409 60.361C73.7696 57.1732 72.8258 53.5252 69.9924 51.2835ZM21.476 44.9922C21.8552 45.3771 22.2881 45.7132 22.7628 45.9917C22.2235 47.7407 21.8174 49.5946 21.5429 51.542C21 51.3291 20.5089 51.0032 20.1193 50.5842C19.5313 49.952 19.1997 49.1446 19.1856 48.3108C19.1612 46.8661 20.0918 45.563 21.476 44.9922ZM21.2824 53.8555C20.45 53.6312 19.6724 53.2465 19.0054 52.7314C18.0188 53.407 17.4231 54.49 17.4428 55.6567C17.4633 56.866 18.1355 57.9747 19.241 58.6225C19.8112 58.9556 20.4644 59.1409 21.1383 59.1663C21.0912 57.331 21.1391 55.5593 21.2824 53.8555ZM21.4894 67.0433C20.4636 67.0598 19.4864 66.701 18.7473 66.0375C18.008 65.3739 17.592 64.4833 17.5758 63.5296C17.5591 62.5398 17.9812 61.6057 18.7282 60.927C19.5165 61.2532 20.3701 61.4252 21.2422 61.4318C21.3612 63.2392 21.5678 65.1038 21.861 67.0215C21.7379 67.0341 21.6137 67.0415 21.4894 67.0433ZM22.9187 43.0448C23.1008 43.2969 23.3166 43.5253 23.5586 43.7258C24.1626 42.199 24.8764 40.7625 25.6992 39.4241C25.8111 39.2421 25.924 39.0651 26.0373 38.8904C25.7172 38.4883 25.4549 38.0504 25.2561 37.5876C23.5249 37.9598 22.244 39.4109 22.2728 41.1207C22.2844 41.8099 22.5079 42.4753 22.9187 43.0448ZM27.5493 36.8051C27.4533 36.5919 27.3789 36.3704 27.3294 36.1427C27.2833 35.9292 27.2581 35.7098 27.2544 35.4908C27.2211 33.5225 28.9231 31.8961 31.0485 31.8652C31.6159 31.8547 32.17 31.9625 32.6775 32.173C31.3676 32.9969 29.4504 34.4552 27.5493 36.8051ZM59.0846 35.0415L57.7941 29.8268L54.8829 32.0965C54.8841 32.101 54.8856 32.1054 54.8871 32.1098C54.8889 32.1154 54.8908 32.121 54.8922 32.1268L56.5808 38.9499L59.0846 35.0415ZM60.8922 32.2203L59.8946 28.1895L67.0464 22.6139L60.8922 32.2203ZM52.784 33.7328L49.932 35.9563L54.0992 39.0468L52.784 33.7328Z"
      fill="#9747EE"
    />
    <path
      d="M40.8793 43.2291C41.0212 43.1825 44.3721 42.1131 46.0363 44.4603C46.2709 44.791 46.6606 44.9706 47.0583 44.9706C47.2883 44.9706 47.5208 44.9106 47.7274 44.7849C48.2912 44.4421 48.4482 43.7409 48.078 43.2188C45.8926 40.1365 41.8689 40.4867 40.0468 41.1026C39.4151 41.3161 39.0913 41.9614 39.3191 42.5474C39.5468 43.1335 40.2461 43.4376 40.8793 43.2291Z"
      fill="#9747EE"
    />
    <path
      fill-rule="evenodd"
      clip-rule="evenodd"
      d="M47.3446 23.2691L44.407 21.7812C44.0154 21.5829 43.7719 21.2024 43.7717 20.789C43.7717 20.3756 44.0153 19.9951 44.407 19.7967L47.3447 18.3089L48.9513 15.5882C49.1655 15.2255 49.5764 15 50.0228 15C50.4691 15 50.8799 15.2255 51.0941 15.5882L52.7007 18.3089L55.6383 19.7967C56.03 19.9951 56.2736 20.3756 56.2736 20.789C56.2736 21.2024 56.03 21.5829 55.6383 21.7812L52.7007 23.2691L51.0941 25.9897C50.8799 26.3525 50.4691 26.5779 50.0227 26.5779C49.5763 26.5779 49.1654 26.3525 48.9512 25.9897L47.3446 23.2691ZM49.316 19.6847C49.2039 19.8745 49.0354 20.0304 48.8305 20.1342L47.5381 20.7888L48.8305 21.4434C49.0354 21.5472 49.2039 21.7031 49.316 21.8929L50.0228 23.0898L50.7297 21.8929C50.8417 21.7031 51.0102 21.5472 51.2151 21.4434L52.5076 20.7888L51.2151 20.1342C51.0102 20.0304 50.8417 19.8745 50.7297 19.6847L50.0228 18.4878L49.316 19.6847Z"
      fill="#9747EE"
    />
    <path
      d="M69.383 38.6903C70.0575 38.6903 70.6043 38.184 70.6043 37.5593V36.9697H71.2408C71.9153 36.9697 72.462 36.4634 72.462 35.8388C72.462 35.2141 71.9153 34.7078 71.2408 34.7078H70.6043V34.1182C70.6043 33.4937 70.0575 32.9872 69.383 32.9872C68.7085 32.9872 68.1618 33.4935 68.1618 34.1182V34.7078H67.5251C66.8507 34.7078 66.3039 35.2141 66.3039 35.8388C66.3039 36.4634 66.8507 36.9697 67.5251 36.9697H68.1618V37.5593C68.1619 38.184 68.7085 38.6903 69.383 38.6903Z"
      fill="#9747EE"
    />
  </g>
  <defs>
    <filter
      id="filter0_d"
      x="0"
      y="0"
      width="88"
      height="87.9228"
      filterUnits="userSpaceOnUse"
      color-interpolation-filters="sRGB"
    >
      <feFlood flood-opacity="0" result="BackgroundImageFix" />
      <feColorMatrix in="SourceAlpha" type="matrix" values="0 0 0 0 0 0 0 0 0 0 0 0 0 0 0 0 0 0 127 0" />
      <feOffset />
      <feGaussianBlur stdDeviation="7.5" />
      <feColorMatrix type="matrix" values="0 0 0 0 0.592157 0 0 0 0 0.278431 0 0 0 0 0.933333 0 0 0 1 0" />
      <feBlend mode="normal" in2="BackgroundImageFix" result="effect1_dropShadow" />
      <feBlend mode="normal" in="SourceGraphic" in2="effect1_dropShadow" result="shape" />
    </filter>
  </defs>
</svg>
