<svg width="645" height="656" viewBox="0 0 645 656" fill="none" xmlns="http://www.w3.org/2000/svg">
  <circle cx="322.5" cy="322.5" r="322.5" fill="url(#paint0_radial)" />
  <ellipse cx="233.5" cy="628" rx="142.5" ry="28" fill="#0D0D16" fill-opacity="0.27482" />
  <path
    d="M201.011 449.018C201.011 449.018 198.156 533.64 284.767 565.016C337.115 581.18 379.945 555.508 396.125 524.132L390.414 526.984C390.414 526.984 411.354 499.41 404.691 463.28C404.691 463.28 397.077 473.739 393.27 476.591C394.222 468.034 394.222 468.034 394.222 468.034C394.222 468.034 372.331 488.952 363.765 489.902L365.668 484.198C365.668 484.198 318.079 526.984 282.864 474.689C247.648 422.395 246.696 432.854 246.696 432.854L201.011 449.018Z"
    fill="url(#paint1_linear)"
  />
  <path
    d="M205 451.746C205 451.746 221.56 527.689 263.525 550.469C305.491 573.248 342.341 561.847 365.231 546.661C368.092 543.814 370 537.169 370 537.169L356.647 538.119L366.185 526.729H358.555C358.555 526.729 366.185 520.085 370 515.339C370 515.339 357.601 519.136 351.879 517.237C351.879 517.237 363.324 505.847 363.324 504.898C363.324 503.949 349.971 508.695 348.064 507.746C346.156 506.797 354.74 501.102 354.74 501.102C354.74 501.102 311.113 518.662 284.408 488.289C257.703 457.916 257 447.725 257 447.725L205 451.746Z"
    fill="#B65020"
  />
  <path
    fill-rule="evenodd"
    clip-rule="evenodd"
    d="M238.374 536.98C238.374 536.98 252.652 591.379 257 595.727C261.348 600.075 259.289 602.203 260.158 606.551C261.028 610.899 259.289 621.334 263.637 626.552C267.985 631.77 270.594 636.118 271.463 639.597C272.333 643.075 277.551 653.685 298.422 654.38C324.511 655.25 355.818 650.032 361.905 639.597C364.253 635.509 361.905 623.074 360.166 621.334C358.427 619.595 358.601 609.247 354.948 601.333C349.73 590.028 337.975 588.03 334.373 586.288C330.771 584.547 326.988 573.039 323.387 571.298C293.058 556.632 238.374 536.98 238.374 536.98Z"
    fill="#080625"
  />
  <path
    d="M195.309 446.842C195.309 446.842 192.324 533.859 281.55 566.156C335.373 582.819 379.522 556.385 396.194 524.087L390.328 527.07C390.328 527.07 411.837 498.682 405.045 461.55C405.045 461.55 397.223 472.35 393.313 475.23C394.342 466.385 394.342 466.385 394.342 466.385C394.342 466.385 371.804 487.882 362.953 488.91L364.909 483.047C364.909 483.047 315.922 527.07 279.697 473.276C243.369 419.379 242.34 430.179 242.34 430.179L195.309 446.842Z"
    fill="url(#paint2_linear)"
  />
  <path
    d="M199.425 449.619C199.425 449.619 216.509 527.687 259.629 551.139C302.75 574.59 340.724 562.865 364.291 547.23C367.276 544.35 369.231 537.459 369.231 537.459L355.441 538.385L365.218 526.659H357.396C357.396 526.659 365.218 519.87 369.128 514.933C369.128 514.933 356.367 518.842 350.501 516.887C350.501 516.887 362.233 505.162 362.233 504.236C362.233 503.31 348.443 508.145 346.487 507.116C344.532 506.19 353.383 500.327 353.383 500.327C353.383 500.327 308.513 518.43 281.035 487.162C253.557 455.893 252.837 445.402 252.837 445.402L199.425 449.619Z"
    fill="#B65020"
  />
  <path
    d="M257.549 443.669L175.543 466.192C175.978 466.192 176.239 466.105 176.239 466.105C166.673 480.019 161.455 506.978 161.455 508.717C161.455 508.717 159.716 518.283 158.759 530.023L194.936 538.719C194.936 538.719 203.197 517.413 205.806 511.326C208.415 505.239 213.633 496.542 213.633 496.542H217.981L247.114 540.459L281.899 521.327C281.899 491.759 261.028 470.019 261.028 470.019C261.028 460.453 257.549 446.538 257.549 446.538"
    fill="#560A0D"
  />
  <path
    d="M275.464 520.892C275.464 521.501 275.377 522.022 275.377 522.631L250.157 533.067L249.375 532.023L223.199 496.542H208.415C208.415 496.542 204.067 505.239 201.458 511.326C199.632 515.5 195.371 523.066 192.936 527.24C191.805 529.153 190.588 536.98 190.588 536.98L163.107 530.023C163.281 527.588 163.542 525.153 163.803 522.979C164.064 520.544 164.412 518.283 164.673 516.283C165.281 511.674 165.89 508.717 165.89 508.717C165.89 506.978 171.108 480.019 180.674 466.105L252.332 446.539C252.332 446.539 252.592 447.408 252.94 448.887C254.158 453.756 256.68 465.236 256.68 472.627C256.68 472.627 276.333 492.281 275.464 520.892Z"
    fill="#9B0408"
  />
  <path
    d="M279.812 523.066H276.246C276.246 512.63 269.724 497.847 262.332 486.107C256.332 476.541 247.549 470.453 247.549 470.453C250.157 471.323 252.332 470.019 252.332 470.019C250.592 463.931 243.635 458.713 243.635 458.713L252.94 448.886C254.158 453.756 256.68 465.236 256.68 472.627C256.68 472.627 278.42 491.759 279.812 523.066Z"
    fill="#7E0207"
  />
  <path
    d="M254.071 532.632L250.592 536.98L247.114 533.502L223.199 496.542H208.415C208.415 496.542 204.067 505.239 201.458 511.326C199.632 515.5 196.588 524.892 194.066 529.153L191.457 536.11C191.457 536.11 167.108 530.023 165.368 528.284C164.934 527.936 164.151 528.371 163.803 527.327C164.064 524.892 175.369 522.631 176.239 522.631C180.587 521.762 187.544 510.456 190.153 503.499C192.762 496.542 193.631 496.542 191.023 489.585C188.414 482.628 189.283 479.15 188.414 475.671C187.544 472.193 180.587 468.714 180.587 468.714L181.544 467.671L187.631 471.497L198.327 475.062C198.327 475.062 200.588 478.28 200.328 478.019C203.458 484.802 206.763 485.15 213.72 485.15C220.677 485.15 225.373 476.106 225.373 476.106C222.416 490.02 228.33 498.455 234.069 507.413C240.157 516.979 254.071 532.632 254.071 532.632Z"
    fill="#7E0207"
  />
  <path
    d="M194.501 483.759C194.414 483.498 194.762 483.324 194.936 483.498C196.849 486.107 201.893 491.759 210.589 491.759H219.894C220.59 491.759 221.199 492.107 221.547 492.716L225.373 499.586L221.895 501.325L217.981 496.542C217.981 496.542 208.415 497.412 204.937 496.542C201.632 495.76 196.849 491.846 194.501 483.759Z"
    fill="#560A0D"
  />
  <path
    fill-rule="evenodd"
    clip-rule="evenodd"
    d="M476.609 134.254C478.61 136.602 478.697 139.994 477.044 142.602L447.825 187.302C447.651 187.562 447.564 187.91 447.738 188.171C450.781 194.606 483.74 268.525 457.999 322.529C431.041 379.055 402.343 397.317 360.601 378.186C328.163 363.315 319.38 358.967 317.032 357.749C316.597 357.488 316.076 357.662 315.815 358.097C313.293 363.054 298.683 389.578 272.159 400.622C271.985 400.709 271.811 400.796 271.724 400.97C270.594 402.796 263.028 415.319 261.463 423.319C260.945 425.906 260.279 428.492 259.643 430.963C258.46 435.554 257.38 439.746 257.549 442.799C257.549 443.147 257.288 443.582 256.854 443.669L175.63 465.931H175.456C173.021 466.018 165.195 466.279 157.977 464.105C156.211 463.575 153.763 462.938 150.875 462.186C139.54 459.234 121.412 454.513 111.017 447.582C96.5807 438.016 81.4491 425.059 74.492 406.796V406.709C74.1538 405.542 73.8813 404.569 73.649 403.74C72.687 400.305 72.4145 399.332 71.0135 397.23C69.2743 394.622 64.9261 386.795 84.9276 359.836C103.135 335.317 123.451 323.749 130.25 319.878C130.757 319.589 131.189 319.343 131.54 319.138C131.801 319.051 131.888 318.877 131.975 318.616C132.844 315.746 139.54 295.136 149.28 290.266C159.455 285.135 167.195 283.396 173.195 283.309C173.456 283.309 173.717 283.222 173.891 283.048C175.543 281.135 184.5 271.047 188.414 270.264C190.84 269.769 196.199 274.66 201.232 279.252C205.037 282.725 208.654 286.026 210.676 286.7C210.85 286.7 211.111 286.7 211.285 286.613C215.024 284.787 252.679 266.438 266.681 260.698C281.464 254.611 288.421 252.002 295.378 255.481C301.379 258.524 308.075 265.394 309.727 267.221C309.988 267.482 310.336 267.568 310.684 267.482C314.075 266.264 331.99 260.264 347.556 268.96C348.078 269.221 348.6 269.047 348.861 268.612L353.47 259.394C353.557 259.133 353.557 258.872 353.47 258.611C345.904 240.784 355.644 228.609 357.644 226.348C357.818 226.087 357.905 225.739 357.818 225.478C356.513 221.217 347.556 189.476 359.731 177.301C371.558 165.561 401.647 167.909 407.474 168.517C407.996 168.604 408.43 168.17 408.43 167.648V139.124C408.43 133.037 411.039 119.992 442.346 119.992C461.826 119.992 472.087 128.688 476.609 134.254ZM159.89 394.882C160.499 395.056 161.02 394.622 161.02 394.013V392.274C161.02 392.013 160.846 391.752 160.672 391.578L160.539 391.455C159.262 390.278 155.56 386.865 153.715 384.099C153.368 383.577 152.759 383.49 152.324 383.925L147.367 388.882C147.193 389.056 147.106 389.23 147.106 389.491C147.09 389.702 147.074 390.005 147.053 390.383C146.965 392.021 146.802 395.061 146.237 398.1C146.063 399.144 147.367 399.665 147.889 398.796C147.976 398.796 147.976 398.709 147.976 398.709C148.14 398.463 148.296 398.225 148.446 397.996C149.894 395.788 150.83 394.361 153.194 394.361C155.455 394.361 157.629 394.361 159.89 394.882Z"
    fill="#560A0D"
  />
  <path
    d="M441.042 192.606C441.042 192.606 470 254.524 450.607 310.006C448.086 317.137 445.39 323.747 442.52 329.747C439.737 335.661 436.693 340.965 433.563 345.748C416.605 371.229 395.038 380.012 369.732 371.75C347.121 364.445 320.337 352.879 314.945 348.27C310.597 344.531 309.727 350.879 309.727 350.879C309.727 350.879 297.552 381.316 267.985 398.709C260.158 402.187 255.81 407.405 254.94 409.144C254.071 410.884 262.854 405.318 262.854 406.796C262.854 407.405 255.81 423.059 252.505 440.625L202.763 468.279L175.804 458.713L178.413 445.669C178.413 445.669 174.934 430.016 171.456 418.71C167.977 407.405 167.108 378.707 167.108 378.707C164.499 379.577 162.76 384.795 162.76 384.795C162.76 384.795 161.02 382.186 157.542 372.62C154.063 363.054 161.89 358.706 161.89 358.706C159.281 357.836 154.063 361.315 154.063 361.315C147.976 357.836 147.106 352.618 147.976 340.444C148.845 328.269 163.629 308.267 163.629 308.267L161.02 309.137C161.02 309.137 149.715 319.572 143.628 340.444C143.106 342.27 142.671 343.922 142.497 345.487C139.714 361.75 150.585 364.011 149.715 365.663C148.845 367.402 149.715 374.359 149.715 374.359L146.237 378.707C140.149 359.575 123.626 358.706 123.626 358.706C124.061 358.967 124.496 359.315 124.931 359.575C139.019 369.402 139.366 382.099 139.28 385.056C139.28 385.143 139.28 385.143 139.28 385.23C139.28 385.49 139.28 385.664 139.28 385.664C139.28 385.664 138.323 385.317 136.584 384.882C136.584 384.882 136.584 384.882 136.497 384.882C136.41 384.882 136.236 384.795 136.149 384.795C135.54 384.621 134.931 384.534 134.236 384.36C127.626 383.142 115.452 382.36 103.625 390.013C99.9722 392.361 97.1024 394.969 94.8414 397.578C87.1886 406.449 86.7538 415.58 86.7538 417.058C86.7538 417.232 86.7538 417.232 86.7538 417.232C86.6668 417.145 86.6668 417.058 86.5799 416.971C85.2754 415.319 84.1449 413.58 83.1014 411.753C81.9708 409.753 80.9273 407.753 80.1446 405.579C79.5359 404.448 82.9274 406.796 85.3624 407.927C86.5799 408.536 87.6234 408.797 87.9713 408.188C88.2322 407.579 87.9713 406.275 87.4495 404.97C87.1017 403.927 86.5799 402.883 86.232 402.1C85.3624 400.361 82.7535 393.404 82.7535 393.404C81.8839 395.143 86.232 402.97 85.3624 403.84C84.4928 404.709 81.0142 400.361 81.0142 400.361C79.6228 398.361 76.4922 390.013 86.1451 372.794C86.319 372.446 86.4929 372.185 86.6668 371.837C86.8408 371.489 87.1017 371.142 87.2756 370.881C87.4495 370.533 87.7104 370.185 87.8843 369.837C89.5366 367.141 91.5368 364.184 93.7978 361.054C109.19 340.531 133.192 324.79 133.192 324.79C133.192 324.79 133.279 329.573 134.062 329.138C134.062 329.138 138.41 308.267 154.063 297.832C157.89 295.223 164.325 291.57 173.195 290.875C173.195 290.875 172.326 292.614 172.76 293.918C172.76 293.918 183.631 278.7 191.023 277.047C195.11 276.178 210.067 292.614 213.633 290.44C217.981 287.831 250.679 273.743 264.506 268.09C278.42 262.351 283.986 258.089 290.595 261.307C294.943 263.481 299.987 269.656 302.944 273.569C304.422 275.569 305.379 276.96 305.379 276.96C305.379 276.96 305.64 276.874 305.988 276.7C309.64 275.134 328.424 267.916 347.991 279.569L359.818 264.786L361.818 262.264C361.818 262.177 361.905 262.177 361.905 262.177C353.731 243.393 365.992 228.435 365.992 228.435C365.992 228.435 354.426 202.346 364.514 188.258C364.775 187.823 365.123 187.388 365.471 187.041C365.645 186.867 365.818 186.693 365.992 186.519C365.992 186.519 365.992 186.432 366.079 186.432C366.166 186.258 366.34 186.171 366.427 186.084C366.514 185.997 366.601 185.91 366.688 185.823C366.775 185.736 366.949 185.562 367.036 185.475C367.471 185.127 367.906 184.78 368.34 184.432C368.775 184.084 369.297 183.736 369.819 183.475C370.254 183.214 370.688 182.953 371.123 182.779C371.384 182.692 371.645 182.519 371.819 182.432C372.08 182.345 372.254 182.171 372.515 182.084C372.775 181.91 373.123 181.823 373.471 181.649C373.906 181.475 374.428 181.301 374.95 181.127C390.342 175.735 413.213 180.518 413.213 180.518C413.213 180.518 413.474 176.866 413.822 172.083C413.822 171.822 413.822 171.561 413.909 171.387C414.431 164.343 414.953 155.212 414.953 151.908C414.953 151.212 414.953 150.342 414.953 149.473C415.126 142.602 417.127 130.254 439.302 130.254C461.043 130.254 464.609 141.82 464.609 141.82L441.042 192.606Z"
    fill="#9B0408"
  />
  <path
    fill-rule="evenodd"
    clip-rule="evenodd"
    d="M382.776 353.488C361.905 341.313 360.166 310.006 360.166 310.006C360.166 310.006 355.818 309.137 353.209 315.224C352.45 316.995 352.132 319.208 351.807 321.477C351.014 327.006 350.173 332.87 342.773 333.486C332.338 334.356 325.381 325.66 322.772 317.833C320.598 311.224 322.685 305.919 323.381 304.354C323.554 304.093 323.554 303.919 323.554 303.919H320.946C330.511 292.614 344.426 290.875 344.426 290.875C320.946 287.396 307.031 298.701 307.031 298.701C307.031 298.701 303.553 299.571 300.944 291.744C298.857 285.483 301.118 281.396 303.379 279.135C300.161 281.048 292.509 286.266 287.987 293.31C286.247 299.832 286.247 305.658 286.247 305.658C286.247 305.658 286.247 316.094 267.985 335.226C247.114 357.836 231.461 358.706 231.461 358.706C219.46 359.575 191.457 352.01 190.588 351.749L194.936 354.358C194.936 354.358 227.982 368.272 232.33 372.62C236.678 376.968 240.157 383.925 237.548 390.882C234.939 397.839 231.461 395.23 231.461 395.23C214.068 376.098 191.457 371.75 191.457 373.49C196.675 374.359 209.72 383.055 214.938 390.013C220.155 396.97 215.807 398.709 215.807 398.709C211.841 400.031 208.322 397.557 204.232 394.682C200.249 391.882 195.724 388.702 189.718 388.273C183.283 387.838 175.978 391.143 173.282 392.795C172.847 393.143 172.152 392.795 172.065 392.274C171.717 390.447 171.195 387.056 171.456 385.664C173.195 376.098 183.631 373.49 183.631 373.49C175.235 372.844 168.998 377.425 166.165 379.506L166.165 379.506C165.184 380.227 164.611 380.648 164.499 380.447C163.629 378.707 169.282 374.794 169.282 374.794C169.282 374.794 166.238 371.75 164.064 365.228C161.89 358.532 167.543 355.662 167.543 355.662C167.543 355.662 153.629 360.01 157.542 372.62C160.586 382.36 162.76 384.795 162.76 384.795C162.76 384.795 164.499 380.447 167.108 379.577C167.108 379.577 167.977 407.405 171.456 418.71C174.934 430.016 178.413 445.669 178.413 445.669L175.804 458.713L202.763 468.279L252.506 440.538C255.09 426.867 259.962 414.313 261.963 409.159C262.52 407.723 262.854 406.861 262.854 406.709C262.854 405.95 260.538 407.049 258.402 408.061C256.379 409.021 254.517 409.904 254.941 409.057C255.81 407.318 260.158 402.1 267.985 398.622C290.943 384.882 303.118 365.054 308.945 352.792C309.727 351.053 310.423 349.488 311.032 348.096C311.119 347.835 311.38 347.575 311.554 347.401C311.988 347.053 312.51 346.966 313.119 347.227L327.99 356.097C327.99 356.097 369.732 376.098 390.603 375.229C411.126 374.359 422.432 359.228 422.779 358.706L422.754 358.714C421.818 359.031 403.146 365.349 382.776 353.488ZM247.114 379.577C247.114 379.577 259.289 377.838 260.158 377.838C256.68 385.664 247.983 385.664 247.983 385.664L247.114 379.577ZM248.853 389.143V396.1C248.853 396.1 258.419 396.1 261.028 388.273L248.853 389.143Z"
    fill="#7E0207"
  />
  <path
    d="M306.249 276.96C306.249 276.96 304.857 277.656 303.466 279.135C300.248 281.048 292.596 286.266 288.073 293.31C289.204 289.135 291.117 284.7 294.161 281.309C299.466 275.395 301.988 273.917 303.031 273.569C304.51 275.569 305.466 276.96 305.466 276.96C305.466 276.96 305.727 276.874 306.075 276.7L306.249 276.96Z"
    fill="#850608"
  />
  <path
    d="M95.9719 396.1C95.624 396.448 95.1892 396.883 94.8414 397.578C87.1886 406.449 86.7538 415.58 86.7538 417.058C86.6668 417.058 86.6668 417.058 86.5799 417.058C85.2754 415.406 84.1449 413.666 83.1014 411.84C81.9708 409.84 80.9273 407.84 80.1446 405.666C79.5359 404.535 82.9274 406.883 85.3624 408.014C86.5799 408.623 87.6234 408.883 87.9713 408.275C88.2322 407.666 87.9713 406.362 87.4495 405.057C87.1017 404.014 86.5799 402.97 86.232 402.187C85.3624 400.448 82.7535 393.491 82.7535 393.491C81.8839 395.23 86.232 403.057 85.3624 403.927C84.4928 404.796 81.0142 400.448 81.0142 400.448C79.6228 398.448 76.4922 390.099 86.1451 372.881C86.319 372.533 86.4929 372.272 86.6668 371.924C86.8408 371.576 87.1017 371.228 87.2756 370.968C87.4495 370.62 87.7104 370.272 87.8843 369.924L88.8409 369.141C88.8409 369.141 86.0581 382.968 95.9719 396.1Z"
    fill="#7E0207"
  />
  <path
    d="M149.715 365.663C148.846 367.402 149.715 374.359 149.715 374.359L146.237 378.707C140.149 359.575 123.626 358.706 123.626 358.706C124.061 358.967 124.496 359.315 124.931 359.575C137.279 368.359 139.106 380.447 139.28 385.23C139.28 385.49 139.28 385.664 139.28 385.664C139.28 385.664 138.323 385.317 136.584 384.882C136.584 384.882 136.584 384.882 136.497 384.882C136.41 384.795 136.236 384.795 136.149 384.795C135.54 384.621 134.931 384.534 134.236 384.36C133.366 374.968 131.192 358.967 107.538 356.532C107.538 356.532 110.147 354.792 114.495 353.923C118.843 353.053 124.931 353.923 124.931 353.923L136.236 343.487L137.106 336.53L142.323 345.227L142.497 345.487C139.714 361.75 150.498 364.098 149.715 365.663Z"
    fill="#7E0207"
  />
  <path
    d="M216.677 296.092C216.677 296.092 240.157 294.353 260.158 294.353C280.16 294.353 281.029 292.614 281.029 292.614C281.029 292.614 278.421 279.569 271.464 277.83C264.506 276.091 216.677 296.092 216.677 296.092Z"
    fill="#7E0207"
  />
  <path
    d="M214.938 299.571C214.938 299.571 211.459 298.701 207.98 301.31C204.502 303.919 200.154 306.528 200.154 306.528C200.154 306.528 206.676 297.397 210.155 297.397C213.633 297.397 214.503 299.136 214.938 299.571Z"
    fill="#7E0207"
  />
  <path
    d="M190.588 324.79L189.718 323.051C189.718 323.051 181.891 333.486 180.152 349.14L177.543 350.879L181.891 350.009C181.891 350.009 186.674 330.443 190.588 324.79Z"
    fill="#7E0207"
  />
  <path
    d="M188.848 376.968C188.848 376.968 184.5 390.013 190.588 406.535C196.675 423.058 196.675 426.537 197.545 433.494C198.414 440.451 198.414 440.451 198.414 440.451H197.545C197.545 440.451 194.588 423.145 192.762 419.145C190.588 414.362 186.674 401.753 185.805 399.144C184.935 396.535 183.196 384.36 185.805 377.403C187.109 374.359 188.848 376.968 188.848 376.968Z"
    fill="#560A0D"
  />
  <path
    d="M204.502 295.223C204.502 295.223 198.414 290.875 194.936 288.266C191.457 285.657 190.588 283.917 186.24 286.526C181.891 289.135 179.283 295.223 179.283 295.223C179.283 295.223 191.457 295.223 195.806 295.223C200.154 295.223 204.502 295.223 204.502 295.223Z"
    fill="#7E0207"
  />
  <path
    d="M319.032 305.223C316.858 307.137 306.423 313.224 300.596 319.138C295.639 324.094 297.118 329.573 306.684 342.618C308.858 344.792 310.423 346.357 311.554 347.488C311.293 347.661 311.119 347.922 311.032 348.183C310.423 349.575 309.727 351.14 308.945 352.879L307.988 354.358C307.988 354.358 302.596 343.226 279.203 348.792C279.464 348.792 295.813 314.355 300.161 312.615C304.075 311.05 314.684 305.571 318.424 304.789C318.858 304.702 319.206 304.702 319.293 304.789C319.38 304.876 319.032 305.223 319.032 305.223Z"
    fill="#690608"
  />
  <path
    d="M309.727 311.746C309.727 311.746 301.031 317.833 300.161 319.572C299.292 321.312 287.117 343.052 273.203 354.358C259.289 365.663 237.548 376.098 228.852 371.75C220.155 367.402 213.633 363.489 194.501 354.792C194.501 354.792 214.503 359.141 228.417 365.228C242.331 371.315 265.811 355.662 279.725 340.009C293.639 324.355 293.639 319.138 297.987 316.529C302.335 313.92 309.727 311.746 309.727 311.746Z"
    fill="#560A0D"
  />
  <path
    d="M350.6 290.875C350.6 290.875 340.164 290.005 332.338 294.353C324.511 298.701 320.163 304.789 320.163 304.789C320.163 304.789 331.033 298.266 339.73 295.658C348.426 293.049 353.209 295.223 353.209 295.223L350.6 290.875Z"
    fill="#850608"
  />
  <path
    d="M310.597 352.618C310.597 352.618 294.074 337.835 294.944 334.356C294.944 334.356 314.075 348.27 319.728 351.314C325.555 354.445 310.597 352.618 310.597 352.618Z"
    fill="#560A0D"
  />
  <path
    d="M359.296 298.701C359.296 298.701 348.861 315.224 355.818 335.226C355.818 335.226 354.948 310.006 366.253 301.31L359.296 298.701Z"
    fill="#560A0D"
  />
  <path
    d="M257.549 443.93C257.549 443.93 236.678 467.41 222.764 473.497C213.198 477.845 200.328 477.236 196.24 475.671C189.283 473.062 181.457 467.844 177.109 464.366L172.76 441.756C172.76 441.756 186.24 454.365 203.632 454.365C217.546 453.496 241.461 442.625 260.593 424.363L257.549 443.93Z"
    fill="#3C0100"
  />
  <path
    d="M253.288 435.146L251.462 444.799C251.462 444.799 250.766 446.799 247.114 451.756C241.548 459.235 226.677 467.758 225.808 468.714L223.46 453.061C235.809 447.408 249.984 438.016 253.288 435.146Z"
    fill="url(#paint3_linear)"
  />
  <path
    d="M253.636 433.059L253.288 435.146C250.071 438.016 236.678 447.408 223.46 453.061L223.199 451.582C223.199 451.408 223.286 451.321 223.373 451.234C225.373 450.365 243.114 442.799 253.636 433.059Z"
    fill="#827E7E"
  />
  <path
    d="M224.503 468.888C224.503 469.062 224.417 469.149 224.33 469.236C224.33 469.236 221.112 472.627 207.546 475.062C207.111 475.149 207.111 474.975 207.111 474.802L202.763 458.713C205.632 458.192 220.938 453.843 222.155 453.322L224.503 468.888Z"
    fill="#C76C2B"
  />
  <path
    d="M222.155 453.322C220.938 453.843 214.329 456.539 211.459 456.974L212.329 455.409C212.329 455.235 212.416 455.061 212.503 455.061L221.373 451.843C221.547 451.756 221.808 451.93 221.895 452.104L222.155 453.322Z"
    fill="#E0AE0E"
  />
  <path
    d="M186.24 468.801C186.24 468.975 186.066 469.062 185.979 468.975L179.283 463.235C179.196 463.148 179.109 463.061 179.109 462.888L177.804 450.452C179.37 451.93 181.805 454.104 185.022 455.931L186.24 468.801Z"
    fill="url(#paint4_linear)"
  />
  <path
    d="M195.545 461.409C193.284 460.279 189.718 458.539 186.588 456.8L186.327 454.278C186.327 454.104 186.501 454.017 186.588 454.104L193.892 458.105C193.979 458.192 194.066 458.279 194.153 458.452L195.545 461.409Z"
    fill="#E0AE0E"
  />
  <path
    d="M195.458 473.758C190.588 471.758 188.153 469.758 188.153 469.758C188.066 469.671 187.979 469.584 187.892 469.41L186.5 456.887C189.631 458.626 193.11 460.453 195.458 461.496L197.458 465.757L207.024 475.323C207.111 475.41 200.415 475.758 195.458 473.758Z"
    fill="#C76C2B"
  />
  <path d="M208.067 453.496L209.894 451.321H218.329L216.329 453.669L208.067 453.496Z" fill="#F8ED68" />
  <path
    d="M223.634 479.584L209.285 478.628L204.415 472.975L201.545 477.671H189.109L197.719 464.54L191.023 456.104L186.24 449.495H200.154L204.937 455.67L208.328 450.452H220.764L215.024 457.931L210.937 463.322L223.634 479.584Z"
    fill="#560A0D"
  />
  <path
    d="M220.59 478.106L217.72 478.019L204.067 459.409L202.067 461.322L192.327 454.539L188.849 450.887H199.197L205.372 458.887L220.59 478.106Z"
    fill="#F8ED68"
  />
  <path d="M198.154 452.365L219.112 478.106L210.502 477.671L189.979 452.278L198.154 452.365Z" fill="#FCC600" />
  <path d="M217.459 452.278L200.415 476.106L191.544 476.454L209.024 452.278H217.459Z" fill="#FCC600" />
  <path
    d="M184.935 455.844C181.718 453.93 179.283 451.843 177.717 450.365L177.543 448.626C177.543 448.452 177.717 448.365 177.804 448.452L184.5 453.322C184.587 453.409 184.674 453.496 184.674 453.67L184.935 455.844Z"
    fill="#827E7E"
  />
  <path
    d="M371.471 301.31C371.471 301.31 372.341 323.051 390.603 336.965C408.865 350.879 418.866 349.575 433.65 345.227C433.65 345.227 428.432 353.923 423.214 358.271C423.214 358.271 411.648 360.358 396.256 357.401C375.819 353.488 366.688 336.53 364.079 326.095C361.47 315.659 362.34 306.963 362.34 306.093C362.34 305.224 364.949 301.745 364.949 301.745L371.471 301.31Z"
    fill="#EA8F00"
  />
  <path
    d="M363.21 300.875C363.21 300.875 353.644 330.443 379.733 351.314C397.125 365.228 426.693 359.141 426.693 359.141"
    stroke="#560A0D"
    stroke-width="4"
  />
  <path
    d="M374.08 189.128C374.08 189.128 422.779 183.04 435.824 202.172C448.868 221.304 453.216 250.872 453.216 250.872L455.825 281.309C455.825 281.309 454.956 305.658 445.39 324.79C435.824 343.922 434.954 343.052 434.954 343.052L402.778 299.571L365.384 290.875L366.253 269.134L377.993 232.174L374.08 189.128Z"
    fill="#DB922C"
  />
  <path
    d="M442.52 329.747C440.955 332.965 438.259 338.617 433.563 345.748C432.258 346.357 429.562 348.183 424.953 348.705C405.821 351.314 393.647 341.748 381.472 327.834C369.297 313.92 371.036 301.745 371.036 301.745L369.384 296.701C364.949 295.831 361.209 293.57 358.861 289.57C353.557 280.7 355.47 272.873 357.992 267.829C358.601 266.612 359.209 265.655 359.818 264.786C360.775 263.394 361.557 262.525 361.818 262.264C361.818 262.264 361.818 262.264 361.905 262.177C354.687 245.654 363.297 232.088 365.471 229.044C365.731 228.609 365.905 228.435 365.905 228.435C365.905 228.435 365.036 226.435 363.905 223.13C361.122 214.782 357.122 198.346 364.427 188.258C364.688 187.823 365.036 187.388 365.384 187.041C365.558 186.867 365.731 186.693 365.905 186.519C365.905 186.519 365.905 186.432 365.992 186.432C366.079 186.258 366.253 186.171 366.34 186.084C366.427 185.997 366.514 185.91 366.601 185.823C366.688 185.736 366.862 185.562 366.949 185.475C367.384 185.127 367.819 184.78 368.253 184.432C368.688 184.084 369.21 183.736 369.732 183.475C370.167 183.214 370.601 182.953 371.036 182.779C371.297 182.692 371.558 182.519 371.732 182.432C371.993 182.345 372.167 182.171 372.428 182.084C372.689 181.91 373.036 181.823 373.384 181.649C373.819 181.475 374.341 181.301 374.863 181.127C374.863 181.127 373.558 202.694 380.515 212.26C397.038 213.999 403.995 216.608 408.343 219.217C410.257 220.347 411.126 222 411.561 223.565C412.083 225.478 411.822 227.044 411.822 227.044L379.646 222.696C379.646 222.696 379.646 222.696 380.341 224.87C380.341 225.044 380.428 225.13 380.515 225.304C383.124 235.74 378.776 260.09 378.776 260.09C378.776 260.09 381.385 263.568 389.212 265.307C397.038 267.047 398.777 267.047 405.735 267.047C408.691 267.047 410.257 267.655 411.039 268.438C412.083 269.395 411.822 270.525 411.822 270.525L371.819 273.134C371.819 273.134 371.732 273.308 371.645 273.569C371.297 274.352 370.514 276.091 369.21 279.222C367.471 283.57 370.08 287.048 379.646 290.527C402.256 296.614 423.127 284.439 425.736 284.439C430.954 283.57 434.432 288.787 434.432 288.787C430.954 296.614 415.3 301.832 415.3 301.832L416.17 306.18C428.345 307.05 439.65 295.745 439.65 295.745C444.868 305.919 443.216 324.268 442.52 329.747Z"
    fill="#C76C2B"
  />
  <path
    d="M353.644 259.133C353.644 259.133 341.643 276.787 352.6 293.57C355.557 298.179 360.688 301.136 366.166 301.223C370.167 301.31 373.645 300.788 373.645 300.788C373.645 300.788 403.213 324.268 424.953 296.44C424.953 296.44 421.91 300.354 406.256 303.832C390.603 307.311 384.516 296.875 384.516 296.875C366.253 298.614 361.905 296.005 357.557 285.57C353.209 275.134 361.035 262.09 361.035 262.09L353.644 259.133Z"
    fill="#560A0D"
  />
  <path
    d="M380.602 248.697C384.081 240.871 383.211 232.174 383.211 232.174C399.734 231.305 411.039 238.262 411.039 238.262L413.648 231.305C428.432 238.262 424.953 263.481 424.953 263.481C428.432 258.263 429.302 246.958 428.432 240.001C427.562 233.044 425.823 232.174 424.084 224.348C422.692 217.913 427.04 208.607 428.693 205.477C429.041 204.868 429.823 204.607 430.432 205.042C435.476 208.521 441.998 219.13 449.303 241.74C457.13 266.09 453.651 298.266 453.651 298.266C457.13 286.961 459.739 267.829 456.26 243.48C452.782 219.13 440.607 191.302 440.607 191.302L433.215 192.606C427.997 183.91 413.213 180.431 413.213 180.431C413.213 180.431 390.255 175.648 374.95 181.04C374.95 181.04 374.515 195.65 376.254 200.868L377.819 193.998C377.993 191.998 379.559 190.345 381.559 189.997C382.689 189.823 384.255 189.823 386.255 189.997C394.081 190.867 407.126 195.215 410.17 199.128C414.431 204.694 412.779 219.13 412.779 224.348C412.779 229.566 396.256 223.478 396.256 223.478L380.167 223.043C380.167 223.043 382.341 246.089 380.602 248.697Z"
    fill="#FCC600"
  />
  <path
    d="M464.522 141.298C460.521 150.951 443.737 186.954 441.302 191.998C440.955 191.911 440.694 191.911 440.346 191.911C440.172 191.911 440.085 191.911 439.911 191.911L431.91 168.691L416.257 142.602L416.344 141.82L416.692 139.559C416.692 139.559 466 137.733 464.522 141.298Z"
    fill="#DB922C"
  />
  <path
    d="M440.346 191.911C440.172 191.911 440.085 191.911 439.911 191.911C438.433 191.911 437.128 192.171 436.085 192.606H435.998H435.737C435.215 191.824 418.518 174.692 413.735 171.996C413.735 171.735 413.735 171.474 413.822 171.3C414.344 164.256 414.866 155.125 414.866 151.821C414.866 151.125 414.866 150.255 414.866 149.386C415.387 144.516 416.17 141.907 416.17 141.907L416.257 141.994C423.301 147.994 438.78 150.603 438.78 150.603C442.607 165.909 440.955 186.171 440.346 191.911Z"
    fill="#C76C2B"
  />
  <path
    d="M436.085 192.693C435.215 193.128 434.519 193.65 434.258 194.259L434.085 194.346C425.388 183.91 413.213 180.431 413.213 180.431C413.213 180.431 413.474 176.779 413.822 171.996C413.822 171.735 413.822 171.474 413.909 171.3C426.084 179.997 433.911 189.736 436.085 192.693C436.085 192.693 436.085 192.606 436.085 192.693Z"
    fill="#854524"
  />
  <path
    d="M464.522 140.428C464.522 138.689 457.565 129.993 438.433 129.993C424.519 129.993 417.562 136.08 416.692 139.559C415.822 143.037 432.345 146.516 441.911 147.385C451.477 148.255 464.522 145.646 464.522 140.428Z"
    fill="#FCC600"
  />
  <path
    d="M407.561 230.435C399.734 226.087 392.777 225.217 384.516 224.783C383.124 224.696 381.733 224.696 380.428 224.783C371.471 225.217 366.166 228.609 365.471 229.044C365.731 228.609 365.905 228.435 365.905 228.435C365.905 228.435 365.036 226.435 363.905 223.13C381.994 215.043 404.082 223.478 406.604 225.217C408.691 226.609 410.518 224.435 411.561 223.478C411.822 223.217 412.083 223.043 412.257 223.043C413.213 223.043 414.083 234.088 407.561 230.435Z"
    fill="#854524"
  />
  <path
    d="M410.605 275.221C411.039 274.786 409.3 271.308 406.691 272.178C404.082 273.047 392.777 275.656 382.341 274.786C378.689 274.439 375.037 274.091 371.732 273.482C365.471 272.351 360.253 270.699 357.992 267.829C358.601 266.612 359.209 265.655 359.818 264.786C360.775 263.394 361.557 262.525 361.818 262.264C361.818 262.264 361.818 262.264 361.905 262.177C361.905 262.177 367.123 270.873 388.864 270.873C404.517 270.873 407.996 268.264 410.605 268.264C410.778 268.264 410.952 268.264 411.126 268.351C413.3 268.873 413.822 272.786 410.605 275.221Z"
    fill="#854524"
  />
  <path
    d="M134.671 387.143C134.671 387.143 134.497 390.447 133.627 393.926C133.105 396.013 131.018 397.839 129.453 398.883C126.931 398.97 124.148 399.231 121.452 400.013C111.886 402.622 107.538 406.101 103.19 412.188C102.233 413.58 101.364 414.797 100.581 415.928C97.4503 412.188 95.1893 407.666 93.9718 404.709C94.5805 403.579 95.2762 402.361 95.972 401.318C96.0589 401.144 96.1459 400.97 96.2328 400.883C97.0155 399.752 97.8851 398.622 98.9287 397.578C102.668 393.839 108.495 390.534 117.974 387.838C124.757 385.925 130.67 386.099 134.584 386.708L134.671 387.143Z"
    fill="#FCC600"
  />
  <path
    d="M93.8848 404.709C95.1023 407.666 97.3633 412.188 100.494 415.928C98.146 419.406 96.6676 422.537 96.3198 427.581C91.6238 422.972 88.8409 419.58 88.8409 419.58C89.7975 413.927 91.6238 409.057 93.8848 404.709Z"
    fill="#E18601"
  />
  <path
    d="M139.714 387.838C139.714 387.838 139.714 391.317 139.714 395.665C139.714 396.97 139.453 398.361 139.106 399.578C136.932 399.231 133.366 398.796 129.366 398.883C130.931 397.839 133.018 396.013 133.54 393.926C134.41 390.447 134.584 387.143 134.584 387.143V386.621C137.801 387.143 139.714 387.838 139.714 387.838Z"
    fill="#E18601"
  />
  <path
    d="M174.934 456.104C168.847 463.062 159.281 457.844 153.194 456.974C150.672 456.626 148.585 456.365 146.237 455.931C143.019 455.322 139.28 454.278 133.192 451.756C117.887 446.799 104.32 435.407 96.3198 427.581C96.8416 420.884 99.3635 417.58 103.19 412.188C107.538 406.101 111.886 402.622 121.452 400.013C128.235 398.187 135.54 398.97 139.106 399.578C138.323 402.274 137.106 404.361 137.106 404.361C139.714 409.579 147.541 411.318 147.541 411.318C147.541 411.318 151.889 402.622 153.629 401.753C155.368 400.883 162.76 402.187 162.76 402.187C163.107 403.84 163.542 405.579 163.977 407.405C164.238 408.536 164.499 409.753 164.76 410.971C169.108 430.363 174.934 456.104 174.934 456.104Z"
    fill="#C76C2B"
  />
  <path
    d="M153.194 456.974C150.672 456.626 148.585 456.365 146.237 455.931C145.106 454.278 142.932 450.278 142.758 450.017C145.367 453.496 153.194 456.974 153.194 456.974Z"
    fill="#854524"
  />
  <path
    d="M164.76 410.971C163.89 411.058 162.238 411.145 160.151 410.884C157.455 410.536 156.672 407.405 156.672 407.405H163.977C164.238 408.536 164.499 409.753 164.76 410.971Z"
    fill="#854524"
  />
  <path
    d="M142.323 439.147C142.323 439.147 141.454 438.277 140.584 436.538C138.845 432.19 136.236 432.19 129.279 431.32C122.322 430.45 112.756 425.233 104.929 420.015C103.277 418.971 101.885 417.493 100.581 415.927C101.364 414.71 102.233 413.493 103.19 412.188C107.538 406.101 111.886 402.622 121.452 400.013C124.148 399.318 127.539 399.144 127.539 399.144C130.148 403.492 144.932 415.667 144.932 415.667C140.584 421.754 142.323 439.147 142.323 439.147Z"
    fill="#DB922C"
  />
  <path
    d="M106.668 405.231C106.668 405.231 98.3199 406.622 95.9719 401.318C96.0589 401.144 96.1459 400.97 96.2328 400.883C97.0155 399.752 97.8851 398.622 98.9287 397.578C100.32 400.013 103.103 404.014 106.668 405.231Z"
    fill="#E18601"
  />
  <path
    fill-rule="evenodd"
    clip-rule="evenodd"
    d="M208.676 352.966C205.719 352.184 202.763 351.662 199.806 351.053C196.588 345.487 193.371 339.748 190.153 333.487C188.762 331.66 187.37 329.747 185.979 327.747C185.805 327.486 185.631 327.138 185.37 326.877C182.587 320.703 179.891 314.007 177.196 306.441C180.152 307.485 183.196 308.441 186.153 309.224C187.457 313.572 188.849 317.746 190.24 321.746C190.414 322.007 190.588 322.355 190.849 322.616C191.023 322.355 191.284 322.181 191.544 321.92C196.414 316.529 201.197 311.746 205.98 306.876C208.937 306.702 211.894 306.441 214.764 306.006C208.502 313.311 202.154 320.007 195.632 327.573C195.458 327.834 195.197 328.008 194.936 328.356C199.458 337.139 204.067 344.966 208.676 352.966ZM183.457 330.53C184.848 332.53 186.24 334.443 187.631 336.269C183.196 341.487 178.761 347.488 174.413 354.792C171.456 355.662 168.499 356.706 165.542 357.836C171.543 346.183 177.456 337.661 183.457 330.53Z"
    fill="#FCC600"
  />
  <path
    d="M208.676 352.966L208.548 353.45L209.709 353.757L209.109 352.717L208.676 352.966ZM199.806 351.053L199.373 351.303L199.485 351.498L199.705 351.543L199.806 351.053ZM185.37 326.877L184.914 327.083L184.952 327.166L185.017 327.231L185.37 326.877ZM177.196 306.441L177.362 305.969L176.372 305.62L176.725 306.609L177.196 306.441ZM186.153 309.224L186.632 309.08L186.551 308.812L186.281 308.74L186.153 309.224ZM190.24 321.746L189.768 321.911L189.789 321.971L189.824 322.024L190.24 321.746ZM190.849 322.616L190.495 322.97L190.926 323.401L191.265 322.893L190.849 322.616ZM191.544 321.92L191.898 322.274L191.907 322.265L191.916 322.256L191.544 321.92ZM205.98 306.876L205.951 306.377L205.759 306.388L205.624 306.525L205.98 306.876ZM214.764 306.006L215.143 306.332L216.019 305.31L214.689 305.512L214.764 306.006ZM195.632 327.573L195.253 327.247L195.233 327.27L195.216 327.296L195.632 327.573ZM194.936 328.356L194.536 328.056L194.348 328.306L194.491 328.585L194.936 328.356ZM183.457 330.53L183.867 330.244L183.495 329.708L183.074 330.208L183.457 330.53ZM187.631 336.269L188.012 336.593L188.273 336.286L188.029 335.966L187.631 336.269ZM174.413 354.792L174.554 355.272L174.742 355.217L174.842 355.048L174.413 354.792ZM165.542 357.836L165.098 357.607L164.499 358.77L165.721 358.303L165.542 357.836ZM208.804 352.483C205.829 351.695 202.845 351.168 199.907 350.563L199.705 351.543C202.68 352.155 205.609 352.672 208.548 353.45L208.804 352.483ZM200.239 350.803C197.023 345.241 193.81 339.509 190.598 333.258L189.708 333.715C192.931 339.986 196.153 345.734 199.373 351.303L200.239 350.803ZM190.551 333.183C189.164 331.363 187.777 329.456 186.389 327.461L185.568 328.032C186.964 330.038 188.359 331.957 189.755 333.79L190.551 333.183ZM186.395 327.47C186.358 327.414 186.319 327.351 186.274 327.277C186.23 327.206 186.18 327.124 186.128 327.042C186.022 326.878 185.891 326.691 185.724 326.524L185.017 327.231C185.11 327.324 185.196 327.442 185.286 327.583C185.332 327.653 185.374 327.723 185.42 327.798C185.465 327.871 185.513 327.95 185.563 328.024L186.395 327.47ZM185.826 326.672C183.049 320.511 180.358 313.827 177.667 306.273L176.725 306.609C179.425 314.186 182.125 320.895 184.914 327.083L185.826 326.672ZM177.029 306.912C179.997 307.96 183.053 308.921 186.025 309.707L186.281 308.74C183.339 307.962 180.308 307.009 177.362 305.969L177.029 306.912ZM185.674 309.367C186.981 313.725 188.375 317.906 189.768 321.911L190.712 321.582C189.322 317.586 187.933 313.419 186.632 309.08L185.674 309.367ZM189.824 322.024C189.861 322.08 189.9 322.143 189.945 322.216C189.989 322.288 190.038 322.37 190.091 322.452C190.196 322.615 190.328 322.802 190.495 322.97L191.202 322.263C191.109 322.169 191.023 322.052 190.932 321.911C190.887 321.841 190.845 321.77 190.798 321.695C190.754 321.622 190.706 321.544 190.656 321.469L189.824 322.024ZM191.265 322.893C191.317 322.815 191.389 322.739 191.5 322.638C191.599 322.549 191.757 322.415 191.898 322.274L191.191 321.567C191.071 321.687 190.968 321.771 190.828 321.898C190.7 322.015 190.554 322.156 190.433 322.339L191.265 322.893ZM191.916 322.256C196.777 316.874 201.55 312.1 206.337 307.226L205.624 306.525C200.845 311.391 196.052 316.184 191.173 321.585L191.916 322.256ZM206.01 307.375C208.975 307.2 211.948 306.938 214.839 306.501L214.689 305.512C211.839 305.944 208.899 306.203 205.951 306.377L206.01 307.375ZM214.384 305.681C211.258 309.328 208.11 312.824 204.924 316.357C201.74 319.889 198.518 323.459 195.253 327.247L196.01 327.899C199.267 324.122 202.481 320.56 205.667 317.027C208.851 313.494 212.008 309.989 215.143 306.332L214.384 305.681ZM195.216 327.296C195.161 327.378 195.089 327.452 194.963 327.578C194.844 327.697 194.69 327.85 194.536 328.056L195.336 328.656C195.443 328.513 195.55 328.405 195.67 328.285C195.783 328.172 195.929 328.029 196.048 327.85L195.216 327.296ZM194.491 328.585C199.02 337.381 203.637 345.221 208.243 353.216L209.109 352.717C204.497 344.711 199.896 336.897 195.381 328.127L194.491 328.585ZM183.046 330.815C184.442 332.821 185.837 334.74 187.233 336.572L188.029 335.966C186.642 334.146 185.255 332.239 183.867 330.244L183.046 330.815ZM187.25 335.946C182.798 341.183 178.347 347.206 173.983 354.537L174.842 355.048C179.175 347.769 183.594 341.791 188.012 336.593L187.25 335.946ZM174.272 354.313C171.298 355.187 168.328 356.236 165.364 357.369L165.721 358.303C168.67 357.176 171.614 356.137 174.554 355.272L174.272 354.313ZM165.987 358.065C171.971 346.445 177.863 337.954 183.839 330.852L183.074 330.208C177.05 337.368 171.115 345.921 165.098 357.607L165.987 358.065Z"
    fill="#FCC600"
  />
  <path
    d="M160.151 522.196L145.454 532.197C143.715 533.589 141.888 537.415 141.888 539.589L141.019 550.894C140.932 551.59 141.106 552.981 141.367 553.59L142.758 556.112L138.41 591.767L150.585 599.594L160.151 522.196Z"
    fill="#080625"
  />
  <path
    d="M139.28 586.897C139.28 586.897 113.191 596.115 109.712 610.029C106.234 623.943 107.103 623.074 107.103 623.074C107.103 623.074 103.625 627.335 103.625 631.77C103.625 637.857 105.277 644.293 132.322 648.293C173.195 654.38 189.718 636.814 196.675 636.118C205.371 635.248 215.894 631.683 219.286 626.552C222.764 621.334 219.286 615.247 218.416 613.508C217.546 611.768 214.937 608.29 217.025 599.42C218.242 594.028 213.198 576.983 213.198 576.983L197.719 530.806L139.28 586.897Z"
    fill="#080625"
  />
  <path d="M144.932 586.984L140.323 591.506H146.063L150.585 586.984H144.932Z" fill="#333333" />
  <path
    d="M151.715 585.853C151.715 585.853 147.193 586.984 146.063 590.376C145.28 592.811 149.454 601.768 149.454 601.768L179.022 602.898C179.022 602.898 186.935 601.768 188.066 594.985C189.196 588.201 165.369 582.462 165.369 582.462L151.715 585.853Z"
    fill="url(#paint5_linear)"
  />
  <path
    d="M111.364 625.074L112.669 623.074C112.147 623.422 110.669 625.335 109.538 626.9C108.495 628.292 107.973 629.944 107.973 631.596V633.248C107.973 635.683 109.886 638.118 112.147 638.814C121.104 641.336 142.236 646.728 154.498 645.51C177.196 643.249 190.675 630.726 195.371 630.726C196.067 630.726 198.154 631.248 199.893 630.64L211.72 626.465C215.198 625.248 216.242 621.769 215.633 618.204C215.285 616.551 213.024 615.421 211.894 615.421L147.715 621.682L111.364 625.074Z"
    fill="black"
  />
  <path
    d="M111.973 624.465C111.973 624.465 109.712 630.118 109.712 632.379C109.712 634.64 113.104 638.031 134.671 641.423C154.933 644.641 165.977 642.206 178.413 635.162C191.457 627.77 193.719 627.77 197.197 627.77C200.676 627.77 209.111 624.9 212.503 622.639C215.894 620.378 212.503 616.986 212.503 616.986C212.503 616.986 210.763 619.856 193.719 624.378C176.674 628.9 151.107 630.639 151.107 630.639C151.107 630.639 149.976 623.856 142.062 622.726C134.149 621.595 121.626 618.204 118.235 619.334C114.843 620.465 111.973 624.465 111.973 624.465Z"
    fill="url(#paint6_linear)"
  />
  <path
    d="M209.633 600.637C209.633 600.637 216.242 616.117 210.763 618.813C201.719 623.335 193.719 624.465 184.674 626.726C176.761 628.726 174.413 599.507 174.413 599.507L209.633 600.637Z"
    fill="url(#paint7_linear)"
  />
  <path
    d="M184.674 626.726C184.674 626.726 185.805 606.29 177.891 598.289C170.76 591.158 153.716 589.506 143.715 590.028C141.628 590.115 139.628 590.897 137.714 591.593C132.497 593.68 121.104 599.333 117.713 603.942C113.104 610.116 111.538 614.29 110.93 625.248C110.843 626.204 111.365 627.074 112.234 627.509C115.8 629.422 126.67 634.118 146.672 634.118C171.543 634.118 184.674 626.726 184.674 626.726Z"
    fill="url(#paint8_linear)"
  />
  <path
    d="M176.674 601.768C176.674 601.768 163.021 594.028 149.454 592.724C138.062 591.593 125.626 599.507 119.887 605.246C114.756 610.377 114.234 618.899 113.104 625.683C111.973 632.466 147.193 637.075 165.369 632.466C183.544 627.944 182.413 615.421 182.413 615.421L176.674 601.768Z"
    fill="url(#paint9_linear)"
  />
  <path
    d="M147.193 635.857C147.193 635.857 149.454 627.944 141.541 624.465C133.627 621.074 122.235 621.074 119.974 622.204C117.713 623.335 115.452 630.118 115.452 630.118L114.321 634.64L134.757 639.162H146.15L147.193 635.857Z"
    fill="url(#paint10_linear)"
  />
  <path
    d="M175.891 603.42C177.195 602.724 177.109 600.898 175.804 600.376C170.499 598.028 159.368 593.767 149.454 592.724C138.062 591.593 125.626 599.507 119.887 605.246C117.104 608.029 146.324 610.029 157.02 610.725C159.455 610.899 161.977 610.377 164.151 609.247L175.891 603.42Z"
    fill="url(#paint11_linear)"
  />
  <path
    d="M150.498 548.981C149.106 550.025 147.106 552.807 146.932 554.547L142.671 589.245C142.671 589.245 148.932 585.245 161.455 586.375C173.978 587.506 181.892 593.158 186.414 602.289C190.936 611.334 201.197 611.334 206.85 609.073C208.763 608.29 210.155 606.812 211.111 605.159C213.198 601.768 213.546 597.506 212.503 593.68L200.589 551.764C200.241 550.633 199.545 549.59 198.588 548.894L195.545 546.633L150.498 548.981Z"
    fill="black"
  />
  <path
    d="M198.241 551.764C198.241 551.764 213.372 599.159 209.372 602.898C209.111 603.159 208.85 603.42 208.502 603.594C195.98 613.073 183.457 600.898 184.848 588.027L189.109 551.764H198.241V551.764Z"
    fill="url(#paint12_linear)"
  />
  <path
    d="M190.066 550.633C190.066 550.633 192.414 591.506 183.022 592.637C183.631 593.245 176.674 584.723 161.368 584.114L163.716 552.286L190.066 550.633Z"
    fill="url(#paint13_linear)"
  />
  <path
    d="M150.585 550.633L146.063 584.723L161.368 584.201L164.238 552.894L150.585 550.633Z"
    fill="url(#paint14_linear)"
  />
  <path
    d="M194.501 537.415C194.414 537.154 194.24 536.893 193.979 536.806C191.284 535.415 168.586 526.805 164.412 526.805C159.89 526.805 147.367 537.067 146.845 538.719C146.498 539.676 146.324 548.894 146.324 551.242C146.324 551.59 146.411 551.938 146.671 552.112C148.672 553.938 157.89 562.026 159.89 562.026C162.151 562.026 192.414 554.286 198.588 552.286C199.371 552.025 199.806 551.155 199.458 550.372L194.501 537.415Z"
    fill="url(#paint15_linear)"
  />
  <path
    d="M163.281 529.067C163.281 529.067 150.759 535.85 149.628 539.328C148.498 542.72 148.498 546.111 148.498 549.59C148.498 552.112 158.759 559.851 159.89 559.851C161.02 559.851 174.674 556.46 179.196 549.59C181.457 546.198 182.587 538.198 181.457 535.937C180.674 534.458 163.281 529.067 163.281 529.067Z"
    fill="url(#paint16_linear)"
  />
  <path
    opacity="0.7"
    d="M159.281 559.504C156.846 558.286 148.498 551.764 148.498 549.503C148.498 546.111 148.498 542.72 149.628 539.241C150.759 535.85 163.281 528.98 163.281 528.98C163.281 528.98 162.412 528.719 163.281 528.98C161.281 532.719 158.151 543.155 159.281 559.504Z"
    fill="url(#paint17_linear)"
  />
  <path
    d="M266.594 612.203C266.594 612.203 264.333 615.682 266.594 620.291C268.855 624.9 274.681 627.161 275.812 634.118C276.942 640.988 276.942 643.336 283.899 645.597C290.769 647.858 306.945 650.206 317.293 649.076C327.642 647.945 350.687 644.467 358.775 636.379C358.775 634.118 358.775 628.291 355.296 624.9C351.818 621.508 276.942 615.682 276.942 615.682L266.594 612.203Z"
    fill="black"
  />
  <path
    d="M328.772 590.376C328.772 590.376 313.815 581.157 299.987 585.766C286.16 590.376 274.681 604.203 274.681 604.203L265.463 601.072C265.463 601.072 264.593 614.899 270.072 620.378C274.681 624.987 278.16 628.465 278.16 628.465L338.077 604.29L328.772 590.376Z"
    fill="url(#paint18_linear)"
  />
  <path
    d="M279.29 627.161V637.597C279.29 639.597 280.682 641.423 282.595 641.858C289.987 643.684 307.901 647.684 319.554 646.728C331.12 645.858 346.252 639.423 352.426 636.553C354.166 635.77 355.296 634.031 355.296 632.118V627.161C355.296 627.161 286.769 634.727 279.29 627.161Z"
    fill="#181818"
  />
  <path
    d="M355.296 627.161C355.296 627.161 353.035 598.376 337.99 592.637C327.12 588.462 307.466 590.897 300.509 592.028C293.639 593.158 280.943 596.637 278.595 606.986C276.333 617.16 278.595 628.9 278.595 628.9C278.595 628.9 300.509 642.727 328.163 638.118C352.426 633.509 355.296 627.161 355.296 627.161Z"
    fill="url(#paint19_linear)"
  />
  <path
    d="M351.817 626.465C351.817 626.465 349.73 599.941 335.903 594.637C325.902 590.81 307.727 593.071 301.379 594.115C295.031 595.158 283.29 598.376 281.203 607.942C279.116 617.334 280.16 626.813 280.16 626.813C280.16 626.813 301.379 640.901 326.859 636.64C349.209 632.292 351.817 626.465 351.817 626.465Z"
    fill="url(#paint20_linear)"
  />
  <path
    d="M342.425 603.855C343.817 603.681 344.426 602.029 343.643 600.898C341.643 598.115 339.121 595.767 335.99 594.637C325.989 590.81 307.814 593.071 301.466 594.115C297.292 594.811 290.856 596.376 286.334 600.115C285.204 600.985 285.204 602.811 286.421 603.681C288.769 605.507 294.596 607.768 308.771 607.072C325.555 606.203 337.295 604.637 342.425 603.855Z"
    fill="url(#paint21_linear)"
  />
  <path
    d="M346.078 632.987L344.599 629.509C343.382 626.726 340.599 624.987 337.642 625.161C329.207 625.683 312.945 626.987 310.423 629.509C306.944 632.987 306.944 637.596 306.944 637.596L308.075 642.206L329.99 641.075L347.295 637.596L346.078 632.987Z"
    fill="url(#paint22_linear)"
  />
  <path
    d="M291.378 528.719L293.726 529.501C295.552 530.11 297.031 531.328 298.074 532.98L328.685 584.723C329.555 586.114 329.99 587.68 329.99 589.332V590.289H327.729C327.729 590.289 315.641 583.94 302.944 586.288C290.247 588.636 282.769 594.898 275.899 604.116C276.507 604.724 258.506 603.942 255.201 585.679C252.332 570.113 246.505 556.112 244.244 547.242C243.548 544.285 244.331 541.154 246.505 538.98"
    fill="black"
  />
  <path
    d="M325.902 586.288C325.468 586.027 316.771 581.505 302.248 584.288C300.944 584.549 299.639 584.81 298.248 585.158C280.942 589.767 275.203 601.246 275.203 601.246C275.203 601.246 271.724 602.376 264.854 597.767C257.984 593.158 257.115 580.114 252.158 564.374C246.94 547.677 246.94 539.589 246.94 539.589C246.94 539.589 287.117 538.545 290.074 534.11C290.16 533.936 290.247 533.849 290.247 533.676C290.247 533.502 290.247 533.328 290.16 533.154C289.204 531.328 289.987 530.893 291.204 531.154C293.03 531.501 295.9 533.154 295.9 533.154L325.902 586.288Z"
    fill="url(#paint23_linear)"
  />
  <path
    d="M258.506 548.633C258.506 548.633 266.594 578.983 271.203 582.288C275.812 585.593 281.551 587.68 289.639 586.636C297.726 585.593 302.335 583.505 302.335 583.505C302.335 583.505 289.639 551.938 285.03 546.459C280.421 540.98 258.506 548.633 258.506 548.633Z"
    fill="url(#paint24_linear)"
  />
  <path
    d="M325.902 586.288C325.468 586.027 316.771 581.505 302.248 584.288L285.03 546.546L290.16 534.197L290.334 533.762L291.378 531.328C291.552 531.328 291.726 531.414 291.813 531.414C294.248 532.11 296.335 533.849 297.552 536.024L325.902 586.288Z"
    fill="url(#paint25_linear)"
  />
  <path
    d="M246.679 536.806C246.331 535.937 246.244 534.98 246.418 534.11C246.418 533.936 246.505 533.849 246.505 533.763C248.418 531.241 261.55 519.066 265.463 517.326C269.724 515.413 285.986 519.935 287.291 521.327C287.987 522.109 292.248 530.98 293.291 533.241C293.465 533.589 293.465 533.936 293.291 534.284C292.161 536.893 287.204 549.329 285.117 549.503C271.116 550.807 258.419 549.155 253.114 548.198C251.462 547.937 250.071 546.72 249.549 545.068L246.679 536.806Z"
    fill="url(#paint26_linear)"
  />
  <path
    d="M266.941 519.327C266.941 519.327 282.247 520.37 284.856 523.153C287.465 525.936 288.943 529.24 290.421 532.545C291.552 534.98 284.856 546.981 283.725 547.503C282.595 548.024 267.637 550.807 260.158 546.198C256.419 543.937 251.81 536.719 251.984 534.023C252.071 532.284 266.941 519.327 266.941 519.327Z"
    fill="url(#paint27_linear)"
  />
  <path
    opacity="0.7"
    d="M284.682 546.807C286.421 544.546 291.465 534.719 290.421 532.545C288.943 529.24 287.465 525.936 284.856 523.153C282.247 520.37 267.55 519.066 267.55 519.066C267.55 519.066 268.246 518.457 267.55 519.066C271.029 521.675 278.508 530.458 284.682 546.807Z"
    fill="url(#paint28_linear)"
  />
  <circle cx="226.5" cy="182.5" r="105" fill="white" fill-opacity="0.097547" stroke="#D2D2D2" stroke-width="3" />
  <path
    d="M260.552 120.701C260.552 120.701 262.394 109.652 275.284 103.207C275.284 103.207 269.299 101.826 263.775 103.668C263.775 103.668 265.616 100.905 268.379 100.905C271.141 100.905 245.361 100.905 233.391 113.795C233.391 114.716 257.33 130.368 257.33 130.368L260.552 120.701Z"
    fill="url(#paint29_linear)"
  />
  <path
    d="M257.79 117.939C257.79 117.939 258.711 112.414 260.553 110.573C260.553 110.573 257.33 111.033 256.409 111.954C255.489 112.875 255.489 110.113 257.33 109.192C259.171 108.271 249.044 110.113 249.044 111.954C249.044 113.795 257.79 117.939 257.79 117.939Z"
    fill="#BF4D15"
  />
  <path
    d="M281.729 130.829C281.729 130.829 278.046 114.256 266.997 107.811C266.997 107.811 266.077 122.542 264.235 125.304C264.235 125.304 255.489 110.113 226.026 98.1432C226.026 98.1432 240.757 112.875 240.757 116.558C240.757 116.558 214.056 102.747 190.118 102.747C166.179 102.747 155.13 110.113 155.13 110.113C155.13 110.113 194.721 116.558 203.008 126.685C203.008 126.685 186.435 127.606 182.752 132.21C182.752 132.21 201.166 134.051 205.77 138.655C205.77 138.655 197.483 152.465 197.483 159.831C197.483 159.831 208.992 144.639 228.327 140.957C241.954 138.379 262.854 141.417 262.854 141.417L281.729 130.829Z"
    fill="#1B2527"
  />
  <path
    d="M276.205 133.591L275.836 133.775L264.235 140.772L262.394 141.877C240.297 133.591 209.913 142.798 209.913 142.798L216.358 138.194L206.23 131.749L215.437 130.829C208.072 120.701 185.974 111.494 185.974 111.494C189.381 111.125 192.696 111.033 195.826 111.033C200.154 111.033 204.297 111.309 208.164 111.77C211.018 112.138 213.688 112.598 216.358 113.151C216.818 113.243 217.371 113.335 217.831 113.427C220.225 113.98 222.527 114.532 224.645 115.176C225.013 115.269 225.381 115.361 225.657 115.453C226.302 115.637 226.946 115.821 227.499 116.005C227.959 116.189 228.327 116.281 228.604 116.373C230.813 117.11 232.839 117.939 234.772 118.675C236.522 119.412 238.087 120.148 239.56 120.793C246.558 124.107 250.425 127.054 250.425 127.054C250.701 126.317 250.609 125.304 250.517 124.107C250.425 123.095 250.24 122.082 249.964 121.069C249.412 118.399 248.583 116.005 248.583 116.005C255.673 118.123 262.302 125.765 264.88 129.171C265.616 130.184 266.077 130.737 266.077 130.737C266.445 130.737 266.813 130.368 267.182 129.908C269.115 127.514 271.601 120.609 271.601 120.609C272.798 122.358 273.627 124.292 274.363 126.133C274.363 126.225 274.455 126.225 274.455 126.317C275.744 130.276 276.205 133.591 276.205 133.591Z"
    fill="#324E4F"
  />
  <path
    d="M228.327 131.749C217.279 118.859 196.102 111.494 196.102 111.494C196.102 111.494 196.01 111.309 195.826 111.033C200.154 111.033 204.297 111.309 208.164 111.77C208.256 111.862 208.348 111.862 208.532 111.954C223.264 119.32 228.327 131.749 228.327 131.749Z"
    fill="#283B3F"
  />
  <path
    d="M236.614 135.432C231.182 125.304 219.673 115.729 216.358 113.151C216.819 113.243 217.371 113.335 217.831 113.427C220.225 113.98 222.527 114.532 224.645 115.176C225.013 115.269 225.381 115.361 225.657 115.453C226.302 115.637 226.946 115.821 227.499 116.005C227.959 116.189 228.327 116.281 228.604 116.373C235.693 125.581 236.614 135.432 236.614 135.432Z"
    fill="#283B3F"
  />
  <path
    d="M241.217 130.829C241.217 128.067 234.772 118.859 234.772 118.859C234.772 118.859 234.772 118.859 234.772 118.767C236.522 119.504 238.087 120.24 239.56 120.885C241.954 126.317 241.217 133.223 241.217 130.829Z"
    fill="#283B3F"
  />
  <path
    d="M276.205 133.591L262.394 141.877C260.552 136.445 257.514 131.473 253.555 127.33L250.517 124.199L249.964 121.161C252.082 123.187 258.711 127.146 263.315 136.353L264.88 129.263C265.616 130.276 266.077 130.829 266.077 130.829C266.445 130.829 266.813 130.46 267.182 130L267.918 137.274L273.442 124.384L274.363 126.409L276.205 133.591Z"
    fill="#283B3F"
  />
  <path
    d="M220.041 142.798C220.041 142.798 197.023 152.926 187.816 159.371C178.609 165.816 180.45 187.913 177.688 187.913C174.926 187.913 169.401 191.596 169.401 191.596L175.847 197.12L195.182 195.279L214.517 187.913L220.962 165.816L220.041 142.798Z"
    fill="#F27F46"
  />
  <path
    d="M262.394 141.877C262.394 141.877 222.803 134.512 209.913 149.243C200.43 160.107 199.785 169.499 198.864 186.072L209.913 187.913V189.754C209.913 189.754 193.34 189.754 178.609 197.12L208.072 222.9L294.619 197.12L262.394 141.877Z"
    fill="#D06530"
  />
  <path
    d="M192.419 199.882C192.419 199.882 219.12 193.437 229.248 194.358C229.248 194.358 233.852 188.834 238.455 191.596C240.297 194.358 239.376 195.279 239.376 195.279V202.645C239.376 202.645 215.437 222.9 209.913 222.9C204.389 222.9 195.642 205.867 192.419 199.882Z"
    fill="#BF4D15"
  />
  <path
    d="M283.11 251.719C283.11 251.719 286.24 266.634 283.662 274.092C283.57 274.276 283.386 274.276 283.386 274.092C282.558 272.711 279.059 267.279 276.665 265.621V278.143C276.665 278.327 276.481 278.419 276.389 278.235C275.008 276.762 268.655 270.409 263.775 271.146C258.251 272.066 266.445 253.928 266.445 253.928L283.11 251.719Z"
    fill="#983809"
  />
  <path
    d="M267.918 251.442C267.918 251.442 250.332 248.772 240.02 263.32C239.836 263.596 240.113 263.964 240.389 263.872C243.059 262.675 249.872 259.821 251.714 260.373C251.99 260.465 251.99 260.742 251.806 260.926C250.056 262.399 241.033 269.581 240.205 274.921C240.205 275.197 241.309 275.381 241.494 275.289C243.335 274.921 250.332 273.632 251.161 274.46C251.161 274.46 259.448 278.143 264.051 268.936C266.537 265.714 266.445 258.44 266.353 256.875C266.353 256.691 266.537 256.506 266.721 256.506C267.918 256.506 272.338 256.506 275.836 258.808C276.205 258.992 276.573 258.808 276.665 258.44C276.849 257.059 277.125 254.389 276.573 253.008C276.573 252.916 276.389 252.824 276.297 252.824L267.918 251.442Z"
    fill="#B95626"
  />
  <path
    d="M249.964 254.665C312.112 258.808 342.956 211.391 342.496 210.931C317.637 204.486 298.302 184.23 298.302 184.23L293.238 184.691L249.964 254.665Z"
    fill="#AF430F"
  />
  <path
    d="M285.412 182.389C285.412 182.389 275.284 185.151 266.997 174.102C267.918 177.785 280.348 189.294 277.586 196.66C277.586 196.66 269.299 185.611 257.33 187.453L272.982 227.964L304.286 216.916L311.652 205.867L302.445 197.581L285.412 182.389Z"
    fill="#BF4D15"
  />
  <path
    d="M298.302 186.072C298.302 186.072 321.78 173.642 318.558 136.353C316.9 117.018 309.074 106.89 303.366 94.4604C303.366 94.4604 302.445 111.954 299.683 115.637C296.921 119.32 281.269 134.972 262.854 142.338C261.381 144.087 261.473 147.402 262.394 151.084C264.419 159.279 262.026 169.959 271.141 175.483C275.192 177.969 279.703 177.969 282.65 180.455C287.253 184.23 298.302 186.072 298.302 186.072Z"
    fill="#C38C70"
  />
  <path
    d="M301.064 196.199C301.064 196.199 301.064 189.754 297.381 186.992C293.698 184.23 289.095 184.23 282.65 180.547C282.65 180.547 289.095 189.754 301.064 196.199Z"
    fill="#533423"
  />
  <path
    d="M286.793 181.008C286.793 181.008 283.754 181.836 276.849 178.798C276.849 178.798 276.849 178.798 276.757 178.798C276.481 178.706 276.205 178.614 275.928 178.43C274.547 177.785 273.166 177.049 271.509 176.128C270.864 175.76 270.312 175.391 269.667 175.023C260.921 169.591 258.435 158.634 257.882 154.583C257.882 154.215 258.343 154.123 258.435 154.399C258.895 155.136 259.355 156.148 259.908 156.977C260.829 158.542 261.841 159.831 262.21 159.371C263.13 157.529 260.368 147.402 264.051 142.798C270.956 135.893 296.737 126.685 299.499 123.003C302.261 119.32 307.969 119.32 309.627 138.655C313.033 175.944 286.793 181.008 286.793 181.008Z"
    fill="url(#paint30_linear)"
  />
  <path
    d="M301.524 179.166C303.458 178.522 325.003 153.847 307.509 116.097C307.509 116.097 299.223 143.719 290.476 160.752C290.476 160.752 294.619 163.054 303.366 149.703C303.366 149.703 301.524 159.831 297.841 164.435C297.841 164.435 300.604 164.435 301.524 163.514C302.445 162.593 297.841 170.88 292.317 172.721C292.317 172.721 295.079 173.642 298.762 172.721C298.762 172.721 290.936 179.627 282.65 180.547C282.65 180.547 289.095 183.309 301.524 179.166Z"
    fill="#D7E7E7"
  />
  <path
    d="M280.348 171.801C283.11 172.721 291.396 169.038 291.396 169.038C288.634 173.642 284.031 174.563 284.031 174.563C284.031 175.483 286.793 176.404 286.793 176.404C282.097 178.522 278.691 178.89 276.205 178.43C276.113 178.43 276.021 178.43 276.021 178.338C274.639 177.693 269.76 174.931 269.76 174.931C286.333 168.486 300.143 137.182 300.143 137.182C300.143 137.182 300.696 135.34 300.88 135.156C300.88 135.34 300.327 137.458 298.302 144.547C293.974 160.015 280.348 171.801 280.348 171.801Z"
    fill="#AF430F"
  />
  <path
    d="M303.642 94.9207C306.588 100.445 308.43 111.494 307.509 117.478C304.286 138.194 297.565 147.678 296.46 150.164C296.921 148.875 296.921 140.957 296 140.036C294.159 138.194 290.936 141.417 291.857 139.575C292.777 137.734 294.619 132.21 294.619 132.21C293.238 131.749 270.68 141.877 264.327 147.77C263.315 148.783 263.315 153.478 263.315 153.478C263.315 153.754 262.854 154.031 262.67 153.754C261.657 151.545 261.934 143.995 261.934 143.995C261.934 143.811 261.841 143.719 261.657 143.627C248.675 139.115 219.212 143.811 219.212 143.811C234.68 136.353 260.368 140.772 262.21 141.325C262.302 141.325 262.394 141.325 262.486 141.233C268.194 136.629 285.412 128.435 285.412 128.435C285.412 128.435 295.54 122.726 300.143 114.624C301.985 111.402 302.537 98.6036 302.813 94.6445C302.813 94.2762 303.274 94.1841 303.458 94.4603C303.55 94.6445 303.642 94.7366 303.642 94.9207Z"
    fill="url(#paint31_linear)"
  />
  <path
    d="M328.685 215.535C329.146 215.995 310.731 231.647 306.128 234.409C306.128 234.409 306.128 230.174 304.747 222.624C304.563 221.795 304.378 220.875 304.194 219.954C303.734 217.744 303.182 215.166 302.445 212.496C302.445 212.588 302.445 212.68 302.537 212.864C302.537 212.957 302.537 213.141 302.629 213.233C302.629 213.325 302.629 213.325 302.629 213.417C302.629 213.601 302.721 213.877 302.721 214.153C302.721 214.43 302.813 214.706 302.813 214.982C303.182 217.376 303.642 221.151 304.01 224.834C304.01 225.11 304.01 225.294 304.102 225.57C304.102 225.847 304.102 226.031 304.194 226.307C304.286 227.043 304.286 227.688 304.378 228.332V228.425C304.471 230.45 304.471 232.384 304.286 233.765C304.194 234.317 304.102 234.685 304.01 235.054C303.826 235.606 303.642 236.066 303.366 236.251C300.604 238.092 298.762 239.013 298.762 239.013C298.762 239.013 300.604 229.806 298.762 223.361C298.762 223.361 297.841 239.933 295.079 241.775C294.159 242.327 292.409 243.248 289.923 244.261C288.726 244.721 287.345 245.274 285.688 245.826C284.031 246.378 282.097 247.023 279.98 247.575C276.941 248.404 273.442 249.233 269.483 249.969C267.642 250.338 265.708 250.706 263.775 250.982C246.281 253.744 240.757 263.872 240.757 263.872C240.757 263.872 248.123 259.269 251.806 260.189C251.806 260.189 240.757 271.238 240.757 274C240.757 275.841 248.123 272.159 251.806 274C251.806 274 214.056 292.414 210.373 297.018C210.373 297.018 205.77 287.811 202.087 285.969C198.404 284.128 178.148 279.524 177.228 273.079C176.307 266.634 177.228 264.793 177.228 264.793L205.77 262.951L207.519 237.355L208.072 228.885C192.327 234.87 162.036 222.072 162.036 222.072C145.463 230.358 146.384 206.419 146.384 206.419C146.384 206.419 150.066 193.529 180.45 197.212C210.834 200.895 208.992 222.072 208.992 222.072C208.992 222.072 209.269 222.072 209.729 221.98C214.332 219.862 230.905 211.852 237.995 203.197C237.995 203.197 235.233 203.197 233.391 204.118C231.55 205.038 237.995 188.465 255.488 188.465C272.982 188.465 275.744 205.038 275.744 209.642C275.744 214.246 274.824 222.532 274.824 222.532C274.824 222.532 282.281 217.744 288.082 212.312C289.463 211.023 290.844 209.642 291.949 208.353C292.317 207.985 292.593 207.616 292.87 207.248C293.422 206.511 293.79 205.775 294.159 205.13C294.159 205.13 296.921 209.734 296 218.02C296 218.02 299.683 212.496 298.762 203.289C298.762 203.289 302.445 203.289 304.286 207.893C304.286 207.893 304.286 199.606 301.985 196.384C302.721 196.752 325.923 215.535 328.685 215.535Z"
    fill="url(#paint32_linear)"
  />
  <path
    d="M291.949 208.169C290.384 226.307 286.701 241.683 285.688 245.734C284.031 246.286 282.097 246.931 279.979 247.483C284.491 234.593 287.714 214.982 288.174 212.128C289.555 210.839 290.844 209.55 291.949 208.169Z"
    fill="white"
  />
  <path
    d="M328.685 215.535C329.146 215.995 310.731 231.647 306.128 234.409C306.128 234.409 306.588 230.266 302.905 216.455C303.089 217.376 306.036 234.501 303.366 236.251C300.604 238.092 298.762 239.013 298.762 239.013C298.762 239.013 300.604 229.806 298.762 223.361C298.762 223.361 297.841 239.933 295.079 241.775C294.159 242.327 292.409 243.248 289.923 244.261C293.606 233.949 293.146 213.049 292.87 207.064C293.422 206.327 293.79 205.591 294.159 204.946C294.159 204.946 296.921 209.55 296 217.836C296 217.836 299.683 212.312 298.762 203.105C298.762 203.105 302.445 203.105 304.286 207.708C304.286 207.708 304.286 199.422 301.985 196.199C302.721 196.752 325.923 215.535 328.685 215.535Z"
    fill="white"
  />
  <path
    d="M274.363 248.68L269.483 249.969C267.642 250.338 265.708 250.706 263.775 250.982C246.281 253.744 240.757 263.872 240.757 263.872C240.757 263.872 248.123 259.269 251.806 260.189C251.806 260.189 240.757 271.238 240.757 274C240.757 275.841 248.123 272.159 251.806 274C251.806 274 214.056 292.414 210.373 297.018C210.373 297.018 209.453 295.084 207.98 292.783L201.627 286.43C201.627 286.43 218.199 267.095 216.358 264.332C214.517 261.57 218.199 255.125 216.358 253.284C214.517 251.442 205.77 262.951 205.77 262.951L207.519 237.355C210.65 235.238 213.136 233.488 213.136 233.488L232.471 211.391L240.297 208.169C240.297 208.169 231.09 233.949 240.297 240.394C242.138 241.315 256.87 234.87 262.394 231.187C262.394 231.187 249.964 244.537 250.885 247.299C251.806 250.061 274.363 248.68 274.363 248.68Z"
    fill="#D1C8B7"
  />
  <path
    d="M177.043 267.279C177.043 267.279 186.895 272.619 196.102 271.698C205.309 270.777 207.335 272.066 209.084 275.565C209.913 277.13 204.481 277.13 203.468 279.064C202.271 281.366 205.309 285.509 205.309 285.509L188.737 280.905L176.767 274.46L177.043 267.279Z"
    fill="#D1C8B7"
  />
  <path
    d="M170.322 264.332C170.322 264.332 170.322 269.857 170.322 271.698C170.322 273.54 169.401 278.143 184.133 281.826C198.864 285.509 199.785 285.509 205.309 290.113C208.072 291.033 208.992 290.113 208.072 287.35C207.151 284.588 205.309 279.985 207.151 279.985C208.992 279.985 210.834 282.747 211.754 282.747C212.675 282.747 215.437 272.619 223.724 263.412C232.01 254.205 238.455 247.76 240.297 246.839C242.138 245.918 236.153 246.378 228.788 253.744C221.422 261.11 212.215 271.238 210.373 275.841C210.373 275.841 202.087 274 201.166 275.841C200.245 277.683 203.928 282.286 201.166 282.286C198.864 282.286 191.407 278.419 188.46 275.565C188.276 275.381 187.908 275.565 188 275.841C188.368 276.762 188.736 277.775 189.197 278.604C189.197 278.604 179.99 276.762 178.148 273.079C176.307 269.396 177.228 265.714 177.228 265.714L170.322 264.332Z"
    fill="#B0552A"
  />
  <path
    d="M244.9 196.199C244.9 196.199 255.028 190.675 261.473 196.199C267.918 201.724 264.604 209.182 261.473 208.169C255.949 206.327 257.79 201.724 252.266 200.803C246.742 199.882 244.9 196.199 244.9 196.199Z"
    fill="#D1C8B7"
  />
  <path
    d="M171.243 258.808C171.243 258.808 165.719 261.11 165.719 262.031C165.719 262.951 169.401 264.332 184.133 266.634C204.297 269.765 206.23 267.095 207.151 264.332C208.716 259.637 213.596 247.299 219.12 239.933C224.644 232.568 236.153 209.089 247.202 200.803C247.202 200.803 254.292 200.803 258.527 203.197C258.803 203.381 259.171 203.197 259.171 202.829C259.171 200.987 258.711 195.371 253.647 194.358C245.637 192.793 239.56 198.501 237.719 200.251C237.534 200.435 237.627 200.803 237.903 200.803H243.059C243.059 200.803 216.358 230.266 187.355 235.79H183.673C183.673 235.79 183.212 249.141 171.243 258.808Z"
    fill="url(#paint33_linear)"
  />
  <path
    d="M201.627 147.402C201.627 147.402 189.657 153.847 184.133 154.767C178.609 155.688 174.926 166.737 174.926 173.182C174.926 177.877 174.926 184.506 174.926 186.992C174.926 187.913 165.719 186.992 165.719 186.992L173.084 189.754L180.45 187.913C180.45 187.913 178.148 164.435 184.593 159.831C187.355 157.99 193.8 158.91 198.404 153.386C199.325 151.545 201.627 147.402 201.627 147.402Z"
    fill="#B0552A"
  />
  <path
    d="M192.88 163.514C193.8 163.514 183.304 153.294 180.45 153.847C178.148 154.307 176.123 166.644 175.846 169.499C175.386 173.642 179.99 159.831 184.593 159.831C189.197 159.831 191.959 163.514 192.88 163.514Z"
    fill="#0E212F"
  />
  <path
    d="M193.34 163.974C193.34 163.974 187.816 158.45 185.054 159.371C182.292 160.292 180.45 165.816 179.529 172.261C178.609 178.706 178.609 186.992 178.609 186.992L192.88 185.611L193.34 163.974Z"
    fill="white"
  />
  <path
    d="M193.34 167.657C193.34 167.657 185.054 166.737 182.292 173.182C180.45 178.706 181.371 186.992 181.371 186.992L192.88 186.532L193.34 167.657Z"
    fill="#000503"
  />
  <path
    d="M193.34 171.34V186.072L183.212 186.992C183.212 186.992 182.292 176.864 184.133 174.102C185.974 171.34 188.737 170.419 193.34 171.34Z"
    fill="#E3EBE8"
  />
  <path
    d="M193.34 179.627V186.992H185.054V180.731C185.514 181.192 186.159 181.468 186.895 181.468C186.987 181.468 186.987 181.468 187.079 181.468C188.184 181.376 189.105 180.639 189.473 179.627H193.34Z"
    fill="url(#paint34_linear)"
  />
  <path
    d="M193.34 180.087C193.34 182.389 191.867 184.23 190.118 184.23C188.737 184.23 187.54 183.125 187.079 181.468C188.184 181.376 189.105 180.639 189.473 179.627C189.565 179.35 189.657 178.982 189.657 178.706C189.657 177.785 189.197 176.957 188.552 176.496C189.013 176.128 189.565 175.944 190.118 175.944C191.775 175.944 193.156 177.601 193.34 179.627C193.34 179.811 193.34 179.903 193.34 180.087Z"
    fill="#0B1A1B"
  />
  <path
    d="M225.105 223.361L203.928 257.427L181.831 259.269L188.276 253.744L189.197 242.696L193.8 231.647L210.834 229.345L228.788 217.836L225.105 223.361Z"
    fill="url(#paint35_linear)"
  />
  <path
    d="M220.962 230.266L216.358 237.632C211.754 240.394 205.033 255.402 205.033 255.402L194.721 262.951C194.721 262.951 190.486 255.217 192.88 247.299C196.01 237.171 206.138 235.974 209.084 235.79C207.795 238.644 203.652 242.972 202.731 243.893C203.744 242.88 209.176 237.632 215.529 232.936L220.962 230.266Z"
    fill="#EE6A85"
  />
  <path d="M187.356 243.616L177.228 252.824L178.148 255.586L189.657 244.997L187.356 243.616Z" fill="#BA6034" />
  <path
    d="M183.212 258.808L192.88 258.348C192.88 258.348 194.261 248.68 196.102 248.68C197.575 248.68 198.312 249.969 201.627 253.284C202.455 254.02 203.836 254.573 204.849 255.586L204.389 256.967L201.166 262.951L186.435 262.031L183.212 258.808Z"
    fill="#BA6034"
  />
  <path
    d="M204.389 256.967C204.389 256.967 199.785 253.928 197.575 250.614C197.299 250.153 196.655 250.246 196.378 250.706C195.458 252.547 193.8 255.678 195.182 259.729L182.292 258.808L187.263 254.481C188.184 253.652 188.829 252.547 188.921 251.35L189.657 244.997L177.688 256.046C177.688 256.046 177.688 251.442 175.847 250.522C174.926 250.522 172.164 253.284 171.243 256.967C171.151 257.427 171.243 258.164 171.243 258.808C171.243 259.361 171.703 259.913 172.164 260.097C174.65 261.018 181.279 262.767 195.182 263.412C200.706 263.412 201.627 263.412 202.547 261.57C203.468 259.729 204.389 256.967 204.389 256.967Z"
    fill="#FDFFFF"
  />
  <path
    d="M178.609 258.808C178.609 258.808 177.688 250.522 175.847 250.522C174.005 250.522 171.703 252.824 171.243 258.808"
    stroke="#C46436"
    stroke-linecap="round"
    stroke-linejoin="round"
  />
  <path
    d="M140.859 200.803C140.859 200.803 139.018 221.98 151.908 225.662C154.67 226.583 157.432 226.583 157.432 226.583C157.432 226.583 163.877 236.251 171.519 239.749C172.256 240.118 173.084 239.565 173.084 238.737V233.949C173.084 233.949 175.847 234.87 177.688 233.028C177.688 233.028 181.371 239.473 187.816 244.077C190.67 246.102 193.985 246.655 195.366 246.747C195.734 246.747 196.102 246.471 196.102 246.102V233.028C196.102 233.028 210.834 233.949 225.565 221.059C234.772 213.693 235.693 210.931 235.693 210.931L236.614 208.169C236.614 208.169 209.913 231.187 197.944 230.266C184.962 229.253 166.639 222.9 162.957 218.297C162.957 218.297 160.194 221.98 157.432 222.9C155.591 223.821 144.542 219.217 146.384 206.327C146.384 206.327 141.78 204.486 140.859 200.803Z"
    fill="url(#paint36_linear)"
  />
  <circle cx="150.066" cy="213.693" r="0.920716" fill="#000907" />
  <circle cx="177.228" cy="207.708" r="1.38107" fill="#000907" />
  <circle cx="185.054" cy="211.852" r="0.920716" fill="#000907" />
  <path d="M140.859 206.327L116 203.565" stroke="#00070C" stroke-width="1.4" stroke-linecap="round" />
  <path d="M140.399 212.312L133.954 214.153" stroke="#00070C" stroke-width="1.3" stroke-linecap="round" />
  <path d="M203.928 199.422L184.593 205.867" stroke="#00070C" stroke-width="1.4" stroke-linecap="round" />
  <path d="M229.708 206.788L187.355 208.629" stroke="#00070C" stroke-width="1.5" stroke-linecap="round" />
  <path
    d="M179.345 196.476C179.253 197.212 178.885 198.041 178.056 198.87C177.044 200.066 175.294 201.448 172.624 203.013C163.417 208.537 161.575 215.903 161.575 215.903C159.826 215.074 158.169 214.246 156.696 213.417C156.512 213.325 156.419 213.233 156.235 213.141C155.959 212.957 155.683 212.864 155.407 212.68C139.939 204.026 137.821 196.844 138.65 191.964C139.478 186.992 146.292 186.532 156.419 186.44C160.102 186.44 163.877 186.808 167.468 187.729C170.783 188.558 174.097 190.215 176.399 191.964C178.148 193.437 179.529 194.818 179.345 196.476Z"
    fill="url(#paint37_linear)"
    stroke="#1B1C1C"
  />
  <path
    d="M155.591 195.463C150.251 193.99 143.806 194.266 141.78 195.279L142.517 192.701C143.898 192.056 145.831 191.688 148.225 191.688C151.171 191.596 153.841 193.069 155.591 195.463Z"
    fill="white"
  />
  <path
    opacity="0.3"
    d="M178.425 196.476C178.332 197.212 177.964 198.041 177.136 198.87C175.57 199.698 174.005 200.711 170.967 200.711C168.757 200.711 166.271 200.159 163.601 198.685C160.839 197.12 158.077 196.107 155.499 195.371C154.302 193.621 150.251 192.24 149.054 191.504C153.105 192.056 159.182 193.345 164.89 196.292C172.348 200.067 178.24 195.371 178.517 195.187L178.425 196.476Z"
    fill="white"
  />
  <path
    d="M143.161 196.66C144.082 201.908 150.066 209.642 155.315 212.772C139.846 204.118 137.729 196.936 138.557 192.056C139.386 187.084 146.199 186.624 156.327 186.532C160.01 186.532 163.785 186.9 167.376 187.821C170.69 188.65 174.005 190.307 176.307 192.056C176.307 192.056 165.258 190.215 156.972 190.215C148.685 190.215 142.24 191.136 143.161 196.66Z"
    fill="#1B1C1C"
  />
  <path
    d="M163.417 221.519L159.274 224.742C159.274 224.742 162.957 233.949 172.164 237.632C172.164 237.632 170.783 232.568 169.862 230.726L169.402 229.345L173.084 232.107L177.688 230.266C177.688 230.266 187.816 244.077 194.261 244.077L192.88 232.568C192.88 232.568 173.545 227.964 163.417 221.519Z"
    fill="white"
  />
  <path d="M193.34 186.992L171.243 188.834L176.767 186.992L193.34 186.072V186.992Z" fill="#B0552A" />
  <path
    d="M252.266 179.627L247.662 181.192L242.967 182.849L239.376 185.151L209.913 190.675C209.913 190.675 203.468 156.609 219.12 150.164C229.432 145.928 239.008 154.215 244.808 161.857C247.847 165.816 249.78 169.591 250.425 171.34C251.806 175.575 252.174 178.153 252.266 179.166C252.266 179.442 252.266 179.627 252.266 179.627Z"
    fill="#FBFFFE"
  />
  <path
    d="M252.266 179.166L247.662 181.284L243.059 183.402L242.967 182.941L238.455 167.657H214.517C214.517 167.657 223.724 152.926 237.535 157.529C240.481 158.542 242.875 160.015 244.808 161.857C247.847 165.816 249.78 169.591 250.425 171.34C251.806 175.575 252.174 178.153 252.266 179.166Z"
    fill="#DBEEEE"
  />
  <path
    d="M208.072 175.023C208.072 175.023 207.151 151.084 220.041 148.322C230.169 145.56 241.217 156.609 245.821 163.054C245.821 163.054 232.471 150.624 222.343 152.465C212.215 154.307 208.072 175.023 208.072 175.023Z"
    fill="#0F1E20"
  />
  <path
    d="M217.279 187.913C217.279 187.913 212.675 175.944 216.358 170.419C216.358 170.419 215.437 170.419 214.517 171.34C213.596 172.261 214.517 164.895 221.882 163.054C229.248 161.212 238.455 163.974 240.297 166.737C242.138 169.499 244.164 176.864 243.98 180.547C243.703 185.335 228.696 186.808 228.788 186.532L217.279 187.913Z"
    fill="#1C262B"
  />
  <path
    d="M242.138 183.309C242.138 183.309 243.059 174.102 237.535 168.578C232.01 163.054 222.803 165.816 220.962 167.657C219.12 169.499 216.358 173.182 217.279 180.547C218.2 187.913 219.12 187.913 219.12 187.913L234.772 185.151L242.138 183.309Z"
    fill="#FCFDFF"
  />
  <path
    d="M241.217 184.23L224.921 187.361C224.829 187.269 224.737 187.084 224.645 186.992C224 186.164 223.54 185.243 223.263 184.322C224.276 182.573 226.394 180.271 230.629 179.166C236.798 177.601 240.389 182.757 241.217 184.23Z"
    fill="url(#paint38_linear)"
  />
  <path
    d="M241.217 181.468C241.217 181.836 241.217 182.297 241.125 182.665C241.125 182.849 241.125 183.862 241.033 184.046L240.481 183.309C239.652 181.836 236.706 177.693 230.629 179.166C226.394 180.271 224.276 182.573 223.263 184.322C222.987 183.401 222.803 182.481 222.803 181.468C222.803 176.404 226.946 172.261 232.01 172.261C237.074 172.261 241.217 176.404 241.217 181.468Z"
    fill="#42B955"
  />
  <ellipse cx="231.09" cy="177.969" rx="4.14322" ry="5.70844" fill="#042033" />
  <circle cx="226.946" cy="174.563" r="4.14322" fill="#FCFDFF" />
  <path
    d="M262.394 181.468C262.394 181.468 247.662 179.627 235.693 188.834C235.233 188.189 246.742 175.023 262.394 181.468Z"
    fill="#B0552A"
  />
  <path
    d="M241.31 184.783C241.31 184.783 218.2 188.834 218.2 190.675L221.882 191.596C221.882 191.596 209.913 192.517 209.913 190.675C209.913 188.834 234.957 184.414 241.31 184.783Z"
    fill="#B0552A"
  />
  <g filter="url(#filter0_d)">
    <path
      fill-rule="evenodd"
      clip-rule="evenodd"
      d="M147.718 152.687C147.718 152.687 156.72 114.303 184.882 110.315C184.698 111.438 176.578 117.482 163.637 131.826C158.729 137.266 147.718 152.687 147.718 152.687Z"
      fill="black"
      fill-opacity="0.01"
    />
  </g>
  <defs>
    <filter
      id="filter0_d"
      x="143.709"
      y="101.86"
      width="45.1744"
      height="63.2803"
      filterUnits="userSpaceOnUse"
      color-interpolation-filters="sRGB"
    >
      <feFlood flood-opacity="0" result="BackgroundImageFix" />
      <feColorMatrix in="SourceAlpha" type="matrix" values="0 0 0 0 0 0 0 0 0 0 0 0 0 0 0 0 0 0 127 0" />
      <feOffset dy="2" />
      <feGaussianBlur stdDeviation="2" />
      <feColorMatrix type="matrix" values="0 0 0 0 1 0 0 0 0 1 0 0 0 0 1 0 0 0 1 0" />
      <feBlend mode="normal" in2="BackgroundImageFix" result="effect1_dropShadow" />
      <feBlend mode="normal" in="SourceGraphic" in2="effect1_dropShadow" result="shape" />
    </filter>
    <radialGradient
      id="paint0_radial"
      cx="0"
      cy="0"
      r="1"
      gradientUnits="userSpaceOnUse"
      gradientTransform="translate(322.5 325.013) rotate(90) scale(299.75)"
    >
      <stop stop-color="#9954D6" stop-opacity="0.50896" />
      <stop offset="1" stop-color="#141254" stop-opacity="0.01" />
    </radialGradient>
    <linearGradient
      id="paint1_linear"
      x1="375.353"
      y1="476.507"
      x2="319.668"
      y2="524.805"
      gradientUnits="userSpaceOnUse"
    >
      <stop stop-color="white" />
      <stop offset="1" stop-color="#560A0D" />
    </linearGradient>
    <linearGradient
      id="paint2_linear"
      x1="379.295"
      y1="456.224"
      x2="309.89"
      y2="483.513"
      gradientUnits="userSpaceOnUse"
    >
      <stop stop-color="white" />
      <stop offset="1" stop-color="#560A0D" />
    </linearGradient>
    <linearGradient id="paint3_linear" x1="223.46" y1="468.69" x2="253.253" y2="468.69" gradientUnits="userSpaceOnUse">
      <stop offset="0.1386" stop-color="#333333" />
      <stop offset="0.9988" stop-color="#1C1C1C" />
    </linearGradient>
    <linearGradient
      id="paint4_linear"
      x1="177.769"
      y1="468.997"
      x2="186.241"
      y2="468.997"
      gradientUnits="userSpaceOnUse"
    >
      <stop stop-color="#1F1F1F" />
      <stop offset="1" stop-color="#323232" />
    </linearGradient>
    <linearGradient
      id="paint5_linear"
      x1="145.925"
      y1="602.911"
      x2="188.095"
      y2="602.911"
      gradientUnits="userSpaceOnUse"
    >
      <stop stop-color="#8F8E8F" />
      <stop offset="1" stop-color="#464646" />
    </linearGradient>
    <linearGradient
      id="paint6_linear"
      x1="109.677"
      y1="642.931"
      x2="213.993"
      y2="642.931"
      gradientUnits="userSpaceOnUse"
    >
      <stop offset="0.4331" stop-color="#181818" />
      <stop offset="0.5892" stop-color="#2D2D2D" />
      <stop offset="1" stop-color="#333333" />
    </linearGradient>
    <linearGradient
      id="paint7_linear"
      x1="165.688"
      y1="615.695"
      x2="189.204"
      y2="644.388"
      gradientUnits="userSpaceOnUse"
    >
      <stop stop-color="#333333" />
      <stop offset="1" stop-color="#515150" />
    </linearGradient>
    <linearGradient
      id="paint8_linear"
      x1="110.881"
      y1="634.187"
      x2="184.704"
      y2="634.187"
      gradientUnits="userSpaceOnUse"
    >
      <stop stop-color="#D6A801" />
      <stop offset="1" stop-color="#CCA001" />
    </linearGradient>
    <linearGradient
      id="paint9_linear"
      x1="118.744"
      y1="636.394"
      x2="180.404"
      y2="619.455"
      gradientUnits="userSpaceOnUse"
    >
      <stop stop-color="#FCC90D" />
      <stop offset="1" stop-color="#CCA001" />
    </linearGradient>
    <linearGradient
      id="paint10_linear"
      x1="143.124"
      y1="635.496"
      x2="142.908"
      y2="622.545"
      gradientUnits="userSpaceOnUse"
    >
      <stop offset="0.4703" stop-color="#181818" />
      <stop offset="1" stop-color="#404141" />
    </linearGradient>
    <linearGradient
      id="paint11_linear"
      x1="126.166"
      y1="594.53"
      x2="126.232"
      y2="608.275"
      gradientUnits="userSpaceOnUse"
    >
      <stop offset="0.00112141" stop-color="#FFEAB3" />
      <stop offset="1" stop-color="#FFCC00" stop-opacity="0.3" />
    </linearGradient>
    <linearGradient
      id="paint12_linear"
      x1="203.092"
      y1="547.584"
      x2="178.895"
      y2="551.321"
      gradientUnits="userSpaceOnUse"
    >
      <stop stop-color="#333333" />
      <stop offset="0.9988" stop-color="#040404" />
    </linearGradient>
    <linearGradient
      id="paint13_linear"
      x1="157.801"
      y1="570.006"
      x2="184.678"
      y2="588.948"
      gradientUnits="userSpaceOnUse"
    >
      <stop offset="0.1386" stop-color="#333333" />
      <stop offset="0.9988" stop-color="#1C1C1C" />
    </linearGradient>
    <linearGradient
      id="paint14_linear"
      x1="146.99"
      y1="580.585"
      x2="160.735"
      y2="580.585"
      gradientUnits="userSpaceOnUse"
    >
      <stop stop-color="#464646" />
      <stop offset="1" stop-color="#1F1F1F" />
    </linearGradient>
    <linearGradient
      id="paint15_linear"
      x1="146.232"
      y1="562.047"
      x2="199.573"
      y2="562.047"
      gradientUnits="userSpaceOnUse"
    >
      <stop stop-color="#D6A800" />
      <stop offset="1" stop-color="#FCC600" />
    </linearGradient>
    <linearGradient
      id="paint16_linear"
      x1="144.234"
      y1="555.356"
      x2="175.506"
      y2="566.932"
      gradientUnits="userSpaceOnUse"
    >
      <stop stop-color="#D6A801" />
      <stop offset="1" stop-color="#E18601" stop-opacity="0.5" />
    </linearGradient>
    <linearGradient
      id="paint17_linear"
      x1="152.102"
      y1="533.816"
      x2="150.099"
      y2="549.757"
      gradientUnits="userSpaceOnUse"
    >
      <stop stop-color="white" />
      <stop offset="1" stop-color="#DB922C" stop-opacity="0.2" />
    </linearGradient>
    <linearGradient
      id="paint18_linear"
      x1="297.553"
      y1="632.216"
      x2="326.424"
      y2="590.03"
      gradientUnits="userSpaceOnUse"
    >
      <stop stop-color="#515150" />
      <stop offset="1" stop-color="#82817F" />
    </linearGradient>
    <linearGradient
      id="paint19_linear"
      x1="277.695"
      y1="639.048"
      x2="355.308"
      y2="639.048"
      gradientUnits="userSpaceOnUse"
    >
      <stop stop-color="#D6A801" />
      <stop offset="1" stop-color="#CCA001" />
    </linearGradient>
    <linearGradient
      id="paint20_linear"
      x1="309.236"
      y1="651.621"
      x2="345.523"
      y2="601.871"
      gradientUnits="userSpaceOnUse"
    >
      <stop offset="0.00121486" stop-color="#D6A801" />
      <stop offset="1" stop-color="#FCC90D" />
    </linearGradient>
    <linearGradient
      id="paint21_linear"
      x1="340.45"
      y1="619.757"
      x2="343.939"
      y2="590.203"
      gradientUnits="userSpaceOnUse"
    >
      <stop stop-color="#FFCC00" stop-opacity="0.3" />
      <stop offset="1" stop-color="#FFEAB3" />
    </linearGradient>
    <linearGradient
      id="paint22_linear"
      x1="366.331"
      y1="659.357"
      x2="365.684"
      y2="628.339"
      gradientUnits="userSpaceOnUse"
    >
      <stop offset="0.7992" stop-color="#181818" />
      <stop offset="1" stop-color="#404141" />
    </linearGradient>
    <linearGradient
      id="paint23_linear"
      x1="317.26"
      y1="617.006"
      x2="332.056"
      y2="541.347"
      gradientUnits="userSpaceOnUse"
    >
      <stop stop-color="#464646" />
      <stop offset="0.761" stop-color="#040404" />
    </linearGradient>
    <linearGradient
      id="paint24_linear"
      x1="296.569"
      y1="593.872"
      x2="306.347"
      y2="551.591"
      gradientUnits="userSpaceOnUse"
    >
      <stop stop-color="#1F1F1F" />
      <stop offset="1" stop-color="#323232" />
    </linearGradient>
    <linearGradient
      id="paint25_linear"
      x1="297.729"
      y1="576.218"
      x2="313.557"
      y2="571.531"
      gradientUnits="userSpaceOnUse"
    >
      <stop stop-color="#383838" />
      <stop offset="1" stop-color="#565756" />
    </linearGradient>
    <linearGradient
      id="paint26_linear"
      x1="277.192"
      y1="512.264"
      x2="245.794"
      y2="540.985"
      gradientUnits="userSpaceOnUse"
    >
      <stop stop-color="#D6A800" />
      <stop offset="1" stop-color="#FCC600" />
    </linearGradient>
    <linearGradient
      id="paint27_linear"
      x1="269.79"
      y1="514.183"
      x2="250.587"
      y2="543.261"
      gradientUnits="userSpaceOnUse"
    >
      <stop stop-color="#D6A801" />
      <stop offset="1" stop-color="#E18601" stop-opacity="0.4" />
    </linearGradient>
    <linearGradient
      id="paint28_linear"
      x1="270.33"
      y1="525.552"
      x2="280.225"
      y2="539.254"
      gradientUnits="userSpaceOnUse"
    >
      <stop stop-color="white" />
      <stop offset="1" stop-color="#DB922C" stop-opacity="0.2" />
    </linearGradient>
    <linearGradient
      id="paint29_linear"
      x1="259.09"
      y1="124.759"
      x2="268.041"
      y2="106.083"
      gradientUnits="userSpaceOnUse"
    >
      <stop stop-color="#4D3B2B" />
      <stop offset="1" stop-color="#433A2C" />
    </linearGradient>
    <linearGradient
      id="paint30_linear"
      x1="257.971"
      y1="181.146"
      x2="310.085"
      y2="181.146"
      gradientUnits="userSpaceOnUse"
    >
      <stop stop-color="#AF430F" />
      <stop offset="1" stop-color="#CA764D" />
    </linearGradient>
    <linearGradient
      id="paint31_linear"
      x1="219.277"
      y1="147.55"
      x2="288.976"
      y2="147.55"
      gradientUnits="userSpaceOnUse"
    >
      <stop stop-color="#C66537" />
      <stop offset="0.648094" stop-color="#7A522D" />
      <stop offset="1" stop-color="#433A2C" />
    </linearGradient>
    <linearGradient
      id="paint32_linear"
      x1="326.034"
      y1="293.612"
      x2="324.679"
      y2="191.917"
      gradientUnits="userSpaceOnUse"
    >
      <stop stop-color="#F7FAF5" />
      <stop offset="0.380833" stop-color="#E7E0CF" />
      <stop offset="1" stop-color="#F7FAF5" />
    </linearGradient>
    <linearGradient
      id="paint33_linear"
      x1="233.772"
      y1="240.438"
      x2="247.367"
      y2="204.222"
      gradientUnits="userSpaceOnUse"
    >
      <stop stop-color="#011414" />
      <stop offset="1" stop-color="#6F4029" />
    </linearGradient>
    <linearGradient
      id="paint34_linear"
      x1="185.066"
      y1="186.069"
      x2="191.572"
      y2="186.343"
      gradientUnits="userSpaceOnUse"
    >
      <stop stop-color="#84D13F" />
      <stop offset="1" stop-color="#B5F7CC" />
    </linearGradient>
    <linearGradient
      id="paint35_linear"
      x1="217.287"
      y1="276.671"
      x2="242.39"
      y2="222.88"
      gradientUnits="userSpaceOnUse"
    >
      <stop stop-color="#7A3549" />
      <stop offset="0.9623" stop-color="#B05872" />
    </linearGradient>
    <linearGradient
      id="paint36_linear"
      x1="221.099"
      y1="245.502"
      x2="228.429"
      y2="192.286"
      gradientUnits="userSpaceOnUse"
    >
      <stop stop-color="#D86C3A" />
      <stop offset="1" stop-color="#513424" />
    </linearGradient>
    <linearGradient
      id="paint37_linear"
      x1="166.212"
      y1="214.612"
      x2="174.199"
      y2="188.981"
      gradientUnits="userSpaceOnUse"
    >
      <stop stop-color="#795032" />
      <stop offset="1" stop-color="#45362C" />
    </linearGradient>
    <linearGradient
      id="paint38_linear"
      x1="222.658"
      y1="187.177"
      x2="240.306"
      y2="189.805"
      gradientUnits="userSpaceOnUse"
    >
      <stop stop-color="#81CF35" />
      <stop offset="1" stop-color="#C0FFEB" />
    </linearGradient>
  </defs>
</svg>
